<svg width="80" height="80" viewBox="0 0 80 80" fill="none" xmlns="http://www.w3.org/2000/svg">
<rect width="80" height="80" fill="white"/>
<path fill-rule="evenodd" clip-rule="evenodd" d="M75.8736 14.5664C76.0322 17.8012 76.25 21.1061 76.6395 24.3816C77.6531 32.9046 77.0353 39.089 76.0149 49.3047L76.0149 49.3049C75.8559 50.8962 75.6872 52.5853 75.5134 54.3963C72.9415 52.8829 70.9807 52.9474 67.5619 53.838C67.0927 56.3331 66.6943 57.9034 66.0947 59.9015C67.4926 51.6623 66.4997 46.0697 64.9864 37.5454L64.9863 37.5452L64.9861 37.544C64.86 36.8337 64.7303 36.103 64.598 35.3487L64.5793 34.7079V34.7079V34.7078C64.4859 31.5057 64.4051 28.7377 64.2716 26.1479C65.4563 25.8175 66.4059 25.2827 67.279 24.7164C69.8345 23.5424 71.0562 22.6435 73.1785 20.9734C72.7212 21.26 72.3059 21.5265 71.9144 21.7776C70.2994 22.8139 69.0884 23.5908 66.9961 24.4544C66.8372 24.4588 66.6873 24.4622 66.5444 24.4654C65.6549 24.4856 65.0359 24.4996 64.1906 24.7107C63.981 21.3014 63.6534 18.1283 63.0479 14.5664H75.8736ZM60.9381 14.5664C58.7285 24.0636 58.5091 30.9009 59.143 42.1235C54.6172 43.1716 47.5493 43.4772 39.2625 43.5084C38.6391 43.5459 38.0087 43.5705 37.3495 43.5807C38.5376 34.8154 38.0946 26.8168 37.6037 17.9543L37.5471 16.9298C37.5041 16.1496 37.4612 15.3622 37.4194 14.5664H60.9381ZM36.6683 14.5664C36.7108 15.3765 36.7545 16.1777 36.7982 16.9711L36.8535 17.9718C37.3473 26.8885 37.7882 34.8519 36.5919 43.5861C32.787 43.5812 27.8429 43.1113 18.0484 41.899C18.3826 37.9932 19.089 34.7959 19.7456 31.8237C20.9611 26.3217 22.0062 21.5911 20.2045 14.5664H36.6683ZM18.3796 14.5664C18.1365 15.5775 17.8807 16.5593 17.6166 17.5732L17.6166 17.5732C16.9045 20.307 16.1317 23.2739 15.3814 27.6755C15.1467 35.6952 14.3278 39.5499 13.339 44.2047L13.3389 44.2049L13.3388 44.2054L13.3387 44.2058C12.7954 46.7634 12.2007 49.5628 11.6235 53.4274C11.6839 53.7366 11.7463 54.0355 11.8107 54.3263C9.12954 53.0775 7.20422 53.3011 4.20264 55.0346L4.61176 62.5796C4.35727 62.7651 4.15749 62.9705 4.02701 63.1967L3.09763 54.7001C1.65516 43.9373 2.78873 34.2165 4.31114 21.1613L4.35027 20.8258C4.89062 19.0044 5.32504 16.8718 5.70737 14.5664H18.3796ZM64.302 24.7154L64.1909 24.7163C64.2191 25.1753 64.2452 25.6385 64.2695 26.1076L64.6121 25.8768L65.0566 25.5773L65.6627 24.9036C65.215 24.7072 64.8186 24.7107 64.302 24.7154ZM13.8724 61.1659C13.9302 61.3406 13.9888 61.5183 14.0481 61.6995C14.0171 61.6739 13.9813 61.6492 13.9409 61.6254C13.9169 61.4689 13.894 61.316 13.8724 61.1659ZM74.979 62.6004C73.3092 61.4699 68.5021 60.679 65.7777 61.611C65.7618 61.6902 65.7458 61.7696 65.7295 61.8492C69.4263 60.994 71.4699 60.9207 74.9424 63.1967L74.979 62.6004ZM11.6971 48.7498C11.4385 49.169 7.73712 52.4244 6.52489 52.4554L4.18125 53.1291L7.57549 52.4554L10.8889 51.8191L8.58569 52.0437L10.3636 50.3967L11.4546 49.461L11.6971 48.7498ZM73.7224 43.808C72.7043 44.2598 70.8129 45.5917 70.6918 45.9415C72.0578 45.0608 72.6997 44.7289 73.4395 44.6689C74.1691 44.8856 75.0993 45.8065 75.3003 46.0688L75.2569 45.9888C75.0219 45.5549 74.3317 44.2806 73.7224 43.808ZM75.3387 46.1287C75.3452 46.1487 75.3313 46.1253 75.3003 46.0688C75.3218 46.0969 75.335 46.1174 75.3387 46.1287ZM74.8538 29.0606C74.6027 28.9288 73.6824 28.2886 73.7224 28.2372C73.8323 28.0957 69.2685 29.2308 67.1763 29.8092C69.7049 28.7243 71.1917 28.2814 73.9244 27.7131C74.4888 27.691 74.6367 27.9238 74.8942 28.3495C74.6837 28.1634 74.5657 28.0607 74.3285 28.2372C74.3243 28.5647 74.4873 28.7166 74.714 28.9279L74.7141 28.9279C74.7585 28.9693 74.8053 29.0129 74.8538 29.0606ZM9.05154 24.2672C10.2503 25.49 12.7367 28.0552 13.0923 28.5343C13.2651 28.8544 13.5652 29.4408 13.7351 29.8597C13.5832 29.2745 13.3294 28.2207 13.1731 27.5611L9.77888 24.0052L14.5874 22.8075L7.07156 23.7807L9.05154 24.2672ZM13.86 30.2561C13.8715 30.3625 13.8188 30.1822 13.7351 29.8597C13.8035 30.0285 13.8508 30.1701 13.86 30.2561Z" fill="white"/>
<path d="M76.6395 24.3816L76.143 24.4407L76.6395 24.3816ZM75.8736 14.5664V14.0664H76.3497L76.373 14.5419L75.8736 14.5664ZM76.0149 49.3047L75.5173 49.2559L75.5174 49.255L76.0149 49.3047ZM76.0149 49.3049L76.5125 49.3537L76.5124 49.3546L76.0149 49.3049ZM75.5134 54.3963L76.0111 54.444L75.9361 55.2251L75.2598 54.8272L75.5134 54.3963ZM67.5619 53.838L67.0705 53.7456L67.1291 53.434L67.4358 53.3541L67.5619 53.838ZM66.0947 59.9015L66.5736 60.0452L65.6017 59.8178L66.0947 59.9015ZM64.9864 37.5454L65.4784 37.4565L65.4787 37.458L64.9864 37.5454ZM64.9863 37.5452L64.4943 37.634L64.494 37.6327L64.9863 37.5452ZM64.9861 37.544L64.4938 37.6316L64.4938 37.6314L64.9861 37.544ZM64.598 35.3487L64.1056 35.435L64.0993 35.3994L64.0983 35.3633L64.598 35.3487ZM64.5793 34.7079L64.0795 34.7225L64.0793 34.7152V34.7079H64.5793ZM64.5793 34.7078L65.0791 34.6933L65.0793 34.7005V34.7078H64.5793ZM64.2716 26.1479L63.7722 26.1737L63.7516 25.7739L64.1372 25.6663L64.2716 26.1479ZM67.279 24.7164L67.0069 24.2969L67.0373 24.2772L67.0703 24.2621L67.279 24.7164ZM73.1785 20.9734L72.913 20.5498L73.4877 21.3664L73.1785 20.9734ZM71.9144 21.7776L72.1844 22.1985L71.9144 21.7776ZM66.9961 24.4544L67.1869 24.9166L67.1019 24.9517L67.01 24.9542L66.9961 24.4544ZM66.5444 24.4654L66.5557 24.9653L66.5444 24.4654ZM64.1906 24.7107L64.3117 25.1958L63.7284 25.3415L63.6915 24.7414L64.1906 24.7107ZM63.0479 14.5664L62.555 14.6502L62.4558 14.0664H63.0479V14.5664ZM59.143 42.1235L59.6422 42.0953L59.666 42.5157L59.2558 42.6106L59.143 42.1235ZM60.9381 14.5664V14.0664H61.5677L61.425 14.6797L60.9381 14.5664ZM39.2625 43.5084L39.2325 43.0093L39.2465 43.0085L39.2606 43.0085L39.2625 43.5084ZM37.3495 43.5807L37.3573 44.0807L36.776 44.0897L36.8541 43.5136L37.3495 43.5807ZM37.6037 17.9543L37.1045 17.982L37.1045 17.9819L37.6037 17.9543ZM37.5471 16.9298L37.0478 16.9575L37.0478 16.9574L37.5471 16.9298ZM37.4194 14.5664L36.9201 14.5926L36.8924 14.0664H37.4194V14.5664ZM36.6683 14.5664V14.0664H37.1428L37.1676 14.5402L36.6683 14.5664ZM36.7982 16.9711L36.299 16.9987L36.299 16.9986L36.7982 16.9711ZM36.8535 17.9718L36.3543 17.9994V17.9994L36.8535 17.9718ZM36.5919 43.5861L37.0872 43.6539L37.028 44.0866L36.5912 44.0861L36.5919 43.5861ZM18.0484 41.899L17.987 42.3952L17.5092 42.336L17.5503 41.8563L18.0484 41.899ZM19.7456 31.8237L20.2338 31.9315L19.7456 31.8237ZM20.2045 14.5664L19.7201 14.6906L19.56 14.0664H20.2045V14.5664ZM18.3796 14.5664V14.0664H19.0141L18.8658 14.6833L18.3796 14.5664ZM17.6166 17.5732L18.1005 17.6992L18.0963 17.7154L18.091 17.7313L17.6166 17.5732ZM17.6166 17.5732L17.1328 17.4472L17.137 17.431L17.1423 17.4151L17.6166 17.5732ZM15.3814 27.6755L14.8816 27.6609L14.8826 27.6259L14.8885 27.5915L15.3814 27.6755ZM13.339 44.2047L13.8282 44.3087L13.8252 44.3214L13.339 44.2047ZM13.3389 44.2049L12.8502 44.0986L12.8527 44.0882L13.3389 44.2049ZM13.3388 44.2054L13.8274 44.3116L13.8273 44.3122L13.3388 44.2054ZM13.3387 44.2058L12.8496 44.1019L12.8503 44.0989L13.3387 44.2058ZM11.6235 53.4274L11.1328 53.5233L11.1163 53.4388L11.129 53.3536L11.6235 53.4274ZM11.8107 54.3263L12.2989 54.2182L12.5178 55.2072L11.5996 54.7795L11.8107 54.3263ZM4.20264 55.0346L3.70337 55.0616L3.68675 54.7551L3.95258 54.6016L4.20264 55.0346ZM4.61176 62.5796L5.11103 62.5525L5.12573 62.8236L4.90632 62.9836L4.61176 62.5796ZM4.02701 63.1967L4.4601 63.4466L3.69618 64.7706L3.52998 63.2511L4.02701 63.1967ZM3.09763 54.7001L3.59335 54.6336L3.59467 54.6457L3.09763 54.7001ZM4.31114 21.1613L4.80778 21.2192L4.31114 21.1613ZM4.35027 20.8258L3.85363 20.7679L3.85863 20.725L3.87092 20.6836L4.35027 20.8258ZM5.70737 14.5664L5.21411 14.4846L5.28347 14.0664H5.70737V14.5664ZM64.1909 24.7163L63.6918 24.7469L63.6595 24.2207L64.1867 24.2163L64.1909 24.7163ZM64.302 24.7154L64.3065 25.2153L64.3062 25.2153L64.302 24.7154ZM64.2695 26.1076L64.5488 26.5223L63.8159 27.016L63.7701 26.1335L64.2695 26.1076ZM64.6121 25.8768L64.8915 26.2915H64.8915L64.6121 25.8768ZM65.0566 25.5773L65.4283 25.9117L65.3871 25.9576L65.3359 25.992L65.0566 25.5773ZM65.6627 24.9036L65.8636 24.4457L66.4971 24.7237L66.0344 25.238L65.6627 24.9036ZM14.0481 61.6995L14.5233 61.544L15.0603 63.1855L13.7294 62.0848L14.0481 61.6995ZM13.8724 61.1659L13.3775 61.2373L14.347 61.0087L13.8724 61.1659ZM13.9409 61.6254L13.6873 62.0563L13.4828 61.936L13.4467 61.7014L13.9409 61.6254ZM65.7777 61.611L65.2875 61.5127L65.344 61.2309L65.6159 61.1379L65.7777 61.611ZM74.979 62.6004L75.2593 62.1864L75.4955 62.3463L75.4781 62.631L74.979 62.6004ZM65.7295 61.8492L65.8421 62.3364L65.0835 62.5118L65.2396 61.749L65.7295 61.8492ZM74.9424 63.1967L75.4414 63.2273L75.3887 64.087L74.6683 63.6149L74.9424 63.1967ZM6.52489 52.4554L6.38675 51.9749L6.44819 51.9572L6.51209 51.9556L6.52489 52.4554ZM11.6971 48.7498L11.2715 48.4873L12.1703 48.9111L11.6971 48.7498ZM4.18125 53.1291L4.2786 53.6196L4.04311 52.6486L4.18125 53.1291ZM7.57549 52.4554L7.47814 51.965L7.48119 51.9644L7.57549 52.4554ZM10.8889 51.8191L10.8404 51.3214L10.9832 52.3101L10.8889 51.8191ZM8.58569 52.0437L8.63421 52.5413L7.15722 52.6853L8.2459 51.6769L8.58569 52.0437ZM10.3636 50.3967L10.0238 50.0299L10.0308 50.0234L10.0381 50.0172L10.3636 50.3967ZM11.4546 49.461L11.9279 49.6223L11.8838 49.7516L11.7801 49.8405L11.4546 49.461ZM70.6918 45.9415L70.9628 46.3618L69.7456 47.1465L70.2193 45.778L70.6918 45.9415ZM73.7224 43.808L73.5196 43.351L73.7927 43.2298L74.0288 43.4129L73.7224 43.808ZM73.4395 44.6689L73.3991 44.1706L73.4923 44.163L73.5819 44.1896L73.4395 44.6689ZM75.2569 45.9888L74.8175 46.2275L74.8172 46.2269L75.2569 45.9888ZM75.3387 46.1287L74.8631 46.2831L74.8631 46.2831L75.3387 46.1287ZM73.7224 28.2372L73.3276 27.9304L73.3276 27.9304L73.7224 28.2372ZM74.8538 29.0606L75.2043 28.7041L74.6214 29.5033L74.8538 29.0606ZM67.1763 29.8092L67.3096 30.2912L66.9792 29.3497L67.1763 29.8092ZM73.9244 27.7131L73.8226 27.2236L73.8633 27.2152L73.9048 27.2135L73.9244 27.7131ZM74.8942 28.3495L75.322 28.0907L74.563 28.7241L74.8942 28.3495ZM74.3285 28.2372L73.8285 28.2307L73.8317 27.9836L74.03 27.836L74.3285 28.2372ZM74.714 28.9279L75.0549 28.5621L75.0567 28.5638L74.714 28.9279ZM74.7141 28.9279L74.3732 29.2937L74.3714 29.292L74.7141 28.9279ZM13.0923 28.5343L13.4938 28.2363L13.5152 28.2652L13.5323 28.2968L13.0923 28.5343ZM9.05154 24.2672L9.17087 23.7817L9.30899 23.8156L9.40857 23.9172L9.05154 24.2672ZM13.1731 27.5611L13.5348 27.2159L13.6284 27.3139L13.6596 27.4458L13.1731 27.5611ZM9.77888 24.0052L9.4172 24.3505L8.82306 23.728L9.65802 23.5201L9.77888 24.0052ZM14.5874 22.8075L14.5232 22.3116L14.7082 23.2926L14.5874 22.8075ZM7.07156 23.7807L6.95223 24.2662L7.00735 23.2848L7.07156 23.7807ZM13.86 30.2561L14.3572 30.2024V30.2024L13.86 30.2561ZM76.143 24.4407C75.7515 21.1486 75.5331 17.8306 75.3742 14.5909L76.373 14.5419C76.5314 17.7718 76.7484 21.0637 77.136 24.3226L76.143 24.4407ZM75.5174 49.255C76.5382 39.0352 77.1493 32.9021 76.143 24.4407L77.136 24.3226C78.1569 32.907 77.5324 39.1429 76.5124 49.3544L75.5174 49.255ZM75.5173 49.2562L75.5173 49.2559L76.5125 49.3535L76.5125 49.3537L75.5173 49.2562ZM75.0157 54.3485C75.1896 52.5364 75.3584 50.8464 75.5174 49.2552L76.5124 49.3546C76.3534 50.946 76.1848 52.6342 76.0111 54.444L75.0157 54.3485ZM67.4358 53.3541C69.1573 52.9057 70.5625 52.6506 71.8801 52.7162C73.2133 52.7826 74.4242 53.1752 75.7669 53.9653L75.2598 54.8272C74.0307 54.1039 72.9751 53.772 71.8303 53.715C70.6698 53.6572 69.3852 53.8797 67.6879 54.3218L67.4358 53.3541ZM65.6158 59.7578C66.2105 57.7759 66.6047 56.2228 67.0705 53.7456L68.0533 53.9304C67.5807 56.4435 67.178 58.0309 66.5736 60.0452L65.6158 59.7578ZM65.4787 37.458C66.9919 45.9817 68.0015 51.6516 66.5876 59.9851L65.6017 59.8178C66.9836 51.6731 66.0075 46.1577 64.4941 37.6328L65.4787 37.458ZM65.4784 37.4563L65.4784 37.4565L64.4943 37.6342L64.4943 37.634L65.4784 37.4563ZM65.4784 37.4565L65.4786 37.4576L64.494 37.6327L64.4938 37.6316L65.4784 37.4565ZM65.0905 35.2623C65.2227 36.016 65.3523 36.7462 65.4784 37.4566L64.4938 37.6314C64.3677 36.9212 64.2379 36.1899 64.1056 35.435L65.0905 35.2623ZM65.0791 34.6933L65.0978 35.3341L64.0983 35.3633L64.0795 34.7225L65.0791 34.6933ZM65.0793 34.7079V34.7079H64.0793V34.7079H65.0793ZM65.0793 34.7078V34.7079H64.0793V34.7078H65.0793ZM64.7709 26.1222C64.9048 28.7186 64.9857 31.4925 65.0791 34.6933L64.0795 34.7224C63.9861 31.5189 63.9055 28.7568 63.7722 26.1737L64.7709 26.1222ZM67.5511 25.136C66.6593 25.7143 65.6608 26.2795 64.4059 26.6295L64.1372 25.6663C65.2518 25.3554 66.1525 24.851 67.0069 24.2969L67.5511 25.136ZM73.4877 21.3664C71.3516 23.0473 70.0945 23.9732 67.4877 25.1708L67.0703 24.2621C69.5745 23.1116 70.7608 22.2397 72.8693 20.5805L73.4877 21.3664ZM71.6444 21.3568C72.0357 21.1057 72.4531 20.838 72.913 20.5498L73.444 21.3971C72.9893 21.6821 72.5761 21.9472 72.1844 22.1985L71.6444 21.3568ZM66.8054 23.9923C68.8537 23.1468 70.0331 22.3906 71.6444 21.3568L72.1844 22.1985C70.5656 23.2371 69.3231 24.0349 67.1869 24.9166L66.8054 23.9923ZM66.5331 23.9656C66.6761 23.9623 66.8248 23.959 66.9823 23.9546L67.01 24.9542C66.8496 24.9587 66.6985 24.9621 66.5557 24.9653L66.5331 23.9656ZM64.0694 24.2256C64.9747 23.9995 65.6444 23.9857 66.5331 23.9656L66.5557 24.9653C65.6654 24.9855 65.0971 24.9997 64.3117 25.1958L64.0694 24.2256ZM63.5409 14.4826C64.1498 18.0652 64.4791 21.2564 64.6896 24.68L63.6915 24.7414C63.4828 21.3464 63.1569 18.1914 62.555 14.6502L63.5409 14.4826ZM63.0479 14.0664H75.8736V15.0664H63.0479V14.0664ZM58.6438 42.1517C58.0084 30.9019 58.227 24.013 60.4511 14.4531L61.425 14.6797C59.2301 24.1142 59.0098 30.8999 59.6422 42.0953L58.6438 42.1517ZM39.2606 43.0085C47.554 42.9772 54.5672 42.6699 59.0302 41.6364L59.2558 42.6106C54.6672 43.6732 47.5445 43.9773 39.2643 44.0084L39.2606 43.0085ZM37.3418 43.0808C37.9933 43.0707 38.6163 43.0464 39.2325 43.0093L39.2924 44.0075C38.6619 44.0454 38.0241 44.0703 37.3573 44.0807L37.3418 43.0808ZM38.103 17.9267C38.5935 26.7834 39.0405 34.8283 37.845 43.6479L36.8541 43.5136C38.0348 34.8026 37.5957 26.8503 37.1045 17.982L38.103 17.9267ZM38.0463 16.9022L38.103 17.9267L37.1045 17.9819L37.0478 16.9575L38.0463 16.9022ZM37.9187 14.5402C37.9604 15.3354 38.0033 16.1223 38.0463 16.9023L37.0478 16.9574C37.0048 16.177 36.9619 15.389 36.9201 14.5926L37.9187 14.5402ZM37.4194 14.0664H60.9381V15.0664H37.4194V14.0664ZM37.1676 14.5402C37.2101 15.3497 37.2537 16.1504 37.2975 16.9436L36.299 16.9986C36.2552 16.205 36.2115 15.4033 36.169 14.5926L37.1676 14.5402ZM37.2975 16.9435L37.3528 17.9442L36.3543 17.9994L36.299 16.9987L37.2975 16.9435ZM37.3528 17.9442C37.8462 26.8549 38.2911 34.865 37.0872 43.6539L36.0965 43.5182C37.2853 34.8388 36.8484 26.9221 36.3543 17.9994L37.3528 17.9442ZM36.5912 44.0861C32.7511 44.0812 27.7775 43.607 17.987 42.3952L18.1099 41.4027C27.9083 42.6156 32.8228 43.0813 36.5925 43.0861L36.5912 44.0861ZM17.5503 41.8563C17.8876 37.9141 18.6008 34.6876 19.2574 31.7158L20.2338 31.9315C19.5771 34.9041 18.8777 38.0724 18.5466 41.9416L17.5503 41.8563ZM19.2574 31.7158C20.4708 26.2233 21.4905 21.593 19.7201 14.6906L20.6888 14.4422C22.5219 21.5892 21.4514 26.42 20.2338 31.9315L19.2574 31.7158ZM20.2045 14.0664H36.6683V15.0664H20.2045V14.0664ZM18.8658 14.6833C18.6213 15.6997 18.3644 16.686 18.1005 17.6992L17.1328 17.4471C17.3971 16.4325 17.6516 15.4552 17.8935 14.4495L18.8658 14.6833ZM18.091 17.7313L18.091 17.7313L17.1423 17.4151L17.1423 17.4151L18.091 17.7313ZM18.1005 17.6992C17.3891 20.43 16.6208 23.3799 15.8743 27.7595L14.8885 27.5915C15.6425 23.1679 16.4199 20.184 17.1328 17.4472L18.1005 17.6992ZM15.8812 27.6901C15.6453 35.7519 14.82 39.6391 13.8281 44.3086L12.8499 44.1008C13.8356 39.4607 14.6482 35.6386 14.8816 27.6609L15.8812 27.6901ZM13.8252 44.3214L13.8251 44.3216L12.8527 44.0882L12.8528 44.088L13.8252 44.3214ZM13.8275 44.3111L13.8274 44.3116L12.8502 44.0992L12.8503 44.0987L13.8275 44.3111ZM13.8273 44.3122L13.8272 44.3126L12.8503 44.0989L12.8504 44.0985L13.8273 44.3122ZM13.8278 44.3097C13.2848 46.8659 12.6929 49.6527 12.118 53.5013L11.129 53.3536C11.7086 49.4729 12.306 46.661 12.8497 44.1019L13.8278 44.3097ZM12.1142 53.3315C12.1738 53.6366 12.2354 53.9315 12.2989 54.2182L11.3225 54.4343C11.2572 54.1395 11.194 53.8365 11.1328 53.5233L12.1142 53.3315ZM11.5996 54.7795C10.3141 54.1808 9.25338 53.9543 8.17547 54.0597C7.08633 54.1662 5.92684 54.6162 4.45269 55.4675L3.95258 54.6016C5.48002 53.7195 6.78398 53.191 8.07818 53.0645C9.38361 52.9369 10.6262 53.223 12.0218 53.873L11.5996 54.7795ZM4.7019 55.0075L5.11103 62.5525L4.1125 62.6066L3.70337 55.0616L4.7019 55.0075ZM4.90632 62.9836C4.6908 63.1407 4.54629 63.2972 4.4601 63.4466L3.59392 62.9468C3.7687 62.6439 4.02374 62.3895 4.31721 62.1755L4.90632 62.9836ZM3.52998 63.2511L2.6006 54.7544L3.59467 54.6457L4.52404 63.1423L3.52998 63.2511ZM2.60207 54.7665C1.14986 43.9312 2.29338 34.1476 3.81451 21.1034L4.80778 21.2192C3.28407 34.2855 2.16045 43.9434 3.5932 54.6336L2.60207 54.7665ZM3.81451 21.1034L3.85363 20.7679L4.8469 20.8837L4.80778 21.2192L3.81451 21.1034ZM3.87092 20.6836C4.40274 18.8909 4.83318 16.7815 5.21411 14.4846L6.20064 14.6482C5.8169 16.9621 5.37851 19.1178 4.82961 20.968L3.87092 20.6836ZM5.70737 14.0664H18.3796V15.0664H5.70737V14.0664ZM64.1867 24.2163L64.2979 24.2154L64.3062 25.2153L64.1951 25.2163L64.1867 24.2163ZM63.7701 26.1335C63.7459 25.6659 63.7199 25.2042 63.6918 24.7469L64.69 24.6856C64.7183 25.1463 64.7444 25.6112 64.7688 26.0817L63.7701 26.1335ZM64.8915 26.2915L64.5488 26.5223L63.9901 25.6929L64.3327 25.4621L64.8915 26.2915ZM65.3359 25.992L64.8915 26.2915L64.3327 25.4621L64.7772 25.1627L65.3359 25.992ZM66.0344 25.238L65.4283 25.9117L64.6849 25.2429L65.291 24.5692L66.0344 25.238ZM64.2975 24.2154C64.8033 24.2109 65.3042 24.2003 65.8636 24.4457L65.4618 25.3615C65.1258 25.214 64.8339 25.2106 64.3065 25.2153L64.2975 24.2154ZM13.5729 61.855C13.5138 61.6744 13.4555 61.4973 13.3978 61.3232L14.347 61.0087C14.405 61.1838 14.4638 61.3621 14.5233 61.544L13.5729 61.855ZM14.1945 61.1945C14.2536 61.2293 14.3119 61.2688 14.3668 61.3142L13.7294 62.0848C13.7224 62.079 13.7091 62.0691 13.6873 62.0563L14.1945 61.1945ZM14.3673 61.0946C14.3887 61.243 14.4113 61.3944 14.4351 61.5494L13.4467 61.7014C13.4224 61.5435 13.3994 61.3891 13.3775 61.2373L14.3673 61.0946ZM65.6159 61.1379C67.0821 60.6363 69.0526 60.6095 70.8368 60.8363C72.612 61.0618 74.3259 61.5544 75.2593 62.1864L74.6987 63.0144C73.9623 62.5159 72.4377 62.0477 70.7108 61.8283C68.9929 61.61 67.1976 61.6537 65.9396 62.0841L65.6159 61.1379ZM65.2396 61.749C65.2558 61.6699 65.2717 61.5912 65.2875 61.5127L66.268 61.7094C66.2519 61.7891 66.2357 61.8692 66.2193 61.9495L65.2396 61.749ZM74.6683 63.6149C72.9729 62.5037 71.6684 61.9933 70.3638 61.8456C69.0472 61.6966 67.6832 61.9105 65.8421 62.3364L65.6168 61.3621C67.4726 60.9328 68.9788 60.6824 70.4763 60.852C71.9859 61.0228 73.4394 61.6137 75.2165 62.7785L74.6683 63.6149ZM75.4781 62.631L75.4414 63.2273L74.4433 63.1661L74.4799 62.5698L75.4781 62.631ZM6.51209 51.9556C6.56973 51.9541 6.69133 51.9285 6.88852 51.8445C7.0769 51.7642 7.29988 51.6456 7.54892 51.4947C8.04653 51.1931 8.61342 50.7835 9.15998 50.3548C9.70503 49.9272 10.2208 49.4877 10.6145 49.1308C10.8116 48.9522 10.9753 48.7968 11.0956 48.6758C11.2316 48.5388 11.2747 48.4822 11.2715 48.4873L12.1226 49.0123C12.0548 49.1222 11.9256 49.2591 11.805 49.3805C11.6686 49.5178 11.4913 49.6858 11.2861 49.8718C10.8752 50.2442 10.3413 50.699 9.77719 51.1416C9.21457 51.5829 8.61267 52.0193 8.06726 52.3498C7.79478 52.515 7.5277 52.6591 7.28062 52.7644C7.04236 52.866 6.78312 52.9489 6.5377 52.9552L6.51209 51.9556ZM4.04311 52.6486L6.38675 51.9749L6.66304 52.9359L4.3194 53.6097L4.04311 52.6486ZM7.67284 52.9458L4.2786 53.6196L4.0839 52.6387L7.47814 51.965L7.67284 52.9458ZM10.9832 52.3101L7.66979 52.9464L7.48119 51.9644L10.7946 51.3281L10.9832 52.3101ZM8.53716 51.546L10.8404 51.3214L10.9374 52.3167L8.63421 52.5413L8.53716 51.546ZM10.7034 50.7635L8.92547 52.4105L8.2459 51.6769L10.0238 50.0299L10.7034 50.7635ZM11.7801 49.8405L10.6891 50.7763L10.0381 50.0172L11.1291 49.0815L11.7801 49.8405ZM12.1703 48.9111L11.9279 49.6223L10.9814 49.2996L11.2238 48.5885L12.1703 48.9111ZM70.2193 45.778C70.2715 45.6273 70.3799 45.5023 70.4475 45.4289C70.5307 45.3387 70.6342 45.2424 70.7469 45.1453C70.9736 44.95 71.2673 44.7264 71.5829 44.5042C72.2088 44.0635 72.9669 43.5963 73.5196 43.351L73.9252 44.265C73.4598 44.4716 72.7631 44.8962 72.1586 45.3219C71.8589 45.5328 71.5934 45.736 71.3996 45.903C71.3021 45.987 71.2299 46.0556 71.1825 46.107C71.1196 46.1752 71.1424 46.1683 71.1643 46.1051L70.2193 45.778ZM73.4799 45.1673C72.883 45.2157 72.3413 45.4729 70.9628 46.3618L70.4209 45.5213C71.7743 44.6486 72.5165 44.2421 73.3991 44.1706L73.4799 45.1673ZM74.9035 46.3729C74.8334 46.2815 74.5805 46.0123 74.2484 45.7362C73.9098 45.4546 73.5598 45.2262 73.2972 45.1482L73.5819 44.1896C74.0488 44.3283 74.5287 44.6687 74.8878 44.9673C75.2535 45.2714 75.5663 45.5938 75.6972 45.7646L74.9035 46.3729ZM75.6962 45.7501L75.7397 45.8301L74.861 46.3075L74.8175 46.2275L75.6962 45.7501ZM74.0288 43.4129C74.407 43.7063 74.771 44.2084 75.0504 44.6422C75.3397 45.0916 75.5789 45.5335 75.6965 45.7507L74.8172 46.2269C74.6998 46.0102 74.4764 45.598 74.2096 45.1836C73.9328 44.7537 73.647 44.3823 73.416 44.2031L74.0288 43.4129ZM75.8143 45.9743C75.8158 45.9792 75.8274 46.0137 75.8342 46.0574C75.8351 46.0627 75.852 46.1515 75.8249 46.2584C75.8103 46.3158 75.7637 46.4548 75.6162 46.5525C75.4525 46.661 75.2848 46.6416 75.1947 46.6142C75.1125 46.5893 75.0573 46.5492 75.0358 46.5328C75.0093 46.5125 74.9902 46.4937 74.9796 46.4827C74.9584 46.4608 74.9437 46.4416 74.9376 46.4334C74.924 46.4153 74.914 46.3995 74.9099 46.393C74.894 46.3676 74.8753 46.3337 74.8618 46.3089L75.7389 45.8286C75.7563 45.8604 75.76 45.8664 75.7572 45.8618C75.7564 45.8606 75.7491 45.8488 75.7376 45.8335C75.7325 45.8266 75.7187 45.8085 75.6982 45.7874C75.688 45.7768 75.6692 45.7583 75.643 45.7383C75.6218 45.722 75.5668 45.6821 75.4849 45.6573C75.395 45.63 75.2275 45.6105 75.0639 45.7189C74.9165 45.8165 74.8701 45.9553 74.8556 46.0125C74.8286 46.1188 74.8455 46.2069 74.8461 46.211C74.85 46.236 74.855 46.255 74.857 46.2626C74.8596 46.272 74.8619 46.2792 74.8631 46.2831L75.8143 45.9743ZM75.6972 45.7646C75.7129 45.7851 75.7306 45.8094 75.7473 45.8354C75.7581 45.8523 75.7917 45.9048 75.8143 45.9743L74.8631 46.2831C74.8743 46.3176 74.8868 46.3421 74.892 46.3519C74.8982 46.3637 74.9032 46.3716 74.9051 46.3747C74.9089 46.3806 74.9093 46.3805 74.9035 46.3729L75.6972 45.7646ZM74.1172 28.544C74.2384 28.388 74.2276 28.2208 74.2106 28.1403C74.1944 28.0636 74.1636 28.0111 74.1526 27.9931C74.1384 27.9699 74.1259 27.9543 74.1206 27.9478C74.1145 27.9404 74.1103 27.9361 74.1095 27.9353C74.1083 27.934 74.1118 27.9377 74.1226 27.9473C74.1328 27.9563 74.1464 27.968 74.1639 27.9823C74.2358 28.0412 74.3446 28.1228 74.4693 28.2117C74.7264 28.3952 74.9943 28.5697 75.0862 28.6179L74.6214 29.5033C74.4622 29.4198 74.1443 29.2083 73.8885 29.0258C73.7568 28.9318 73.6273 28.8354 73.53 28.7557C73.4838 28.7179 73.4317 28.6731 73.3889 28.6286C73.3707 28.6097 73.3324 28.5687 73.2989 28.5138C73.2832 28.4882 73.2495 28.4292 73.2322 28.347C73.214 28.2611 73.2038 28.0896 73.3276 27.9304L74.1172 28.544ZM67.0431 29.3273C68.0955 29.0364 69.7647 28.6067 71.1568 28.2674C71.8525 28.0979 72.4833 27.9499 72.9352 27.8529C73.1593 27.8048 73.348 27.7673 73.4807 27.7464C73.5416 27.7369 73.6142 27.7268 73.6777 27.7253C73.689 27.725 73.7858 27.7199 73.8896 27.7575C73.9324 27.773 74.1223 27.8469 74.198 28.072C74.2795 28.3141 74.1542 28.4963 74.1172 28.544L73.3276 27.9304C73.2939 27.9736 73.1698 28.152 73.2502 28.3909C73.3249 28.6128 73.5115 28.6841 73.5488 28.6976C73.6068 28.7187 73.6536 28.7227 73.6665 28.7238C73.6853 28.7253 73.6984 28.7251 73.7022 28.725C73.7099 28.7248 73.6937 28.7252 73.6362 28.7343C73.5323 28.7506 73.3661 28.7832 73.1451 28.8306C72.7068 28.9247 72.0865 29.0701 71.3935 29.239C70.0082 29.5766 68.3494 30.0037 67.3096 30.2912L67.0431 29.3273ZM74.0262 28.2027C71.3221 28.765 69.8677 29.1986 67.3735 30.2687L66.9792 29.3497C69.5421 28.2501 71.0613 27.7978 73.8226 27.2236L74.0262 28.2027ZM74.4664 28.6083C74.3246 28.3739 74.2699 28.2988 74.2175 28.2581C74.1997 28.2443 74.1509 28.2047 73.944 28.2128L73.9048 27.2135C74.2623 27.1995 74.5697 27.2652 74.8313 27.4687C75.0583 27.6452 75.2062 27.8993 75.322 28.0907L74.4664 28.6083ZM74.03 27.836C74.2224 27.6929 74.4776 27.588 74.7713 27.6804C74.89 27.7177 74.9836 27.7789 75.049 27.8275C75.1134 27.8756 75.1768 27.9319 75.2253 27.9748L74.563 28.7241C74.5361 28.7003 74.5148 28.6815 74.4952 28.6648C74.4759 28.6484 74.462 28.6373 74.4517 28.6296C74.4284 28.6122 74.4381 28.6239 74.4714 28.6343C74.49 28.6402 74.5138 28.645 74.5411 28.6458C74.5685 28.6467 74.5927 28.6433 74.612 28.6383C74.6477 28.6291 74.6546 28.6177 74.627 28.6383L74.03 27.836ZM74.3732 29.2937C74.2713 29.1987 74.1241 29.0654 74.0156 28.8989C73.8919 28.7089 73.8252 28.4915 73.8285 28.2307L74.8284 28.2436C74.8279 28.2826 74.8325 28.3044 74.8357 28.3157C74.8388 28.3265 74.8435 28.3377 74.8537 28.3533C74.8824 28.3975 74.9301 28.4458 75.0549 28.5621L74.3732 29.2937ZM74.3714 29.292L74.3714 29.292L75.0567 28.5638L75.0567 28.5638L74.3714 29.292ZM74.5032 29.4172C74.4602 29.3749 74.4181 29.3356 74.3732 29.2937L75.0549 28.5621C75.0988 28.603 75.1504 28.651 75.2043 28.7041L74.5032 29.4172ZM12.6908 28.8323C12.5368 28.6247 11.8564 27.8936 11.0266 27.025C10.2126 26.173 9.29289 25.2276 8.6945 24.6173L9.40857 23.9172C10.0089 24.5296 10.9318 25.4782 11.7496 26.3342C12.5516 27.1737 13.2923 27.9648 13.4938 28.2363L12.6908 28.8323ZM13.2717 30.0476C13.1125 29.655 12.8231 29.0882 12.6523 28.7718L13.5323 28.2968C13.7071 28.6207 14.0179 29.2267 14.1984 29.6718L13.2717 30.0476ZM13.6596 27.4458C13.816 28.1056 14.0686 29.1546 14.219 29.7341L13.2511 29.9853C13.0977 29.3943 12.8428 28.3358 12.6866 27.6764L13.6596 27.4458ZM10.1406 23.66L13.5348 27.2159L12.8114 27.9063L9.4172 24.3505L10.1406 23.66ZM14.7082 23.2926L9.89973 24.4904L9.65802 23.5201L14.4665 22.3223L14.7082 23.2926ZM7.00735 23.2848L14.5232 22.3116L14.6516 23.3033L7.13577 24.2765L7.00735 23.2848ZM8.93221 24.7528L6.95223 24.2662L7.1909 23.2951L9.17087 23.7817L8.93221 24.7528ZM14.3572 30.2024C14.3579 30.2095 14.3657 30.2707 14.3584 30.3374C14.3564 30.356 14.3503 30.4055 14.3278 30.4642C14.3137 30.5011 14.2412 30.6835 14.0241 30.7589C13.7794 30.844 13.5951 30.7159 13.5452 30.6757C13.4858 30.6279 13.4519 30.5779 13.4408 30.5613C13.4 30.4999 13.3785 30.4356 13.3776 30.433C13.3696 30.4109 13.362 30.3875 13.3554 30.366C13.3295 30.2818 13.2928 30.146 13.2511 29.9853L14.219 29.7341C14.261 29.896 14.2926 30.0115 14.311 30.0714C14.3131 30.0782 14.3148 30.0834 14.316 30.0871C14.3173 30.0911 14.3178 30.0925 14.3176 30.0919C14.3175 30.0916 14.317 30.0902 14.3162 30.0881C14.3154 30.086 14.3139 30.0823 14.3118 30.0774C14.3104 30.0742 14.2976 30.0438 14.2734 30.0074C14.2636 29.9926 14.2307 29.9438 14.1722 29.8968C14.1233 29.8573 13.9398 29.7295 13.6958 29.8143C13.4794 29.8896 13.4075 30.0712 13.3939 30.1068C13.3719 30.1642 13.3662 30.2119 13.3644 30.2282C13.3581 30.2857 13.365 30.3292 13.3629 30.3097L14.3572 30.2024ZM14.1984 29.6718C14.2645 29.8349 14.3394 30.0375 14.3572 30.2024L13.3629 30.3097C13.3637 30.3172 13.3618 30.2983 13.3436 30.2414C13.3271 30.1902 13.3031 30.1251 13.2717 30.0476L14.1984 29.6718Z" fill="#757575"/>
<path d="M67.4996 54.0054C71.2043 52.9631 73.1429 53.0015 76.1172 55.2201C75.843 58.0806 75.2664 63.9885 75.2554 63.9193C75.008 62.3605 68.6356 60.902 65.5411 62.2343C66.4489 59.1015 66.9182 57.3445 67.4996 54.0054Z" fill="white" stroke="#757575"/>
<path d="M12.5239 54.6588C8.65959 53.5717 6.6375 53.6118 3.53516 55.9259C3.82116 58.9096 4.42257 65.072 4.43403 64.9997C4.69207 63.3739 11.339 61.8525 14.5668 63.2422C13.6199 59.9745 13.1303 58.1418 12.5239 54.6588Z" fill="white" stroke="#757575"/>
</svg>
