<svg width="80" height="80" viewBox="0 0 80 80" fill="none" xmlns="http://www.w3.org/2000/svg">
<rect width="80" height="80" fill="white"/>
<path fill-rule="evenodd" clip-rule="evenodd" d="M62.602 9.73047H58.3686H9.95312H8.45312V11.2305V22.4033V53.2615V54.0513L9.10436 54.4983L14.132 57.9486L16.2964 55.7954L11.4531 52.4717V24.5816L37.6273 34.5754L41.0021 31.2181L39.1944 31.9625L11.4531 21.3704V12.7305H58.3686H59.5863L62.602 9.73047ZM59.0223 23.798L64.8492 21.3987V18.0015L67.8492 15.0171V22.4033V54.3256V55.1749L67.1209 55.6118L66.3492 54.3256C67.1209 55.6118 67.1209 55.6119 67.1207 55.6119L67.12 55.6123L67.1174 55.6139L67.1068 55.6203L67.0647 55.6456L66.8995 55.7447L66.2636 56.1262L63.9204 57.5321L56.1476 62.1958L37.8588 73.1691L37.0327 73.6648L36.2383 73.1196L20.3818 62.2377L22.5462 60.0846L37.1415 70.1009L54.6042 59.6233L62.3769 54.9597L64.7202 53.5537L64.8492 53.4763V24.6431L53.4577 29.3337L59.0223 23.798Z" fill="#757575"/>
<rect x="70.7793" y="5.4375" width="3.19223" height="89.3824" transform="rotate(45.915 70.7793 5.4375)" fill="#757575"/>
</svg>
