<svg width="80" height="80" viewBox="0 0 80 80" fill="none" xmlns="http://www.w3.org/2000/svg">
<rect width="80" height="80" fill="white"/>
<path d="M10.8828 21.8277C19.7652 10.554 63.152 12.2624 68.6181 21.8277L50.5118 40.2757H34.7968L10.8828 21.8277Z" fill="white" stroke="#757575" stroke-width="2"/>
<path d="M51.1943 50.1842C42.3072 52.3584 37.4634 52.2379 28.9884 50.1842L25.2305 49.1593C26.8247 44.832 30.2663 35.9188 30.3549 36.1774C30.7561 37.3485 42.9195 37.5911 48.8029 36.1774L51.1943 50.1842Z" fill="white" stroke="#757575" stroke-width="2"/>
<path d="M18.7398 65.8983L37.5294 36.8598C26.1925 31.9747 20.2698 28.7667 10.8824 21.8281C6.96313 28.6599 5.06915 33.4529 2 43.0091C7.05562 55.9555 10.965 60.3099 18.7398 65.8983Z" fill="white" stroke="#757575" stroke-width="2"/>
<path d="M60.7602 65.8983L41.9706 36.8598C53.3075 31.9747 60.4186 29.6856 68.6176 21.8281C72.5369 28.6599 74.4309 33.4529 77.5 43.0091C72.4444 55.9555 68.535 60.3099 60.7602 65.8983Z" fill="white" stroke="#757575" stroke-width="2"/>
<circle cx="40.1186" cy="45.7251" r="1.21336" fill="#1E1E22" stroke="#757575" stroke-width="2"/>
<path d="M30.5273 33.4939C38.1142 31.7316 42.3218 31.8041 49.7098 33.4939" stroke="#757575" stroke-width="2"/>
</svg>
