<svg width="80" height="80" viewBox="0 0 80 80" fill="none" xmlns="http://www.w3.org/2000/svg">
<rect width="80" height="80" fill="white"/>
<path d="M6 49.8331L24.0567 31.7765C32.5834 31.2749 40.1071 36.2906 45.3736 46.0713" stroke="#757575" stroke-width="1.5"/>
<path d="M23.8057 31.7748C23.8057 31.5742 36.8466 14.8049 43.3671 6.44531" stroke="#757575" stroke-width="1.5"/>
<path d="M29.5742 32.0244C31.434 28.9334 32.6539 27.5276 35.0915 25.5039" stroke="#757575" stroke-width="1.5"/>
<path d="M44.8721 44.5645C51.4197 37.2566 56.0296 34.4119 63.1795 27.7617C56.7555 35.5372 53.097 39.8142 45.6244 46.0692" stroke="#757575" stroke-width="1.5"/>
<path d="M47.3799 50.3329C49.8279 48.5236 51.1539 47.4702 52.8972 45.0664" stroke="#757575" stroke-width="1.5"/>
<path d="M47.3799 56.8529C49.773 56.6586 66.9308 40.396 74.4649 31.5234" stroke="#757575" stroke-width="1.5"/>
<path d="M29.5741 62.122L31.3296 60.3665C34.3493 66.1425 34.8408 69.3951 31.3297 73.6585C20.0444 76.9187 2.99059 56.1027 6.50171 49.5822C10.5145 45.5698 19.3695 48.7335 29.5741 62.122Z" stroke="#757575" stroke-width="1.5"/>
<path d="M45.3732 46.3203L31.3291 60.3644C33.2361 64.1299 33.6643 66.6441 33.5862 71.6498L47.6303 56.8534C48.1153 51.9148 47.6029 49.599 45.3732 46.3203Z" stroke="#757575" stroke-width="1.5"/>
<path d="M32.1321 51.2073C31.8284 51.9447 30.8264 52.389 29.786 51.9605C28.7457 51.532 28.3473 50.5108 28.651 49.7734C28.9547 49.0361 29.9567 48.5917 30.9971 49.0202C32.0374 49.4487 32.4358 50.4699 32.1321 51.2073Z" fill="#757575" stroke="#757575" stroke-width="1.5"/>
<rect x="27.2994" y="47.9844" width="0.250787" height="8.36908" transform="rotate(-45 27.2994 47.9844)" fill="#757575" stroke="#757575" stroke-width="0.250787"/>
</svg>
