<svg width="80" height="80" viewBox="0 0 80 80" fill="none" xmlns="http://www.w3.org/2000/svg">
<rect width="80" height="80" fill="white"/>
<path d="M18.8386 12.5443C23.6713 10.2672 26.966 8.91774 33.1142 6.10938L39.6429 9.51428L47.7022 6.2968L62.0716 11.4823C69.1311 15.0121 67.007 30.1624 68.6002 44.6254C69.5259 53.0284 68.6915 58.7076 67.6631 70.4277L67.2882 77.0189C64.6038 75.1195 63.024 75.1806 60.1661 75.8943C61.7591 67.4914 60.7149 62.5426 59.2914 53.7781C59.0583 45.1746 58.9565 40.3342 57.3859 32.5052C54.8236 42.655 54.5072 48.5925 55.0743 59.4321C51.5756 60.3067 46.1116 60.5618 39.7054 60.5879C36.3608 60.8047 32.7502 60.5067 23.3056 59.2447C24.1177 48.9987 27.7725 44.5942 24.1401 33.5048C23.3605 38.0991 22.2746 40.8457 21.2438 47.3743C20.9627 57.7453 19.5972 59.7702 18.3387 68.8659C18.8075 71.4559 19.4308 73.1879 20.2131 75.7694C19.3383 74.9884 13.4344 75.2071 12.4661 77.0189L11.7476 69.9279C10.6325 60.9458 11.5088 52.8332 12.6858 41.9378L12.716 41.6578C14.9651 33.4736 14.8402 17.761 18.8386 12.5443Z" fill="white" stroke="#757575"/>
<path opacity="0.5" d="M65.8373 68.0535C64.9002 68.0276 62.0388 65.3108 61.8389 64.9609L62.0263 65.5545L62.8697 66.3354L64.2442 67.7099L62.4636 67.5224L65.0251 68.0535L67.6491 68.6157L65.8373 68.0535Z" fill="black" fill-opacity="0.45" stroke="#757575"/>
<path opacity="0.5" d="M13.8884 60.8359C14.6755 61.213 16.1376 62.3245 16.2312 62.6165C15.1752 61.8814 14.679 61.6044 14.1071 61.5544C13.5431 61.7352 12.824 62.5038 12.6686 62.7227C12.6446 62.7698 12.6339 62.7894 12.6389 62.7727C12.6417 62.7632 12.6519 62.7461 12.6686 62.7227C12.8067 62.4504 13.3835 61.2587 13.8884 60.8359Z" fill="black" fill-opacity="0.45" stroke="#757575"/>
<path opacity="0.5" d="M13.8883 47.8409C13.9192 47.8838 13.2078 48.4181 13.0137 48.5281C13.2426 48.2851 13.4236 48.1677 13.4197 47.8409C13.2364 47.6936 13.1452 47.7793 12.9824 47.9346C13.1815 47.5793 13.2958 47.3851 13.7321 47.4035C15.8447 47.8778 16.9941 48.2474 18.9488 49.1529C17.3314 48.6701 13.8033 47.7228 13.8883 47.8409Z" fill="black" fill-opacity="0.45" stroke="#757575"/>
<path d="M38.6436 7.57715L40.0805 8.20191L40.4554 8.608L38.6123 10.6072L33.7393 8.63923L34.1141 5.10938L38.6436 7.57715Z" fill="white" stroke="#757575"/>
<path d="M39.0492 7.63855C36.4461 5.82119 34.0512 3.64013 34.2386 2.39062C33.6771 4.19779 33.3965 5.2289 32.6143 6.92009C32.9537 8.36942 33.3831 9.39948 34.4885 11.5433C36.0248 9.32565 37.0075 8.4326 39.0492 7.63855Z" fill="white" stroke="#757575"/>
<path d="M38.6124 10.701C38.3088 9.34445 38.6851 8.6554 40.9864 7.63974L47.4214 5.39062L46.2656 8.20202C43.3498 9.97275 41.553 10.7731 38.6124 10.701Z" fill="white" stroke="#757575"/>
<path d="M45.6095 11.5119C43.112 8.66211 41.9264 7.50239 40.9238 7.70092C43.7665 5.48304 47.0464 4.32725 46.4529 2.10938C47.1364 3.88545 47.4802 4.94581 47.9523 7.07617C47.3619 8.82465 46.7345 9.79016 45.6095 11.5119Z" fill="white" stroke="#757575"/>
<path d="M38.737 60.6794C37.7687 45.373 39.518 33.0029 38.5183 10.543" stroke="#757575"/>
<path d="M18.6516 69.2071C15.6972 68.3763 14.1512 68.4069 11.7793 70.1755C11.998 72.4558 12.4578 77.1654 12.4665 77.1102C12.6638 75.8676 17.7457 74.7049 20.2135 75.767C19.4895 73.2696 19.1152 71.869 18.6516 69.2071Z" fill="white" stroke="#757575"/>
<path d="M60.4159 70.3961C63.2574 68.5514 64.8442 68.4708 67.6318 70.2087L67.2882 77.0497C64.8508 75.3697 63.298 74.9731 60.0723 75.9252C60.3572 73.9808 60.4395 72.7243 60.4159 70.3961Z" fill="white" stroke="#757575"/>
<circle opacity="0.75" cx="39.8924" cy="9.4803" r="0.437327" fill="black" fill-opacity="0.6" stroke="#757575"/>
<circle opacity="0.75" cx="40.2987" cy="15.6678" r="0.437327" fill="black" fill-opacity="0.6" stroke="#757575"/>
<circle opacity="0.75" cx="40.3612" cy="23.4139" r="0.437327" fill="black" fill-opacity="0.6" stroke="#757575"/>
<circle opacity="0.75" cx="40.5487" cy="32.66" r="0.437327" fill="black" fill-opacity="0.6" stroke="#757575"/>
<circle opacity="0.75" cx="40.7987" cy="41.8436" r="0.437327" fill="black" fill-opacity="0.6" stroke="#757575"/>
<circle opacity="0.75" cx="40.5487" cy="51.2147" r="0.437327" fill="black" fill-opacity="0.6" stroke="#757575"/>
<path opacity="0.5" d="M63.8831 44.5308C62.9564 45.5512 61.0342 47.692 60.7593 48.0919C60.6257 48.3591 60.3937 48.8484 60.2624 49.198C60.1977 49.4672 60.1569 49.6176 60.1658 49.5288C60.173 49.457 60.2095 49.3389 60.2624 49.198C60.3798 48.7096 60.576 47.8302 60.6968 47.2797L63.3208 44.3121L59.6035 43.3125L65.4137 44.1247L63.8831 44.5308Z" fill="black" fill-opacity="0.3" stroke="#757575"/>
<path opacity="0.5" d="M59.4161 27.1013C59.2991 28.282 58.2957 31.7747 58.0417 32.5991C58.3469 30.2757 58.4393 29.0192 58.0417 27.1013C57.601 26.2368 57.4351 25.7299 57.2607 24.7897L57.2713 24.7992C57.6725 25.1602 57.9008 25.3655 58.6664 25.352C60.2829 22.007 60.8056 20.0365 61.6965 16.5117C61.0064 19.9691 60.639 21.9081 59.4161 25.352C60.5864 24.565 61.2382 23.9894 62.3837 22.5718C61.3006 24.5216 60.6388 25.4859 59.4161 27.1013Z" fill="black" fill-opacity="0.3" stroke="#757575"/>
<path opacity="0.5" d="M18.8703 44.905C19.5648 45.3913 20.3221 45.8498 21.2756 46.1233L20.932 45.8734L20.5883 45.6235L20.1198 45.0612C20.4953 44.8834 20.8241 44.902 21.2756 44.905C20.5074 44.6955 19.9835 44.713 19.0889 44.6864C17.0794 43.7909 16.1215 43.0071 14.3096 41.7812C15.9503 43.175 16.8947 43.9252 18.8703 44.905Z" fill="black" fill-opacity="0.3" stroke="#757575"/>
<path opacity="0.5" d="M23.6181 29.5991C23.9438 30.3347 24.325 32.4819 24.2116 32.9727L24.3053 33.2539C24.4258 31.8266 24.3822 31.0265 24.2116 29.5991L23.9929 29.1305L23.3994 27.4749C22.9211 26.0213 22.6726 25.0654 22.2436 23.2578C22.4519 24.3095 22.7434 25.9755 22.8684 26.4753C22.9769 26.9092 23.212 27.756 23.5869 28.9743C22.5392 27.8108 21.9156 27.2586 20.9629 25.913C21.5617 26.9646 21.9282 27.5817 23.6181 29.5991Z" fill="black" fill-opacity="0.3" stroke="#757575"/>
<path d="M23.0866 32.8066L22.7331 32.453L22.3795 32.8066L21.5688 33.6173L21.2155 33.9706L21.5685 34.3241L23.9252 36.6851H18.1331H17.6331V37.1851V38.3351V38.8351H18.1331H23.9222L21.5633 41.1897L21.2092 41.5432L21.563 41.8971L22.3795 42.7136L22.7331 43.0671L23.0866 42.7136L27.6866 38.1136L28.0401 37.7601L27.6866 37.4065L23.0866 32.8066Z" fill="#757575" stroke="white"/>
<path d="M55.7288 42.711L56.0824 43.0645L56.4359 42.711L57.2466 41.9002L57.5999 41.547L57.247 41.1934L54.8902 38.8325H60.6823H61.1823V38.3325V37.1825V36.6825H60.6823H54.8933L57.2521 34.3279L57.6063 33.9744L57.2524 33.6205L56.4359 32.804L56.0824 32.4504L55.7288 32.804L51.1289 37.4039L50.7753 37.7575L51.1289 38.111L55.7288 42.711Z" fill="#757575" stroke="white"/>
</svg>
