<svg width="80" height="80" viewBox="0 0 80 80" fill="none" xmlns="http://www.w3.org/2000/svg">
<rect x="38.6367" y="21.2734" width="2.72727" height="36.8182" fill="#757575"/>
<rect x="10" y="9" width="2.72727" height="61.3636" fill="#757575"/>
<rect x="67.2725" y="9" width="2.72727" height="61.3636" fill="#757575"/>
<circle cx="39.6527" cy="39.347" r="12.6204" fill="white"/>
<ellipse cx="39.4648" cy="35.1371" rx="1.46282" ry="1.82852" fill="white"/>
<ellipse cx="35.4447" cy="39.162" rx="1.82852" ry="1.46282" fill="white"/>
<circle cx="39.4648" cy="43.5488" r="1.46282" fill="white"/>
<circle cx="43.8544" cy="39.162" r="1.46282" fill="white"/>
<path d="M39.6527 51.9676C32.6937 51.9676 27.0322 46.306 27.0322 39.347C27.0322 32.388 32.6937 26.7266 39.6527 26.7266C46.6117 26.7266 52.2731 32.388 52.2731 39.347C52.2731 46.306 46.6115 51.9676 39.6527 51.9676ZM39.6527 27.3592C33.0425 27.3592 27.6647 32.737 27.6647 39.347C27.6647 45.9572 33.0424 51.3349 39.6525 51.3349C46.2627 51.3349 51.6404 45.9572 51.6404 39.347C51.6405 32.737 46.2627 27.3592 39.6527 27.3592ZM39.6527 48.7809C34.4509 48.7809 30.2189 44.5489 30.2189 39.347C30.2189 34.1454 34.4509 29.9133 39.6527 29.9133C44.8545 29.9133 49.0864 34.1452 49.0864 39.347C49.0864 44.5488 44.8543 48.7809 39.6527 48.7809ZM39.6527 30.546C34.7997 30.546 30.8516 34.4942 30.8516 39.3471C30.8516 44.2001 34.7997 48.1484 39.6527 48.1484C44.5056 48.1484 48.4538 44.2002 48.4538 39.3471C48.4538 34.4942 44.5056 30.546 39.6527 30.546ZM39.6527 45.5251C38.5948 45.5251 37.7341 44.6644 37.7341 43.6065C37.7341 42.5487 38.5948 41.6879 39.6527 41.6879C40.7106 41.6879 41.5712 42.5487 41.5712 43.6065C41.5712 44.6644 40.7104 45.5251 39.6527 45.5251ZM39.6527 42.3205C38.9436 42.3205 38.3668 42.8975 38.3668 43.6065C38.3668 44.3156 38.9436 44.8924 39.6527 44.8924C40.3617 44.8924 40.9386 44.3155 40.9386 43.6065C40.9386 42.8975 40.3617 42.3205 39.6527 42.3205ZM43.9121 41.2655C42.8542 41.2655 41.9935 40.4049 41.9935 39.347C41.9935 38.2891 42.8542 37.4285 43.9121 37.4285C44.97 37.4285 45.8307 38.2891 45.8307 39.347C45.8307 40.4049 44.97 41.2655 43.9121 41.2655ZM43.9121 38.0611C43.203 38.0611 42.6262 38.6381 42.6262 39.347C42.6262 40.0559 43.203 40.6329 43.9121 40.6329C44.6211 40.6329 45.1981 40.0559 45.1981 39.347C45.1981 38.6381 44.6211 38.0611 43.9121 38.0611ZM35.3933 41.2655C34.3354 41.2655 33.4747 40.4049 33.4747 39.347C33.4747 38.2891 34.3354 37.4285 35.3933 37.4285C36.4512 37.4285 37.3118 38.2891 37.3118 39.347C37.3118 40.4049 36.451 41.2655 35.3933 41.2655ZM35.3933 38.0611C34.6842 38.0611 34.1074 38.6381 34.1074 39.347C34.1074 40.0559 34.6842 40.6329 35.3933 40.6329C36.1023 40.6329 36.6792 40.0559 36.6792 39.347C36.6792 38.6381 36.1023 38.0611 35.3933 38.0611ZM39.6527 37.0061C38.5948 37.0061 37.7341 36.1455 37.7341 35.0876C37.7341 34.0297 38.5948 33.1691 39.6527 33.1691C40.7106 33.1691 41.5712 34.0297 41.5712 35.0876C41.5712 36.1455 40.7104 37.0061 39.6527 37.0061ZM39.6527 33.8017C38.9436 33.8017 38.3668 34.3787 38.3668 35.0876C38.3668 35.7965 38.9436 36.3735 39.6527 36.3735C40.3617 36.3735 40.9386 35.7965 40.9386 35.0876C40.9386 34.3787 40.3617 33.8017 39.6527 33.8017Z" fill="#757575"/>
</svg>
