<svg width="80" height="80" viewBox="0 0 80 80" fill="none" xmlns="http://www.w3.org/2000/svg">
<g clip-path="url(#clip0)">
<path d="M10.2246 16.2232C32.9206 12.0797 46.0227 11.7333 70.3506 16.2232" stroke="#757575" stroke-width="1.5"/>
<path d="M4.49902 80.6441C4.77232 44.0774 4.37031 18.1813 7.83935 12.6445C11.7757 18.081 13.6916 21.3748 15.4744 28.6304C14.6308 48.516 14.5346 60.0056 14.52 80.6441" stroke="#757575" stroke-width="1.5"/>
<path d="M19.7693 80.4076C18.8202 58.0559 18.0976 46.1049 15.4746 28.8711" stroke="#757575" stroke-width="1.5"/>
<path d="M8.07812 12.6471C13.0788 9.5962 15.974 7.88534 27.4043 4.77344" stroke="#757575" stroke-width="1.5"/>
<path d="M76.3154 80.6441C76.0421 44.0774 76.4441 18.1813 72.9751 12.6445C69.0388 18.081 67.1228 21.3748 65.3401 28.6304C66.1837 48.516 66.2799 60.0056 66.2944 80.6441" stroke="#757575" stroke-width="1.5"/>
<path d="M61.0461 80.4076C61.9952 58.0559 62.7178 46.1049 65.3408 28.8711" stroke="#757575" stroke-width="1.5"/>
<path d="M72.7373 12.6471C67.7366 9.5962 64.8414 7.88534 53.4111 4.77344" stroke="#757575" stroke-width="1.5"/>
<path d="M29.3131 0C28.3145 1.76408 27.8783 2.89032 27.4043 5.24909C38.105 8.41426 43.5528 7.87566 53.4112 4.7719C52.5359 2.7969 52.0563 1.76476 50.548 0C42.6132 2.15018 37.9464 2.11306 29.3131 0Z" stroke="#757575" stroke-width="1.5"/>
</g>
<defs>
<clipPath id="clip0">
<rect width="80" height="80" fill="white"/>
</clipPath>
</defs>
</svg>
