<svg width="80" height="80" viewBox="0 0 80 80" fill="none" xmlns="http://www.w3.org/2000/svg">
<rect width="80" height="80" fill="white"/>
<g clip-path="url(#clip0)">
<path d="M50.3711 19.0488V71.2279" stroke="#616161"/>
<path d="M52.292 19.0488V71.2279" stroke="#616161"/>
<path d="M50.4707 14.6992H52.392" stroke="#616161"/>
<path d="M47.9434 19.1523H54.9208" stroke="#616161"/>
<path d="M46.7305 12.8761C50.1498 12.1817 52.1353 12.1511 55.8315 12.8761" stroke="#616161"/>
<path d="M18.6188 70.2124C16.9296 52.1553 20.1929 32.5814 23.4549 21.707" stroke="#616161"/>
<path d="M23.5742 21.8767C29.9243 18.8858 33.6155 17.3678 40.5627 15.1016" stroke="#616161"/>
<path d="M40.8652 14.797C41.1386 12.8465 41.3597 11.8451 41.9776 10.3477C45.3404 12.4604 47.2731 13.3482 50.7752 14.5948L46.3258 21.2689C43.7074 19.2182 42.4823 17.8288 40.8652 14.797Z" stroke="#616161"/>
<path d="M41.9766 10.2485C43.6956 6.80957 57.8527 6.91061 60.7853 10.2485" stroke="#616161"/>
<path d="M62 14.797C61.7266 12.8465 61.5055 11.8451 60.8877 10.3477C57.5248 12.4604 55.5922 13.3482 52.09 14.5948L56.5394 21.2689C59.1578 19.2182 60.383 17.8288 62 14.797Z" stroke="#616161"/>
<path d="M26.8101 70.0179C26.008 68.8317 28.1667 44.5392 29.9449 33.3105C29.8343 50.5754 29.8295 59.946 30.9562 70.5235M23.3721 22.0859C25.4956 24.9174 26.7725 26.1434 29.4394 32.5015" stroke="#616161"/>
<circle cx="51.2797" cy="17.5316" r="0.5" fill="#616161" stroke="#616161" stroke-width="0.617955"/>
<circle cx="51.3808" cy="23.496" r="0.5" fill="#616161" stroke="#616161" stroke-width="0.820199"/>
<circle cx="51.3808" cy="32.1953" r="0.5" fill="#616161" stroke="#616161" stroke-width="0.820199"/>
<circle cx="51.3808" cy="45.1288" r="0.5" fill="#616161" stroke="#616161" stroke-width="0.820199"/>
<circle cx="51.3808" cy="57.871" r="0.5" fill="#616161" stroke="#616161" stroke-width="0.820199"/>
<circle cx="51.3808" cy="70.8203" r="0.5" fill="#616161" stroke="#616161" stroke-width="0.820199"/>
</g>
<defs>
<clipPath id="clip0">
<rect width="64" height="64" fill="white" transform="translate(8 8)"/>
</clipPath>
</defs>
</svg>
