<svg width="80" height="80" viewBox="0 0 80 80" fill="none" xmlns="http://www.w3.org/2000/svg">
<rect x="11.6699" y="42.5" width="4" height="57" transform="rotate(-90 11.6699 42.5)" fill="#1E1E22"/>
<circle cx="39.8229" cy="40.1683" r="19.3473" transform="rotate(-90 39.8229 40.1683)" fill="white"/>
<circle cx="39.8229" cy="40.1683" r="19.3473" transform="rotate(-90 39.8229 40.1683)" fill="white"/>
<mask id="mask0" mask-type="alpha" maskUnits="userSpaceOnUse" x="13" y="13" width="54" height="54">
<circle cx="39.8228" cy="40.1688" r="19.3473" transform="rotate(-56.3858 39.8228 40.1688)" fill="white"/>
</mask>
<g mask="url(#mask0)">
<path d="M66.3731 99.4259C56.7622 95.1675 8.55199 63.6511 -18.6445 42.9099" stroke="#1E1E22" stroke-width="0.5"/>
<path d="M96.8477 53.5821C87.2368 49.3238 39.0266 17.8073 11.8301 -2.93383" stroke="#1E1E22" stroke-width="0.5"/>
<path d="M81.6104 76.504C71.9995 72.2456 23.7893 40.7292 -3.40718 19.988" stroke="#1E1E22" stroke-width="0.5"/>
<path d="M73.8536 88.1759C64.2427 83.9175 16.0325 52.4011 -11.164 31.6599" stroke="#1E1E22" stroke-width="0.5"/>
<path d="M104.328 42.3321C94.7173 38.0738 46.5071 6.55733 19.3106 -14.1838" stroke="#1E1E22" stroke-width="0.5"/>
<path d="M89.0909 65.254C79.48 60.9956 31.2698 29.4792 4.07329 8.73804" stroke="#1E1E22" stroke-width="0.5"/>
<path d="M70.252 93.5899C60.6411 89.3316 12.4309 57.8151 -14.7656 37.074" stroke="#1E1E22" stroke-width="0.5"/>
<path d="M100.726 47.7501C91.1148 43.4917 42.9045 11.9753 15.7081 -8.76587" stroke="#1E1E22" stroke-width="0.5"/>
<path d="M85.4893 70.672C75.8784 66.4136 27.6682 34.8972 0.47173 14.156" stroke="#1E1E22" stroke-width="0.5"/>
<path d="M77.7325 82.3399C68.1216 78.0816 19.9114 46.5651 -7.28511 25.824" stroke="#1E1E22" stroke-width="0.5"/>
<path d="M92.9688 59.4181C83.3579 55.1597 35.1477 23.6433 7.95122 2.9021" stroke="#1E1E22" stroke-width="0.5"/>
<path d="M68.3124 96.5106C57.9825 91.7742 5.77513 57.6007 -23.79 35.2849" stroke="#1E1E22" stroke-width="0.5"/>
<path d="M98.787 50.6668C88.4571 45.9304 36.2497 11.7569 6.68462 -10.5588" stroke="#1E1E22" stroke-width="0.5"/>
<path d="M83.5497 73.5887C73.2198 68.8523 21.0124 34.6788 -8.55268 12.363" stroke="#1E1E22" stroke-width="0.5"/>
<path d="M75.7919 85.2566C65.462 80.5203 13.2546 46.3467 -16.3105 24.031" stroke="#1E1E22" stroke-width="0.5"/>
<path d="M91.0292 62.3348C80.6993 57.5984 28.4919 23.4249 -1.07319 1.10913" stroke="#1E1E22" stroke-width="0.5"/>
<path d="M72.1913 90.6746C61.8614 85.9382 9.65404 51.7647 -19.9111 29.449" stroke="#1E1E22" stroke-width="0.5"/>
<path d="M102.666 44.8309C92.336 40.0945 40.1286 5.92096 10.5635 -16.3948" stroke="#1E1E22" stroke-width="0.5"/>
<path d="M87.4276 67.7527C77.0977 63.0164 24.8904 28.8428 -4.67475 6.5271" stroke="#1E1E22" stroke-width="0.5"/>
<path d="M79.6708 79.4207C69.3409 74.6843 17.1335 40.5108 -12.4316 18.1951" stroke="#1E1E22" stroke-width="0.5"/>
<path d="M94.9081 56.4988C84.5782 51.7625 32.3708 17.5889 2.80571 -4.7268" stroke="#1E1E22" stroke-width="0.5"/>
<path d="M67.2051 98.1759C57.5943 93.9175 9.38402 62.4011 -17.8124 41.6599" stroke="#1E1E22" stroke-width="0.5"/>
<path d="M97.6788 52.3321C88.0679 48.0738 39.8577 16.5573 12.6612 -4.18383" stroke="#1E1E22" stroke-width="0.5"/>
<path d="M82.4415 75.254C72.8306 70.9956 24.6204 39.4792 -2.57612 18.738" stroke="#1E1E22" stroke-width="0.5"/>
<path d="M74.6846 86.922C65.0738 82.6636 16.8635 51.1472 -10.333 30.406" stroke="#1E1E22" stroke-width="0.5"/>
<path d="M105.159 41.0821C95.5484 36.8238 47.3381 5.30733 20.1417 -15.4338" stroke="#1E1E22" stroke-width="0.5"/>
<path d="M89.9219 64.004C80.3111 59.7456 32.1008 28.2292 4.90435 7.48804" stroke="#1E1E22" stroke-width="0.5"/>
<path d="M71.3601 91.9232C61.4218 88.1573 13.1299 56.7638 -13.6575 35.4072" stroke="#1E1E22" stroke-width="0.5"/>
<path d="M101.835 46.0834C91.8964 42.3175 43.6045 10.924 16.8171 -10.4326" stroke="#1E1E22" stroke-width="0.5"/>
<path d="M86.5974 69.0052C76.6591 65.2394 28.3672 33.8458 1.57982 12.4893" stroke="#1E1E22" stroke-width="0.5"/>
<path d="M78.8406 80.6732C68.9023 76.9073 20.6104 45.5138 -6.17702 24.1572" stroke="#1E1E22" stroke-width="0.5"/>
<path d="M94.0769 57.7513C84.1386 53.9855 35.8467 22.5919 9.05931 1.23536" stroke="#1E1E22" stroke-width="0.5"/>
<path d="M69.4205 94.8399C58.7632 90.596 6.47412 56.5454 -22.6819 33.6143" stroke="#1E1E22" stroke-width="0.5"/>
<path d="M99.8951 49C89.2378 44.7562 36.9487 10.7056 7.79271 -12.2256" stroke="#1E1E22" stroke-width="0.5"/>
<path d="M84.6578 71.9219C74.0005 67.6781 21.7114 33.6274 -7.44459 10.6963" stroke="#1E1E22" stroke-width="0.5"/>
<path d="M76.901 83.5899C66.2436 79.346 13.9546 45.2954 -15.2014 22.3643" stroke="#1E1E22" stroke-width="0.5"/>
<path d="M92.1373 60.668C81.48 56.4242 29.1909 22.3735 0.0348983 -0.557612" stroke="#1E1E22" stroke-width="0.5"/>
<path d="M73.2994 89.0079C62.6421 84.764 10.353 50.7134 -18.803 27.7822" stroke="#1E1E22" stroke-width="0.5"/>
<path d="M103.773 43.1641C93.1157 38.9203 40.8267 4.86964 11.6706 -18.0615" stroke="#1E1E22" stroke-width="0.5"/>
<path d="M88.5357 66.086C77.8784 61.8421 25.5894 27.7915 -3.56666 4.86036" stroke="#1E1E22" stroke-width="0.5"/>
<path d="M80.7789 77.754C70.1216 73.5101 17.8325 39.4595 -11.3235 16.5283" stroke="#1E1E22" stroke-width="0.5"/>
<path d="M96.0162 54.8321C85.3589 50.5882 33.0698 16.5376 3.9138 -6.39355" stroke="#1E1E22" stroke-width="0.5"/>
</g>
<ellipse cx="33.3705" cy="40.4567" rx="2.24252" ry="2.80315" transform="rotate(-90 33.3705 40.4567)" fill="white"/>
<ellipse cx="39.5374" cy="46.6187" rx="2.80315" ry="2.24252" transform="rotate(-90 39.5374 46.6187)" fill="white"/>
<circle cx="46.264" cy="40.4567" r="2.24252" transform="rotate(-90 46.264 40.4567)" fill="white"/>
<circle cx="39.5374" cy="33.7262" r="2.24252" transform="rotate(-90 39.5374 33.7262)" fill="white"/>
<path d="M59.1704 40.1683C59.1704 50.8365 50.4912 59.5156 39.8229 59.5156C29.1547 59.5156 20.4756 50.8365 20.4756 40.1683C20.4756 29.5001 29.1547 20.821 39.8229 20.821C50.4912 20.821 59.1704 29.5003 59.1704 40.1683ZM21.4454 40.1683C21.4454 50.3018 29.6896 58.546 39.8229 58.546C49.9564 58.546 58.2006 50.302 58.2006 40.1685C58.2006 30.035 49.9564 21.791 39.8229 21.791C29.6896 21.7908 21.4454 30.035 21.4454 40.1683ZM54.2852 40.1683C54.2852 48.1427 47.7975 54.6303 39.8229 54.6303C31.8487 54.6303 25.3609 48.1427 25.3609 40.1683C25.3609 32.1939 31.8485 25.7062 39.8229 25.7062C47.7973 25.7062 54.2852 32.1941 54.2852 40.1683ZM26.3309 40.1683C26.3309 47.6079 32.3835 53.6605 39.8231 53.6605C47.2628 53.6605 53.3155 47.6079 53.3155 40.1683C53.3155 32.7287 47.2629 26.6761 39.8231 26.6761C32.3835 26.6761 26.3309 32.7287 26.3309 40.1683ZM49.294 40.1683C49.294 41.7901 47.9746 43.1094 46.3528 43.1094C44.7311 43.1094 43.4115 41.7901 43.4115 40.1683C43.4115 38.5465 44.7311 37.2272 46.3528 37.2272C47.9746 37.2272 49.294 38.5467 49.294 40.1683ZM44.3814 40.1683C44.3814 41.2553 45.2659 42.1396 46.3528 42.1396C47.4398 42.1396 48.3241 41.2553 48.3241 40.1683C48.3241 39.0813 47.4397 38.197 46.3528 38.197C45.2659 38.197 44.3814 39.0813 44.3814 40.1683ZM42.7641 33.6386C42.7641 35.2603 41.4447 36.5797 39.8229 36.5797C38.2012 36.5797 36.8818 35.2603 36.8818 33.6386C36.8818 32.0168 38.2012 30.6972 39.8229 30.6972C41.4447 30.6972 42.7641 32.0168 42.7641 33.6386ZM37.8516 33.6386C37.8516 34.7256 38.7361 35.6099 39.8229 35.6099C40.9097 35.6099 41.7942 34.7256 41.7942 33.6386C41.7942 32.5516 40.9097 31.6671 39.8229 31.6671C38.7361 31.6671 37.8516 32.5516 37.8516 33.6386ZM42.7641 46.698C42.7641 48.3198 41.4447 49.6392 39.8229 49.6392C38.2012 49.6392 36.8818 48.3198 36.8818 46.698C36.8818 45.0763 38.2012 43.7569 39.8229 43.7569C41.4447 43.7569 42.7641 45.0765 42.7641 46.698ZM37.8516 46.698C37.8516 47.785 38.7361 48.6693 39.8229 48.6693C40.9097 48.6693 41.7942 47.785 41.7942 46.698C41.7942 45.611 40.9097 44.7267 39.8229 44.7267C38.7361 44.7267 37.8516 45.611 37.8516 46.698ZM36.2343 40.1683C36.2343 41.7901 34.9149 43.1094 33.2932 43.1094C31.6714 43.1094 30.352 41.7901 30.352 40.1683C30.352 38.5465 31.6714 37.2272 33.2932 37.2272C34.9149 37.2272 36.2343 38.5467 36.2343 40.1683ZM31.3219 40.1683C31.3219 41.2553 32.2064 42.1396 33.2932 42.1396C34.38 42.1396 35.2645 41.2553 35.2645 40.1683C35.2645 39.0813 34.38 38.197 33.2932 38.197C32.2064 38.197 31.3219 39.0813 31.3219 40.1683Z" fill="#1E1E22"/>
</svg>
