<svg width="80" height="80" viewBox="0 0 80 80" fill="none" xmlns="http://www.w3.org/2000/svg">
<rect x="11.6699" y="42.5" width="4" height="57" transform="rotate(-90 11.6699 42.5)" fill="#1E1E22"/>
<circle cx="39.8229" cy="40.1722" r="19.3473" transform="rotate(-90 39.8229 40.1722)" fill="white"/>
<circle cx="39.8229" cy="40.1722" r="19.3473" transform="rotate(-90 39.8229 40.1722)" fill="white"/>
<ellipse cx="33.3705" cy="40.4606" rx="2.24252" ry="2.80315" transform="rotate(-90 33.3705 40.4606)" fill="white"/>
<ellipse cx="39.5374" cy="46.6226" rx="2.80315" ry="2.24252" transform="rotate(-90 39.5374 46.6226)" fill="white"/>
<circle cx="46.264" cy="40.4606" r="2.24252" transform="rotate(-90 46.264 40.4606)" fill="white"/>
<circle cx="39.5374" cy="33.7301" r="2.24252" transform="rotate(-90 39.5374 33.7301)" fill="white"/>
<path d="M59.1704 40.1722C59.1704 50.8404 50.4912 59.5195 39.8229 59.5195C29.1547 59.5195 20.4756 50.8404 20.4756 40.1722C20.4756 29.504 29.1547 20.8249 39.8229 20.8249C50.4912 20.8249 59.1704 29.5042 59.1704 40.1722ZM21.4454 40.1722C21.4454 50.3057 29.6896 58.5499 39.8229 58.5499C49.9564 58.5499 58.2006 50.3059 58.2006 40.1724C58.2006 30.0389 49.9564 21.7949 39.8229 21.7949C29.6896 21.7947 21.4454 30.0389 21.4454 40.1722ZM54.2852 40.1722C54.2852 48.1466 47.7975 54.6343 39.8229 54.6343C31.8487 54.6343 25.3609 48.1466 25.3609 40.1722C25.3609 32.1978 31.8485 25.7101 39.8229 25.7101C47.7973 25.7101 54.2852 32.198 54.2852 40.1722ZM26.3309 40.1722C26.3309 47.6118 32.3835 53.6644 39.8231 53.6644C47.2628 53.6644 53.3155 47.6118 53.3155 40.1722C53.3155 32.7326 47.2629 26.68 39.8231 26.68C32.3835 26.68 26.3309 32.7326 26.3309 40.1722ZM49.294 40.1722C49.294 41.794 47.9746 43.1133 46.3528 43.1133C44.7311 43.1133 43.4115 41.794 43.4115 40.1722C43.4115 38.5504 44.7311 37.2311 46.3528 37.2311C47.9746 37.2311 49.294 38.5506 49.294 40.1722ZM44.3814 40.1722C44.3814 41.2592 45.2659 42.1435 46.3528 42.1435C47.4398 42.1435 48.3241 41.2592 48.3241 40.1722C48.3241 39.0852 47.4397 38.2009 46.3528 38.2009C45.2659 38.2009 44.3814 39.0852 44.3814 40.1722ZM42.7641 33.6425C42.7641 35.2642 41.4447 36.5836 39.8229 36.5836C38.2012 36.5836 36.8818 35.2642 36.8818 33.6425C36.8818 32.0207 38.2012 30.7011 39.8229 30.7011C41.4447 30.7011 42.7641 32.0207 42.7641 33.6425ZM37.8516 33.6425C37.8516 34.7295 38.7361 35.6138 39.8229 35.6138C40.9097 35.6138 41.7942 34.7295 41.7942 33.6425C41.7942 32.5555 40.9097 31.671 39.8229 31.671C38.7361 31.671 37.8516 32.5555 37.8516 33.6425ZM42.7641 46.7019C42.7641 48.3237 41.4447 49.6431 39.8229 49.6431C38.2012 49.6431 36.8818 48.3237 36.8818 46.7019C36.8818 45.0802 38.2012 43.7608 39.8229 43.7608C41.4447 43.7608 42.7641 45.0804 42.7641 46.7019ZM37.8516 46.7019C37.8516 47.7889 38.7361 48.6732 39.8229 48.6732C40.9097 48.6732 41.7942 47.7889 41.7942 46.7019C41.7942 45.6149 40.9097 44.7306 39.8229 44.7306C38.7361 44.7306 37.8516 45.6149 37.8516 46.7019ZM36.2343 40.1722C36.2343 41.794 34.9149 43.1133 33.2932 43.1133C31.6714 43.1133 30.352 41.794 30.352 40.1722C30.352 38.5504 31.6714 37.2311 33.2932 37.2311C34.9149 37.2311 36.2343 38.5506 36.2343 40.1722ZM31.3219 40.1722C31.3219 41.2592 32.2064 42.1435 33.2932 42.1435C34.38 42.1435 35.2645 41.2592 35.2645 40.1722C35.2645 39.0852 34.38 38.2009 33.2932 38.2009C32.2064 38.2009 31.3219 39.0852 31.3219 40.1722Z" fill="#1E1E22"/>
</svg>
