<svg width="80" height="80" viewBox="0 0 80 80" fill="none" xmlns="http://www.w3.org/2000/svg">
<rect x="38" y="11" width="4" height="57" fill="#757575"/>
<circle cx="39.653" cy="39.1715" r="19.3473" fill="white"/>
<circle cx="39.653" cy="39.1715" r="19.3473" fill="white"/>
<mask id="mask0" mask-type="alpha" maskUnits="userSpaceOnUse" x="12" y="12" width="55" height="54">
<circle cx="39.6525" cy="39.1704" r="19.3473" transform="rotate(33.6142 39.6525 39.1704)" fill="white"/>
</mask>
<g mask="url(#mask0)">
<path d="M-19.6056 65.7217C-15.3472 56.1109 16.1692 7.90063 36.9104 -19.2958" stroke="#757575" stroke-width="0.5"/>
<path d="M26.2372 96.1964C30.4956 86.5855 62.012 38.3752 82.7532 11.1788" stroke="#757575" stroke-width="0.5"/>
<path d="M3.3163 80.9581C7.57468 71.3472 39.0911 23.137 59.8323 -4.05952" stroke="#757575" stroke-width="0.5"/>
<path d="M-8.35264 73.2003C-4.09426 63.5894 27.4222 15.3791 48.1633 -11.8173" stroke="#757575" stroke-width="0.5"/>
<path d="M37.4901 103.677C41.7485 94.0659 73.2649 45.8557 94.0061 18.6592" stroke="#757575" stroke-width="0.5"/>
<path d="M14.5692 88.4385C18.8276 78.8277 50.344 30.6174 71.0852 3.42095" stroke="#757575" stroke-width="0.5"/>
<path d="M-13.7706 69.6007C-9.51223 59.9898 22.0042 11.7795 42.7454 -15.4169" stroke="#757575" stroke-width="0.5"/>
<path d="M32.0722 100.075C36.3305 90.4644 67.847 42.2541 88.5881 15.0577" stroke="#757575" stroke-width="0.5"/>
<path d="M9.15126 84.837C13.4096 75.2261 44.9261 27.0159 65.6672 -0.180613" stroke="#757575" stroke-width="0.5"/>
<path d="M-2.51768 77.0792C1.7407 67.4683 33.2571 19.258 53.9983 -7.93843" stroke="#757575" stroke-width="0.5"/>
<path d="M20.4032 92.3174C24.6616 82.7066 56.178 34.4963 76.9192 7.29986" stroke="#757575" stroke-width="0.5"/>
<path d="M-16.6883 67.6601C-11.9519 57.3301 22.2216 5.12279 44.5373 -24.4423" stroke="#757575" stroke-width="0.5"/>
<path d="M29.1545 98.1327C33.8909 87.8028 68.0644 35.5954 90.3801 6.03032" stroke="#757575" stroke-width="0.5"/>
<path d="M6.23359 82.8983C10.97 72.5684 45.1435 20.3611 67.4592 -9.20405" stroke="#757575" stroke-width="0.5"/>
<path d="M-5.43536 75.1405C-0.698981 64.8106 33.4745 12.6033 55.7903 -16.9619" stroke="#757575" stroke-width="0.5"/>
<path d="M17.4865 90.3788C22.2229 80.0489 56.3964 27.8415 78.7122 -1.72358" stroke="#757575" stroke-width="0.5"/>
<path d="M-10.8523 71.539C-6.11597 61.209 28.0576 9.0017 50.3733 -20.5634" stroke="#757575" stroke-width="0.5"/>
<path d="M34.9904 102.012C39.7268 91.6817 73.9003 39.4744 96.2161 9.90923" stroke="#757575" stroke-width="0.5"/>
<path d="M12.0686 86.7772C16.8049 76.4473 50.9785 24.24 73.2942 -5.32514" stroke="#757575" stroke-width="0.5"/>
<path d="M0.399606 79.0194C5.13598 68.6895 39.3095 16.4822 61.6252 -13.083" stroke="#757575" stroke-width="0.5"/>
<path d="M23.3205 94.2538C28.0569 83.9239 62.2304 31.7165 84.5461 2.15142" stroke="#757575" stroke-width="0.5"/>
<path d="M-18.3546 66.5518C-14.0962 56.9409 17.4202 8.7307 38.1614 -18.4658" stroke="#757575" stroke-width="0.5"/>
<path d="M27.4882 97.0284C31.7466 87.4175 63.263 39.2073 84.0041 12.0108" stroke="#757575" stroke-width="0.5"/>
<path d="M4.5663 81.7901C8.82468 72.1792 40.3411 23.969 61.0823 -3.22749" stroke="#757575" stroke-width="0.5"/>
<path d="M-7.10264 74.0323C-2.84426 64.4214 28.6722 16.2112 49.4133 -10.9853" stroke="#757575" stroke-width="0.5"/>
<path d="M38.7411 104.505C42.9995 94.8941 74.5159 46.6838 95.2571 19.4874" stroke="#757575" stroke-width="0.5"/>
<path d="M15.8192 89.2706C20.0776 79.6597 51.594 31.4495 72.3352 4.25298" stroke="#757575" stroke-width="0.5"/>
<path d="M-12.1039 70.7078C-8.338 60.7695 23.0555 12.4775 44.4121 -14.3098" stroke="#757575" stroke-width="0.5"/>
<path d="M33.7399 101.18C37.5057 91.2421 68.8993 42.9502 90.2559 16.1628" stroke="#757575" stroke-width="0.5"/>
<path d="M10.818 85.946C14.5839 76.0078 45.9774 27.7158 67.334 0.928453" stroke="#757575" stroke-width="0.5"/>
<path d="M-0.85093 78.1882C2.91492 68.25 34.3085 19.958 55.665 -6.82936" stroke="#757575" stroke-width="0.5"/>
<path d="M22.07 93.4265C25.8358 83.4882 57.2294 35.1963 78.5859 8.40892" stroke="#757575" stroke-width="0.5"/>
<path d="M-15.0206 68.7691C-10.7767 58.1118 23.2739 5.82275 46.2051 -23.3333" stroke="#757575" stroke-width="0.5"/>
<path d="M30.8222 99.2418C35.0661 88.5844 69.1167 36.2954 92.0478 7.13939" stroke="#757575" stroke-width="0.5"/>
<path d="M7.90034 84.0035C12.1442 73.3462 46.1948 21.0571 69.126 -8.09889" stroke="#757575" stroke-width="0.5"/>
<path d="M-3.7686 76.2496C0.475248 65.5923 34.5259 13.3032 57.457 -15.8528" stroke="#757575" stroke-width="0.5"/>
<path d="M19.1533 91.484C23.3971 80.8266 57.4477 28.5376 80.3789 -0.618422" stroke="#757575" stroke-width="0.5"/>
<path d="M-9.18657 72.648C-4.94272 61.9907 29.1079 9.70166 52.0391 -19.4544" stroke="#757575" stroke-width="0.5"/>
<path d="M36.6572 103.121C40.901 92.4634 74.9517 40.1743 97.8828 11.0183" stroke="#757575" stroke-width="0.5"/>
<path d="M13.7353 87.8824C17.9792 77.2251 52.0298 24.936 74.9609 -4.21998" stroke="#757575" stroke-width="0.5"/>
<path d="M2.06636 80.1285C6.31021 69.4712 40.3608 17.1821 63.292 -11.9739" stroke="#757575" stroke-width="0.5"/>
<path d="M24.9873 95.3629C29.2311 84.7055 63.2817 32.4165 86.2129 3.26048" stroke="#757575" stroke-width="0.5"/>
</g>
<ellipse cx="39.3646" cy="32.7172" rx="2.24252" ry="2.80315" fill="white"/>
<ellipse cx="33.2016" cy="38.8871" rx="2.80315" ry="2.24252" fill="white"/>
<circle cx="39.3646" cy="45.6136" r="2.24252" fill="white"/>
<circle cx="46.0941" cy="38.8871" r="2.24252" fill="white"/>
<path d="M39.653 58.5191C28.9848 58.5191 20.3057 49.8398 20.3057 39.1716C20.3057 28.5033 28.9848 19.8242 39.653 19.8242C50.3212 19.8242 59.0003 28.5033 59.0003 39.1716C59.0003 49.8398 50.321 58.5191 39.653 58.5191ZM39.653 20.7941C29.5195 20.7941 21.2753 29.0383 21.2753 39.1716C21.2753 49.305 29.5193 57.5492 39.6528 57.5492C49.7863 57.5492 58.0303 49.305 58.0303 39.1716C58.0305 29.0383 49.7863 20.7941 39.653 20.7941ZM39.653 53.6338C31.6786 53.6338 25.1909 47.1462 25.1909 39.1716C25.1909 31.1973 31.6786 24.7095 39.653 24.7095C47.6274 24.7095 54.115 31.1971 54.115 39.1716C54.115 47.146 47.6272 53.6338 39.653 53.6338ZM39.653 25.6795C32.2134 25.6795 26.1608 31.7321 26.1608 39.1717C26.1608 46.6114 32.2134 52.6642 39.653 52.6642C47.0926 52.6642 53.1452 46.6116 53.1452 39.1717C53.1452 31.7321 47.0926 25.6795 39.653 25.6795ZM39.653 48.6426C38.0312 48.6426 36.7119 47.3232 36.7119 45.7015C36.7119 44.0797 38.0312 42.7602 39.653 42.7602C41.2748 42.7602 42.5941 44.0797 42.5941 45.7015C42.5941 47.3232 41.2746 48.6426 39.653 48.6426ZM39.653 43.73C38.566 43.73 37.6817 44.6145 37.6817 45.7015C37.6817 46.7885 38.566 47.6728 39.653 47.6728C40.74 47.6728 41.6243 46.7883 41.6243 45.7015C41.6243 44.6145 40.74 43.73 39.653 43.73ZM46.1827 42.1127C44.561 42.1127 43.2416 40.7933 43.2416 39.1716C43.2416 37.5498 44.561 36.2304 46.1827 36.2304C47.8045 36.2304 49.1241 37.5498 49.1241 39.1716C49.1241 40.7933 47.8045 42.1127 46.1827 42.1127ZM46.1827 37.2003C45.0957 37.2003 44.2114 38.0847 44.2114 39.1716C44.2114 40.2584 45.0957 41.1428 46.1827 41.1428C47.2697 41.1428 48.1542 40.2584 48.1542 39.1716C48.1542 38.0847 47.2697 37.2003 46.1827 37.2003ZM33.1233 42.1127C31.5015 42.1127 30.1821 40.7933 30.1821 39.1716C30.1821 37.5498 31.5015 36.2304 33.1233 36.2304C34.745 36.2304 36.0644 37.5498 36.0644 39.1716C36.0644 40.7933 34.7448 42.1127 33.1233 42.1127ZM33.1233 37.2003C32.0363 37.2003 31.152 38.0847 31.152 39.1716C31.152 40.2584 32.0363 41.1428 33.1233 41.1428C34.2103 41.1428 35.0946 40.2584 35.0946 39.1716C35.0946 38.0847 34.2103 37.2003 33.1233 37.2003ZM39.653 35.583C38.0312 35.583 36.7119 34.2636 36.7119 32.6418C36.7119 31.02 38.0312 29.7007 39.653 29.7007C41.2748 29.7007 42.5941 31.02 42.5941 32.6418C42.5941 34.2636 41.2746 35.583 39.653 35.583ZM39.653 30.6705C38.566 30.6705 37.6817 31.555 37.6817 32.6418C37.6817 33.7286 38.566 34.6131 39.653 34.6131C40.74 34.6131 41.6243 33.7286 41.6243 32.6418C41.6243 31.555 40.74 30.6705 39.653 30.6705Z" fill="#757575"/>
</svg>
