<svg width="80" height="80" viewBox="0 0 80 80" fill="none" xmlns="http://www.w3.org/2000/svg">
<path d="M10.8828 21.8277C19.7652 10.554 63.152 12.2624 68.6181 21.8277L50.5118 40.2757H34.7968L10.8828 21.8277Z" fill="white" stroke="#1E1E22" stroke-width="2"/>
<path d="M51.1943 50.1842C42.3072 52.3584 37.4634 52.2379 28.9884 50.1842L25.2305 49.1593C26.8247 44.832 30.2663 35.9188 30.3549 36.1774C30.7561 37.3485 42.9195 37.5911 48.8029 36.1774L51.1943 50.1842Z" fill="white" stroke="#1E1E22" stroke-width="2"/>
<path d="M18.7398 65.8983L37.5294 36.8598C26.1925 31.9747 20.2698 28.7667 10.8824 21.8281C6.96313 28.6599 5.06915 33.4529 2 43.0091C7.05562 55.9555 10.965 60.3099 18.7398 65.8983Z" fill="white" stroke="#1E1E22" stroke-width="2"/>
<path d="M60.7602 65.8983L41.9706 36.8598C53.3075 31.9747 60.4186 29.6856 68.6176 21.8281C72.5369 28.6599 74.4309 33.4529 77.5 43.0091C72.4444 55.9555 68.535 60.3099 60.7602 65.8983Z" fill="white" stroke="#1E1E22" stroke-width="2"/>
<mask id="mask0" mask-type="alpha" maskUnits="userSpaceOnUse" x="40" y="20" width="39" height="48">
<path d="M60.7602 66.0701L41.9706 37.0317C53.3075 32.1466 60.4186 29.8575 68.6176 22C72.5369 28.8318 74.4309 33.6247 77.5 43.181C72.4444 56.1274 68.535 60.4818 60.7602 66.0701Z" fill="white" stroke="#757575" stroke-width="2"/>
</mask>
<g mask="url(#mask0)">
<path d="M68.5492 99.0884C66.7749 88.7272 66.3322 31.1311 68.5491 -3" stroke="#1E1E22" stroke-width="0.5"/>
<path d="M41.0257 99.0884C39.2515 88.7272 38.8087 31.1311 41.0257 -3" stroke="#1E1E22" stroke-width="0.5"/>
<path d="M54.5374 99.0884C52.7632 88.7272 52.3204 31.1311 54.5374 -3" stroke="#1E1E22" stroke-width="0.5"/>
<path d="M75.555 99.0884C73.7808 88.7272 73.338 31.1311 75.555 -3" stroke="#1E1E22" stroke-width="0.5"/>
<path d="M48.0316 99.0884C46.2573 88.7272 45.8146 31.1311 48.0316 -3" stroke="#1E1E22" stroke-width="0.5"/>
<path d="M61.5433 99.0884C59.769 88.7272 59.3263 31.1311 61.5433 -3" stroke="#1E1E22" stroke-width="0.5"/>
<path d="M72.0521 99.088C70.2778 87.8633 69.8351 25.4675 72.0521 -11.5078" stroke="#1E1E22" stroke-width="0.5"/>
<path d="M44.5286 99.088C42.7544 87.8633 42.3116 25.4675 44.5286 -11.5078" stroke="#1E1E22" stroke-width="0.5"/>
<path d="M58.0404 99.088C56.2661 87.8633 55.8234 25.4675 58.0403 -11.5078" stroke="#1E1E22" stroke-width="0.5"/>
<path d="M79.0589 99.088C77.2847 87.8633 76.8419 25.4675 79.0589 -11.5078" stroke="#1E1E22" stroke-width="0.5"/>
<path d="M51.5345 99.088C49.7602 87.8633 49.3175 25.4675 51.5345 -11.5078" stroke="#1E1E22" stroke-width="0.5"/>
<path d="M65.0462 99.088C63.272 87.8633 62.8292 25.4675 65.0462 -11.5078" stroke="#1E1E22" stroke-width="0.5"/>
<path d="M70.0511 99.0884C68.2768 88.7272 67.8341 31.1311 70.0511 -3" stroke="#1E1E22" stroke-width="0.5"/>
<path d="M42.5267 99.0884C40.7524 88.7272 40.3097 31.1311 42.5267 -3" stroke="#1E1E22" stroke-width="0.5"/>
<path d="M56.0384 99.0884C54.2642 88.7272 53.8214 31.1311 56.0384 -3" stroke="#1E1E22" stroke-width="0.5"/>
<path d="M77.5574 99.0884C75.1917 88.7272 74.6014 31.1311 77.5574 -3" stroke="#1E1E22" stroke-width="0.5"/>
<path d="M50.033 99.0884C47.6673 88.7272 47.077 31.1311 50.033 -3" stroke="#1E1E22" stroke-width="0.5"/>
<path d="M63.5447 99.0884C61.179 88.7272 60.5887 31.1311 63.5447 -3" stroke="#1E1E22" stroke-width="0.5"/>
<path d="M74.0545 99.088C71.6888 87.8633 71.0985 25.4675 74.0544 -11.5078" stroke="#1E1E22" stroke-width="0.5"/>
<path d="M46.5301 99.088C44.1644 87.8633 43.5741 25.4675 46.53 -11.5078" stroke="#1E1E22" stroke-width="0.5"/>
<path d="M60.0418 99.088C57.6761 87.8633 57.0858 25.4675 60.0417 -11.5078" stroke="#1E1E22" stroke-width="0.5"/>
<path d="M53.5359 99.088C51.1702 87.8633 50.5799 25.4675 53.5359 -11.5078" stroke="#1E1E22" stroke-width="0.5"/>
<path d="M67.0476 99.088C64.682 87.8633 64.0916 25.4675 67.0476 -11.5078" stroke="#1E1E22" stroke-width="0.5"/>
</g>
<mask id="mask1" mask-type="alpha" maskUnits="userSpaceOnUse" x="0" y="20" width="40" height="48">
<path d="M18.7398 66.0701L37.5294 37.0317C26.1925 32.1466 20.2698 28.9386 10.8824 22C6.96313 28.8318 5.06915 33.6247 2 43.181C7.05562 56.1274 10.965 60.4818 18.7398 66.0701Z" fill="white" stroke="#757575" stroke-width="2"/>
</mask>
<g mask="url(#mask1)">
<path d="M40.0501 99.0845C38.2759 88.7233 37.8331 31.1271 40.0501 -3.00391" stroke="#1E1E22" stroke-width="0.5"/>
<path d="M12.5267 99.0845C10.7524 88.7233 10.3097 31.1271 12.5267 -3.00391" stroke="#1E1E22" stroke-width="0.5"/>
<path d="M26.0384 99.0845C24.2642 88.7233 23.8214 31.1271 26.0384 -3.00391" stroke="#1E1E22" stroke-width="0.5"/>
<path d="M19.5326 99.0845C17.7583 88.7233 17.3156 31.1271 19.5325 -3.00391" stroke="#1E1E22" stroke-width="0.5"/>
<path d="M5.52083 99.0845C3.74657 88.7233 3.30383 31.1271 5.52081 -3.00391" stroke="#1E1E22" stroke-width="0.5"/>
<path d="M33.0443 99.0845C31.27 88.7233 30.8273 31.1271 33.0442 -3.00391" stroke="#1E1E22" stroke-width="0.5"/>
<path d="M16.0296 99.088C14.2554 87.8633 13.8126 25.4675 16.0296 -11.5078" stroke="#1E1E22" stroke-width="0.5"/>
<path d="M2.01693 99.088C0.242668 87.8633 -0.200073 25.4675 2.0169 -11.5078" stroke="#1E1E22" stroke-width="0.5"/>
<path d="M29.5413 99.088C27.7671 87.8633 27.3243 25.4675 29.5413 -11.5078" stroke="#1E1E22" stroke-width="0.5"/>
<path d="M23.0355 99.088C21.2612 87.8633 20.8185 25.4675 23.0355 -11.5078" stroke="#1E1E22" stroke-width="0.5"/>
<path d="M9.02376 99.088C7.2495 87.8633 6.80676 25.4675 9.02374 -11.5078" stroke="#1E1E22" stroke-width="0.5"/>
<path d="M36.5472 99.088C34.7729 87.8633 34.3302 25.4675 36.5472 -11.5078" stroke="#1E1E22" stroke-width="0.5"/>
<path d="M14.0277 99.0845C12.2534 88.7233 11.8107 31.1271 14.0276 -3.00391" stroke="#1E1E22" stroke-width="0.5"/>
<path d="M27.5394 99.0845C25.7651 88.7233 25.3224 31.1271 27.5394 -3.00391" stroke="#1E1E22" stroke-width="0.5"/>
<path d="M21.534 99.0845C19.1683 88.7233 18.578 31.1271 21.5339 -3.00391" stroke="#1E1E22" stroke-width="0.5"/>
<path d="M7.52224 99.0845C5.15657 88.7233 4.56624 31.1271 7.52221 -3.00391" stroke="#1E1E22" stroke-width="0.5"/>
<path d="M35.0457 99.0845C32.68 88.7233 32.0897 31.1271 35.0456 -3.00391" stroke="#1E1E22" stroke-width="0.5"/>
<path d="M18.031 99.088C15.6654 87.8633 15.075 25.4675 18.031 -11.5078" stroke="#1E1E22" stroke-width="0.5"/>
<path d="M4.01931 99.088C1.65364 87.8633 1.06331 25.4675 4.01928 -11.5078" stroke="#1E1E22" stroke-width="0.5"/>
<path d="M31.5427 99.088C29.1771 87.8633 28.5868 25.4675 31.5427 -11.5078" stroke="#1E1E22" stroke-width="0.5"/>
<path d="M25.0369 99.088C22.6712 87.8633 22.0809 25.4675 25.0369 -11.5078" stroke="#1E1E22" stroke-width="0.5"/>
<path d="M11.0252 99.088C8.6595 87.8633 8.06917 25.4675 11.0251 -11.5078" stroke="#1E1E22" stroke-width="0.5"/>
<path d="M38.5486 99.088C36.1829 87.8633 35.5926 25.4675 38.5486 -11.5078" stroke="#1E1E22" stroke-width="0.5"/>
</g>
<circle cx="40.1186" cy="45.7251" r="1.21336" fill="#1E1E22" stroke="#1E1E22" stroke-width="2"/>
<path d="M30.5273 33.4939C38.1142 31.7316 42.3218 31.8041 49.7098 33.4939" stroke="#1E1E22" stroke-width="2"/>
</svg>
