<svg width="80" height="80" viewBox="0 0 80 80" fill="none" xmlns="http://www.w3.org/2000/svg">
<path d="M18.144 49.1458H9.648L8.388 52.9978H0L9.324 27.5098H18.54L27.828 52.9978H19.404L18.144 49.1458ZM16.2 43.1338L13.896 36.0418L11.592 43.1338H16.2Z" fill="#757575"/>
<path d="M46.7618 39.9298C48.2978 40.2898 49.4858 41.0338 50.3258 42.1618C51.1898 43.2658 51.6218 44.5498 51.6218 46.0138C51.6218 48.2458 50.8778 49.9738 49.3898 51.1978C47.9258 52.3978 45.8138 52.9978 43.0538 52.9978H29.6978V27.5098H42.6938C45.2858 27.5098 47.3258 28.0738 48.8138 29.2018C50.3018 30.3298 51.0457 31.9738 51.0457 34.1338C51.0457 35.6218 50.6497 36.8818 49.8577 37.9138C49.0897 38.9218 48.0578 39.5938 46.7618 39.9298ZM37.6898 37.4458H40.7858C41.5058 37.4458 42.0338 37.3018 42.3698 37.0138C42.7298 36.7258 42.9098 36.2818 42.9098 35.6818C42.9098 35.0578 42.7298 34.6018 42.3698 34.3138C42.0338 34.0018 41.5058 33.8458 40.7858 33.8458H37.6898V37.4458ZM41.3258 46.5898C42.0458 46.5898 42.5738 46.4578 42.9098 46.1938C43.2698 45.9058 43.4498 45.4498 43.4498 44.8258C43.4498 43.6018 42.7418 42.9898 41.3258 42.9898H37.6898V46.5898H41.3258Z" fill="#757575"/>
<path d="M53.6411 40.2178C53.6411 37.6978 54.1451 35.4538 55.1531 33.4858C56.1851 31.5178 57.6491 29.9938 59.5451 28.9138C61.4411 27.8098 63.6731 27.2578 66.2411 27.2578C68.4491 27.2578 70.4171 27.6778 72.1451 28.5178C73.8971 29.3338 75.3131 30.4978 76.3931 32.0098C77.4971 33.5218 78.2291 35.2858 78.5891 37.3018H70.1651C69.7811 36.4618 69.2291 35.8138 68.5091 35.3578C67.8131 34.8778 67.0091 34.6378 66.0971 34.6378C64.7531 34.6378 63.6851 35.1418 62.8931 36.1498C62.1251 37.1578 61.7411 38.5138 61.7411 40.2178C61.7411 41.9218 62.1251 43.2778 62.8931 44.2858C63.6851 45.2938 64.7531 45.7978 66.0971 45.7978C67.0091 45.7978 67.8131 45.5698 68.5091 45.1138C69.2291 44.6338 69.7811 43.9738 70.1651 43.1338H78.5891C78.2291 45.1498 77.4971 46.9138 76.3931 48.4258C75.3131 49.9378 73.8971 51.1138 72.1451 51.9538C70.4171 52.7698 68.4491 53.1778 66.2411 53.1778C63.6731 53.1778 61.4411 52.6378 59.5451 51.5578C57.6491 50.4538 56.1851 48.9178 55.1531 46.9498C54.1451 44.9818 53.6411 42.7378 53.6411 40.2178Z" fill="#757575"/>
</svg>
