<svg width="80" height="80" viewBox="0 0 80 80" fill="none" xmlns="http://www.w3.org/2000/svg">
<rect x="38" y="11" width="4" height="57" fill="#757575"/>
<circle cx="39.653" cy="39.1715" r="19.3473" fill="white"/>
<circle cx="39.653" cy="39.1715" r="19.3473" fill="white"/>
<ellipse cx="39.3646" cy="32.7211" rx="2.24252" ry="2.80315" fill="white"/>
<ellipse cx="33.2026" cy="38.8871" rx="2.80315" ry="2.24252" fill="white"/>
<circle cx="39.3646" cy="45.6136" r="2.24252" fill="white"/>
<circle cx="46.0941" cy="38.8871" r="2.24252" fill="white"/>
<path d="M39.653 58.5191C28.9848 58.5191 20.3057 49.8398 20.3057 39.1716C20.3057 28.5033 28.9848 19.8242 39.653 19.8242C50.3212 19.8242 59.0003 28.5033 59.0003 39.1716C59.0003 49.8398 50.321 58.5191 39.653 58.5191ZM39.653 20.7941C29.5195 20.7941 21.2753 29.0383 21.2753 39.1716C21.2753 49.305 29.5193 57.5492 39.6528 57.5492C49.7863 57.5492 58.0303 49.305 58.0303 39.1716C58.0305 29.0383 49.7863 20.7941 39.653 20.7941ZM39.653 53.6338C31.6786 53.6338 25.1909 47.1462 25.1909 39.1716C25.1909 31.1973 31.6786 24.7095 39.653 24.7095C47.6274 24.7095 54.115 31.1971 54.115 39.1716C54.115 47.146 47.6272 53.6338 39.653 53.6338ZM39.653 25.6795C32.2134 25.6795 26.1608 31.7321 26.1608 39.1717C26.1608 46.6114 32.2134 52.6642 39.653 52.6642C47.0926 52.6642 53.1452 46.6116 53.1452 39.1717C53.1452 31.7321 47.0926 25.6795 39.653 25.6795ZM39.653 48.6426C38.0312 48.6426 36.7119 47.3232 36.7119 45.7015C36.7119 44.0797 38.0312 42.7602 39.653 42.7602C41.2748 42.7602 42.5941 44.0797 42.5941 45.7015C42.5941 47.3232 41.2746 48.6426 39.653 48.6426ZM39.653 43.73C38.566 43.73 37.6817 44.6145 37.6817 45.7015C37.6817 46.7885 38.566 47.6728 39.653 47.6728C40.74 47.6728 41.6243 46.7883 41.6243 45.7015C41.6243 44.6145 40.74 43.73 39.653 43.73ZM46.1827 42.1127C44.561 42.1127 43.2416 40.7933 43.2416 39.1716C43.2416 37.5498 44.561 36.2304 46.1827 36.2304C47.8045 36.2304 49.1241 37.5498 49.1241 39.1716C49.1241 40.7933 47.8045 42.1127 46.1827 42.1127ZM46.1827 37.2003C45.0957 37.2003 44.2114 38.0847 44.2114 39.1716C44.2114 40.2584 45.0957 41.1428 46.1827 41.1428C47.2697 41.1428 48.1542 40.2584 48.1542 39.1716C48.1542 38.0847 47.2697 37.2003 46.1827 37.2003ZM33.1233 42.1127C31.5015 42.1127 30.1821 40.7933 30.1821 39.1716C30.1821 37.5498 31.5015 36.2304 33.1233 36.2304C34.745 36.2304 36.0644 37.5498 36.0644 39.1716C36.0644 40.7933 34.7448 42.1127 33.1233 42.1127ZM33.1233 37.2003C32.0363 37.2003 31.152 38.0847 31.152 39.1716C31.152 40.2584 32.0363 41.1428 33.1233 41.1428C34.2103 41.1428 35.0946 40.2584 35.0946 39.1716C35.0946 38.0847 34.2103 37.2003 33.1233 37.2003ZM39.653 35.583C38.0312 35.583 36.7119 34.2636 36.7119 32.6418C36.7119 31.02 38.0312 29.7007 39.653 29.7007C41.2748 29.7007 42.5941 31.02 42.5941 32.6418C42.5941 34.2636 41.2746 35.583 39.653 35.583ZM39.653 30.6705C38.566 30.6705 37.6817 31.555 37.6817 32.6418C37.6817 33.7286 38.566 34.6131 39.653 34.6131C40.74 34.6131 41.6243 33.7286 41.6243 32.6418C41.6243 31.555 40.74 30.6705 39.653 30.6705Z" fill="#757575"/>
</svg>
