<svg width="21" height="20" fill="none" xmlns="http://www.w3.org/2000/svg">
<path d="M10.2984 0C4.73228 0 0.214844 4.48 0.214844 10C0.214844 15.52 4.73228 20 10.2984 20C15.8645 20 20.382 15.52 20.382 10C20.382 4.48 15.8645 0 10.2984 0ZM10.2984 3C11.9723 3 13.3235 4.34 13.3235 6C13.3235 7.66 11.9723 9 10.2984 9C8.62454 9 7.27334 7.66 7.27334 6C7.27334 4.34 8.62454 3 10.2984 3ZM10.2984 17.2C7.77752 17.2 5.54905 15.92 4.24827 13.98C4.27852 11.99 8.2817 10.9 10.2984 10.9C12.305 10.9 16.3183 11.99 16.3486 13.98C15.0478 15.92 12.8193 17.2 10.2984 17.2Z" fill="#131920"/>
</svg>
