<svg width="24" height="24" viewBox="0 0 24 24" fill="none" xmlns="http://www.w3.org/2000/svg">
<path fill-rule="evenodd" clip-rule="evenodd" d="M22.1095 11.5932C22.1055 11.5822 22.1055 11.5712 22.1005 11.5602C22.1005 11.5582 22.1005 11.5572 22.0995 11.5552C22.0395 11.4132 21.9515 11.2932 21.8495 11.1852C21.8385 11.1732 21.8345 11.1582 21.8235 11.1462L14.1755 3.56822C13.9265 3.32222 13.6005 3.19922 13.2745 3.19922C12.9485 3.19922 12.6235 3.32222 12.3745 3.56822C11.8765 4.06122 11.8765 4.85922 12.3745 5.35222L17.8485 10.7772H3.08355C2.37955 10.7772 1.81055 11.3412 1.81055 12.0392C1.81055 12.7352 2.37955 13.3002 3.08355 13.3002H17.8475L12.3735 18.7522C11.8755 19.2442 11.8755 20.0432 12.3735 20.5352C12.8705 21.0282 13.6775 21.0282 14.1755 20.5352L21.8235 12.9312C21.9335 12.8222 22.0125 12.6932 22.0745 12.5572C22.0945 12.5152 22.1055 12.4742 22.1195 12.4322C22.1535 12.3302 22.1745 12.2282 22.1815 12.1202C22.1845 12.0762 22.1905 12.0352 22.1885 11.9912C22.1835 11.8552 22.1595 11.7232 22.1095 11.5932Z" fill="black"/>
</svg>
