<svg width="24" height="24" viewBox="0 0 24 24" fill="none" xmlns="http://www.w3.org/2000/svg">
<path fill-rule="evenodd" clip-rule="evenodd" d="M20.7509 10.804H5.98691L11.4609 5.35197C11.9589 4.85997 11.9589 4.06097 11.4609 3.56897C10.9639 3.07597 10.1569 3.07597 9.65891 3.56897L2.01091 11.173C1.90091 11.282 1.82191 11.411 1.75991 11.547C1.73991 11.589 1.72891 11.63 1.71491 11.672C1.68091 11.774 1.65991 11.876 1.65291 11.984C1.64991 12.028 1.64391 12.069 1.64591 12.113C1.65091 12.248 1.67391 12.381 1.72391 12.51C1.72791 12.521 1.72791 12.532 1.73291 12.543C1.73291 12.545 1.73291 12.546 1.73391 12.548C1.79391 12.69 1.88191 12.81 1.98391 12.918C1.99491 12.93 1.99891 12.945 2.00991 12.957L9.65791 20.535C9.90691 20.781 10.2329 20.904 10.5589 20.904C10.8849 20.904 11.2099 20.781 11.4589 20.535C11.9569 20.042 11.9569 19.244 11.4589 18.751L5.98491 13.326H20.7489C21.4529 13.326 22.0219 12.762 22.0219 12.064C22.0239 11.369 21.4549 10.804 20.7509 10.804Z" fill="black"/>
</svg>
