<svg width="21" height="20" viewBox="0 0 21 20" fill="none" xmlns="http://www.w3.org/2000/svg">
<path d="M10.0891 0C4.52298 0 0.015625 4.48 0.015625 10C0.015625 15.52 4.52298 20 10.0891 20C15.6653 20 20.1828 15.52 20.1828 10C20.1828 4.48 15.6653 0 10.0891 0ZM17.077 6H14.1024C13.7797 4.75 13.3159 3.55 12.7108 2.44C14.5662 3.07 16.109 4.35 17.077 6ZM10.0992 2.04C10.9361 3.24 11.5916 4.57 12.0252 6H8.17323C8.60682 4.57 9.26226 3.24 10.0992 2.04ZM2.29451 12C2.13317 11.36 2.03234 10.69 2.03234 10C2.03234 9.31 2.13317 8.64 2.29451 8H5.70276C5.62209 8.66 5.56159 9.32 5.56159 10C5.56159 10.68 5.62209 11.34 5.70276 12H2.29451ZM3.12136 14H6.09602C6.41869 15.25 6.88253 16.45 7.48755 17.56C5.63217 16.93 4.08939 15.66 3.12136 14ZM6.09602 6H3.12136C4.08939 4.34 5.63217 3.07 7.48755 2.44C6.88253 3.55 6.41869 4.75 6.09602 6ZM10.0992 17.96C9.26226 16.76 8.60682 15.43 8.17323 14H12.0252C11.5916 15.43 10.9361 16.76 10.0992 17.96ZM12.4587 12H7.73964C7.64888 11.34 7.5783 10.68 7.5783 10C7.5783 9.32 7.64888 8.65 7.73964 8H12.4587C12.5495 8.65 12.6201 9.32 12.6201 10C12.6201 10.68 12.5495 11.34 12.4587 12ZM12.7108 17.56C13.3159 16.45 13.7797 15.25 14.1024 14H17.077C16.109 15.65 14.5662 16.93 12.7108 17.56ZM14.4956 12C14.5763 11.34 14.6368 10.68 14.6368 10C14.6368 9.32 14.5763 8.66 14.4956 8H17.9039C18.0652 8.64 18.166 9.31 18.166 10C18.166 10.69 18.0652 11.36 17.9039 12H14.4956Z" fill="#131920"/>
</svg>
