<svg width="24" height="24" viewBox="0 0 24 24" fill="none" xmlns="http://www.w3.org/2000/svg">
<path d="M15.302 12.6361C13.0767 12.6361 11.2659 11.0706 11.2597 9.14439L11.2508 8.88619C11.1064 6.7216 9.0872 5 6.62555 5C4.29462 5 2.36041 6.54361 2.03892 8.54525C2.01064 8.72134 2.00025 8.90012 2 9.07879V14.8653C1.99995 17.1452 4.07054 19 6.6258 19C8.6079 19 10.3032 17.8835 10.9637 16.3183C11.6243 17.8835 13.3196 19 15.302 19H22V12.6361H15.302ZM6.6255 5.63284C8.85465 5.63284 10.6682 7.20367 10.6682 9.13448C10.6682 10.1109 10.2038 10.9949 9.45701 11.6306V8.89579C9.45859 8.71285 9.44469 8.38451 9.38143 8.13089C9.18002 7.32333 8.60411 6.62815 7.80146 6.22366C7.06395 5.85154 6.24539 5.71417 5.4558 5.78288C5.82631 5.68569 6.21883 5.63284 6.6255 5.63284ZM2.74574 8.15041C2.769 8.08179 2.85167 7.9152 2.86399 7.89627C3.80075 6.45881 5.90253 5.96535 7.54945 6.79617C8.19429 7.12114 8.65377 7.66712 8.81015 8.29417C8.94515 8.83551 8.84548 9.4007 8.52937 9.88577C8.2441 10.3239 7.76141 10.6338 7.20166 10.7492V8.06819C7.20166 7.94568 7.13559 7.83419 7.03207 7.78193C6.16725 7.34569 5.09599 7.60895 4.59334 8.38108C4.39557 8.68447 4.29235 9.02489 4.28876 9.37058C4.28822 9.37828 4.28767 9.38598 4.28767 9.39384V11.9885C3.25706 11.3533 2.58286 10.3111 2.58286 9.13448C2.58286 8.7929 2.63986 8.46271 2.74574 8.15041ZM5.4117 11.1249C5.81261 11.327 6.25869 11.4317 6.7134 11.4317C6.78371 11.4317 6.85421 11.4292 6.92481 11.4241C6.92511 11.4241 6.92546 11.4241 6.92575 11.4241C7.70406 11.3685 8.41107 11.009 8.86583 10.4496V12.0475C8.2241 12.419 7.45362 12.6361 6.62555 12.6361C6.00037 12.6361 5.40791 12.5124 4.87895 12.2921V10.747C5.03243 10.8959 5.21157 11.024 5.4117 11.1249ZM5.07835 8.74306C5.3004 8.40196 5.72368 8.20952 6.15676 8.20952C6.30959 8.20952 6.46365 8.23352 6.61043 8.28336V10.7966C6.2786 10.7825 5.95564 10.6996 5.66362 10.5524C5.27927 10.3587 5.00612 10.0359 4.91418 9.66697C4.83604 9.35344 4.89428 9.02542 5.07835 8.74306ZM10.668 14.8653C10.668 16.7962 8.85469 18.3672 6.6258 18.3672C4.39656 18.3672 2.58295 16.7962 2.58295 14.8653V11.1534C2.69568 11.3323 2.82285 11.5032 2.96312 11.6644V12.5932C2.96312 12.7679 3.0955 12.9096 3.25873 12.9096C3.42196 12.9096 3.55435 12.7679 3.55435 12.5932V12.2276C3.74014 12.3746 3.93914 12.5086 4.14967 12.6278V13.4721C4.14967 13.6468 4.28206 13.7885 4.44529 13.7885C4.60852 13.7885 4.7409 13.6468 4.7409 13.4721V12.9112C5.00149 13.0151 5.27474 13.0981 5.55794 13.158V13.8589C5.55794 14.0336 5.69032 14.1753 5.85355 14.1753C6.01678 14.1753 6.14917 14.0336 6.14917 13.8589V13.2472C6.30579 13.2615 6.46464 13.2689 6.62545 13.2689C6.78627 13.2689 6.94511 13.2615 7.10174 13.2472V13.8589C7.10174 14.0336 7.23413 14.1753 7.39736 14.1753C7.56059 14.1753 7.69297 14.0336 7.69297 13.8589V13.158C7.97617 13.0982 8.24942 13.0151 8.51001 12.9112V13.4721C8.51001 13.6468 8.64239 13.7885 8.80562 13.7885C8.96885 13.7885 9.10124 13.6468 9.10124 13.4721V12.6278C9.3939 12.455 9.58467 12.3161 9.69656 12.2276V12.5932C9.69656 12.7679 9.82895 12.9096 9.99218 12.9096C10.1554 12.9096 10.2878 12.7679 10.2878 12.5932V11.6644C10.4283 11.503 10.5555 11.3319 10.6683 11.1527L10.668 14.8653ZM19.4163 18.3672H15.302C13.0799 18.3672 11.2712 16.8061 11.2599 14.8836V11.1541C11.3283 11.2627 11.4022 11.3682 11.4809 11.4704V12.4702C11.4809 12.6449 11.6133 12.7866 11.7766 12.7866C11.9398 12.7866 12.0722 12.6449 12.0722 12.4702V12.0961C12.1719 12.1828 12.2761 12.2654 12.3842 12.3438V13.3316C12.3842 13.5063 12.5166 13.648 12.6798 13.648C12.843 13.648 12.9754 13.5063 12.9754 13.3316V12.7089C13.1942 12.8227 13.4242 12.9209 13.6637 13.0019V13.9905C13.6637 14.1652 13.7961 14.3069 13.9593 14.3069C14.1226 14.3069 14.255 14.1652 14.255 13.9905V13.1625C14.5724 13.2282 14.9024 13.2644 15.2408 13.2683V14.1624C15.2408 14.3371 15.3732 14.4789 15.5365 14.4789C15.6997 14.4789 15.8321 14.3371 15.8321 14.1624V13.269H16.8179V14.1624C16.8179 14.3371 16.9503 14.4789 17.1136 14.4789C17.2768 14.4789 17.4092 14.3371 17.4092 14.1624V13.269H18.3951V14.1624C18.3951 14.3371 18.5274 14.4789 18.6907 14.4789C18.8539 14.4789 18.9863 14.3371 18.9863 14.1624V13.269H19.4162V18.3672H19.4163ZM21.4088 18.3672H20.0075V13.269H21.4088V18.3672Z" fill="white"/>
</svg>
