<svg width="25" height="24" viewBox="0 0 25 24" fill="none" xmlns="http://www.w3.org/2000/svg">
<path d="M6.67532 10.79C8.12735 13.62 10.4667 15.93 13.3204 17.38L15.5388 15.18C15.811 14.91 16.2144 14.82 16.5673 14.94C17.6967 15.31 18.9168 15.51 20.1671 15.51C20.7217 15.51 21.1755 15.96 21.1755 16.51V20C21.1755 20.55 20.7217 21 20.1671 21C10.6987 21 3.02507 13.39 3.02507 4C3.02507 3.45 3.47883 3 4.03343 3H7.56267C8.11727 3 8.57103 3.45 8.57103 4C8.57103 5.25 8.7727 6.45 9.14579 7.57C9.25671 7.92 9.17604 8.31 8.8937 8.59L6.67532 10.79Z" fill="#1E1E22"/>
</svg>
