<svg width="21" height="20" viewBox="0 0 21 20" fill="none" xmlns="http://www.w3.org/2000/svg">
<path fill-rule="evenodd" clip-rule="evenodd" d="M15.4877 5.59628C15.3365 5.47114 15.1527 5.39166 14.958 5.36714C14.7632 5.34262 14.5655 5.37408 14.388 5.45783C14.2104 5.54158 14.0604 5.67417 13.9555 5.84007C13.8506 6.00597 13.7951 6.19832 13.7955 6.39462V6.40438C13.7981 6.55648 13.8329 6.7063 13.8977 6.84392C13.9625 6.98155 14.0558 7.10384 14.1714 7.20272C14.9524 7.91134 15.5005 8.83979 15.7437 9.86589C15.987 10.892 15.9139 11.9677 15.5341 12.9515C15.1543 13.9352 14.4856 14.781 13.6159 15.3775C12.7463 15.9739 11.7164 16.2932 10.6619 16.2932C9.60734 16.2932 8.5775 15.9739 7.70786 15.3775C6.83821 14.781 6.1695 13.9352 5.78969 12.9515C5.40989 11.9677 5.3368 10.892 5.58002 9.86589C5.82325 8.83979 6.3714 7.91134 7.15236 7.20272C7.26791 7.1038 7.36116 6.98149 7.42596 6.84388C7.49077 6.70626 7.52564 6.55647 7.52829 6.40438C7.52811 6.26813 7.50085 6.13327 7.44807 6.00765C7.39529 5.88203 7.31806 5.76816 7.22086 5.67267C7.12366 5.57717 7.00845 5.50197 6.88191 5.45142C6.75538 5.40087 6.62006 5.37599 6.48382 5.37823C6.22174 5.37651 5.96844 5.47253 5.77337 5.64756C4.88653 6.43707 4.2074 7.43252 3.79579 8.54625C3.38417 9.65998 3.2527 10.8578 3.41294 12.0343C3.6801 13.8583 4.62571 15.5143 6.06079 16.6713C7.49587 17.8284 9.31472 18.4013 11.1539 18.2756C12.993 18.1499 14.717 17.3348 15.9813 15.9932C17.2455 14.6516 17.957 12.8824 17.9735 11.039C17.9738 10.0066 17.752 8.98618 17.3231 8.04706C16.8942 7.10795 16.2682 6.2721 15.4877 5.59628ZM10.6619 11.039C10.9377 11.0393 11.2023 10.9304 11.3981 10.7361C11.5938 10.5418 11.7046 10.278 11.7064 10.0022V2.74468C11.7041 2.46919 11.593 2.20578 11.3974 2.0118C11.2017 1.81782 10.9374 1.70898 10.6619 1.70898C10.3864 1.70898 10.122 1.81782 9.92641 2.0118C9.73078 2.20578 9.6197 2.46919 9.61737 2.74468V10.0022C9.61915 10.2779 9.73001 10.5418 9.92573 10.7361C10.1214 10.9304 10.3861 11.0393 10.6619 11.039Z" fill="#757575"/>
</svg>
