<svg width="30" height="51" viewBox="0 0 30 51" fill="none" xmlns="http://www.w3.org/2000/svg">
<path d="M11.3121 0.0355492C8.53554 0.222862 5.83708 0.826424 3.47948 1.76992C1.77519 2.45673 0.781022 3.0256 0.425961 3.5251C-0.0143138 4.14948 -0.0143138 4.18416 0.00698983 9.31096L0.0282935 13.9452L0.212925 14.3337C0.47567 14.8818 0.752617 15.0552 1.34202 15.0552C1.90301 15.0483 2.03794 14.9858 3.08181 14.2227C5.15537 12.7103 7.18631 11.7946 9.50841 11.309C10.7085 11.0592 12.0861 11.0037 12.917 11.1633C14.8627 11.5448 15.9208 12.7866 15.9066 14.6598C15.8995 16.7341 14.9124 18.1563 11.3547 21.2018C9.21726 23.0333 8.05266 24.3861 7.23602 25.9817C6.03592 28.3335 5.70926 31.3652 6.34837 34.1888C6.62532 35.4098 6.98748 36.0203 7.61949 36.3117C7.95324 36.4712 8.72727 36.5545 10.4316 36.6238C10.9571 36.6447 11.7311 36.6863 12.1501 36.7071C12.9241 36.7557 15.3811 36.6447 16.283 36.5198C17.6677 36.3325 18.0867 35.6318 17.6535 34.2304C17.3623 33.2938 17.3126 32.9955 17.3126 32.2255C17.3197 30.1997 18.1151 28.9995 21.1899 26.4119C24.3002 23.7964 25.4364 22.6726 26.5726 21.0561C27.865 19.2108 28.6391 17.2891 28.9302 15.1593C29.0651 14.1811 29.0651 11.9195 28.9302 10.9066C28.2414 5.7451 24.7902 2.11679 19.23 0.701546C18.2074 0.437923 17.0002 0.229797 15.8782 0.104923C14.9053 0.00779724 12.3489 -0.0338249 11.3121 0.0355492Z" fill="#1E1E22"/>
<path d="M11.9227 37.489C10.6942 37.6902 8.96858 38.4117 8.03122 39.1193C6.12809 40.5484 5.17653 42.6921 5.45348 44.9191C5.82984 47.8952 8.20875 50.1915 11.4682 50.7188C12.2493 50.8437 13.8613 50.8228 14.5501 50.6772C18.2286 49.914 20.5222 46.9864 20.153 43.5246C19.8547 40.6802 17.838 38.5851 14.4862 37.6624C13.8258 37.4751 12.5263 37.3919 11.9227 37.489Z" fill="#1E1E22"/>
</svg>
