<svg width="26" height="25" viewBox="0 0 26 25" fill="none" xmlns="http://www.w3.org/2000/svg">
<path d="M12.9005 5.1875C7.85873 5.1875 3.55305 8.2975 1.80859 12.6875C3.55305 17.0775 7.85873 20.1875 12.9005 20.1875C17.9423 20.1875 22.248 17.0775 23.9924 12.6875C22.248 8.2975 17.9423 5.1875 12.9005 5.1875ZM12.9005 17.6875C10.1175 17.6875 7.85873 15.4475 7.85873 12.6875C7.85873 9.9275 10.1175 7.6875 12.9005 7.6875C15.6836 7.6875 17.9423 9.9275 17.9423 12.6875C17.9423 15.4475 15.6836 17.6875 12.9005 17.6875ZM12.9005 9.6875C11.2266 9.6875 9.87545 11.0275 9.87545 12.6875C9.87545 14.3475 11.2266 15.6875 12.9005 15.6875C14.5744 15.6875 15.9256 14.3475 15.9256 12.6875C15.9256 11.0275 14.5744 9.6875 12.9005 9.6875Z" fill="#1E1E22"/>
</svg>
