<svg width="25" height="24" viewBox="0 0 25 24" fill="none" xmlns="http://www.w3.org/2000/svg">
<path d="M18.1507 16.08C17.3844 16.08 16.6987 16.38 16.1744 16.85L8.98478 12.7C9.0352 12.47 9.07553 12.24 9.07553 12C9.07553 11.76 9.0352 11.53 8.98478 11.3L16.0937 7.19C16.6382 7.69 17.3541 8 18.1507 8C19.8246 8 21.1758 6.66 21.1758 5C21.1758 3.34 19.8246 2 18.1507 2C16.4769 2 15.1257 3.34 15.1257 5C15.1257 5.24 15.166 5.47 15.2164 5.7L8.10751 9.81C7.56299 9.31 6.84706 9 6.05046 9C4.37659 9 3.02539 10.34 3.02539 12C3.02539 13.66 4.37659 15 6.05046 15C6.84706 15 7.56299 14.69 8.10751 14.19L15.287 18.35C15.2366 18.56 15.2063 18.78 15.2063 19C15.2063 20.61 16.5273 21.92 18.1507 21.92C19.7742 21.92 21.0951 20.61 21.0951 19C21.0951 17.39 19.7742 16.08 18.1507 16.08Z" fill="#424242"/>
</svg>
