<svg width="17" height="20" viewBox="0 0 17 20" fill="none" xmlns="http://www.w3.org/2000/svg">
<path d="M14.5545 4H12.5378C12.5378 1.79 10.7328 0 8.50435 0C6.27588 0 4.47093 1.79 4.47093 4H2.45421C1.34502 4 0.4375 4.9 0.4375 6V18C0.4375 19.1 1.34502 20 2.45421 20H14.5545C15.6637 20 16.5712 19.1 16.5712 18V6C16.5712 4.9 15.6637 4 14.5545 4ZM6.48764 8C6.48764 8.55 6.03388 9 5.47928 9C4.92469 9 4.47093 8.55 4.47093 8V6H6.48764V8ZM8.50435 2C9.61354 2 10.5211 2.9 10.5211 4H6.48764C6.48764 2.9 7.39516 2 8.50435 2ZM12.5378 8C12.5378 8.55 12.084 9 11.5294 9C10.9748 9 10.5211 8.55 10.5211 8V6H12.5378V8Z" fill="#131920"/>
</svg>
