<svg width="25" height="24" viewBox="0 0 25 24" fill="none" xmlns="http://www.w3.org/2000/svg">
<path d="M15.6298 14H14.8332L14.5509 13.73C15.5391 12.59 16.134 11.11 16.134 9.5C16.134 5.91 13.1997 3 9.57971 3C5.95971 3 3.02539 5.91 3.02539 9.5C3.02539 13.09 5.95971 16 9.57971 16C11.2032 16 12.6955 15.41 13.8451 14.43L14.1173 14.71V15.5L19.1591 20.49L20.6615 19L15.6298 14ZM9.57971 14C7.0689 14 5.0421 11.99 5.0421 9.5C5.0421 7.01 7.0689 5 9.57971 5C12.0905 5 14.1173 7.01 14.1173 9.5C14.1173 11.99 12.0905 14 9.57971 14Z" fill="#424242"/>
<path d="M12.1004 10H10.0837V12H9.07531V10H7.05859V9H9.07531V7H10.0837V9H12.1004V10Z" fill="#323232"/>
</svg>
