<svg width="144" height="107" viewBox="0 0 144 107" fill="none" xmlns="http://www.w3.org/2000/svg">
<g clip-path="url(#clip0)">
<rect x="-2.12132" width="3.38161" height="87.938" transform="matrix(-0.707107 -0.707107 -0.707107 0.707107 102.581 25.3008)" fill="#1E1E22" stroke="#1E1E22" stroke-width="3"/>
<path fill-rule="evenodd" clip-rule="evenodd" d="M50.5217 77.998C38.4674 65.9438 38.4674 46.4 50.5217 34.3458C62.5759 22.2915 82.1197 22.2915 94.1739 34.3458C106.228 46.4 106.228 65.9438 94.1739 77.998C82.1197 90.0522 62.5759 90.0522 50.5217 77.998ZM56.5338 71.9848C47.8005 63.2516 47.8005 49.0922 56.5338 40.3589C65.267 31.6256 79.4264 31.6256 88.1597 40.3589C96.8929 49.0922 96.8929 63.2516 88.1597 71.9848C79.4264 80.7181 65.267 80.7181 56.5338 71.9848Z" fill="#1E1E22"/>
<path d="M50.5214 77.9982C62.5565 90.0333 82.1388 90.033 94.1739 77.998C106.209 65.9629 106.209 46.3808 94.1739 34.3458C82.1388 22.3107 62.5567 22.3107 50.5216 34.3458C38.4866 46.3808 38.4866 65.9634 50.5214 77.9982ZM93.0798 35.4399C104.512 46.8716 104.512 65.4726 93.08 76.9041C81.6482 88.3359 63.0475 88.3361 51.6157 76.9043C40.184 65.4726 40.1842 46.8718 51.616 35.4401C63.0473 24.0083 81.6482 24.0083 93.0798 35.4399ZM56.0326 72.487C65.0287 81.4831 79.6664 81.4831 88.6627 72.4868C97.6586 63.4909 97.6588 48.853 88.6627 39.8569C79.6666 30.8608 65.0289 30.8608 56.0328 39.8569C47.0367 48.853 47.0367 63.4912 56.0326 72.487ZM87.5684 40.9513C95.9612 49.3441 95.9612 63.0001 87.5684 71.3929C79.1756 79.7857 65.5193 79.786 57.1265 71.3932C48.7337 63.0003 48.7337 49.3443 57.1267 40.9513C65.5195 32.5584 79.1756 32.5584 87.5684 40.9513Z" fill="#1E1E22"/>
</g>
<defs>
<clipPath id="clip0">
<rect width="80" height="80" fill="white" transform="translate(32 16)"/>
</clipPath>
</defs>
</svg>
