<svg width="80" height="81" viewBox="0 0 80 81" fill="none" xmlns="http://www.w3.org/2000/svg">
<path fill-rule="evenodd" clip-rule="evenodd" d="M57.4111 55.0769C54.7185 55.3939 51.2835 55.5015 47.4347 55.516C44.686 55.6811 41.7187 55.4543 33.9568 54.4935C34.1691 52.012 34.6179 49.9807 35.0351 48.0924C35.9292 44.045 36.6782 40.6547 34.6427 34.8984C34.3625 36.428 34.0341 37.6885 33.6824 39.0386C33.23 40.7755 32.739 42.6604 32.2624 45.4569C32.1132 50.5521 31.593 53.0011 30.9647 55.9584C30.6195 57.5835 30.2416 59.3622 29.8748 61.8179C29.9132 62.014 29.9528 62.2037 29.9936 62.3882C28.2902 61.5948 27.0669 61.7369 25.1599 62.8382L25.4199 67.6326C25.2583 67.7505 25.1314 67.8809 25.0486 68.0246L24.4581 62.6264C23.5417 55.7885 24.2618 49.6126 25.2291 41.3182L25.2539 41.1051C25.9538 38.746 26.374 35.5653 26.8043 32.3078V32.3078L26.8043 32.3077C27.5104 26.9619 28.2439 21.4093 30.2857 18.9416C32.5012 17.9747 34.3233 17.2274 36.3786 16.3846L36.3787 16.3845L36.3787 16.3845C37.8691 15.7733 39.4821 15.1119 41.4565 14.2799C41.4165 14.4382 41.3757 14.6044 41.3336 14.7802C41.8189 16.1113 42.3344 16.8463 43.259 18.157C43.8174 17.5668 44.296 17.0718 44.7135 16.6669C46.1074 17.294 47.3321 17.576 49.0099 17.5379C49.0163 17.5112 49.0224 17.4848 49.0281 17.4587L51.1219 16.6755C51.5299 17.0704 51.9334 17.5556 52.3987 18.1777C53.3072 16.5457 53.66 15.7616 53.939 14.6582C53.8735 14.5269 53.8122 14.4008 53.7545 14.2788L54.0068 14.1855L57.4111 15.3235V55.0769ZM31.4153 67.0734C31.3775 66.958 31.3402 66.8448 31.3034 66.7337C31.3172 66.8292 31.3317 66.9266 31.347 67.0262C31.3728 67.0413 31.3956 67.0571 31.4153 67.0734ZM26.6352 61.2005C27.4054 61.1808 29.757 59.1126 29.9213 58.8463L29.7672 59.2981L29.0741 59.8926L27.9445 60.939L29.4078 60.7963L27.3027 61.2005L25.1462 61.6286L26.6352 61.2005ZM30.8075 46.0047C30.5816 45.7003 29.0019 44.0706 28.2403 43.2937L26.9824 42.9846L31.7574 42.3663L28.7024 43.1273L30.8589 45.3864C30.9582 45.8055 31.1194 46.475 31.2159 46.8468C31.2594 46.954 31.2894 47.044 31.2953 47.0986C31.3026 47.1662 31.2691 47.0517 31.2159 46.8468C31.108 46.5807 30.9173 46.2081 30.8075 46.0047ZM31.9124 30.0245C32.0085 30.9234 32.8332 33.5823 33.0419 34.2099C32.7911 32.4412 32.7152 31.4846 33.0419 30.0245C33.4041 29.3664 33.5405 28.9806 33.6837 28.2648L33.675 28.272C33.3453 28.5468 33.1577 28.7031 32.5285 28.6928C31.2 26.1464 30.7704 24.6463 30.0383 21.963L30.0964 22.2328L30.0964 22.2328C30.6273 24.6988 30.9423 26.162 31.9124 28.6928C30.9506 28.0938 30.4149 27.6556 29.4735 26.5764C30.3636 28.0607 30.9075 28.7948 31.9124 30.0245Z" fill="white"/>
<path d="M47.4347 55.516L47.4047 55.0169L47.4188 55.0161L47.4328 55.016L47.4347 55.516ZM57.4111 55.0769H57.9111V55.5214L57.4696 55.5734L57.4111 55.0769ZM33.9568 54.4935L33.8954 54.9897L33.4176 54.9305L33.4586 54.4508L33.9568 54.4935ZM35.0351 48.0924L34.5468 47.9845L35.0351 48.0924ZM34.6427 34.8984L34.1509 34.8083L34.4888 32.9634L35.1141 34.7317L34.6427 34.8984ZM33.6824 39.0386L34.1663 39.1646L33.6824 39.0386ZM32.2624 45.4569L31.7626 45.4423L31.7636 45.4073L31.7695 45.3729L32.2624 45.4569ZM30.9647 55.9584L30.4756 55.8545L30.9647 55.9584ZM29.8748 61.8179L29.3841 61.9138L29.3676 61.8292L29.3803 61.744L29.8748 61.8179ZM29.9936 62.3882L30.4818 62.2802L30.7007 63.2692L29.7825 62.8415L29.9936 62.3882ZM25.1599 62.8382L24.6606 62.8653L24.644 62.5588L24.9099 62.4052L25.1599 62.8382ZM25.4199 67.6326L25.9191 67.6055L25.9339 67.8766L25.7145 68.0366L25.4199 67.6326ZM25.0486 68.0246L25.4817 68.2744L24.7177 69.5985L24.5515 68.0789L25.0486 68.0246ZM24.4581 62.6264L24.9538 62.56L24.9551 62.572L24.4581 62.6264ZM25.2291 41.3182L25.7257 41.3761V41.3761L25.2291 41.3182ZM25.2539 41.1051L24.7573 41.0472L24.7623 41.0043L24.7746 40.9629L25.2539 41.1051ZM26.8043 32.3078H27.3043V32.3407L27.2999 32.3733L26.8043 32.3078ZM26.8043 32.3078H26.3043V32.2851L26.3063 32.2625L26.8043 32.3078ZM26.8043 32.3077L26.3063 32.2624L26.3072 32.2523L26.3086 32.2422L26.8043 32.3077ZM30.2857 18.9416L29.9005 18.6229L29.9764 18.5311L30.0857 18.4834L30.2857 18.9416ZM36.3786 16.3846L36.5693 16.8468L36.5683 16.8472L36.3786 16.3846ZM36.3787 16.3845L36.5756 16.8442L36.5693 16.8468L36.3787 16.3845ZM36.3787 16.3845L36.1817 15.9249L36.189 15.9219L36.3787 16.3845ZM41.4565 14.2799L41.2624 13.8191L42.1874 13.4293L41.9413 14.4025L41.4565 14.2799ZM41.3336 14.7802L40.8639 14.9514L40.8123 14.8101L40.8473 14.6638L41.3336 14.7802ZM43.259 18.157L43.6222 18.5006L43.2025 18.9443L42.8505 18.4452L43.259 18.157ZM44.7135 16.6669L44.3655 16.308L44.6091 16.0717L44.9187 16.2109L44.7135 16.6669ZM49.0099 17.5379L49.4959 17.6553L49.4056 18.029L49.0212 18.0378L49.0099 17.5379ZM49.0281 17.4587L48.5396 17.352L48.5977 17.0859L48.8529 16.9904L49.0281 17.4587ZM51.1219 16.6755L50.9467 16.2071L51.2426 16.0964L51.4697 16.3162L51.1219 16.6755ZM52.3987 18.1777L52.8356 18.4209L52.4604 19.095L51.9983 18.4772L52.3987 18.1777ZM53.939 14.6582L54.3864 14.4349L54.4693 14.6009L54.4238 14.7808L53.939 14.6582ZM53.7545 14.2788L53.3025 14.4925L53.0693 13.9991L53.5811 13.8099L53.7545 14.2788ZM54.0068 14.1855L53.8334 13.7166L53.9984 13.6556L54.1653 13.7113L54.0068 14.1855ZM57.4111 15.3235L57.5697 14.8493L57.9111 14.9635V15.3235H57.4111ZM31.3034 66.7337L30.8085 66.8051L31.778 66.5764L31.3034 66.7337ZM31.4153 67.0734L31.8905 66.9179L32.4274 68.5591L31.0966 67.4587L31.4153 67.0734ZM31.347 67.0262L31.0935 67.4572L30.8889 67.3368L30.8528 67.1022L31.347 67.0262ZM29.9213 58.8463L29.4957 58.5838L30.3945 59.0076L29.9213 58.8463ZM26.6352 61.2005L26.4971 60.72L26.5585 60.7023L26.6224 60.7007L26.6352 61.2005ZM29.7672 59.2981L30.2405 59.4594L30.1964 59.5887L30.0927 59.6776L29.7672 59.2981ZM29.0741 59.8926L28.7343 59.5258L28.7413 59.5193L28.7486 59.5131L29.0741 59.8926ZM27.9445 60.939L27.993 61.4366L26.516 61.5806L27.6047 60.5721L27.9445 60.939ZM29.4078 60.7963L29.3593 60.2986L29.5021 61.2873L29.4078 60.7963ZM27.3027 61.2005L27.2053 60.7101L27.2084 60.7095L27.3027 61.2005ZM25.1462 61.6286L25.2436 62.119L25.0081 61.148L25.1462 61.6286ZM28.2403 43.2937L28.3596 42.8082L28.4978 42.8421L28.5974 42.9437L28.2403 43.2937ZM30.8075 46.0047L31.209 45.7067L31.2305 45.7356L31.2475 45.7672L30.8075 46.0047ZM26.9824 42.9846L26.8631 43.4701L26.9182 42.4887L26.9824 42.9846ZM31.7574 42.3663L31.6932 41.8704L31.8783 42.8515L31.7574 42.3663ZM28.7024 43.1273L28.3407 43.4725L27.7466 42.8501L28.5816 42.6421L28.7024 43.1273ZM30.8589 45.3864L31.2206 45.0412L31.3141 45.1392L31.3454 45.2711L30.8589 45.3864ZM31.2953 47.0986L31.7924 47.0449L31.7924 47.045L31.2953 47.0986ZM33.0419 34.2099L33.537 34.1397L32.5675 34.3677L33.0419 34.2099ZM31.9124 30.0245L32.2996 29.7082L32.3937 29.8234L32.4095 29.9714L31.9124 30.0245ZM33.0419 30.0245L32.554 29.9153L32.5696 29.8459L32.6039 29.7835L33.0419 30.0245ZM33.6837 28.2648L33.3637 27.8807L34.4521 26.9737L34.174 28.3629L33.6837 28.2648ZM33.675 28.272L33.3549 27.8879L33.355 27.8879L33.675 28.272ZM32.5285 28.6928L32.5203 29.1928L32.2228 29.1879L32.0852 28.9241L32.5285 28.6928ZM30.0383 21.963L29.5495 22.0682L30.5207 21.8313L30.0383 21.963ZM30.0964 22.2328L29.6221 22.3909L29.6134 22.3649L29.6076 22.3381L30.0964 22.2328ZM30.0964 22.2328L30.5708 22.0747L30.5794 22.1008L30.5852 22.1276L30.0964 22.2328ZM31.9124 28.6928L32.3792 28.5139L32.9124 29.9049L31.648 29.1172L31.9124 28.6928ZM29.4735 26.5764L29.0447 26.8335L29.8503 26.2477L29.4735 26.5764ZM47.4328 55.016C51.2782 55.0016 54.6896 54.8938 57.3527 54.5803L57.4696 55.5734C54.7473 55.8939 51.2888 56.0015 47.4366 56.016L47.4328 55.016ZM34.0182 53.9973C41.7863 54.9588 44.709 55.1789 47.4047 55.0169L47.4647 56.0151C44.6631 56.1834 41.6512 55.9497 33.8954 54.9897L34.0182 53.9973ZM35.5233 48.2002C35.106 50.0889 34.6642 52.0912 34.455 54.5361L33.4586 54.4508C33.6741 51.9329 34.1297 49.8724 34.5468 47.9845L35.5233 48.2002ZM35.1141 34.7317C36.1499 37.661 36.4834 40.0077 36.4374 42.147C36.3916 44.2766 35.969 46.1827 35.5233 48.2002L34.5468 47.9845C34.9953 45.9546 35.3942 44.1419 35.4376 42.1255C35.4807 40.1187 35.1709 37.8921 34.1713 35.065L35.1141 34.7317ZM33.1986 38.9125C33.5505 37.5616 33.8744 36.3175 34.1509 34.8083L35.1345 34.9884C34.8505 36.5384 34.5177 37.8155 34.1663 39.1646L33.1986 38.9125ZM31.7695 45.3729C32.2499 42.5544 32.7454 40.6524 33.1986 38.9125L34.1663 39.1646C33.7147 40.8985 33.2282 42.7664 32.7552 45.5409L31.7695 45.3729ZM30.4756 55.8545C31.1008 52.9119 31.6147 50.4954 31.7626 45.4423L32.7621 45.4715C32.6118 50.6087 32.0852 53.0903 31.4538 56.0623L30.4756 55.8545ZM29.3803 61.744C29.7495 59.2723 30.1301 57.4811 30.4756 55.8545L31.4538 56.0623C31.1089 57.686 30.7338 59.4521 30.3694 61.8917L29.3803 61.744ZM29.5054 62.4963C29.4637 62.3077 29.4232 62.114 29.3841 61.9138L30.3656 61.722C30.4031 61.9141 30.4418 62.0997 30.4818 62.2802L29.5054 62.4963ZM24.9099 62.4052C25.89 61.8392 26.7448 61.4891 27.6045 61.4051C28.4753 61.3199 29.2979 61.5126 30.2047 61.935L29.7825 62.8415C28.9858 62.4704 28.3451 62.3374 27.7017 62.4003C27.0472 62.4643 26.3368 62.7359 25.41 63.2712L24.9099 62.4052ZM24.9206 67.6597L24.6606 62.8653L25.6592 62.8111L25.9191 67.6055L24.9206 67.6597ZM24.6155 67.7747C24.7426 67.5543 24.9247 67.3749 25.1253 67.2286L25.7145 68.0366C25.5919 68.126 25.5202 68.2076 25.4817 68.2744L24.6155 67.7747ZM24.9551 62.572L25.5456 67.9702L24.5515 68.0789L23.9611 62.6808L24.9551 62.572ZM25.7257 41.3761C24.7572 49.6816 24.0469 55.7946 24.9537 62.56L23.9625 62.6928C23.0364 55.7824 23.7665 49.5437 24.7324 41.2603L25.7257 41.3761ZM25.7506 41.163L25.7257 41.3761L24.7324 41.2603L24.7573 41.0472L25.7506 41.163ZM27.2999 32.3733C26.8715 35.6165 26.4469 38.842 25.7333 41.2473L24.7746 40.9629C25.4607 38.65 25.8764 35.5141 26.3086 32.2423L27.2999 32.3733ZM27.3043 32.3078V32.3078H26.3043V32.3078H27.3043ZM27.3022 32.353L27.3022 32.353L26.3063 32.2625L26.3063 32.2624L27.3022 32.353ZM30.6709 19.2604C29.7315 20.3957 29.0571 22.2977 28.5321 24.6541C28.011 26.9933 27.6538 29.6947 27.2999 32.3732L26.3086 32.2422C26.6609 29.5749 27.0235 26.8271 27.5561 24.4366C28.0848 22.0634 28.798 19.9552 29.9005 18.6229L30.6709 19.2604ZM36.5683 16.8472C34.5128 17.6901 32.6954 18.4354 30.4857 19.3999L30.0857 18.4834C32.3069 17.5139 34.1338 16.7647 36.1889 15.922L36.5683 16.8472ZM36.5693 16.8468L36.5693 16.8468L36.1879 15.9223L36.188 15.9223L36.5693 16.8468ZM36.5757 16.8441L36.5756 16.8441L36.1817 15.925L36.1817 15.925L36.5757 16.8441ZM41.6507 14.7407C39.6738 15.5737 38.0588 16.2359 36.5684 16.8471L36.189 15.9219C37.6794 15.3107 39.2904 14.6501 41.2624 13.8191L41.6507 14.7407ZM40.8473 14.6638C40.8898 14.4863 40.9311 14.318 40.9718 14.1573L41.9413 14.4025C41.9018 14.5585 41.8615 14.7226 41.8199 14.8965L40.8473 14.6638ZM42.8505 18.4452C41.9254 17.1339 41.3741 16.3511 40.8639 14.9514L41.8034 14.6089C42.2636 15.8714 42.7434 16.5587 43.6676 17.8688L42.8505 18.4452ZM45.0616 17.0259C44.6521 17.423 44.1795 17.9116 43.6222 18.5006L42.8958 17.8134C43.4554 17.2219 43.94 16.7206 44.3655 16.308L45.0616 17.0259ZM49.0212 18.0378C47.265 18.0776 45.9665 17.7789 44.5084 17.1229L44.9187 16.2109C46.2482 16.8091 47.3992 17.0743 48.9985 17.038L49.0212 18.0378ZM49.5166 17.5654C49.5101 17.5953 49.5031 17.6252 49.4959 17.6553L48.5239 17.4205C48.5295 17.3971 48.5348 17.3743 48.5396 17.352L49.5166 17.5654ZM51.2971 17.1438L49.2033 17.927L48.8529 16.9904L50.9467 16.2071L51.2971 17.1438ZM51.9983 18.4772C51.5399 17.8643 51.1546 17.403 50.7742 17.0347L51.4697 16.3162C51.9052 16.7378 52.3269 17.2469 52.7991 17.8783L51.9983 18.4772ZM54.4238 14.7808C54.1289 15.9468 53.7515 16.7755 52.8356 18.4209L51.9618 17.9345C52.8628 16.316 53.1911 15.5763 53.4543 14.5356L54.4238 14.7808ZM54.2066 14.0652C54.2627 14.1838 54.3223 14.3066 54.3864 14.4349L53.4917 14.8816C53.4246 14.7472 53.3618 14.6179 53.3025 14.4925L54.2066 14.0652ZM54.1802 14.6545L53.928 14.7478L53.5811 13.8099L53.8334 13.7166L54.1802 14.6545ZM57.2526 15.7978L53.8483 14.6598L54.1653 13.7113L57.5697 14.8493L57.2526 15.7978ZM57.9111 15.3235V55.0769H56.9111V15.3235H57.9111ZM31.778 66.5764C31.815 66.6881 31.8525 66.8018 31.8905 66.9179L30.94 67.2288C30.9025 67.1141 30.8654 67.0016 30.8288 66.891L31.778 66.5764ZM30.8528 67.1022C30.8373 67.0012 30.8225 66.9023 30.8085 66.8051L31.7983 66.6623C31.8118 66.7562 31.8261 66.852 31.8412 66.9502L30.8528 67.1022ZM31.0966 67.4587C31.1008 67.4621 31.1006 67.4613 31.0935 67.4572L31.6005 66.5952C31.645 66.6214 31.6903 66.652 31.7339 66.688L31.0966 67.4587ZM30.3468 59.1088C30.2908 59.1996 30.193 59.3012 30.1192 59.3755C30.0296 59.4657 29.9145 59.5747 29.7826 59.6942C29.5184 59.9336 29.1759 60.2254 28.814 60.5093C28.4537 60.792 28.0649 61.0741 27.7096 61.2894C27.5323 61.3969 27.3545 61.4931 27.1868 61.5646C27.028 61.6323 26.8382 61.6955 26.648 61.7004L26.6224 60.7007C26.6188 60.7008 26.6316 60.7007 26.6653 60.6915C26.6977 60.6826 26.7407 60.6677 26.7947 60.6447C26.9037 60.5982 27.0373 60.5275 27.1913 60.4342C27.4987 60.2479 27.8525 59.9926 28.1968 59.7225C28.5396 59.4536 28.864 59.1771 29.111 58.9532C29.2347 58.8411 29.3363 58.7447 29.4097 58.6707C29.499 58.5808 29.5106 58.5596 29.4957 58.5838L30.3468 59.1088ZM29.294 59.1368L29.448 58.6849L30.3945 59.0076L30.2405 59.4594L29.294 59.1368ZM28.7486 59.5131L29.4417 58.9186L30.0927 59.6776L29.3996 60.2721L28.7486 59.5131ZM27.6047 60.5721L28.7343 59.5258L29.4139 60.2594L28.2843 61.3058L27.6047 60.5721ZM29.4563 61.2939L27.993 61.4366L27.896 60.4413L29.3593 60.2986L29.4563 61.2939ZM27.2084 60.7095L29.3135 60.3052L29.5021 61.2873L27.397 61.6916L27.2084 60.7095ZM25.0489 61.1382L27.2053 60.7101L27.4 61.691L25.2436 62.119L25.0489 61.1382ZM26.7734 61.6811L25.2844 62.1091L25.0081 61.148L26.4971 60.72L26.7734 61.6811ZM28.5974 42.9437C28.9791 43.3331 29.5661 43.9364 30.0863 44.481C30.5908 45.009 31.0723 45.5225 31.209 45.7067L30.406 46.3027C30.3168 46.1825 29.8956 45.7289 29.3633 45.1718C28.8468 44.6312 28.2631 44.0312 27.8833 43.6438L28.5974 42.9437ZM27.1017 42.499L28.3596 42.8082L28.121 43.7793L26.8631 43.4701L27.1017 42.499ZM31.8216 42.8622L27.0466 43.4804L26.9182 42.4887L31.6932 41.8704L31.8216 42.8622ZM28.5816 42.6421L31.6366 41.8811L31.8783 42.8515L28.8233 43.6124L28.5816 42.6421ZM30.4972 45.7317L28.3407 43.4725L29.0641 42.782L31.2206 45.0412L30.4972 45.7317ZM30.7319 46.9724C30.6339 46.5948 30.4716 45.9206 30.3724 45.5017L31.3454 45.2711C31.4448 45.6904 31.6049 46.3551 31.6999 46.7212L30.7319 46.9724ZM31.6793 46.6589C31.7204 46.7605 31.778 46.9114 31.7924 47.0449L30.7982 47.1523C30.7998 47.1671 30.8017 47.1738 30.8007 47.1694C30.7998 47.166 30.7977 47.1581 30.7935 47.1449C30.785 47.1182 30.7715 47.0814 30.7525 47.0347L31.6793 46.6589ZM31.7924 47.045C31.7927 47.0472 31.8003 47.1052 31.7932 47.1702C31.7912 47.1884 31.7852 47.2376 31.7628 47.296C31.7488 47.3326 31.6764 47.5149 31.4594 47.5903C31.2148 47.6753 31.0307 47.5473 30.9809 47.5073C30.9217 47.4596 30.888 47.4098 30.8772 47.3936C30.8511 47.3544 30.8361 47.3195 30.8321 47.3103C30.8256 47.2953 30.8206 47.2821 30.8174 47.2732C30.8108 47.2551 30.8051 47.2371 30.8005 47.2222C30.7826 47.1643 30.7584 47.0742 30.7319 46.9724L31.6999 46.7212C31.7266 46.8243 31.7457 46.8939 31.7561 46.9276C31.7586 46.9356 31.7589 46.9362 31.7574 46.9322C31.7568 46.9303 31.7541 46.9229 31.7496 46.9126C31.7476 46.908 31.7343 46.8766 31.7097 46.8396C31.6997 46.8245 31.6666 46.7755 31.608 46.7283C31.5588 46.6887 31.3752 46.5609 31.1311 46.6458C30.9146 46.721 30.8425 46.9028 30.8288 46.9386C30.8068 46.9962 30.801 47.0443 30.7992 47.061C30.7949 47.0998 30.7966 47.1294 30.7968 47.1343C30.7973 47.1443 30.7981 47.151 30.7982 47.1523L31.7924 47.045ZM31.2475 45.7672C31.3593 45.9743 31.5607 46.3665 31.6793 46.6589L30.7525 47.0347C30.6553 46.7949 30.4753 46.4419 30.3675 46.2422L31.2475 45.7672ZM32.5675 34.3677C32.4606 34.0464 32.2002 33.2179 31.9542 32.3562C31.713 31.5117 31.4688 30.5783 31.4152 30.0777L32.4095 29.9714C32.4521 30.3696 32.6683 31.2151 32.9157 32.0817C33.1583 32.931 33.4145 33.7458 33.5164 34.0521L32.5675 34.3677ZM33.5299 30.1337C33.2231 31.5043 33.2887 32.3888 33.537 34.1397L32.5469 34.2801C32.2936 32.4936 32.2072 31.4649 32.554 29.9153L33.5299 30.1337ZM34.174 28.3629C34.0211 29.1272 33.8675 29.5614 33.48 30.2656L32.6039 29.7835C32.9407 29.1714 33.0599 28.834 33.1935 28.1667L34.174 28.3629ZM33.355 27.8879L33.3637 27.8807L34.0038 28.6489L33.9951 28.6562L33.355 27.8879ZM32.5367 28.1929C32.81 28.1974 32.9366 28.1646 33.0156 28.1304C33.1049 28.0918 33.1798 28.0338 33.3549 27.8879L33.9951 28.6562C33.8405 28.785 33.6568 28.9426 33.4126 29.0482C33.158 29.1584 32.8762 29.1986 32.5203 29.1928L32.5367 28.1929ZM30.5207 21.8313C31.25 24.5045 31.6685 25.9633 32.9718 28.4616L32.0852 28.9241C30.7316 26.3294 30.2908 24.7881 29.5559 22.0946L30.5207 21.8313ZM29.6076 22.3381L29.5495 22.0682L30.5271 21.8577L30.5852 22.1276L29.6076 22.3381ZM29.6221 22.391L29.6221 22.3909L30.5708 22.0747L30.5708 22.0747L29.6221 22.391ZM31.4455 28.8718C30.461 26.3034 30.1395 24.809 29.6076 22.3381L30.5852 22.1276C31.115 24.5886 31.4236 26.0207 32.3792 28.5139L31.4455 28.8718ZM29.8503 26.2477C30.7611 27.2918 31.2594 27.697 32.1767 28.2684L31.648 29.1172C30.6418 28.4905 30.0687 28.0193 29.0967 26.9051L29.8503 26.2477ZM31.5252 30.3409C30.5081 29.0962 29.9495 28.3423 29.0447 26.8335L29.9023 26.3192C30.7777 27.779 31.307 28.4934 32.2996 29.7082L31.5252 30.3409Z" fill="#1E1E22"/>
<path d="M46.9738 15.4534L48.1443 15.8887L48.4497 16.1715L46.9483 17.5642L42.9785 16.1933L43.2839 13.7344L46.9738 15.4534Z" fill="white" stroke="#1E1E22"/>
<path d="M46.8088 15.3919C44.8169 13.871 42.9843 12.0457 43.1277 11C42.6981 12.5124 42.4833 13.3753 41.8848 14.7906C42.1445 16.0035 42.4731 16.8656 43.319 18.6597C44.4946 16.8038 45.2465 16.0564 46.8088 15.3919Z" fill="white" stroke="#1E1E22"/>
<path d="M46.5589 17.6989C46.3033 16.6408 46.6202 16.1034 48.558 15.3112L53.4764 13.8711L53.0031 15.7498C50.548 17.1309 49.0351 17.7552 46.5589 17.6989Z" fill="white" stroke="#1E1E22"/>
<path d="M52.4493 18.3338C50.3464 16.111 49.3481 15.2065 48.5039 15.3613C50.8975 13.6314 53.6593 12.7299 53.1595 11C53.735 12.3853 54.0246 13.2124 54.4221 14.874C53.9249 16.2378 53.3967 16.9909 52.4493 18.3338Z" fill="white" stroke="#1E1E22"/>
<path d="M30.4452 62.6025C27.9901 61.9118 26.7054 61.9373 24.7344 63.4075C24.9161 65.3032 25.2982 69.2183 25.3055 69.1724C25.4694 68.1394 29.6924 67.1729 31.7431 68.0558C31.1415 65.9797 30.8305 64.8153 30.4452 62.6025Z" fill="white" stroke="#1E1E22"/>
<path d="M45.937 55.8565C47.6125 44.088 44.5855 34.5771 46.3153 17.3086" stroke="#1E1E22" stroke-width="0.75"/>
</svg>
