<svg width="80" height="80" viewBox="0 0 80 80" fill="none" xmlns="http://www.w3.org/2000/svg">
<path fill-rule="evenodd" clip-rule="evenodd" d="M51.4107 17.735C51.9805 18.2876 52.6339 18.9633 53.3961 19.769C54.658 17.9802 55.3615 16.9771 56.0238 15.1605C55.9564 14.8787 55.8913 14.6149 55.8274 14.3652L60.0015 15.7605V68.7118C56.4149 69.1341 51.8396 69.2775 46.7132 69.2968C46.2043 69.3274 45.6898 69.3478 45.1534 69.357C46.1579 61.9375 45.7829 55.1664 45.3677 47.6711L45.3197 46.8023C44.8851 38.917 44.4606 30.1611 45.5499 18.9233C46.6034 18.9472 47.526 18.8785 48.4005 18.714C48.5352 18.7141 48.6721 18.7126 48.8113 18.7094C48.8182 18.6808 48.8248 18.6525 48.831 18.6244C49.6977 18.4267 50.5294 18.1314 51.4107 17.735ZM28.7607 67.9348C37.0001 68.9546 41.1834 69.3537 44.3957 69.3624C45.4085 61.974 45.0355 55.2381 44.6175 47.6885L44.5708 46.8436C44.1296 38.838 43.6961 29.8965 44.8512 18.3655L45.0144 18.3818L43.08 17.7138C42.4809 18.3411 41.9093 19.134 41.2321 20.203C40.9494 19.6034 40.7101 19.082 40.5047 18.6117C39.6602 17.3881 39.1102 16.4729 38.5867 15.0368C38.6427 14.8027 38.697 14.5814 38.7504 14.3704C36.1204 15.4786 33.9719 16.3597 31.9867 17.1738L31.9866 17.1739L31.9865 17.1739L31.9864 17.174L31.9863 17.174C29.2488 18.2966 26.8217 19.2919 23.8708 20.5799C21.1511 23.8668 20.1741 31.2629 19.2336 38.3834L19.2336 38.3835L19.2335 38.3835C19.1561 38.9699 19.0789 39.5544 19.001 40.1346L28.5358 46.8089C28.9511 45.2089 29.3386 43.6665 29.6743 41.8342C32.3856 49.5016 31.3879 54.0174 30.1969 59.4085C29.6413 61.9237 29.0435 64.6295 28.7607 67.9348ZM58.0334 24.8412C57.8145 25.196 54.6822 27.9508 53.6564 27.9771L51.6731 28.5473L54.5455 27.9771L57.3495 27.4386L55.4003 27.6287L56.9049 26.2349L57.8282 25.4431L58.0334 24.8412ZM38.0296 53.6313C37.7287 53.2258 35.6245 51.055 34.6101 50.0203L32.9345 49.6085L39.2948 48.7849L35.2256 49.7986L38.098 52.8077C38.2303 53.3659 38.445 54.2577 38.5735 54.7529C38.4298 54.3985 38.1758 53.9022 38.0296 53.6313ZM38.6793 55.0884C38.6714 55.0156 38.6314 54.8958 38.5735 54.7529C38.6444 55.0259 38.689 55.1784 38.6793 55.0884ZM26.0376 35.3399C26.1657 36.5372 27.2642 40.0788 27.5422 40.9148C27.2081 38.5589 27.107 37.2847 27.5422 35.3399C28.0246 34.4633 28.2062 33.9494 28.3971 32.996L28.3855 33.0056C27.9463 33.3716 27.6964 33.5799 26.8583 33.5661C25.0888 30.1742 24.5166 28.1761 23.5413 24.602L23.6188 24.9615L23.6188 24.9615C24.3259 28.2461 24.7454 30.1951 26.0376 33.5661C24.7566 32.7681 24.043 32.1845 22.7891 30.747C23.9747 32.7241 24.6992 33.7019 26.0376 35.3399Z" fill="white"/>
<path d="M53.3961 19.769L53.0329 20.1126L53.4526 20.5563L53.8047 20.0572L53.3961 19.769ZM51.4107 17.735L51.7587 17.376L51.5151 17.1398L51.2056 17.279L51.4107 17.735ZM56.0238 15.1605L56.4935 15.3318L56.5451 15.1905L56.5101 15.0442L56.0238 15.1605ZM55.8274 14.3652L55.9859 13.891L55.1156 13.6001L55.343 14.4891L55.8274 14.3652ZM60.0015 15.7605H60.5015V15.4005L60.16 15.2863L60.0015 15.7605ZM60.0015 68.7118L60.0599 69.2084L60.5015 69.1564V68.7118H60.0015ZM46.7132 69.2968L46.7113 68.7968L46.6973 68.7969L46.6832 68.7977L46.7132 69.2968ZM45.1534 69.357L44.6579 69.2899L44.5798 69.8669L45.1619 69.8569L45.1534 69.357ZM45.3677 47.6711L44.8685 47.6987L44.8685 47.6987L45.3677 47.6711ZM45.3197 46.8023L44.8204 46.8298L44.8204 46.8299L45.3197 46.8023ZM45.5499 18.9233L45.5612 18.4235L45.097 18.413L45.0522 18.8751L45.5499 18.9233ZM48.4005 18.714L48.401 18.214L48.3541 18.2139L48.308 18.2226L48.4005 18.714ZM48.8113 18.7094L48.8226 19.2093L49.207 19.2006L49.2973 18.8269L48.8113 18.7094ZM48.831 18.6244L48.7199 18.1369L48.4118 18.2072L48.343 18.5155L48.831 18.6244ZM44.3957 69.3624L44.3944 69.8624L44.8317 69.8635L44.8911 69.4303L44.3957 69.3624ZM28.7607 67.9348L28.2625 67.8921L28.2215 68.3718L28.6993 68.431L28.7607 67.9348ZM44.6175 47.6885L44.1183 47.7161L44.1183 47.7162L44.6175 47.6885ZM44.5708 46.8436L44.0716 46.8711L44.0716 46.8712L44.5708 46.8436ZM44.8512 18.3655L44.9011 17.868L44.4036 17.8181L44.3537 18.3156L44.8512 18.3655ZM45.0144 18.3818L44.9645 18.8793L45.1776 17.9092L45.0144 18.3818ZM43.08 17.7138L43.2432 17.2412L42.9399 17.1365L42.7184 17.3685L43.08 17.7138ZM41.2321 20.203L40.7798 20.4162L41.1677 21.239L41.6545 20.4706L41.2321 20.203ZM40.5047 18.6117L40.9629 18.4116L40.9436 18.3674L40.9162 18.3277L40.5047 18.6117ZM38.5867 15.0368L38.1004 14.9205L38.0654 15.0668L38.1169 15.2081L38.5867 15.0368ZM38.7504 14.3704L39.2351 14.4931L39.4813 13.5199L38.5562 13.9097L38.7504 14.3704ZM31.9867 17.1738L31.797 16.7112L31.7924 16.7131L31.9867 17.1738ZM31.9866 17.1739L32.1732 17.6378L32.181 17.6345L31.9866 17.1739ZM31.9864 17.174L31.7998 16.71L31.7929 16.7129L31.9864 17.174ZM31.9863 17.174L32.176 17.6366L32.1798 17.635L31.9863 17.174ZM23.8708 20.5799L23.6708 20.1217L23.5616 20.1693L23.4856 20.2612L23.8708 20.5799ZM19.2336 38.3834L19.7255 38.4729L19.7277 38.4609L19.7293 38.4489L19.2336 38.3834ZM19.2336 38.3835L19.7186 38.5048L19.7226 38.489L19.7255 38.4729L19.2336 38.3835ZM19.2335 38.3835L18.7485 38.2623L18.7416 38.2899L18.7379 38.3181L19.2335 38.3835ZM19.001 40.1346L18.5054 40.068L18.4649 40.3697L18.7142 40.5442L19.001 40.1346ZM28.5358 46.8089L28.249 47.2185L28.8388 47.6314L29.0197 46.9346L28.5358 46.8089ZM29.6743 41.8342L30.1457 41.6675L29.5204 39.8992L29.1825 41.7441L29.6743 41.8342ZM30.1969 59.4085L30.6852 59.5163L30.1969 59.4085ZM53.6564 27.9771L53.6436 27.4773L53.5797 27.4789L53.5182 27.4966L53.6564 27.9771ZM58.0334 24.8412L58.5066 25.0026L57.6078 24.5787L58.0334 24.8412ZM51.6731 28.5473L51.5349 28.0667L51.7704 29.0377L51.6731 28.5473ZM54.5455 27.9771L54.4512 27.4861L54.4481 27.4867L54.5455 27.9771ZM57.3495 27.4386L57.4438 27.9296L57.3009 26.941L57.3495 27.4386ZM55.4003 27.6287L55.0606 27.2619L53.9719 28.2703L55.4489 28.1263L55.4003 27.6287ZM56.9049 26.2349L56.5794 25.8554L56.5722 25.8616L56.5651 25.8681L56.9049 26.2349ZM57.8282 25.4431L58.1537 25.8226L58.2574 25.7337L58.3015 25.6044L57.8282 25.4431ZM34.6101 50.0203L34.9671 49.6702L34.8675 49.5687L34.7294 49.5347L34.6101 50.0203ZM38.0296 53.6313L38.4696 53.3938L38.4525 53.3622L38.4311 53.3333L38.0296 53.6313ZM32.9345 49.6085L32.8703 49.1126L32.8152 50.0941L32.9345 49.6085ZM39.2948 48.7849L39.4157 49.2701L39.2306 48.2891L39.2948 48.7849ZM35.2256 49.7986L35.1047 49.3134L34.2698 49.5214L34.8639 50.1438L35.2256 49.7986ZM38.098 52.8077L38.5845 52.6924L38.5532 52.5605L38.4597 52.4625L38.098 52.8077ZM38.6793 55.0884L39.1764 55.0347L39.1764 55.0347L38.6793 55.0884ZM27.5422 40.9148L27.0677 41.0726L28.0372 40.8446L27.5422 40.9148ZM26.0376 35.3399L26.5348 35.2868L26.5189 35.1388L26.4248 35.0236L26.0376 35.3399ZM27.5422 35.3399L27.1041 35.0989L27.0698 35.1613L27.0543 35.2307L27.5422 35.3399ZM28.3971 32.996L28.8873 33.0941L29.1654 31.7047L28.077 32.6119L28.3971 32.996ZM28.3855 33.0056L28.7056 33.3897L28.7056 33.3897L28.3855 33.0056ZM26.8583 33.5661L26.415 33.7974L26.5526 34.0612L26.8501 34.066L26.8583 33.5661ZM23.5413 24.602L24.0237 24.4703L23.0526 24.7072L23.5413 24.602ZM23.6188 24.9615L23.13 25.0667L23.1317 25.0748L23.1337 25.0827L23.6188 24.9615ZM23.6188 24.9615L24.1076 24.8562L24.1058 24.8482L24.1038 24.8402L23.6188 24.9615ZM26.0376 33.5661L25.7732 33.9905L27.0377 34.7781L26.5045 33.3872L26.0376 33.5661ZM22.7891 30.747L23.1658 30.4183L22.3602 31.0041L22.7891 30.747ZM53.7593 19.4254C52.9959 18.6184 52.3366 17.9364 51.7587 17.376L51.0626 18.0939C51.6245 18.6388 52.2718 19.3081 53.0329 20.1126L53.7593 19.4254ZM55.554 14.9893C54.9168 16.7372 54.249 17.6926 52.9876 19.4808L53.8047 20.0572C55.067 18.2678 55.8063 17.217 56.4935 15.3318L55.554 14.9893ZM55.343 14.4891C55.4061 14.7359 55.4706 14.9972 55.5375 15.2769L56.5101 15.0442C56.4421 14.7602 56.3764 14.4938 56.3118 14.2413L55.343 14.4891ZM60.16 15.2863L55.9859 13.891L55.6689 14.8394L59.8429 16.2347L60.16 15.2863ZM60.5015 68.7118V15.7605H59.5015V68.7118H60.5015ZM46.7151 69.7968C51.845 69.7775 56.4437 69.6341 60.0599 69.2084L59.943 68.2153C56.386 68.634 51.8343 68.7775 46.7113 68.7968L46.7151 69.7968ZM45.1619 69.8569C45.7058 69.8476 46.2274 69.8269 46.7432 69.7959L46.6832 68.7977C46.1813 68.8279 45.6739 68.848 45.1448 68.8571L45.1619 69.8569ZM44.8685 47.6987C45.284 55.1999 45.6551 61.9247 44.6579 69.2899L45.6488 69.4241C46.6607 61.9503 46.2818 55.1329 45.8669 47.6434L44.8685 47.6987ZM44.8204 46.8299L44.8685 47.6987L45.8669 47.6435L45.8189 46.7747L44.8204 46.8299ZM45.0522 18.8751C43.9591 30.1524 44.3856 38.9396 44.8204 46.8298L45.8189 46.7748C45.3846 38.8943 44.9621 30.1698 46.0476 18.9716L45.0522 18.8751ZM48.308 18.2226C47.4729 18.3797 46.5856 18.4466 45.5612 18.4235L45.5386 19.4232C46.6212 19.4477 47.5791 19.3772 48.4929 19.2053L48.308 18.2226ZM48.7999 18.2096C48.6645 18.2126 48.5316 18.2141 48.401 18.214L48.3999 19.214C48.5387 19.2141 48.6796 19.2126 48.8226 19.2093L48.7999 18.2096ZM48.343 18.5155C48.3374 18.5406 48.3315 18.5661 48.3252 18.592L49.2973 18.8269C49.3049 18.7955 49.3121 18.7643 49.319 18.7333L48.343 18.5155ZM51.2056 17.279C50.3475 17.665 49.5476 17.9481 48.7199 18.1369L48.9422 19.1119C49.8478 18.9053 50.7113 18.5978 51.6158 18.191L51.2056 17.279ZM44.3971 68.8624C41.2196 68.8538 37.0654 68.4589 28.8221 67.4385L28.6993 68.431C36.9348 69.4504 41.1473 69.8536 44.3944 69.8624L44.3971 68.8624ZM44.1183 47.7162C44.5366 55.2717 44.9056 61.9609 43.9003 69.2945L44.8911 69.4303C45.9114 61.9872 45.5344 55.2044 45.1168 47.6609L44.1183 47.7162ZM44.0716 46.8712L44.1183 47.7161L45.1168 47.6609L45.07 46.816L44.0716 46.8712ZM44.3537 18.3156C43.1946 29.887 43.6301 38.8604 44.0716 46.8711L45.0701 46.816C44.6291 38.8156 44.1977 29.906 45.3488 18.4153L44.3537 18.3156ZM45.0642 17.8843L44.9011 17.868L44.8014 18.863L44.9645 18.8793L45.0642 17.8843ZM42.9167 18.1864L44.8511 18.8544L45.1776 17.9092L43.2432 17.2412L42.9167 18.1864ZM41.6545 20.4706C42.3256 19.4111 42.8765 18.6508 43.4415 18.0591L42.7184 17.3685C42.0853 18.0313 41.4929 18.8568 40.8097 19.9355L41.6545 20.4706ZM40.0465 18.8118C40.2545 19.2881 40.496 19.8143 40.7798 20.4162L41.6843 19.9898C41.4028 19.3926 41.1657 18.8759 40.9629 18.4116L40.0465 18.8118ZM38.1169 15.2081C38.6603 16.6987 39.2354 17.6528 40.0932 18.8957L40.9162 18.3277C40.085 17.1233 39.5601 16.2471 39.0564 14.8656L38.1169 15.2081ZM38.2657 14.2478C38.2117 14.4611 38.1568 14.6846 38.1004 14.9205L39.073 15.1532C39.1285 14.9209 39.1824 14.7016 39.2351 14.4931L38.2657 14.2478ZM32.1764 17.6364C34.1617 16.8223 36.3121 15.9404 38.9446 14.8312L38.5562 13.9097C35.9287 15.0168 33.7822 15.8971 31.797 16.7112L32.1764 17.6364ZM32.181 17.6345L32.1811 17.6345L31.7924 16.7131L31.7923 16.7132L32.181 17.6345ZM32.1731 17.6378L32.1732 17.6377L31.8001 16.71L31.7999 16.71L32.1731 17.6378ZM32.1729 17.6379L32.1731 17.6378L31.7999 16.71L31.7998 16.7101L32.1729 17.6379ZM32.1798 17.635L32.1799 17.635L31.7929 16.7129L31.7928 16.7129L32.1798 17.635ZM24.0708 21.0382C27.016 19.7527 29.4383 18.7593 32.176 17.6366L31.7966 16.7114C29.0593 17.8339 26.6275 18.8312 23.6708 20.1217L24.0708 21.0382ZM19.7293 38.4489C20.2003 34.883 20.677 31.2771 21.3731 28.1528C22.0729 25.0113 22.9777 22.4436 24.256 20.8987L23.4856 20.2612C22.0442 22.0031 21.1006 24.7769 20.397 27.9353C19.6895 31.1109 19.2074 34.7632 18.7379 38.3179L19.7293 38.4489ZM19.7255 38.4729L19.7255 38.4729L18.7416 38.294L18.7416 38.294L19.7255 38.4729ZM19.7186 38.5048L19.7186 38.5048L18.7485 38.2622L18.7485 38.2623L19.7186 38.5048ZM19.4965 40.2011C19.5745 39.6203 19.6518 39.0353 19.7292 38.449L18.7379 38.3181C18.6604 38.9045 18.5833 39.4885 18.5054 40.068L19.4965 40.2011ZM28.8225 46.3993L19.2877 39.7249L18.7142 40.5442L28.249 47.2185L28.8225 46.3993ZM29.1825 41.7441C28.8502 43.5577 28.4665 45.0857 28.0518 46.6833L29.0197 46.9346C29.4357 45.3322 29.827 43.7753 30.1661 41.9243L29.1825 41.7441ZM30.6852 59.5163C31.2793 56.827 31.8383 54.3036 31.8988 51.4857C31.9596 48.6582 31.5194 45.5523 30.1457 41.6675L29.2029 42.0008C30.5405 45.7835 30.957 48.7692 30.8991 51.4642C30.8409 54.1689 30.3056 56.5989 29.7087 59.3006L30.6852 59.5163ZM29.2589 67.9774C29.5386 64.7087 30.1294 62.032 30.6852 59.5163L29.7087 59.3006C29.1531 61.8155 28.5485 64.5503 28.2625 67.8921L29.2589 67.9774ZM53.6692 28.4769C53.8913 28.4712 54.1213 28.3966 54.3261 28.3093C54.5397 28.2183 54.7691 28.0944 55.0015 27.9535C55.4667 27.6715 55.9788 27.3002 56.4561 26.9257C56.935 26.5501 57.3881 26.164 57.7372 25.8477C57.9115 25.6897 58.0626 25.5466 58.1793 25.4291C58.2801 25.3276 58.3961 25.2056 58.4589 25.1037L57.6078 24.5787C57.6159 24.5656 57.5861 24.6073 57.4698 24.7244C57.3693 24.8256 57.2318 24.9561 57.0656 25.1067C56.7337 25.4075 56.2987 25.7783 55.8389 26.139C55.3776 26.5008 54.9006 26.8453 54.4831 27.0983C54.2742 27.225 54.0889 27.3234 53.934 27.3894C53.7702 27.4592 53.6779 27.4764 53.6436 27.4773L53.6692 28.4769ZM51.8112 29.0278L53.7945 28.4576L53.5182 27.4966L51.5349 28.0667L51.8112 29.0278ZM54.4481 27.4867L51.5757 28.0568L51.7704 29.0377L54.6428 28.4675L54.4481 27.4867ZM57.2552 26.9476L54.4512 27.4861L54.6398 28.4681L57.4438 27.9296L57.2552 26.9476ZM55.4489 28.1263L57.398 27.9363L57.3009 26.941L55.3518 27.131L55.4489 28.1263ZM56.5651 25.8681L55.0606 27.2619L55.7401 27.9955L57.2447 26.6018L56.5651 25.8681ZM57.5027 25.0635L56.5794 25.8554L57.2304 26.6145L58.1537 25.8226L57.5027 25.0635ZM57.5601 24.6799L57.3549 25.2817L58.3015 25.6044L58.5066 25.0026L57.5601 24.6799ZM34.253 50.3703C34.7593 50.8867 35.5373 51.6864 36.2259 52.4072C36.9303 53.1445 37.5014 53.7585 37.6281 53.9293L38.4311 53.3333C38.2569 53.0986 37.6255 52.4245 36.9489 51.7164C36.2566 50.9916 35.4753 50.1886 34.9671 49.6702L34.253 50.3703ZM32.8152 50.0941L34.4907 50.5058L34.7294 49.5347L33.0538 49.123L32.8152 50.0941ZM39.2306 48.2891L32.8703 49.1126L32.9987 50.1044L39.359 49.2808L39.2306 48.2891ZM35.3464 50.2837L39.4157 49.2701L39.174 48.2998L35.1047 49.3134L35.3464 50.2837ZM38.4597 52.4625L35.5873 49.4533L34.8639 50.1438L37.7363 53.153L38.4597 52.4625ZM39.0575 54.6273C38.9304 54.1378 38.7168 53.2509 38.5845 52.6924L37.6115 52.923C37.7437 53.481 37.9595 54.3775 38.0896 54.8786L39.0575 54.6273ZM37.5896 53.8688C37.7338 54.136 37.9771 54.6127 38.1102 54.9408L39.0369 54.5651C38.8825 54.1843 38.6178 53.6685 38.4696 53.3938L37.5896 53.8688ZM39.1764 55.0347C39.16 54.883 39.0925 54.7022 39.0369 54.5651L38.1102 54.9408C38.1363 55.0054 38.1559 55.0585 38.169 55.0994C38.1755 55.1197 38.1795 55.1341 38.1817 55.1434C38.1843 55.1538 38.1833 55.1523 38.1822 55.142L39.1764 55.0347ZM38.0896 54.8786C38.1248 55.0144 38.1563 55.1309 38.1788 55.2041C38.1846 55.2227 38.1914 55.2439 38.1987 55.2643C38.1991 55.2652 38.22 55.3284 38.2605 55.3893C38.2715 55.4057 38.3053 55.4557 38.3646 55.5034C38.4145 55.5435 38.5987 55.6716 38.8434 55.5865C39.0604 55.5111 39.1329 55.3287 39.1469 55.292C39.1694 55.2334 39.1754 55.184 39.1775 55.1656C39.1847 55.0996 39.177 55.0398 39.1764 55.0347L38.1822 55.142C38.1822 55.1417 38.182 55.1404 38.1818 55.1383C38.1817 55.1362 38.1814 55.1325 38.1811 55.1276C38.1809 55.1236 38.1792 55.0947 38.1834 55.0564C38.1852 55.0399 38.191 54.9921 38.213 54.9346C38.2267 54.8989 38.2986 54.7172 38.515 54.642C38.7591 54.5571 38.9426 54.6849 38.9917 54.7244C39.0502 54.7715 39.0832 54.8204 39.0931 54.8354C39.1175 54.872 39.1304 54.9028 39.1321 54.9066C39.1362 54.9162 39.1385 54.9225 39.1388 54.9233C39.1394 54.9249 39.1381 54.9213 39.1344 54.9094C39.1194 54.8606 39.0931 54.7644 39.0575 54.6273L38.0896 54.8786ZM28.0166 40.757C27.8801 40.3465 27.5381 39.259 27.2145 38.1256C26.8859 36.975 26.5933 35.8342 26.5348 35.2868L25.5404 35.3931C25.61 36.0429 25.9307 37.2716 26.2529 38.4001C26.58 39.5458 26.9262 40.6471 27.0677 41.0726L28.0166 40.757ZM27.0543 35.2307C26.599 37.265 26.7105 38.6113 27.0471 40.985L28.0372 40.8446C27.7057 38.5065 27.6149 37.3044 28.0301 35.4491L27.0543 35.2307ZM27.9068 32.8978C27.7257 33.8028 27.5611 34.2683 27.1041 35.0989L27.9802 35.581C28.488 34.6583 28.6868 34.096 28.8873 33.0941L27.9068 32.8978ZM28.7056 33.3897L28.7172 33.3801L28.077 32.6119L28.0654 32.6215L28.7056 33.3897ZM26.8501 34.066C27.3105 34.0736 27.66 34.0213 27.97 33.8872C28.2696 33.7576 28.4962 33.5642 28.7056 33.3897L28.0654 32.6215C27.8355 32.813 27.7176 32.9068 27.573 32.9694C27.4387 33.0275 27.2442 33.0724 26.8665 33.0662L26.8501 34.066ZM23.059 24.7336C24.037 28.3179 24.6203 30.3573 26.415 33.7974L27.3016 33.3349C25.5572 29.9912 24.9961 28.0344 24.0237 24.4703L23.059 24.7336ZM24.1076 24.8562L24.0301 24.4967L23.0526 24.7072L23.13 25.0667L24.1076 24.8562ZM24.1038 24.8402L24.1038 24.8402L23.1337 25.0827L23.1337 25.0827L24.1038 24.8402ZM26.5045 33.3872C25.2267 30.0538 24.8136 28.1359 24.1076 24.8562L23.13 25.0667C23.8381 28.3563 24.2642 30.3365 25.5707 33.7451L26.5045 33.3872ZM22.4123 31.0757C23.6968 32.5482 24.4478 33.1649 25.7732 33.9905L26.302 33.1417C25.0654 32.3714 24.3892 31.8207 23.1658 30.4183L22.4123 31.0757ZM26.4248 35.0236C25.0986 33.4005 24.3888 32.4424 23.2179 30.4899L22.3602 31.0041C23.5605 33.0057 24.2998 34.0033 25.6504 35.6563L26.4248 35.0236Z" fill="#757575"/>
<path d="M46.3197 15.9343L47.8789 16.514L48.2856 16.8908L46.2858 18.7458L40.998 16.9198L41.4048 13.6445L46.3197 15.9343Z" fill="white" stroke="#757575"/>
<path d="M46.0989 15.85C43.4457 13.8241 41.0046 11.3928 41.1957 10C40.6234 12.0145 40.3373 13.1639 39.54 15.0491C39.8861 16.6647 40.3237 17.8129 41.4504 20.2026C43.0163 17.7306 44.0178 16.7351 46.0989 15.85Z" fill="white" stroke="#757575"/>
<path d="M45.767 18.9229C45.4264 17.5135 45.8486 16.7976 48.4297 15.7424L54.981 13.8242L54.3506 16.3266C51.0803 18.1663 49.0651 18.9978 45.767 18.9229Z" fill="white" stroke="#757575"/>
<path d="M53.6147 19.7686C50.8136 16.8078 49.4838 15.603 48.3594 15.8092C51.5476 13.505 55.2263 12.3042 54.5606 10C55.3272 11.8452 55.7128 12.9469 56.2423 15.1601C55.5801 16.9767 54.8765 17.9798 53.6147 19.7686Z" fill="white" stroke="#757575"/>
</svg>
