<svg width="80" height="80" viewBox="0 0 80 80" fill="none" xmlns="http://www.w3.org/2000/svg">
<path d="M18.8376 12.5424C23.6704 10.2653 26.965 8.91578 33.1132 6.10742L39.6419 9.51233L47.7012 6.29485L62.0706 11.4803C69.1302 15.0102 67.006 30.1604 68.5993 44.6235C69.5249 53.0264 68.6905 58.7057 67.6621 70.4258L67.2873 77.0169C64.6028 75.1175 63.023 75.1787 60.1651 75.8924C61.7581 67.4895 60.7139 62.5407 59.2904 53.7761C59.0573 45.1726 58.9555 40.3323 57.3849 32.5033C54.8226 42.6531 54.5062 48.5906 55.0733 59.4301C51.5746 60.3048 46.1106 60.5599 39.7044 60.5859C36.3599 60.8028 32.7493 60.5048 23.3046 59.2427C24.1167 48.9967 27.7715 44.5922 24.1392 33.5029C23.3596 38.0971 22.2737 40.8437 21.2428 47.3724C20.9617 57.7433 19.5962 59.7683 18.3377 68.8639C18.8065 71.454 19.4298 73.1859 20.2121 75.7674C19.3373 74.9865 13.4334 75.2052 12.4651 77.0169L11.7467 69.926C10.6315 60.9438 11.5079 52.8313 12.6848 41.9359L12.715 41.6559C14.9642 33.4716 14.8392 17.7591 18.8376 12.5424Z" fill="white" stroke="#1E1E22"/>
<path opacity="0.5" d="M65.8363 68.0535C64.8992 68.0276 62.0378 65.3108 61.8379 64.9609L62.0253 65.5545L62.8687 66.3354L64.2432 67.7099L62.4626 67.5224L65.0241 68.0535L67.6481 68.6157L65.8363 68.0535Z" fill="black" fill-opacity="0.45" stroke="#1E1E22"/>
<g opacity="0.5">
<path d="M13.8874 60.8379C14.6745 61.2149 16.1367 62.3265 16.2303 62.6184C15.1742 61.8834 14.678 61.6064 14.1061 61.5564C13.5421 61.7372 12.823 62.5057 12.6676 62.7246C12.6437 62.7718 12.6329 62.7913 12.6379 62.7746C12.6408 62.7652 12.6509 62.7481 12.6676 62.7246C12.8057 62.4523 13.3825 61.2606 13.8874 60.8379Z" fill="black" fill-opacity="0.45"/>
<path d="M16.2303 62.6184C16.1367 62.3265 14.6745 61.2149 13.8874 60.8379C13.2951 61.3338 12.6039 62.8879 12.6379 62.7746C12.6673 62.677 13.4818 61.7565 14.1061 61.5564C14.678 61.6064 15.1742 61.8834 16.2303 62.6184Z" stroke="#1E1E22"/>
</g>
<path opacity="0.5" d="M13.8873 47.8428C13.9183 47.8858 13.2068 48.42 13.0127 48.5301C13.2416 48.287 13.4227 48.1697 13.4188 47.8428C13.2354 47.6955 13.1442 47.7812 12.9814 47.9365C13.1805 47.5813 13.2948 47.3871 13.7311 47.4055C15.8437 47.8797 16.9931 48.2494 18.9478 49.1548C17.3304 48.6721 13.8023 47.7247 13.8873 47.8428Z" fill="black" fill-opacity="0.45" stroke="#1E1E22"/>
<path d="M38.6426 7.57715L40.0795 8.20191L40.4544 8.608L38.6114 10.6072L33.7383 8.63923L34.1131 5.10938L38.6426 7.57715Z" fill="white" stroke="#1E1E22"/>
<path d="M39.0482 7.63855C36.4451 5.82119 34.0502 3.64013 34.2376 2.39062C33.6761 4.19779 33.3955 5.2289 32.6133 6.92009C32.9528 8.36942 33.3822 9.39948 34.4875 11.5433C36.0239 9.32565 37.0065 8.4326 39.0482 7.63855Z" fill="white" stroke="#1E1E22"/>
<path d="M38.6114 10.6991C38.3078 9.3425 38.6842 8.65345 40.9854 7.63778L47.4204 5.38867L46.2646 8.20006C43.3488 9.97079 41.552 10.7712 38.6114 10.6991Z" fill="white" stroke="#1E1E22"/>
<path d="M45.6085 11.5119C43.111 8.66211 41.9254 7.50239 40.9229 7.70092C43.7655 5.48304 47.0454 4.32725 46.4519 2.10938C47.1354 3.88545 47.4792 4.94581 47.9513 7.07617C47.3609 8.82465 46.7336 9.79016 45.6085 11.5119Z" fill="white" stroke="#1E1E22"/>
<path d="M38.736 60.6794C37.7677 45.373 39.517 33.0029 38.5173 10.543" stroke="#1E1E22"/>
<path d="M18.6506 69.2071C15.6962 68.3763 14.1502 68.4069 11.7783 70.1755C11.997 72.4558 12.4568 77.1654 12.4655 77.1102C12.6628 75.8676 17.7447 74.7049 20.2125 75.767C19.4885 73.2696 19.1142 71.869 18.6506 69.2071Z" fill="white" stroke="#1E1E22"/>
<path d="M60.4149 70.3961C63.2564 68.5514 64.8432 68.4708 67.6308 70.2087L67.2872 77.0497C64.8498 75.3697 63.2971 74.9731 60.0713 75.9252C60.3562 73.9808 60.4385 72.7243 60.4149 70.3961Z" fill="white" stroke="#1E1E22"/>
<circle opacity="0.75" cx="39.8914" cy="9.48225" r="0.437327" fill="black" fill-opacity="0.6" stroke="#1E1E22"/>
<circle opacity="0.75" cx="40.2977" cy="15.6658" r="0.437327" fill="black" fill-opacity="0.6" stroke="#1E1E22"/>
<circle opacity="0.75" cx="40.3602" cy="23.4139" r="0.437327" fill="black" fill-opacity="0.6" stroke="#1E1E22"/>
<circle opacity="0.75" cx="40.5477" cy="32.66" r="0.437327" fill="black" fill-opacity="0.6" stroke="#1E1E22"/>
<circle opacity="0.75" cx="40.7977" cy="41.8436" r="0.437327" fill="black" fill-opacity="0.6" stroke="#1E1E22"/>
<circle opacity="0.75" cx="40.5477" cy="51.2147" r="0.437327" fill="black" fill-opacity="0.6" stroke="#1E1E22"/>
<g opacity="0.5">
<path d="M63.8821 44.5308C62.9554 45.5512 61.0332 47.692 60.7583 48.0919C60.6247 48.3591 60.3927 48.8484 60.2614 49.198C60.1967 49.4672 60.1559 49.6176 60.1648 49.5288C60.172 49.457 60.2085 49.3389 60.2614 49.198C60.3789 48.7096 60.575 47.8302 60.6959 47.2797L63.3198 44.3121L59.6025 43.3125L65.4127 44.1247L63.8821 44.5308Z" fill="black" fill-opacity="0.3"/>
<path d="M60.7583 48.0919C61.0332 47.692 62.9554 45.5512 63.8821 44.5308L65.4127 44.1247L59.6025 43.3125L63.3198 44.3121L60.6959 47.2797C60.5084 48.1335 60.1398 49.7787 60.1648 49.5288C60.1898 49.2789 60.5709 48.4667 60.7583 48.0919Z" stroke="#1E1E22"/>
</g>
<path opacity="0.5" d="M59.4152 27.0993C59.2982 28.28 58.2947 31.7727 58.0407 32.5972C58.3459 30.2738 58.4383 29.0172 58.0407 27.0993C57.6001 26.2348 57.4341 25.728 57.2598 24.7877L57.2704 24.7973C57.6716 25.1582 57.8998 25.3636 58.6655 25.35C60.2819 22.005 60.8047 20.0346 61.6955 16.5098C61.0054 19.9671 60.638 21.9061 59.4152 25.35C60.5854 24.5631 61.2372 23.9875 62.3827 22.5699C61.2997 24.5196 60.6378 25.4839 59.4152 27.0993Z" fill="black" fill-opacity="0.3" stroke="#1E1E22"/>
<path opacity="0.5" d="M18.8693 44.905C19.5639 45.3913 20.3211 45.8498 21.2746 46.1233L20.931 45.8734L20.5874 45.6235L20.1188 45.0612C20.4943 44.8834 20.8231 44.902 21.2746 44.905C20.5065 44.6955 19.9825 44.713 19.088 44.6864C17.0784 43.7909 16.1205 43.0071 14.3086 41.7812C15.9493 43.175 16.8937 43.9252 18.8693 44.905Z" fill="black" fill-opacity="0.3" stroke="#1E1E22"/>
<path opacity="0.5" d="M23.6171 29.5991C23.9429 30.3347 24.324 32.4819 24.2106 32.9727L24.3043 33.2539C24.4249 31.8266 24.3812 31.0265 24.2106 29.5991L23.992 29.1305L23.3985 27.4749C22.9201 26.0213 22.6716 25.0654 22.2427 23.2578C22.4509 24.3095 22.7425 25.9755 22.8674 26.4753C22.9759 26.9092 23.211 27.756 23.5859 28.9743C22.5382 27.8108 21.9146 27.2586 20.9619 25.913C21.5608 26.9646 21.9273 27.5817 23.6171 29.5991Z" fill="black" fill-opacity="0.3" stroke="#1E1E22"/>
<path d="M23.0856 32.8066L22.7321 32.453L22.3785 32.8066L21.5678 33.6173L21.2146 33.9706L21.5675 34.3241L23.9242 36.6851H18.1322H17.6322V37.1851V38.3351V38.8351H18.1322H23.9212L21.5624 41.1897L21.2082 41.5432L21.5621 41.8971L22.3785 42.7136L22.7321 43.0671L23.0856 42.7136L27.6856 38.1136L28.0391 37.7601L27.6856 37.4065L23.0856 32.8066Z" fill="#1E1E22" stroke="white"/>
<path d="M55.7278 42.711L56.0814 43.0645L56.4349 42.711L57.2457 41.9002L57.5989 41.547L57.246 41.1934L54.8892 38.8325H60.6813H61.1813V38.3325V37.1825V36.6825H60.6813H54.8923L57.2511 34.3279L57.6053 33.9744L57.2514 33.6205L56.4349 32.804L56.0814 32.4504L55.7278 32.804L51.1279 37.4039L50.7743 37.7575L51.1279 38.111L55.7278 42.711Z" fill="#1E1E22" stroke="white"/>
</svg>
