<svg width="80" height="80" viewBox="0 0 80 80" fill="none" xmlns="http://www.w3.org/2000/svg">
<g clip-path="url(#clip0)">
<path d="M7 54.3896C41.6963 43.9558 17.6402 41.5479 63.285 42.5108C67.113 45.6028 69.2561 47.2686 73 48.1292" stroke="#1E1E22"/>
<path d="M19.1674 41.5117C18.9111 43.8967 16.6582 51.1703 16.6582 51.1703C16.6582 51.1703 22.846 49.5605 29.5363 45.902L19.1674 41.5117Z" stroke="#1E1E22"/>
<path d="M22.9051 34.1339C22.5938 40.6612 21.0399 44.8573 24.4592 48.2762C33.5 43.1477 40.9327 42.526 63.1563 43.1477C60.0357 35.8663 58.7587 31.9542 59.8927 26.208C43.8191 22.8404 35.7262 24.4808 22.9051 34.1339Z" fill="white" stroke="#1E1E22"/>
<mask id="mask0" mask-type="alpha" maskUnits="userSpaceOnUse" x="21" y="24" width="43" height="25">
<path d="M22.9051 34.1339C22.5938 40.6612 21.0399 44.8573 24.4592 48.2762C34.5 42.4995 40.9327 42.526 63.1563 43.1477C60.0357 35.8663 58.7587 31.9542 59.8927 26.208C43.8191 22.8404 35.7262 24.4808 22.9051 34.1339Z" fill="white" stroke="black"/>
</mask>
<g mask="url(#mask0)">
<path d="M11.0497 53.8674C13.3178 48.1039 30.6734 18.9405 42.2078 2.41523" stroke="#1E1E22" stroke-width="0.5"/>
<path d="M38.7929 70.6682C41.061 64.9046 58.4166 35.7413 69.951 19.216" stroke="#1E1E22" stroke-width="0.5"/>
<path d="M24.9227 62.2697C27.1908 56.5062 44.5465 27.3429 56.0809 10.8176" stroke="#1E1E22" stroke-width="0.5"/>
<path d="M17.8593 57.9924C20.1274 52.2289 37.483 23.0655 49.0174 6.54023" stroke="#1E1E22" stroke-width="0.5"/>
<path d="M45.6024 74.7932C47.8705 69.0296 65.2262 39.8663 76.7605 23.341" stroke="#1E1E22" stroke-width="0.5"/>
<path d="M31.7313 66.3947C33.9994 60.6312 51.3551 31.4679 62.8895 14.9426" stroke="#1E1E22" stroke-width="0.5"/>
<path d="M14.58 56.008C16.8481 50.2445 34.2037 21.0811 45.7381 4.55586" stroke="#1E1E22" stroke-width="0.5"/>
<path d="M42.3231 72.8088C44.5912 67.0453 61.9469 37.8819 73.4812 21.3566" stroke="#1E1E22" stroke-width="0.5"/>
<path d="M28.452 64.4064C30.7201 58.6429 48.0758 29.4796 59.6102 12.9543" stroke="#1E1E22" stroke-width="0.5"/>
<path d="M21.3905 60.1291C23.6586 54.3656 41.0142 25.2022 52.5486 8.67695" stroke="#1E1E22" stroke-width="0.5"/>
<path d="M35.2636 68.5314C37.5317 62.7679 54.8873 33.6046 66.4217 17.0793" stroke="#1E1E22" stroke-width="0.5"/>
<path d="M12.8155 54.9363C15.3471 48.7376 34.1676 17.1552 46.5701 -0.803518" stroke="#1E1E22" stroke-width="0.5"/>
<path d="M40.5587 71.7371C43.0903 65.5384 61.9108 33.956 74.3133 15.9973" stroke="#1E1E22" stroke-width="0.5"/>
<path d="M26.6866 63.3387C29.2182 57.14 48.0387 25.5576 60.4412 7.59883" stroke="#1E1E22" stroke-width="0.5"/>
<path d="M19.6251 59.0613C22.1567 52.8626 40.9772 21.2802 53.3797 3.32148" stroke="#1E1E22" stroke-width="0.5"/>
<path d="M33.4952 67.4598C36.0268 61.2611 54.8473 29.6787 67.2498 11.7199" stroke="#1E1E22" stroke-width="0.5"/>
<path d="M16.3458 57.0769C18.8774 50.8782 37.6979 19.2959 50.1004 1.33711" stroke="#1E1E22" stroke-width="0.5"/>
<path d="M44.0909 73.8777C46.6225 67.679 65.443 36.0967 77.8455 18.1379" stroke="#1E1E22" stroke-width="0.5"/>
<path d="M30.2178 65.4754C32.7495 59.2767 51.57 27.6943 63.9725 9.73554" stroke="#1E1E22" stroke-width="0.5"/>
<path d="M23.1563 61.198C25.6879 54.9993 44.5085 23.417 56.9109 5.4582" stroke="#1E1E22" stroke-width="0.5"/>
<path d="M37.0274 69.6004C39.559 63.4017 58.3796 31.8193 70.782 13.8605" stroke="#1E1E22" stroke-width="0.5"/>
<path d="M11.8075 54.3283C14.0756 48.5648 31.4312 19.4014 42.9656 2.87617" stroke="#1E1E22" stroke-width="0.5"/>
<path d="M39.5507 71.1291C41.8188 65.3656 59.1744 36.2022 70.7088 19.677" stroke="#1E1E22" stroke-width="0.5"/>
<path d="M25.6786 62.7268C27.9467 56.9632 45.3023 27.7999 56.8367 11.2746" stroke="#1E1E22" stroke-width="0.5"/>
<path d="M18.6161 58.4494C20.8842 52.6859 38.2398 23.5225 49.7742 6.99726" stroke="#1E1E22" stroke-width="0.5"/>
<path d="M46.3593 75.2502C48.6274 69.4867 65.983 40.3233 77.5174 23.798" stroke="#1E1E22" stroke-width="0.5"/>
<path d="M32.4872 66.8518C34.7553 61.0882 52.1109 31.9249 63.6453 15.3996" stroke="#1E1E22" stroke-width="0.5"/>
<path d="M15.589 56.6178C17.559 50.6737 34.8403 21.4654 46.7471 5.16562" stroke="#1E1E22" stroke-width="0.5"/>
<path d="M43.3332 73.4186C45.3032 67.4745 62.5844 38.2661 74.4913 21.9664" stroke="#1E1E22" stroke-width="0.5"/>
<path d="M29.4601 65.0162C31.4301 59.0722 48.7114 29.8638 60.6182 13.5641" stroke="#1E1E22" stroke-width="0.5"/>
<path d="M22.3986 60.7428C24.3686 54.7987 41.6499 25.5904 53.5567 9.29062" stroke="#1E1E22" stroke-width="0.5"/>
<path d="M36.2707 69.1412C38.2407 63.1972 55.5219 33.9888 67.4288 17.6891" stroke="#1E1E22" stroke-width="0.5"/>
<path d="M13.8255 55.55C16.0591 49.1708 34.8052 17.5434 47.5801 -0.189847" stroke="#1E1E22" stroke-width="0.5"/>
<path d="M41.5697 72.3508C43.8032 65.9716 62.5494 34.3442 75.3243 16.6109" stroke="#1E1E22" stroke-width="0.5"/>
<path d="M27.6966 63.9484C29.9302 57.5692 48.6763 25.9418 61.4512 8.20859" stroke="#1E1E22" stroke-width="0.5"/>
<path d="M20.6341 59.6711C22.8677 53.2919 41.6138 21.6645 54.3887 3.93125" stroke="#1E1E22" stroke-width="0.5"/>
<path d="M34.5042 68.0734C36.7378 61.6942 55.4839 30.0668 68.2589 12.3336" stroke="#1E1E22" stroke-width="0.5"/>
<path d="M17.3548 57.6867C19.5884 51.3075 38.3345 19.6801 51.1094 1.94687" stroke="#1E1E22" stroke-width="0.5"/>
<path d="M45.098 74.4875C47.3315 68.1083 66.0777 36.4809 78.8526 18.7477" stroke="#1E1E22" stroke-width="0.5"/>
<path d="M31.2259 66.0851C33.4595 59.7059 52.2056 28.0785 64.9805 10.3453" stroke="#1E1E22" stroke-width="0.5"/>
<path d="M24.1644 61.8117C26.3979 55.4325 45.1441 23.8051 57.919 6.07187" stroke="#1E1E22" stroke-width="0.5"/>
<path d="M38.0374 70.2101C40.271 63.8309 59.0171 32.2035 71.7921 14.4703" stroke="#1E1E22" stroke-width="0.5"/>
</g>
</g>
<defs>
<clipPath id="clip0">
<rect width="80" height="80" fill="white"/>
</clipPath>
</defs>
</svg>
