<svg width="705" height="127" viewBox="0 0 705 127" fill="none" xmlns="http://www.w3.org/2000/svg">
<rect x="127" y="59" width="66" height="9" fill="#424242"/>
<rect x="319.332" y="59" width="66" height="9" fill="#424242"/>
<rect x="512" y="59" width="66" height="9" fill="#424242"/>
<path d="M63.3333 0C28.3733 0 0 28.3733 0 63.3333C0 98.2933 28.3733 126.667 63.3333 126.667C98.2933 126.667 126.667 98.2933 126.667 63.3333C126.667 28.3733 98.2933 0 63.3333 0ZM63.3333 114C35.34 114 12.6667 91.3267 12.6667 63.3333C12.6667 35.34 35.34 12.6667 63.3333 12.6667C91.3267 12.6667 114 35.34 114 63.3333C114 91.3267 91.3267 114 63.3333 114Z" fill="#424242"/>
<path d="M35.668 43.168V82.8346H92.3346V43.168H35.668ZM49.8346 77.168C49.8346 74.9136 48.9391 72.7516 47.345 71.1576C45.751 69.5635 43.589 68.668 41.3346 68.668V57.3346C43.589 57.3346 45.751 56.4391 47.345 54.845C48.9391 53.251 49.8346 51.089 49.8346 48.8346H78.168C78.168 51.089 79.0635 53.251 80.6576 54.845C82.2516 56.4391 84.4136 57.3346 86.668 57.3346V68.668C84.4136 68.668 82.2516 69.5635 80.6576 71.1576C79.0635 72.7516 78.168 74.9136 78.168 77.168H49.8346ZM64.0013 54.5013C67.118 54.5013 69.668 58.1846 69.668 63.0013C69.668 67.818 67.118 71.5013 64.0013 71.5013C60.8846 71.5013 58.3346 67.818 58.3346 63.0013C58.3346 58.1846 60.8846 54.5013 64.0013 54.5013Z" fill="#424242"/>
<path d="M448.669 0C413.709 0 385.336 28.3733 385.336 63.3333C385.336 98.2933 413.709 126.667 448.669 126.667C483.629 126.667 512.003 98.2933 512.003 63.3333C512.003 28.3733 483.629 0 448.669 0ZM448.669 114C420.676 114 398.003 91.3267 398.003 63.3333C398.003 35.34 420.676 12.6667 448.669 12.6667C476.663 12.6667 499.336 35.34 499.336 63.3333C499.336 91.3267 476.663 114 448.669 114Z" fill="#424242"/>
<path d="M417.461 37.5V82.125H424.167C425.115 85.7779 428.4 88.5 432.336 88.5C436.271 88.5 439.557 85.7779 440.504 82.125H458.167C459.115 85.7779 462.4 88.5 466.336 88.5C470.271 88.5 473.557 85.7779 474.504 82.125H481.211V60.0122L480.614 59.3471L467.864 46.5971L467.199 46H455.711V37.5H417.461ZM421.711 41.75H451.461V77.875H440.504C439.557 74.2221 436.271 71.5 432.336 71.5C428.4 71.5 425.115 74.2221 424.167 77.875H421.711V41.75ZM455.711 50.25H465.407L476.961 61.8057V77.875H474.504C473.557 74.2221 470.271 71.5 466.336 71.5C462.4 71.5 459.115 74.2221 458.167 77.875H455.711V50.25ZM432.336 75.75C434.71 75.75 436.586 77.6264 436.586 80C436.586 82.3736 434.71 84.25 432.336 84.25C429.962 84.25 428.086 82.3736 428.086 80C428.086 77.6264 429.962 75.75 432.336 75.75ZM466.336 75.75C468.71 75.75 470.586 77.6264 470.586 80C470.586 82.3736 468.71 84.25 466.336 84.25C463.962 84.25 462.086 82.3736 462.086 80C462.086 77.6264 463.962 75.75 466.336 75.75Z" fill="#424242"/>
<path d="M255.997 0C221.037 0 192.664 28.3733 192.664 63.3333C192.664 98.2933 221.037 126.667 255.997 126.667C290.957 126.667 319.331 98.2933 319.331 63.3333C319.331 28.3733 290.957 0 255.997 0ZM255.997 114C228.004 114 205.331 91.3267 205.331 63.3333C205.331 35.34 228.004 12.6667 255.997 12.6667C283.991 12.6667 306.664 35.34 306.664 63.3333C306.664 91.3267 283.991 114 255.997 114Z" fill="#424242"/>
<path d="M239.664 45.9974C239.664 45.2459 239.963 44.5253 240.494 43.9939C241.025 43.4626 241.746 43.1641 242.497 43.1641H270.831C271.582 43.1641 272.303 43.4626 272.834 43.9939C273.366 44.5253 273.664 45.2459 273.664 45.9974C273.664 46.7488 273.366 47.4695 272.834 48.0009C272.303 48.5322 271.582 48.8307 270.831 48.8307H242.497C241.746 48.8307 241.025 48.5322 240.494 48.0009C239.963 47.4695 239.664 46.7488 239.664 45.9974Z" fill="#424242"/>
<path d="M239.664 57.3333C239.664 56.5819 239.963 55.8612 240.494 55.3299C241.025 54.7985 241.746 54.5 242.497 54.5H270.831C271.582 54.5 272.303 54.7985 272.834 55.3299C273.366 55.8612 273.664 56.5819 273.664 57.3333C273.664 58.0848 273.366 58.8054 272.834 59.3368C272.303 59.8682 271.582 60.1667 270.831 60.1667H242.497C241.746 60.1667 241.025 59.8682 240.494 59.3368C239.963 58.8054 239.664 58.0848 239.664 57.3333Z" fill="#424242"/>
<path d="M242.497 65.832C241.746 65.832 241.025 66.1305 240.494 66.6619C239.963 67.1932 239.664 67.9139 239.664 68.6654C239.664 69.4168 239.963 70.1375 240.494 70.6688C241.025 71.2002 241.746 71.4987 242.497 71.4987H270.831C271.582 71.4987 272.303 71.2002 272.834 70.6688C273.366 70.1375 273.664 69.4168 273.664 68.6654C273.664 67.9139 273.366 67.1932 272.834 66.6619C272.303 66.1305 271.582 65.832 270.831 65.832H242.497Z" fill="#424242"/>
<path d="M239.664 79.9974C239.664 79.246 239.963 78.5253 240.494 77.9939C241.025 77.4626 241.746 77.1641 242.497 77.1641H253.831C254.582 77.1641 255.303 77.4626 255.834 77.9939C256.366 78.5253 256.664 79.246 256.664 79.9974C256.664 80.7488 256.366 81.4695 255.834 82.0009C255.303 82.5322 254.582 82.8307 253.831 82.8307H242.497C241.746 82.8307 241.025 82.5322 240.494 82.0009C239.963 81.4695 239.664 80.7488 239.664 79.9974Z" fill="#424242"/>
<path fill-rule="evenodd" clip-rule="evenodd" d="M228.332 40.332C228.332 38.0777 229.228 35.9157 230.822 34.3216C232.416 32.7276 234.578 31.832 236.832 31.832H276.499C278.753 31.832 280.915 32.7276 282.509 34.3216C284.103 35.9157 284.999 38.0777 284.999 40.332V85.6654C284.999 87.9197 284.103 90.0817 282.509 91.6758C280.915 93.2698 278.753 94.1654 276.499 94.1654H236.832C234.578 94.1654 232.416 93.2698 230.822 91.6758C229.228 90.0817 228.332 87.9197 228.332 85.6654V40.332ZM236.832 37.4987H276.499C277.25 37.4987 277.971 37.7972 278.502 38.3286C279.034 38.8599 279.332 39.5806 279.332 40.332V85.6654C279.332 86.4168 279.034 87.1375 278.502 87.6688C277.971 88.2002 277.25 88.4987 276.499 88.4987H236.832C236.081 88.4987 235.36 88.2002 234.829 87.6688C234.297 87.1375 233.999 86.4168 233.999 85.6654V40.332C233.999 39.5806 234.297 38.8599 234.829 38.3286C235.36 37.7972 236.081 37.4987 236.832 37.4987Z" fill="#424242"/>
<path d="M641.333 0C606.373 0 578 28.3733 578 63.3333C578 98.2933 606.373 126.667 641.333 126.667C676.293 126.667 704.667 98.2933 704.667 63.3333C704.667 28.3733 676.293 0 641.333 0ZM641.333 114C613.34 114 590.667 91.3267 590.667 63.3333C590.667 35.34 613.34 12.6667 641.333 12.6667C669.327 12.6667 692 35.34 692 63.3333C692 91.3267 669.327 114 641.333 114Z" fill="#424242"/>
<path d="M659 54.5V29H625V54.5H608V84.25H676V54.5H659ZM637.75 80H612.25V58.75H620.75V63H629.25V58.75H637.75V80ZM629.25 54.5V33.25H637.75V37.5H646.25V33.25H654.75V54.5H629.25ZM671.75 80H646.25V58.75H654.75V63H663.25V58.75H671.75V80Z" fill="#424242"/>
<path d="M608 97H620.75V92.75H663.25V97H676V88.5H608V97Z" fill="#424242"/>
</svg>
