<svg width="80" height="80" viewBox="0 0 80 80" fill="none" xmlns="http://www.w3.org/2000/svg">
<rect x="38" y="11" width="4" height="57" fill="#1E1E22"/>
<circle cx="39.653" cy="39.1696" r="19.3473" fill="white"/>
<circle cx="39.653" cy="39.1696" r="19.3473" fill="white"/>
<mask id="mask0" mask-type="alpha" maskUnits="userSpaceOnUse" x="12" y="12" width="55" height="54">
<circle cx="39.6525" cy="39.1704" r="19.3473" transform="rotate(33.6142 39.6525 39.1704)" fill="white"/>
</mask>
<g mask="url(#mask0)">
<path d="M-19.6056 65.7217C-15.3472 56.1109 16.1692 7.90063 36.9104 -19.2958" stroke="#1E1E22" stroke-width="0.5"/>
<path d="M26.2372 96.1944C30.4956 86.5835 62.012 38.3733 82.7532 11.1768" stroke="#1E1E22" stroke-width="0.5"/>
<path d="M3.3163 80.9581C7.57468 71.3472 39.0911 23.137 59.8323 -4.05952" stroke="#1E1E22" stroke-width="0.5"/>
<path d="M-8.35264 73.2003C-4.09426 63.5894 27.4222 15.3791 48.1633 -11.8173" stroke="#1E1E22" stroke-width="0.5"/>
<path d="M37.4901 103.675C41.7485 94.064 73.2649 45.8538 94.0061 18.6573" stroke="#1E1E22" stroke-width="0.5"/>
<path d="M14.5692 88.4385C18.8276 78.8277 50.344 30.6174 71.0852 3.42095" stroke="#1E1E22" stroke-width="0.5"/>
<path d="M-13.7706 69.6007C-9.51223 59.9898 22.0042 11.7795 42.7454 -15.4169" stroke="#1E1E22" stroke-width="0.5"/>
<path d="M32.0722 100.073C36.3305 90.4624 67.847 42.2522 88.5881 15.0557" stroke="#1E1E22" stroke-width="0.5"/>
<path d="M9.15126 84.837C13.4096 75.2261 44.9261 27.0159 65.6672 -0.180613" stroke="#1E1E22" stroke-width="0.5"/>
<path d="M-2.51768 77.0792C1.7407 67.4683 33.2571 19.258 53.9983 -7.93843" stroke="#1E1E22" stroke-width="0.5"/>
<path d="M20.4032 92.3174C24.6616 82.7066 56.178 34.4963 76.9192 7.29986" stroke="#1E1E22" stroke-width="0.5"/>
<path d="M-16.6883 67.6601C-11.9519 57.3301 22.2216 5.12279 44.5373 -24.4423" stroke="#1E1E22" stroke-width="0.5"/>
<path d="M29.1545 98.1347C33.8909 87.8047 68.0644 35.5974 90.3801 6.03228" stroke="#1E1E22" stroke-width="0.5"/>
<path d="M6.23359 82.8964C10.97 72.5665 45.1435 20.3591 67.4592 -9.206" stroke="#1E1E22" stroke-width="0.5"/>
<path d="M-5.43536 75.1405C-0.698981 64.8106 33.4745 12.6033 55.7903 -16.9619" stroke="#1E1E22" stroke-width="0.5"/>
<path d="M17.4865 90.3769C22.2229 80.0469 56.3964 27.8396 78.7122 -1.72554" stroke="#1E1E22" stroke-width="0.5"/>
<path d="M-10.8523 71.539C-6.11597 61.209 28.0576 9.0017 50.3733 -20.5634" stroke="#1E1E22" stroke-width="0.5"/>
<path d="M34.9904 102.014C39.7268 91.6836 73.9003 39.4763 96.2161 9.91118" stroke="#1E1E22" stroke-width="0.5"/>
<path d="M12.0686 86.7753C16.8049 76.4454 50.9785 24.238 73.2942 -5.3271" stroke="#1E1E22" stroke-width="0.5"/>
<path d="M0.399606 79.0194C5.13598 68.6895 39.3095 16.4822 61.6252 -13.083" stroke="#1E1E22" stroke-width="0.5"/>
<path d="M23.3205 94.2558C28.0569 83.9258 62.2304 31.7185 84.5461 2.15337" stroke="#1E1E22" stroke-width="0.5"/>
<path d="M-18.3546 66.5518C-14.0962 56.9409 17.4202 8.7307 38.1614 -18.4658" stroke="#1E1E22" stroke-width="0.5"/>
<path d="M27.4882 97.0264C31.7466 87.4156 63.263 39.2053 84.0041 12.0088" stroke="#1E1E22" stroke-width="0.5"/>
<path d="M4.5663 81.7901C8.82468 72.1792 40.3411 23.969 61.0823 -3.22749" stroke="#1E1E22" stroke-width="0.5"/>
<path d="M-7.10264 74.0323C-2.84426 64.4214 28.6722 16.2112 49.4133 -10.9853" stroke="#1E1E22" stroke-width="0.5"/>
<path d="M38.7411 104.507C42.9995 94.896 74.5159 46.6858 95.2571 19.4893" stroke="#1E1E22" stroke-width="0.5"/>
<path d="M15.8192 89.2686C20.0776 79.6577 51.594 31.4475 72.3352 4.25103" stroke="#1E1E22" stroke-width="0.5"/>
<path d="M-12.1039 70.7078C-8.338 60.7695 23.0555 12.4775 44.4121 -14.3098" stroke="#1E1E22" stroke-width="0.5"/>
<path d="M33.7399 101.182C37.5057 91.2441 68.8993 42.9521 90.2559 16.1648" stroke="#1E1E22" stroke-width="0.5"/>
<path d="M10.818 85.9441C14.5839 76.0058 45.9774 27.7139 67.334 0.9265" stroke="#1E1E22" stroke-width="0.5"/>
<path d="M-0.85093 78.1882C2.91492 68.25 34.3085 19.958 55.665 -6.82936" stroke="#1E1E22" stroke-width="0.5"/>
<path d="M22.07 93.4246C25.8358 83.4863 57.2294 35.1943 78.5859 8.40697" stroke="#1E1E22" stroke-width="0.5"/>
<path d="M-15.0206 68.7691C-10.7767 58.1118 23.2739 5.82275 46.2051 -23.3333" stroke="#1E1E22" stroke-width="0.5"/>
<path d="M30.8222 99.2418C35.0661 88.5844 69.1167 36.2954 92.0478 7.13939" stroke="#1E1E22" stroke-width="0.5"/>
<path d="M7.90034 84.0055C12.1442 73.3481 46.1948 21.0591 69.126 -8.09694" stroke="#1E1E22" stroke-width="0.5"/>
<path d="M-3.7686 76.2476C0.475248 65.5903 34.5259 13.3013 57.457 -15.8548" stroke="#1E1E22" stroke-width="0.5"/>
<path d="M19.1533 91.4859C23.3971 80.8286 57.4477 28.5395 80.3789 -0.616469" stroke="#1E1E22" stroke-width="0.5"/>
<path d="M-9.18657 72.6461C-4.94272 61.9887 29.1079 9.6997 52.0391 -19.4563" stroke="#1E1E22" stroke-width="0.5"/>
<path d="M36.6572 103.121C40.901 92.4634 74.9517 40.1743 97.8828 11.0183" stroke="#1E1E22" stroke-width="0.5"/>
<path d="M13.7353 87.8844C17.9792 77.227 52.0298 24.938 74.9609 -4.21803" stroke="#1E1E22" stroke-width="0.5"/>
<path d="M2.06636 80.1265C6.31021 69.4692 40.3608 17.1802 63.292 -11.9758" stroke="#1E1E22" stroke-width="0.5"/>
<path d="M24.9873 95.3629C29.2311 84.7055 63.2817 32.4165 86.2129 3.26048" stroke="#1E1E22" stroke-width="0.5"/>
</g>
<ellipse cx="39.3646" cy="32.7172" rx="2.24252" ry="2.80315" fill="white"/>
<ellipse cx="33.2016" cy="38.8851" rx="2.80315" ry="2.24252" fill="white"/>
<circle cx="39.3646" cy="45.6117" r="2.24252" fill="white"/>
<circle cx="46.0941" cy="38.8851" r="2.24252" fill="white"/>
<path d="M39.653 58.5171C28.9848 58.5171 20.3057 49.8378 20.3057 39.1696C20.3057 28.5014 28.9848 19.8223 39.653 19.8223C50.3212 19.8223 59.0003 28.5014 59.0003 39.1696C59.0003 49.8378 50.321 58.5171 39.653 58.5171ZM39.653 20.7921C29.5195 20.7921 21.2753 29.0363 21.2753 39.1696C21.2753 49.3031 29.5193 57.5473 39.6528 57.5473C49.7863 57.5473 58.0303 49.3031 58.0303 39.1696C58.0305 29.0363 49.7863 20.7921 39.653 20.7921ZM39.653 53.6318C31.6786 53.6318 25.1909 47.1442 25.1909 39.1696C25.1909 31.1954 31.6786 24.7075 39.653 24.7075C47.6274 24.7075 54.115 31.1952 54.115 39.1696C54.115 47.144 47.6272 53.6318 39.653 53.6318ZM39.653 25.6776C32.2134 25.6776 26.1608 31.7302 26.1608 39.1698C26.1608 46.6094 32.2134 52.6622 39.653 52.6622C47.0926 52.6622 53.1452 46.6096 53.1452 39.1698C53.1452 31.7302 47.0926 25.6776 39.653 25.6776ZM39.653 48.6407C38.0312 48.6407 36.7119 47.3213 36.7119 45.6995C36.7119 44.0778 38.0312 42.7582 39.653 42.7582C41.2748 42.7582 42.5941 44.0778 42.5941 45.6995C42.5941 47.3213 41.2746 48.6407 39.653 48.6407ZM39.653 43.728C38.566 43.728 37.6817 44.6125 37.6817 45.6995C37.6817 46.7865 38.566 47.6708 39.653 47.6708C40.74 47.6708 41.6243 46.7863 41.6243 45.6995C41.6243 44.6125 40.74 43.728 39.653 43.728ZM46.1827 42.1107C44.561 42.1107 43.2416 40.7914 43.2416 39.1696C43.2416 37.5478 44.561 36.2285 46.1827 36.2285C47.8045 36.2285 49.1241 37.5478 49.1241 39.1696C49.1241 40.7914 47.8045 42.1107 46.1827 42.1107ZM46.1827 37.1983C45.0957 37.1983 44.2114 38.0828 44.2114 39.1696C44.2114 40.2564 45.0957 41.1409 46.1827 41.1409C47.2697 41.1409 48.1542 40.2564 48.1542 39.1696C48.1542 38.0828 47.2697 37.1983 46.1827 37.1983ZM33.1233 42.1107C31.5015 42.1107 30.1821 40.7914 30.1821 39.1696C30.1821 37.5478 31.5015 36.2285 33.1233 36.2285C34.745 36.2285 36.0644 37.5478 36.0644 39.1696C36.0644 40.7914 34.7448 42.1107 33.1233 42.1107ZM33.1233 37.1983C32.0363 37.1983 31.152 38.0828 31.152 39.1696C31.152 40.2564 32.0363 41.1409 33.1233 41.1409C34.2103 41.1409 35.0946 40.2564 35.0946 39.1696C35.0946 38.0828 34.2103 37.1983 33.1233 37.1983ZM39.653 35.581C38.0312 35.581 36.7119 34.2616 36.7119 32.6399C36.7119 31.0181 38.0312 29.6987 39.653 29.6987C41.2748 29.6987 42.5941 31.0181 42.5941 32.6399C42.5941 34.2616 41.2746 35.581 39.653 35.581ZM39.653 30.6686C38.566 30.6686 37.6817 31.5531 37.6817 32.6399C37.6817 33.7267 38.566 34.6112 39.653 34.6112C40.74 34.6112 41.6243 33.7267 41.6243 32.6399C41.6243 31.5531 40.74 30.6686 39.653 30.6686Z" fill="#1E1E22"/>
</svg>
