<svg width="80" height="80" viewBox="0 0 80 80" fill="none" xmlns="http://www.w3.org/2000/svg">
<rect x="38" y="11" width="4" height="57" fill="#1E1E22"/>
<circle cx="39.653" cy="39.1696" r="19.3473" fill="white"/>
<circle cx="39.653" cy="39.1696" r="19.3473" fill="white"/>
<ellipse cx="39.3646" cy="32.7172" rx="2.24252" ry="2.80315" fill="white"/>
<ellipse cx="33.2026" cy="38.8851" rx="2.80315" ry="2.24252" fill="white"/>
<circle cx="39.3646" cy="45.6117" r="2.24252" fill="white"/>
<circle cx="46.0941" cy="38.8851" r="2.24252" fill="white"/>
<path d="M39.653 58.5171C28.9848 58.5171 20.3057 49.8378 20.3057 39.1696C20.3057 28.5014 28.9848 19.8223 39.653 19.8223C50.3212 19.8223 59.0003 28.5014 59.0003 39.1696C59.0003 49.8378 50.321 58.5171 39.653 58.5171ZM39.653 20.7921C29.5195 20.7921 21.2753 29.0363 21.2753 39.1696C21.2753 49.3031 29.5193 57.5473 39.6528 57.5473C49.7863 57.5473 58.0303 49.3031 58.0303 39.1696C58.0305 29.0363 49.7863 20.7921 39.653 20.7921ZM39.653 53.6318C31.6786 53.6318 25.1909 47.1442 25.1909 39.1696C25.1909 31.1954 31.6786 24.7075 39.653 24.7075C47.6274 24.7075 54.115 31.1952 54.115 39.1696C54.115 47.144 47.6272 53.6318 39.653 53.6318ZM39.653 25.6776C32.2134 25.6776 26.1608 31.7302 26.1608 39.1698C26.1608 46.6094 32.2134 52.6622 39.653 52.6622C47.0926 52.6622 53.1452 46.6096 53.1452 39.1698C53.1452 31.7302 47.0926 25.6776 39.653 25.6776ZM39.653 48.6407C38.0312 48.6407 36.7119 47.3213 36.7119 45.6995C36.7119 44.0778 38.0312 42.7582 39.653 42.7582C41.2748 42.7582 42.5941 44.0778 42.5941 45.6995C42.5941 47.3213 41.2746 48.6407 39.653 48.6407ZM39.653 43.728C38.566 43.728 37.6817 44.6125 37.6817 45.6995C37.6817 46.7865 38.566 47.6708 39.653 47.6708C40.74 47.6708 41.6243 46.7863 41.6243 45.6995C41.6243 44.6125 40.74 43.728 39.653 43.728ZM46.1827 42.1107C44.561 42.1107 43.2416 40.7914 43.2416 39.1696C43.2416 37.5478 44.561 36.2285 46.1827 36.2285C47.8045 36.2285 49.1241 37.5478 49.1241 39.1696C49.1241 40.7914 47.8045 42.1107 46.1827 42.1107ZM46.1827 37.1983C45.0957 37.1983 44.2114 38.0828 44.2114 39.1696C44.2114 40.2564 45.0957 41.1409 46.1827 41.1409C47.2697 41.1409 48.1542 40.2564 48.1542 39.1696C48.1542 38.0828 47.2697 37.1983 46.1827 37.1983ZM33.1233 42.1107C31.5015 42.1107 30.1821 40.7914 30.1821 39.1696C30.1821 37.5478 31.5015 36.2285 33.1233 36.2285C34.745 36.2285 36.0644 37.5478 36.0644 39.1696C36.0644 40.7914 34.7448 42.1107 33.1233 42.1107ZM33.1233 37.1983C32.0363 37.1983 31.152 38.0828 31.152 39.1696C31.152 40.2564 32.0363 41.1409 33.1233 41.1409C34.2103 41.1409 35.0946 40.2564 35.0946 39.1696C35.0946 38.0828 34.2103 37.1983 33.1233 37.1983ZM39.653 35.581C38.0312 35.581 36.7119 34.2616 36.7119 32.6399C36.7119 31.0181 38.0312 29.6987 39.653 29.6987C41.2748 29.6987 42.5941 31.0181 42.5941 32.6399C42.5941 34.2616 41.2746 35.581 39.653 35.581ZM39.653 30.6686C38.566 30.6686 37.6817 31.5531 37.6817 32.6399C37.6817 33.7267 38.566 34.6112 39.653 34.6112C40.74 34.6112 41.6243 33.7267 41.6243 32.6399C41.6243 31.5531 40.74 30.6686 39.653 30.6686Z" fill="#1E1E22"/>
</svg>
