<svg width="207" height="202" viewBox="0 0 207 202" fill="none" xmlns="http://www.w3.org/2000/svg">
<g clip-path="url(#clip0)">
<path d="M131.411 45.4299H75.634C74.3629 45.4315 73.1443 45.9369 72.2456 46.8355C71.3468 47.734 70.8412 48.9522 70.8396 50.2229V174.154L70.2004 174.348L56.5173 178.538C55.8688 178.735 55.1683 178.668 54.5697 178.349C53.9711 178.031 53.5232 177.489 53.3243 176.841L12.6233 43.9313C12.4252 43.283 12.4927 42.5826 12.811 41.9841C13.1292 41.3855 13.6722 40.9377 14.3205 40.7392L35.4062 34.2846L96.5342 15.5792L117.62 9.12466C117.941 9.02593 118.278 8.99143 118.612 9.02313C118.946 9.05484 119.271 9.15212 119.568 9.30942C119.864 9.46672 120.127 9.68095 120.341 9.93984C120.554 10.1987 120.715 10.4972 120.813 10.8182L131.217 44.7909L131.411 45.4299Z" fill="#F2F2F2"/>
<path d="M143.585 44.7914L131.047 3.8465C130.838 3.16429 130.497 2.52985 130.043 1.97945C129.589 1.42904 129.031 0.973466 128.401 0.638742C127.771 0.304018 127.081 0.096707 126.37 0.028663C125.66 -0.039381 124.943 0.0331754 124.261 0.242179L94.6159 9.3137L33.4911 28.0223L3.84599 37.0971C2.46883 37.5198 1.31572 38.4715 0.639761 39.7434C-0.036199 41.0152 -0.179782 42.5032 0.240533 43.8807L43.0957 183.814C43.4372 184.926 44.1261 185.899 45.0615 186.591C45.9969 187.283 47.1294 187.656 48.2929 187.658C48.8314 187.658 49.3669 187.577 49.8813 187.418L70.2031 181.2L70.8423 181.002V180.334L70.2031 180.529L49.6928 186.808C48.4772 187.178 47.1643 187.051 46.042 186.455C44.9197 185.859 44.0797 184.843 43.7063 183.628L0.854342 43.6922C0.669309 43.0905 0.60482 42.4582 0.664566 41.8316C0.724312 41.2049 0.907114 40.5962 1.20252 40.0402C1.49792 39.4843 1.90012 38.9921 2.38608 38.5918C2.87203 38.1915 3.4322 37.8909 4.03451 37.7074L33.6796 28.6326L94.8046 9.92721L124.45 0.852492C124.907 0.713111 125.381 0.642044 125.859 0.641599C126.884 0.6439 127.882 0.974283 128.705 1.58436C129.529 2.19443 130.136 3.05213 130.436 4.03184L142.917 44.7914L143.116 45.4305H143.781L143.585 44.7914Z" fill="#3F3D56"/>
<path d="M39.2141 40.8433C38.5981 40.8429 37.9984 40.6451 37.503 40.279C37.0077 39.9128 36.6427 39.3977 36.4617 38.809L32.3448 25.3657C32.2342 25.0046 32.1958 24.6252 32.2319 24.2493C32.2679 23.8733 32.3777 23.5082 32.5549 23.1746C32.7322 22.8411 32.9734 22.5458 33.2648 22.3054C33.5562 22.0651 33.8921 21.8846 34.2534 21.7741L90.4877 4.56284C91.2172 4.34029 92.0052 4.41619 92.6788 4.77388C93.3524 5.13156 93.8565 5.7418 94.0805 6.47067L98.1974 19.9141C98.4198 20.6434 98.3438 21.4312 97.9861 22.1045C97.6283 22.7779 97.018 23.2818 96.289 23.5059L40.0545 40.7171C39.7822 40.8007 39.499 40.8432 39.2141 40.8433Z" fill="#1E1E22"/>
<path d="M60.7792 14.3633C64.3097 14.3633 67.1717 11.5021 67.1717 7.97268C67.1717 4.44322 64.3097 1.58203 60.7792 1.58203C57.2487 1.58203 54.3867 4.44322 54.3867 7.97268C54.3867 11.5021 57.2487 14.3633 60.7792 14.3633Z" fill="#1E1E22"/>
<path d="M60.7784 12.0193C63.014 12.0193 64.8263 10.2075 64.8263 7.97254C64.8263 5.73758 63.014 3.92578 60.7784 3.92578C58.5428 3.92578 56.7305 5.73758 56.7305 7.97254C56.7305 10.2075 58.5428 12.0193 60.7784 12.0193Z" fill="white"/>
<path d="M192.617 186.022H84.584C83.8637 186.022 83.1731 185.735 82.6638 185.226C82.1545 184.717 81.868 184.026 81.8672 183.306V53.8957C81.868 53.1756 82.1545 52.4853 82.6638 51.9761C83.1731 51.4669 83.8637 51.1805 84.584 51.1797H192.617C193.337 51.1805 194.028 51.4669 194.537 51.9761C195.046 52.4853 195.333 53.1756 195.334 53.8957V183.306C195.333 184.026 195.046 184.717 194.537 185.226C194.028 185.735 193.337 186.021 192.617 186.022Z" fill="#E6E6E6"/>
<path d="M142.918 44.7891H75.6367C74.1963 44.7911 72.8154 45.3641 71.7968 46.3823C70.7783 47.4006 70.2052 48.7811 70.2031 50.2211V180.526L70.8424 180.331V50.2211C70.8439 48.9504 71.3495 47.7322 72.2483 46.8337C73.1471 45.9351 74.3657 45.4297 75.6367 45.4281H143.116L142.918 44.7891ZM201.569 44.7891H75.6367C74.1963 44.7911 72.8154 45.3641 71.7968 46.3823C70.7783 47.4006 70.2052 48.7811 70.2031 50.2211V196.567C70.2052 198.007 70.7783 199.387 71.7968 200.406C72.8154 201.424 74.1963 201.997 75.6367 201.999H201.569C203.009 201.997 204.39 201.424 205.408 200.406C206.427 199.387 207 198.007 207.002 196.567V50.2211C207 48.7811 206.427 47.4006 205.408 46.3823C204.39 45.3641 203.009 44.7911 201.569 44.7891ZM206.363 196.567C206.361 197.838 205.856 199.056 204.957 199.954C204.058 200.853 202.84 201.358 201.569 201.36H75.6367C74.3657 201.358 73.1471 200.853 72.2483 199.954C71.3495 199.056 70.8439 197.838 70.8424 196.567V50.2211C70.8439 48.9504 71.3495 47.7322 72.2483 46.8337C73.1471 45.9351 74.3657 45.4297 75.6367 45.4281H201.569C202.84 45.4297 204.058 45.9351 204.957 46.8337C205.856 47.7322 206.361 48.9504 206.363 50.2211V196.567Z" fill="#3F3D56"/>
<path d="M168.008 58.8501H109.197C108.434 58.8492 107.703 58.5459 107.164 58.0068C106.625 57.4677 106.321 56.7367 106.32 55.9743V41.9149C106.321 41.1524 106.625 40.4214 107.164 39.8823C107.703 39.3432 108.434 39.0399 109.197 39.0391H168.008C168.77 39.0399 169.502 39.3432 170.041 39.8823C170.58 40.4214 170.883 41.1524 170.884 41.9149V55.9743C170.883 56.7367 170.58 57.4677 170.041 58.0068C169.502 58.5459 168.77 58.8492 168.008 58.8501Z" fill="#1E1E22"/>
<path d="M138.6 39.9961C142.13 39.9961 144.992 37.135 144.992 33.6055C144.992 30.076 142.13 27.2148 138.6 27.2148C135.069 27.2148 132.207 30.076 132.207 33.6055C132.207 37.135 135.069 39.9961 138.6 39.9961Z" fill="#1E1E22"/>
<path d="M138.601 37.4998C140.751 37.4998 142.494 35.7571 142.494 33.6073C142.494 31.4576 140.751 29.7148 138.601 29.7148C136.45 29.7148 134.707 31.4576 134.707 33.6073C134.707 35.7571 136.45 37.4998 138.601 37.4998Z" fill="white"/>
</g>
<defs>
<clipPath id="clip0">
<rect width="207" height="202" fill="white"/>
</clipPath>
</defs>
</svg>
