<svg width="80" height="80" viewBox="0 0 80 80" fill="none" xmlns="http://www.w3.org/2000/svg">
<path d="M38.8301 2.9209V5.27162" stroke="#757575"/>
<path d="M31.9746 2.9209V5.07572" stroke="#757575"/>
<path d="M47.6455 2.9209V5.07572" stroke="#757575"/>
<path d="M28.6432 78.1435C27.6493 48.0548 27.5351 31.4999 27.8595 2.33279C30.9938 0.961667 50.779 1.3534 52.7381 2.33281C53.2363 32.3497 53.047 48.9315 51.9545 78.1435L48.0367 79.3188L44.1188 78.1435C43.3362 53.7728 42.4731 40.2017 39.8091 16.2412C38.1992 40.7214 37.4518 54.239 36.2831 78.1435L33.1488 79.3188L28.6432 78.1435Z" stroke="#757575"/>
<path d="M32.9521 79.3185L33.3439 18.0039" stroke="#757575" stroke-width="0.5"/>
<path d="M48.0375 79.3185C48.3233 55.8592 48.1895 42.4652 47.2539 18.0039" stroke="#757575" stroke-width="0.5"/>
<path d="M27.8613 2.9209H52.5439" stroke="#757575"/>
<path d="M27.6641 5.0752H52.7384" stroke="#757575"/>
<path d="M40.0055 5.0752L39.8096 16.8288" stroke="#757575"/>
<path d="M42.5521 5.0752C42.4954 12.723 42.093 14.9102 39.8096 14.2822" stroke="#757575"/>
<path d="M27.6641 11.3438L30.7984 5.0752" stroke="#757575"/>
<path d="M50.1904 5.0752L52.9329 11.5397" stroke="#757575"/>
<circle cx="40.2014" cy="4.09491" r="0.391786" fill="#757575"/>
<path d="M25.2536 34.8046L24.9001 34.4511L24.5465 34.8046L23.7358 35.6154L23.3825 35.9686L23.7355 36.3222L26.0922 38.6831H20.3001H19.8001V39.1831V40.3331V40.8331H20.3001H26.0891L23.7303 43.1877L23.3762 43.5413L23.73 43.8951L24.5465 44.7116L24.9001 45.0652L25.2536 44.7116L29.8536 40.1117L30.2071 39.7581L29.8536 39.4046L25.2536 34.8046Z" fill="#757575" stroke="white"/>
<path d="M55.7288 44.712L56.0824 45.0655L56.4359 44.712L57.2466 43.9012L57.5999 43.548L57.247 43.1944L54.8902 40.8335H60.6823H61.1823V40.3335V39.1835V38.6835H60.6823H54.8933L57.2521 36.3289L57.6063 35.9753L57.2524 35.6215L56.4359 34.805L56.0824 34.4514L55.7288 34.805L51.1289 39.4049L50.7753 39.7585L51.1289 40.112L55.7288 44.712Z" fill="#757575" stroke="white"/>
</svg>
