<svg width="80" height="80" viewBox="0 0 80 80" fill="none" xmlns="http://www.w3.org/2000/svg">
<path d="M35.4551 13.8182L36.4096 37L39.546 47.5L38.5914 51.3182L52.9096 52.9545L61.3642 55.2727L62.5914 50.0909L60.9551 45.8636L62.5914 13" stroke="#757575"/>
<path d="M48.8184 13.9541L49.2275 52.1359" stroke="#757575" stroke-width="1.5"/>
<path d="M38.9998 52C35.8609 54.8967 33.8065 56.3579 29.8635 58.8182C20.4544 58.8182 17.1816 58.8182 17.1816 63.5909" stroke="#757575"/>
<path d="M16.9092 63.4545C24.1618 65.8848 28.3014 66.3164 35.7274 66.4545C44.9961 63.559 50.5425 62.5677 61.3637 62.5" stroke="#757575" stroke-width="1.5"/>
<path d="M16.9092 63.4541C40.9092 70.8177 36.9546 63.5902 50.591 63.5905" stroke="#757575" stroke-width="1.5"/>
<path d="M33.4092 56.9092C34.3637 61.4092 46.7728 52.0001 48.0001 61.8183" stroke="#757575"/>
<path d="M61.3642 55.2725C61.5751 58.1256 61.4173 59.6421 60.9551 62.0906" stroke="#757575"/>
<path d="M35.3184 58.1368C37.3706 55.3314 38.7788 54.046 42.0002 52.5459" stroke="#757575"/>
<path d="M49.6367 63.1817L61.6367 62.0908V66.1817L49.6367 66.9999V63.1817Z" fill="#757575"/>
</svg>
