<svg width="80" height="80" viewBox="0 0 80 80" fill="none" xmlns="http://www.w3.org/2000/svg">
<path d="M18.6631 10.5469V15.9726" stroke="#757575"/>
<path d="M21.1289 10.5469V15.9726" stroke="#757575"/>
<path d="M35.9268 11.04V16.7124" stroke="#757575"/>
<path d="M57.6299 10.793V16.2187" stroke="#757575"/>
<path d="M59.6035 10.5469V15.9726" stroke="#757575"/>
<path d="M7.07227 73.189V9.31289C14.7177 6.35346 66.5091 6.10719 71.6882 9.31289L72.6747 73.189" stroke="#757575"/>
<path d="M7.07227 9.56055C16.6907 11.5336 71.4416 11.2869 71.4416 9.56055" stroke="#757575"/>
<path d="M37.1602 72.9427L39.6264 43.8408L42.3393 72.9427" stroke="#757575"/>
<path d="M6.8252 33.4832L14.7172 15.4795" stroke="#757575"/>
<path d="M65.0293 15.4795L72.1814 31.2635" stroke="#757575"/>
<path d="M6.8252 15.4795C31.0561 16.8237 45.3825 16.7521 71.9344 15.4795" stroke="#757575"/>
<circle cx="38.6398" cy="13.9992" r="0.5" fill="#757575" stroke="#757575" stroke-width="0.973006"/>
<path d="M39.3789 16.4658V47.294" stroke="#757575"/>
<path d="M39.3789 40.1414C43.8481 39.713 45.4151 35.5932 45.2979 16.2188" stroke="#757575"/>
<path d="M20.6358 16.3721C19.9401 20.2321 20.082 23.4846 20.4406 28.2101" stroke="#757575" stroke-width="1.5"/>
<path d="M59.1103 16.3721C59.806 20.2321 59.6641 23.4846 59.3055 28.2101" stroke="#757575" stroke-width="1.5"/>
</svg>
