<svg width="80" height="80" viewBox="0 0 80 80" fill="none" xmlns="http://www.w3.org/2000/svg">
<path d="M18.6631 10.5459V15.9716" stroke="#757575"/>
<path d="M21.1299 10.5459V15.9716" stroke="#757575"/>
<path d="M35.9277 11.04V16.7124" stroke="#757575"/>
<path d="M57.6289 10.793V16.2187" stroke="#757575"/>
<path d="M59.6035 10.5459V15.9716" stroke="#757575"/>
<path d="M7.07129 73.1888V9.31289C14.7167 6.35346 66.5079 6.10719 71.687 9.31289L72.6735 73.1888" stroke="#757575"/>
<path d="M7.07129 9.55957C16.6897 11.5326 71.4404 11.2859 71.4404 9.55957" stroke="#757575"/>
<path d="M37.1602 72.9426L39.6264 43.8408L42.3393 72.9426" stroke="#757575"/>
<path d="M6.8252 33.4821L14.7172 15.4785" stroke="#757575" stroke-width="1.5"/>
<path d="M65.0273 15.4785L72.1795 31.2625" stroke="#757575" stroke-width="1.5"/>
<path d="M6.8252 15.4785C31.056 16.8227 45.3824 16.7511 71.9342 15.4785" stroke="#757575"/>
<circle cx="38.6408" cy="13.9992" r="0.5" fill="#757575" stroke="#757575" stroke-width="0.973"/>
<path d="M39.3789 16.4658V47.2939" stroke="#757575"/>
<path d="M39.3789 40.1414C43.8481 39.7129 45.4151 35.5932 45.2979 16.2188" stroke="#757575"/>
</svg>
