<svg width="80" height="80" viewBox="0 0 80 80" fill="none" xmlns="http://www.w3.org/2000/svg">
<path d="M18.6631 10.5459V15.9717" stroke="#757575"/>
<path d="M21.1299 10.5459V15.9717" stroke="#757575"/>
<path d="M35.9277 11.04V16.7125" stroke="#757575"/>
<path d="M57.6299 10.793V16.2188" stroke="#757575"/>
<path d="M59.6035 10.5459V15.9717" stroke="#757575"/>
<path d="M7.07129 73.1894V9.31291C14.7167 6.35345 66.5085 6.10718 71.6876 9.31291L72.6741 73.1894" stroke="#757575"/>
<path d="M7.07129 9.55957C16.6898 11.5326 71.441 11.286 71.441 9.55957" stroke="#757575"/>
<path d="M37.1602 72.9428L39.6264 43.8408L42.3393 72.9428" stroke="#757575"/>
<path d="M6.8252 33.4823L14.7173 15.4785" stroke="#757575"/>
<path d="M65.0293 15.4785L72.1815 31.2627" stroke="#757575"/>
<path d="M6.8252 15.4785C31.0562 16.8228 45.3828 16.7511 71.9348 15.4785" stroke="#757575"/>
<circle cx="38.6408" cy="13.9992" r="0.5" fill="#757575" stroke="#757575" stroke-width="0.973018"/>
<path d="M39.3789 16.4648V47.2933" stroke="#757575" stroke-width="1.5"/>
<path d="M39.3789 40.1416C43.8481 39.7131 45.4151 35.5934 45.298 16.2188" stroke="#757575" stroke-width="1.5"/>
</svg>
