<svg width="80" height="80" viewBox="0 0 80 80" fill="none" xmlns="http://www.w3.org/2000/svg">
<g clip-path="url(#clip0)">
<path d="M65.7444 43.483C64.2713 45.2596 61.1124 32.5349 61.1378 23.96" stroke="#757575"/>
<path d="M37.8857 66.5155C43.0246 65.4389 45.1372 63.7405 45.1246 55.3281" stroke="#757575"/>
<path d="M-2.03809 7.72746C30.7918 6.82322 49.154 6.69396 81.7575 7.72746" stroke="#757575"/>
<path d="M37.665 59.9355V72.6584" stroke="#757575"/>
<path d="M37.8853 16.2826C37.8753 12.7986 37.7423 10.8993 37.0078 7.72754" stroke="#757575"/>
<path d="M37.447 59.7157L11.5625 20.4502" stroke="#757575"/>
<path d="M14.6318 62.3479C19.3873 53.5284 20.9934 47.7248 21.6514 35.5859" stroke="#757575"/>
<path d="M-2.25781 14.7471H6.29724C15.1423 18.713 13.9665 31.0142 6.29724 62.1289C18.5814 64.5414 31.9624 56.4251 37.4464 60.1546" stroke="#757575"/>
<path d="M45.123 47.8715C51.5057 42.8281 55.3133 40.4197 62.8912 37.5615" stroke="#757575" stroke-width="1.5"/>
<path d="M11.1221 19.353C32.2542 19.2617 44.1255 19.2065 63.5492 19.353" stroke="#757575" stroke-width="1.5"/>
<path d="M8.92871 16.5022C31.7138 16.2843 44.5075 16.1538 65.9624 16.5022" stroke="#757575" stroke-width="1.5"/>
<path d="M38.981 54.0128C38.8493 35.9719 39.3887 34.5228 38.1035 16.0635" stroke="#757575" stroke-width="1.5"/>
<path d="M37.4453 60.1556C48.7581 40.958 55.4945 30.5773 68.3751 12.9932H80.0012" stroke="#757575" stroke-width="1.5"/>
<path d="M37.4453 60.155C53.6195 49.0732 62.5085 43.3437 75.614 40.6319C73.2741 31.4919 68.5945 13.2119 68.5945 13.2119" stroke="#757575" stroke-width="1.5"/>
<path d="M-2.25781 23.083H10.9038" stroke="#757575"/>
</g>
<defs>
<clipPath id="clip0">
<rect width="80" height="80" fill="white"/>
</clipPath>
</defs>
</svg>
