<svg width="80" height="80" viewBox="0 0 80 80" fill="none" xmlns="http://www.w3.org/2000/svg">
<path d="M22.1154 8.93539L31.7092 8.2334C37.9461 10.0941 41.5756 10.1905 48.0889 8.2334L58.6188 8.93539C55.2342 21.6889 54.4346 28.0826 61.8947 33.271C58.8227 44.8755 58.4694 52.9267 58.3848 67.9023C44.1841 72.2203 36.4504 72.4788 21.4134 68.6043C22.4867 52.8565 21.7758 45.2067 18.6055 33.271C23.8535 30.5587 25.7837 27.2609 22.1154 8.93539Z" stroke="#1E1E22"/>
<mask id="mask0" mask-type="alpha" maskUnits="userSpaceOnUse" x="21" y="8" width="38" height="64">
<path d="M24.2189 68.8389C25.6483 51.3595 25.3494 42.9274 21.8789 31.3996C24.8318 26.2539 24.5452 20.9621 22.1129 9.16998L31.9407 8C38.0596 10.29 41.9308 10.047 49.2564 8L58.8503 9.16998C55.7332 22.2811 55.1371 27.8417 58.8503 30.4636C54.3471 43.1944 54.9279 52.3889 56.0423 68.8389C43.629 72.1282 36.6394 72.0336 24.2189 68.8389Z" fill="#C4C4C4"/>
</mask>
<g mask="url(#mask0)">
<path d="M-1.66933 76.6983C0.75036 65.5235 20.6134 8.07975 34.0717 -24.7305" stroke="#1E1E22" stroke-width="0.25"/>
<path d="M36.1383 104.267C38.558 93.0919 58.421 35.6481 71.8794 2.83783" stroke="#1E1E22" stroke-width="0.25"/>
<path d="M17.233 90.4835C19.6527 79.3087 39.5157 21.8649 52.9741 -10.9454" stroke="#1E1E22" stroke-width="0.25"/>
<path d="M7.53868 83.4039C9.95837 72.2291 29.8214 14.7853 43.2798 -18.025" stroke="#1E1E22" stroke-width="0.25"/>
<path d="M45.3424 110.971C47.7621 99.796 67.6251 42.3522 81.0835 9.54194" stroke="#1E1E22" stroke-width="0.25"/>
<path d="M26.441 97.189C28.8607 86.0142 48.7237 28.5705 62.1821 -4.2398" stroke="#1E1E22" stroke-width="0.25"/>
<path d="M2.92539 80.0499C5.34509 68.8751 25.2081 11.4313 38.6665 -21.379" stroke="#1E1E22" stroke-width="0.25"/>
<path d="M40.7408 107.62C43.1605 96.4454 63.0235 39.0016 76.4819 6.19135" stroke="#1E1E22" stroke-width="0.25"/>
<path d="M21.8346 93.8375C24.2543 82.6627 44.1173 25.2189 57.5757 -7.59136" stroke="#1E1E22" stroke-width="0.25"/>
<path d="M12.1295 86.7574C14.5492 75.5826 34.4122 18.1388 47.8706 -14.6714" stroke="#1E1E22" stroke-width="0.25"/>
<path d="M31.0348 100.542C33.4545 89.3673 53.3175 31.9235 66.7758 -0.886774" stroke="#1E1E22" stroke-width="0.25"/>
<path d="M0.373348 78.1894C3.08218 66.1941 24.5525 4.18901 38.9633 -31.3243" stroke="#1E1E22" stroke-width="0.25"/>
<path d="M38.1888 105.758C40.8976 93.7624 62.3679 31.7574 76.7788 -3.75592" stroke="#1E1E22" stroke-width="0.25"/>
<path d="M19.2786 91.9722C21.9875 79.9768 43.4578 17.9717 57.8686 -17.5416" stroke="#1E1E22" stroke-width="0.25"/>
<path d="M10.0845 85.2671C12.1895 72.8314 33.5091 10.7165 48.6745 -24.2467" stroke="#1E1E22" stroke-width="0.25"/>
<path d="M28.9915 99.0517C31.7003 87.0564 53.1706 25.0513 67.5815 -10.462" stroke="#1E1E22" stroke-width="0.25"/>
<path d="M5.48077 81.9136C8.18961 69.9182 29.6599 7.91313 44.0708 -27.6002" stroke="#1E1E22" stroke-width="0.25"/>
<path d="M43.2991 109.481C46.008 97.4861 67.4783 35.481 81.8891 -0.0322822" stroke="#1E1E22" stroke-width="0.25"/>
<path d="M24.3899 95.6968C27.0988 83.7014 48.5691 21.6963 62.9799 -13.817" stroke="#1E1E22" stroke-width="0.25"/>
<path d="M14.681 88.6201C17.3898 76.6247 38.8601 14.6197 53.271 -20.8936" stroke="#1E1E22" stroke-width="0.25"/>
<path d="M33.5941 102.404C36.3029 90.4084 57.7732 28.4034 72.1841 -7.10992" stroke="#1E1E22" stroke-width="0.25"/>
<path d="M-0.651754 77.4454C1.76794 66.2706 21.6309 8.82682 35.0893 -23.9835" stroke="#1E1E22" stroke-width="0.25"/>
<path d="M37.1666 105.012C39.5863 93.837 59.4493 36.3932 72.9077 3.58295" stroke="#1E1E22" stroke-width="0.25"/>
<path d="M18.2574 91.2286C20.6771 80.0538 40.5401 22.61 53.9985 -10.2003" stroke="#1E1E22" stroke-width="0.25"/>
<path d="M8.55528 84.149C10.975 72.9742 30.838 15.5304 44.2964 -17.2798" stroke="#1E1E22" stroke-width="0.25"/>
<path d="M46.3629 111.717C48.7826 100.542 68.6456 43.0983 82.104 10.288" stroke="#1E1E22" stroke-width="0.25"/>
<path d="M27.4576 97.9322C29.8773 86.7574 49.7403 29.3136 63.1987 -3.49664" stroke="#1E1E22" stroke-width="0.25"/>
<path d="M4.4686 81.1675C6.28441 69.5524 25.9967 11.9988 40.2097 -20.2613" stroke="#1E1E22" stroke-width="0.25"/>
<path d="M42.2752 108.736C44.0911 97.1208 63.8034 39.5672 78.0163 7.30705" stroke="#1E1E22" stroke-width="0.25"/>
<path d="M23.37 94.9551C25.1858 83.34 44.8981 25.7864 59.111 -6.47372" stroke="#1E1E22" stroke-width="0.25"/>
<path d="M13.6571 87.8755C15.4729 76.2605 35.1852 18.7068 49.3981 -13.5533" stroke="#1E1E22" stroke-width="0.25"/>
<path d="M32.5702 101.659C34.386 90.0437 54.0983 32.4901 68.3112 0.229897" stroke="#1E1E22" stroke-width="0.25"/>
<path d="M1.90874 79.3066C4.0137 66.871 25.3333 4.75605 40.4987 -30.2071" stroke="#1E1E22" stroke-width="0.25"/>
<path d="M39.7203 106.875C41.8252 94.4398 63.1448 32.3249 78.3103 -2.63827" stroke="#1E1E22" stroke-width="0.25"/>
<path d="M20.814 93.0918C22.919 80.6561 44.2386 18.5412 59.404 -16.422" stroke="#1E1E22" stroke-width="0.25"/>
<path d="M11.1028 86.0127C13.8117 74.0173 35.282 12.0123 49.6928 -23.501" stroke="#1E1E22" stroke-width="0.25"/>
<path d="M30.012 99.7969C32.7209 87.8015 54.1912 25.7964 68.602 -9.71685" stroke="#1E1E22" stroke-width="0.25"/>
<path d="M6.51202 82.6606C9.22086 70.6653 30.6912 8.6602 45.102 -26.8531" stroke="#1E1E22" stroke-width="0.25"/>
<path d="M44.8306 110.599C46.9356 98.1635 68.2552 36.0485 83.4206 1.08537" stroke="#1E1E22" stroke-width="0.25"/>
<path d="M25.9253 96.8169C28.0303 84.3812 49.3499 22.2663 64.5153 -12.6969" stroke="#1E1E22" stroke-width="0.25"/>
<path d="M16.2164 89.7378C18.3213 77.3021 39.6409 15.1872 54.8063 -19.776" stroke="#1E1E22" stroke-width="0.25"/>
<path d="M35.1216 103.522C37.2266 91.0868 58.5462 28.9719 73.7116 -5.99129" stroke="#1E1E22" stroke-width="0.25"/>
</g>
<path d="M55.3421 57.373C43.7549 62.4365 37.2985 62.792 25.1559 57.373C24.9229 58.0718 24.9227 58.3069 24.9219 59.0014L24.9219 59.011C36.8557 64.6269 49.0234 62.9889 55.3823 59.011L55.3421 57.373Z" fill="white" stroke="#1E1E22"/>
<path d="M24.2228 68.8389C25.6522 51.3595 25.3533 42.9274 21.8828 31.3996C24.8357 26.2539 24.5491 20.9621 22.1168 9.16998L31.9446 8C38.0635 10.29 41.9347 10.047 49.2603 8L58.8542 9.16998C55.7372 22.2811 55.141 27.8417 58.8542 30.4636C54.3511 43.1944 54.9318 52.3889 56.0462 68.8389C43.633 72.1282 36.6433 72.0336 24.2228 68.8389Z" stroke="#1E1E22"/>
<rect x="39.4299" y="61.5852" width="1.87197" height="0.935983" fill="white" stroke="#1E1E22" stroke-width="0.935983"/>
<rect x="40.7201" y="61.4682" width="0.701988" height="1.16998" fill="white" stroke="#1E1E22" stroke-width="0.701988"/>
<path d="M46.686 61.3506C44.6842 61.6738 43.541 61.6398 41.5381 61.3506V62.7546C43.6238 63.0886 44.748 63.1402 46.686 62.7546V61.3506Z" fill="white" stroke="#1E1E22"/>
<path d="M40.1309 11.5098C41.0083 30.7567 40.8956 41.0732 40.1309 59.0109" stroke="#1E1E22"/>
<path d="M40.3691 63.9258C40.6057 65.9896 40.4759 67.0672 40.3691 69.0737" stroke="#1E1E22"/>
</svg>
