<svg width="238" height="238" viewBox="0 0 238 238" fill="none" xmlns="http://www.w3.org/2000/svg">
<g clip-path="url(#clip0)">
<path d="M173.979 30.5837C187.307 41.8887 192.9 62.3567 195.994 80.4447C199.088 98.6517 199.683 114.717 198.374 131.02C196.946 147.442 193.614 164.102 185.641 180.762C177.549 197.422 164.697 214.082 149.108 216.343C133.519 218.604 115.193 206.585 98.6515 197.541C82.1105 188.497 67.3545 182.547 52.9555 172.551C38.4375 162.555 24.3955 148.632 19.1595 131.496C13.9235 114.479 17.3745 94.3677 30.1075 83.3007C42.8405 72.3527 64.7365 70.4487 81.0395 60.4527C97.3425 50.4567 108.172 32.3687 123.999 24.5147C139.826 16.6607 160.77 19.1597 173.979 30.5837Z" fill="#F5F5F5"/>
<path d="M204.423 127.41C204.169 127.078 203.947 126.726 203.725 126.37C199.439 119.615 180.711 122.817 180.711 122.817C178.593 139.102 174.908 137.183 174.225 136.158C173.543 135.134 172.31 125.076 171.495 123.708C169.139 123.501 164.327 123.536 164.327 123.536C159.682 123.646 155.314 127.742 151.016 134.415C146.718 141.084 139.141 146.729 139.141 146.729C139.141 146.729 141.391 146.936 142.21 151.861C142.713 152.018 144.222 151.349 145.322 150.81C146.303 150.329 147.397 150.127 148.485 150.227C150.256 150.391 152.802 150.958 154.838 152.889C155.088 153.123 155.354 153.34 155.634 153.538C155.891 153.394 156.035 153.296 156.035 153.296C160.232 151.552 162.689 145.497 162.689 145.497C162.348 144.736 162.15 143.918 162.104 143.085C162.037 142.256 162.049 141.422 162.139 140.595C162.229 139.786 162.291 138.985 162.314 138.179C162.355 137.367 162.32 136.553 162.209 135.748C162.544 136.513 162.734 137.333 162.771 138.168C162.828 138.996 162.811 139.828 162.72 140.654C162.63 141.459 162.58 142.261 162.56 143.07C162.531 143.881 162.574 144.694 162.689 145.497C162.924 147.658 163.434 149.779 164.206 151.81C165.315 152.179 166.458 152.432 167.618 152.565C168.189 152.63 168.765 152.648 169.338 152.62C169.926 152.587 170.512 152.524 171.093 152.432C170.569 152.747 169.991 152.964 169.389 153.073C169.088 153.131 168.783 153.168 168.476 153.183C168.169 153.187 167.862 153.175 167.556 153.147C166.947 153.081 166.35 152.937 165.778 152.717C165.207 152.505 164.676 152.198 164.206 151.81C164.534 152.714 164.971 153.575 165.505 154.375C168.397 154.542 171.233 155.254 173.862 156.474C174.529 156.783 175.142 157.197 175.758 157.502C176.385 157.816 177.042 158.066 177.719 158.249C179.083 158.621 180.487 158.82 181.9 158.843C182.618 158.866 183.3 158.827 184.041 158.804C184.77 158.796 185.498 158.831 186.222 158.909C187.657 159.058 189.088 159.222 190.508 159.472C191.05 159.566 191.588 159.668 192.126 159.773C191.877 159.434 191.662 159.07 191.487 158.687C191.212 158.109 191.007 157.502 190.874 156.877C190.738 156.252 190.656 155.616 190.628 154.977C190.593 154.332 190.618 153.686 190.703 153.046L190.707 153.026L190.714 152.999C190.928 152.305 191.06 151.589 191.108 150.864C191.169 150.13 191.176 149.392 191.132 148.656C191.081 147.919 190.991 147.186 190.863 146.459C190.722 145.744 190.535 144.997 190.433 144.242C190.229 142.739 190.182 141.218 190.293 139.704C190.332 138.95 190.41 138.195 190.523 137.452C190.627 136.707 190.769 135.967 190.948 135.236C190.763 136.722 190.662 138.218 190.644 139.716C190.622 141.203 190.731 142.689 190.968 144.156C191.018 144.524 191.108 144.884 191.182 145.243L191.424 146.353C191.568 147.103 191.663 147.862 191.709 148.625C191.824 150.153 191.648 151.689 191.19 153.151C191.093 153.752 191.044 154.36 191.042 154.969C191.037 155.588 191.086 156.207 191.186 156.818C191.284 157.431 191.441 158.033 191.654 158.616C191.805 159.026 191.994 159.42 192.22 159.793C193.066 159.965 193.905 160.16 194.735 160.391C196.132 160.757 197.475 161.305 198.729 162.021C197.433 161.41 196.068 160.956 194.665 160.669C193.944 160.5 193.217 160.354 192.485 160.231C192.483 160.229 192.48 160.227 192.477 160.227C191.802 160.109 191.124 160.008 190.441 159.918C189.022 159.734 187.598 159.574 186.175 159.461C185.47 159.394 184.761 159.367 184.053 159.379C183.363 159.402 182.606 159.453 181.889 159.429C180.426 159.399 178.974 159.181 177.567 158.78C176.861 158.573 176.177 158.299 175.524 157.959C175.196 157.799 174.876 157.584 174.576 157.408C174.276 157.225 173.976 157.033 173.66 156.877C172.398 156.213 171.07 155.686 169.697 155.305C168.324 154.893 166.923 154.582 165.505 154.375L162.279 154.684C162.379 154.821 162.452 154.976 162.494 155.141C163.325 157.834 162.127 168.385 162.127 168.385C166.733 171.77 192.228 177.005 192.228 177.005C208.662 179.776 208.814 165.148 208.814 165.148C211.755 138.899 205.975 129.427 204.423 127.41ZM183.858 154.168C183.557 154.226 183.252 154.263 182.945 154.277C182.638 154.281 182.331 154.269 182.025 154.242C181.416 154.176 180.819 154.031 180.247 153.812C179.676 153.599 179.145 153.293 178.675 152.905C179.784 153.273 180.927 153.526 182.087 153.659C182.658 153.725 183.234 153.743 183.807 153.714C184.395 153.681 184.981 153.619 185.562 153.527C185.038 153.842 184.46 154.059 183.858 154.168V154.168Z" fill="#1E1E22"/>
<path d="M171.461 123.725C171.348 123.555 171.224 123.394 171.087 123.243C170.951 123.095 170.802 122.959 170.641 122.838C170.481 122.72 170.309 122.62 170.127 122.54C169.952 122.461 169.766 122.411 169.575 122.39L169.636 122.378C169.245 122.567 168.831 122.706 168.405 122.791C167.972 122.884 167.526 122.899 167.089 122.834C166.634 122.766 166.205 122.579 165.847 122.29C165.517 121.994 165.228 121.657 164.987 121.285C164.517 120.57 164.098 119.822 163.735 119.046C163.369 118.276 163.039 117.497 162.732 116.697L163.048 116.906C162.684 116.943 162.317 116.887 161.982 116.743C161.786 116.651 161.621 116.505 161.506 116.321C161.4 116.143 161.337 115.944 161.322 115.738C161.304 115.384 161.354 115.031 161.47 114.696C161.571 114.377 161.705 114.07 161.87 113.778C162.178 113.326 162.323 112.782 162.28 112.236C162.255 111.97 162.182 111.711 162.064 111.472L161.852 111.073C161.778 110.932 161.707 110.788 161.64 110.641C161.502 110.346 161.392 110.04 161.312 109.725C161.224 109.418 161.153 109.107 161.099 108.792C161.031 108.48 161.01 108.16 160.971 107.844C160.958 107.525 160.939 107.206 160.956 106.888C160.982 105.606 161.295 104.346 161.872 103.202C161.892 103.163 161.922 103.131 161.96 103.109C161.997 103.087 162.04 103.077 162.084 103.078C162.127 103.08 162.169 103.094 162.204 103.119C162.24 103.143 162.268 103.177 162.285 103.217L162.289 103.226C162.765 104.328 163.372 105.367 164.098 106.322C164.821 107.287 165.688 108.133 166.671 108.829C167.65 109.528 168.769 110.005 169.95 110.229C171.129 110.447 172.341 110.414 173.507 110.133L173.515 110.131C173.543 110.125 173.571 110.127 173.598 110.136C173.624 110.146 173.648 110.163 173.665 110.185C174.135 110.834 174.463 111.576 174.627 112.361C174.8 113.129 174.889 113.913 174.891 114.7C174.895 115.483 174.84 116.265 174.725 117.04C174.587 117.775 174.536 118.524 174.571 119.271C174.606 119.993 174.801 120.699 175.141 121.336C175.481 121.95 176 122.445 176.629 122.755C177.27 123.055 177.978 123.181 178.683 123.121C179.405 123.063 180.112 122.88 180.772 122.582C180.836 122.554 180.906 122.544 180.975 122.552C181.044 122.56 181.109 122.586 181.165 122.627C181.22 122.669 181.264 122.724 181.291 122.788C181.319 122.852 181.329 122.922 181.321 122.991L181.32 122.996C181.034 125.488 180.588 127.958 179.987 130.393C179.675 131.622 179.266 132.823 178.762 133.986C178.504 134.58 178.186 135.147 177.814 135.677C177.619 135.951 177.399 136.204 177.155 136.435C176.902 136.683 176.605 136.882 176.279 137.02C175.929 137.171 175.543 137.213 175.169 137.143C174.799 137.067 174.459 136.885 174.19 136.619C174.046 136.482 173.932 136.318 173.853 136.136C173.79 135.979 173.737 135.818 173.693 135.654C173.606 135.341 173.54 135.034 173.474 134.726C173.216 133.495 173.039 132.262 172.843 131.031L172.265 127.343C172.166 126.729 172.063 126.116 171.943 125.507C171.846 124.897 171.684 124.3 171.461 123.725L171.458 123.719C171.454 123.71 171.454 123.699 171.457 123.69C171.46 123.68 171.467 123.673 171.476 123.668C171.485 123.663 171.496 123.663 171.505 123.666C171.515 123.669 171.523 123.675 171.528 123.684C171.799 124.251 172.004 124.848 172.137 125.463C172.291 126.068 172.43 126.677 172.564 127.286C172.834 128.504 173.062 129.729 173.306 130.949C173.546 132.17 173.795 133.391 174.068 134.593C174.139 134.891 174.212 135.191 174.3 135.476C174.34 135.612 174.387 135.746 174.442 135.876C174.491 135.979 174.559 136.071 174.645 136.146C174.822 136.318 175.047 136.431 175.29 136.472C175.533 136.512 175.783 136.477 176.006 136.371C176.497 136.108 176.91 135.719 177.202 135.244C177.529 134.745 177.811 134.216 178.043 133.666C178.515 132.538 178.897 131.373 179.183 130.184C179.763 127.78 180.215 125.346 180.537 122.894L181.085 123.309C180.338 123.633 179.54 123.826 178.728 123.879C177.893 123.936 177.059 123.773 176.307 123.407C175.551 123.025 174.932 122.417 174.538 121.667C174.166 120.934 173.962 120.128 173.939 119.307C173.919 118.515 173.993 117.723 174.159 116.949C174.298 116.205 174.38 115.452 174.405 114.696C174.432 113.943 174.374 113.189 174.232 112.448C174.104 111.718 173.827 111.022 173.419 110.404L173.577 110.455C172.365 110.707 171.116 110.718 169.9 110.486C169.295 110.368 168.705 110.18 168.142 109.927C167.578 109.681 167.039 109.381 166.532 109.032C165.522 108.327 164.619 107.481 163.849 106.52C163.062 105.567 162.394 104.521 161.86 103.405L162.277 103.43C161.788 104.518 161.544 105.702 161.565 106.895C161.567 107.491 161.629 108.085 161.75 108.668C161.807 108.96 161.88 109.248 161.968 109.533C162.046 109.814 162.147 110.088 162.271 110.352C162.332 110.485 162.398 110.617 162.467 110.749C162.537 110.884 162.608 110.999 162.691 111.165C162.847 111.479 162.944 111.82 162.978 112.169C163.031 112.864 162.847 113.557 162.456 114.133C162.168 114.599 162.006 115.133 161.986 115.68C161.984 115.779 162.011 115.876 162.062 115.961C162.113 116.045 162.186 116.114 162.274 116.158C162.508 116.256 162.761 116.295 163.012 116.272L163.017 116.272C163.084 116.269 163.151 116.287 163.206 116.325C163.262 116.363 163.305 116.417 163.328 116.481C163.607 117.262 163.922 118.042 164.258 118.805C164.581 119.569 164.959 120.31 165.389 121.02C165.594 121.365 165.843 121.681 166.13 121.961C166.422 122.213 166.777 122.383 167.157 122.453C167.96 122.581 168.783 122.479 169.53 122.157L169.546 122.151C169.56 122.145 169.575 122.143 169.591 122.145C169.809 122.178 170.02 122.248 170.215 122.35C170.406 122.447 170.584 122.566 170.748 122.703C170.908 122.841 171.053 122.995 171.183 123.161C171.311 123.327 171.426 123.502 171.528 123.684C171.53 123.689 171.532 123.694 171.533 123.699C171.533 123.704 171.533 123.709 171.532 123.714C171.53 123.719 171.528 123.724 171.525 123.728C171.522 123.732 171.518 123.735 171.513 123.738C171.504 123.742 171.494 123.744 171.485 123.741C171.475 123.739 171.466 123.733 171.461 123.725Z" fill="#1E1E22"/>
<path d="M162.23 116.496C162.151 117.118 162.068 117.735 162.003 118.352C161.942 118.97 161.882 119.587 161.864 120.203C161.833 120.816 161.859 121.43 161.939 122.038C161.979 122.339 162.06 122.633 162.179 122.913C162.291 123.199 162.478 123.451 162.719 123.641C162.433 123.494 162.197 123.265 162.041 122.983C161.887 122.701 161.772 122.399 161.701 122.085C161.568 121.463 161.516 120.827 161.548 120.192C161.574 119.562 161.646 118.936 161.763 118.317C161.873 117.699 162.029 117.091 162.23 116.496Z" fill="#1E1E22"/>
<path d="M162.042 103.339C161.962 103.199 161.911 103.043 161.893 102.883C161.874 102.722 161.889 102.559 161.935 102.404L161.999 102.171L162.1 101.956C162.135 101.884 162.167 101.81 162.205 101.741L162.338 101.545C162.514 101.284 162.713 101.04 162.933 100.815C163.157 100.598 163.394 100.397 163.628 100.189C164.611 99.4437 165.665 98.7956 166.773 98.254C167.326 97.9909 167.885 97.7392 168.444 97.489C169.009 97.2564 169.578 97.0319 170.148 96.8111C170.72 96.6014 171.3 96.4204 171.877 96.2284C172.168 96.1404 172.45 96.0405 172.762 95.954C173.064 95.8726 173.371 95.8072 173.68 95.7582C174.909 95.5556 176.165 95.6069 177.373 95.9089C178.577 96.2128 179.689 96.8034 180.615 97.6305C181.53 98.4703 182.283 99.4706 182.838 100.582C183.396 101.689 183.822 102.858 184.108 104.064L184.113 104.096C184.415 105.752 184.945 107.357 185.688 108.866C186.055 109.619 186.48 110.342 186.959 111.029C187.43 111.717 187.962 112.361 188.548 112.954L189.475 113.815C189.809 114.108 190.123 114.423 190.414 114.757C191.011 115.418 191.503 116.166 191.873 116.976C192.641 118.576 192.833 120.393 192.417 122.119C192.414 122.129 192.408 122.137 192.4 122.142C192.392 122.147 192.381 122.149 192.372 122.147C192.362 122.145 192.353 122.14 192.348 122.132C192.342 122.124 192.34 122.114 192.341 122.104L192.341 122.099C192.451 121.257 192.417 120.402 192.241 119.57C192.082 118.747 191.793 117.954 191.385 117.222C191.184 116.858 190.961 116.506 190.717 116.17C190.467 115.839 190.195 115.524 189.904 115.228C189.619 114.926 189.314 114.642 188.991 114.381L188 113.521C186.728 112.289 185.694 110.831 184.953 109.22C184.584 108.423 184.272 107.6 184.019 106.758C183.756 105.916 183.565 105.053 183.448 104.179L183.453 104.211C183.22 103.037 182.872 101.89 182.414 100.784C181.956 99.6776 181.283 98.6729 180.434 97.8284C179.998 97.4201 179.512 97.0683 178.988 96.7811C178.46 96.5004 177.896 96.2947 177.312 96.17C176.142 95.9363 174.935 95.9651 173.778 96.2544C173.491 96.3208 173.208 96.4024 172.93 96.4987C172.662 96.5931 172.378 96.716 172.095 96.8238L170.392 97.4626C169.833 97.6884 169.272 97.9104 168.708 98.1244L167.05 98.8387C165.958 99.3297 164.906 99.9039 163.901 100.556C163.667 100.735 163.424 100.909 163.196 101.098C162.973 101.288 162.765 101.496 162.574 101.72L162.431 101.888C162.39 101.947 162.355 102.01 162.316 102.072L162.202 102.258L162.124 102.459C162.011 102.724 162.005 103.023 162.106 103.294L162.11 103.302C162.114 103.311 162.114 103.321 162.111 103.33C162.108 103.34 162.102 103.347 162.093 103.352C162.085 103.357 162.075 103.358 162.065 103.356C162.056 103.353 162.047 103.347 162.042 103.339V103.339Z" fill="#1E1E22"/>
<path d="M163.008 110.892C163.547 110.503 164.136 110.188 164.758 109.954C165.069 109.834 165.389 109.738 165.714 109.667C166.042 109.583 166.383 109.568 166.717 109.62C166.398 109.689 166.085 109.784 165.782 109.904L164.871 110.25C164.261 110.479 163.652 110.716 163.008 110.892Z" fill="#1E1E22"/>
<path d="M164.715 113.078C164.838 113.074 164.954 113.022 165.04 112.933C165.125 112.845 165.173 112.727 165.173 112.603C165.173 112.48 165.125 112.362 165.04 112.274C164.954 112.185 164.838 112.133 164.715 112.129C164.592 112.133 164.476 112.185 164.391 112.274C164.306 112.362 164.258 112.48 164.258 112.603C164.258 112.727 164.306 112.845 164.391 112.933C164.476 113.022 164.592 113.074 164.715 113.078Z" fill="#1E1E22"/>
<path d="M163.951 118.825C164.189 118.832 164.426 118.825 164.663 118.805C164.893 118.784 165.121 118.756 165.347 118.713C165.572 118.669 165.797 118.618 166.023 118.556C166.249 118.495 166.476 118.428 166.717 118.367C166.538 118.538 166.333 118.68 166.11 118.787C165.886 118.896 165.649 118.976 165.404 119.023C164.912 119.13 164.397 119.06 163.951 118.825Z" fill="#1E1E22"/>
<path d="M162.194 166.984C161.022 166.551 159.816 166.214 158.589 165.976C157.381 165.73 156.141 165.69 154.92 165.859L154.47 165.935L154.031 166.054C153.74 166.136 153.454 166.235 153.174 166.35C152.615 166.591 152.079 166.883 151.573 167.222C151.058 167.561 150.568 167.949 149.992 168.284C149.416 168.608 148.795 168.847 148.15 168.993C147.51 169.145 146.852 169.212 146.194 169.191C145.504 169.191 144.825 169.026 144.213 168.709C144.044 168.606 143.893 168.475 143.767 168.322C143.654 168.183 143.584 168.081 143.485 167.967C143.3 167.753 143.085 167.566 142.847 167.412C142.324 167.107 141.771 166.856 141.198 166.662C140.58 166.465 139.987 166.196 139.431 165.859C139.15 165.669 138.903 165.432 138.7 165.159C138.601 165.03 138.511 164.907 138.415 164.793C138.368 164.734 138.319 164.684 138.268 164.627C138.214 164.561 138.15 164.496 138.103 164.43C137.731 163.913 137.389 163.373 137.079 162.816C136.766 162.267 136.454 161.721 136.155 161.164L136.246 161.232L135.443 161.056C135.166 161.009 134.894 160.934 134.631 160.833C134.103 160.612 133.64 160.261 133.285 159.812C133.09 159.588 132.957 159.317 132.897 159.026C132.874 158.872 132.884 158.716 132.925 158.566C132.967 158.417 133.04 158.278 133.139 158.158C133.329 157.934 133.561 157.75 133.822 157.617C134.083 157.483 134.368 157.402 134.66 157.38C134.942 157.364 135.226 157.375 135.506 157.415L136.323 157.474C136.869 157.508 137.414 157.534 137.96 157.551C139.051 157.584 140.143 157.576 141.227 157.508C142.304 157.453 143.374 157.302 144.425 157.059C144.933 156.938 145.425 156.758 145.891 156.521C146.109 156.407 146.312 156.266 146.496 156.101C146.68 155.932 146.847 155.745 146.995 155.543C147.118 155.403 147.195 155.228 147.215 155.042C147.209 155.002 147.202 154.986 147.151 154.942C147.074 154.893 146.991 154.855 146.903 154.831C146.415 154.732 145.914 154.725 145.423 154.811C145.173 154.846 144.925 154.901 144.683 154.974C144.584 155.004 144.489 155.044 144.399 155.094L144.315 155.149C144.278 155.174 144.241 155.195 144.204 155.216C144.132 155.257 144.057 155.293 143.98 155.325C143.694 155.439 143.395 155.517 143.089 155.557C142.943 155.577 142.797 155.592 142.651 155.602C142.483 155.617 142.313 155.611 142.146 155.584C141.794 155.524 141.467 155.358 141.209 155.109C140.964 154.862 140.786 154.557 140.693 154.222C140.53 153.579 140.616 152.898 140.934 152.317C141.092 151.993 141.342 151.722 141.652 151.54C141.755 151.485 141.868 151.448 141.983 151.432C142.051 151.423 142.12 151.422 142.188 151.43C142.223 151.434 142.258 151.441 142.293 151.449L142.337 151.461L142.342 151.46C142.421 151.468 142.502 151.463 142.58 151.445C143.081 151.33 143.571 151.165 144.04 150.953C144.287 150.848 144.532 150.738 144.777 150.623L145.144 150.449C145.275 150.386 145.409 150.327 145.545 150.271C146.088 150.053 146.66 149.912 147.242 149.852C147.818 149.8 148.398 149.82 148.969 149.912C149.527 149.989 150.08 150.101 150.624 150.248C151.719 150.538 152.761 151.002 153.708 151.625C154.178 151.941 154.618 152.299 155.022 152.696C155.412 153.056 155.83 153.385 156.27 153.681C158.151 154.779 160.321 155.276 162.491 155.102L162.494 155.102C162.504 155.101 162.514 155.105 162.522 155.111C162.53 155.118 162.534 155.127 162.535 155.137C162.536 155.147 162.533 155.157 162.527 155.165C162.521 155.173 162.512 155.178 162.502 155.18C160.284 155.521 158.015 155.133 156.035 154.074C155.551 153.78 155.09 153.449 154.658 153.083C153.461 152.017 152.014 151.271 150.453 150.915C149.934 150.79 149.409 150.698 148.879 150.64C148.364 150.57 147.843 150.566 147.327 150.627C146.818 150.687 146.32 150.817 145.847 151.013C145.729 151.063 145.613 151.116 145.498 151.173L145.124 151.356C144.873 151.477 144.62 151.594 144.364 151.708C143.838 151.956 143.285 152.145 142.717 152.271C142.526 152.311 142.33 152.311 142.139 152.272L142.094 152.261C142.079 152.257 142.091 152.261 142.088 152.26L142.092 152.261C142.094 152.261 142.094 152.26 142.091 152.261C142.071 152.265 142.052 152.272 142.034 152.282C141.876 152.39 141.749 152.538 141.667 152.711C141.451 153.103 141.388 153.561 141.491 153.997C141.545 154.194 141.645 154.375 141.784 154.524C141.922 154.661 142.097 154.753 142.288 154.788C142.392 154.807 142.498 154.812 142.602 154.802C142.731 154.795 142.858 154.784 142.983 154.769C143.222 154.742 143.457 154.685 143.682 154.601C143.733 154.581 143.782 154.559 143.829 154.533C143.852 154.521 143.874 154.509 143.895 154.495L143.984 154.439C144.132 154.353 144.29 154.286 144.455 154.239C144.739 154.157 145.028 154.097 145.321 154.061C145.915 153.967 146.522 153.99 147.108 154.128C147.284 154.18 147.45 154.262 147.598 154.37C147.69 154.442 147.767 154.531 147.824 154.633C147.881 154.735 147.917 154.848 147.929 154.964C147.945 155.165 147.906 155.366 147.816 155.546C147.748 155.694 147.663 155.834 147.563 155.962C147.383 156.201 147.178 156.419 146.951 156.614C146.721 156.811 146.468 156.978 146.197 157.112C145.678 157.36 145.131 157.545 144.568 157.664C143.476 157.889 142.364 158.007 141.248 158.014C140.142 158.037 139.04 158 137.942 157.929C137.393 157.894 136.844 157.848 136.297 157.793L135.477 157.706C135.215 157.665 134.95 157.649 134.684 157.66C134.428 157.677 134.178 157.743 133.948 157.856C133.718 157.97 133.512 158.127 133.342 158.32C133.263 158.411 133.205 158.517 133.17 158.633C133.136 158.748 133.127 158.869 133.143 158.988C133.193 159.238 133.306 159.47 133.471 159.664C133.798 160.082 134.23 160.406 134.722 160.604C134.972 160.697 135.231 160.765 135.494 160.807L136.301 160.965C136.32 160.968 136.337 160.976 136.353 160.987C136.368 160.997 136.381 161.011 136.39 161.028L136.393 161.032C136.997 162.123 137.675 163.172 138.423 164.17C138.47 164.23 138.52 164.275 138.568 164.328C138.624 164.386 138.687 164.446 138.741 164.508C138.853 164.63 138.954 164.757 139.052 164.873C139.234 165.099 139.454 165.292 139.701 165.444C140.235 165.734 140.801 165.961 141.388 166.119C142.014 166.3 142.619 166.549 143.191 166.861C143.485 167.042 143.753 167.264 143.986 167.52C144.096 167.64 144.211 167.794 144.299 167.896C144.378 167.982 144.468 168.056 144.568 168.115C145.081 168.366 145.646 168.495 146.217 168.489C146.816 168.508 147.414 168.452 147.999 168.322C148.582 168.198 149.143 167.989 149.666 167.702C150.179 167.41 150.693 167.035 151.233 166.694C151.78 166.346 152.358 166.049 152.959 165.808C153.264 165.695 153.576 165.602 153.893 165.527L154.368 165.419L154.849 165.357C156.126 165.227 157.416 165.323 158.659 165.642C159.884 165.953 161.078 166.378 162.224 166.912C162.233 166.916 162.24 166.923 162.244 166.932C162.248 166.942 162.248 166.952 162.245 166.961C162.241 166.971 162.234 166.978 162.225 166.983C162.216 166.987 162.206 166.988 162.196 166.985L162.194 166.984Z" fill="#1E1E22"/>
<path d="M136.273 161.096C137.033 161.03 137.792 161 138.552 160.975C139.311 160.946 140.071 160.942 140.83 160.938L141.969 160.946C142.361 160.946 142.75 161 143.127 161.106C143.849 161.363 144.552 161.668 145.232 162.019C144.866 161.914 144.507 161.79 144.143 161.675C143.793 161.54 143.434 161.429 143.069 161.342C142.708 161.267 142.338 161.235 141.969 161.245L140.83 161.254C140.071 161.25 139.311 161.246 138.552 161.217C137.792 161.191 137.033 161.161 136.273 161.096Z" fill="#1E1E22"/>
<path d="M136.658 161.777C137.169 162.172 137.657 162.593 138.141 163.018C138.392 163.222 138.615 163.463 138.859 163.633C139.105 163.811 139.381 163.943 139.674 164.023C139.956 164.108 140.282 164.121 140.604 164.181C140.924 164.233 141.242 164.303 141.555 164.389C142.196 164.524 142.792 164.821 143.286 165.253C143.02 165.076 142.729 164.942 142.423 164.855C142.121 164.758 141.812 164.682 141.5 164.626C141.187 164.572 140.875 164.515 140.559 164.477C140.233 164.446 139.909 164.396 139.589 164.327C139.261 164.234 138.954 164.08 138.682 163.874C138.432 163.661 138.195 163.434 137.973 163.192C137.525 162.732 137.081 162.268 136.658 161.777Z" fill="#1E1E22"/>
<path d="M129.481 151.657C129.23 151.146 128.922 150.664 128.565 150.221L128.625 150.26C128.027 150.166 127.469 149.898 127.021 149.489C126.788 149.252 126.644 148.942 126.615 148.61C126.6 148.446 126.607 148.28 126.636 148.118C126.676 147.963 126.725 147.81 126.781 147.66C127.054 147.077 127.535 146.618 128.129 146.372C128.427 146.231 128.75 146.153 129.079 146.145C129.433 146.142 129.779 146.251 130.069 146.456L129.556 146.621C129.634 146.408 129.741 146.207 129.875 146.023C130.001 145.843 130.149 145.68 130.315 145.536C130.651 145.248 131.049 145.044 131.478 144.94C131.892 144.84 132.321 144.818 132.744 144.874L133.045 144.913C133.163 144.93 133.278 144.959 133.39 144.998C133.599 145.07 133.798 145.164 133.985 145.28C134.692 145.738 135.257 146.384 135.618 147.147C135.971 147.868 136.228 148.634 136.383 149.423L135.647 149.468C135.71 148.966 135.861 148.479 136.092 148.029C136.322 147.565 136.665 147.167 137.09 146.872C137.523 146.587 138.027 146.431 138.545 146.419C138.669 146.414 138.793 146.418 138.916 146.431L139.1 146.442C139.172 146.445 139.244 146.457 139.313 146.477C139.562 146.551 139.797 146.666 140.009 146.817C140.769 147.415 141.33 148.23 141.62 149.153C141.926 150.028 142.124 150.936 142.211 151.859C142.008 150.969 141.718 150.102 141.344 149.27C141.003 148.459 140.443 147.76 139.725 147.253C139.556 147.148 139.372 147.07 139.18 147.02C139.138 147.01 139.096 147.006 139.054 147.008L138.895 147.006C138.387 146.981 137.884 147.125 137.466 147.416C137.153 147.677 136.897 147.999 136.711 148.362C136.526 148.725 136.417 149.123 136.389 149.53L136.389 149.532C136.379 149.621 136.339 149.702 136.275 149.764C136.211 149.825 136.127 149.861 136.039 149.866C135.951 149.871 135.864 149.845 135.793 149.791C135.722 149.738 135.673 149.661 135.653 149.575C135.504 148.856 135.263 148.159 134.935 147.503C134.629 146.871 134.163 146.331 133.585 145.936C133.447 145.848 133.299 145.776 133.145 145.721C133.077 145.695 133.006 145.676 132.934 145.665L132.666 145.627C132.327 145.578 131.982 145.59 131.647 145.66C131.326 145.727 131.026 145.869 130.769 146.075C130.519 146.279 130.32 146.539 130.189 146.834L130.174 146.872C130.14 146.951 130.077 147.013 129.997 147.045C129.918 147.077 129.829 147.076 129.75 147.043C129.724 147.031 129.699 147.017 129.676 146.999C129.484 146.868 129.261 146.791 129.03 146.777C128.798 146.762 128.567 146.81 128.361 146.916C127.879 147.086 127.475 147.426 127.225 147.872C127.095 148.081 127.032 148.324 127.044 148.57C127.056 148.816 127.143 149.053 127.294 149.247C127.663 149.646 128.139 149.93 128.665 150.066L128.678 150.07C128.697 150.076 128.714 150.089 128.725 150.106C129.047 150.585 129.301 151.107 129.481 151.657Z" fill="#1E1E22"/>
<path d="M126.851 151.391C126.642 150.96 126.27 150.629 125.818 150.471C125.379 150.345 124.91 150.38 124.495 150.571C124.295 150.633 124.115 150.747 123.975 150.903C123.835 151.058 123.739 151.249 123.698 151.454C123.679 151.884 123.795 152.31 124.032 152.669C124.269 153.067 124.552 153.435 124.874 153.768C124.952 153.854 125.035 153.932 125.116 154.013L125.381 154.244C125.569 154.408 125.752 154.574 125.932 154.742C126.656 155.413 127.332 156.118 128.006 156.833C128.057 156.887 128.09 156.954 128.102 157.027L128.106 157.052C128.15 157.279 128.224 157.5 128.326 157.708C128.539 158.155 128.843 158.552 129.218 158.875C129.408 159.048 129.598 159.163 129.852 159.359C130.318 159.726 130.712 160.177 131.012 160.689C131.314 161.192 131.537 161.739 131.675 162.309L131.657 162.254C131.835 162.747 132.169 163.168 132.608 163.454C133.076 163.728 133.609 163.875 134.151 163.879C134.721 163.891 135.289 163.832 135.844 163.703C136.411 163.579 136.967 163.41 137.508 163.197C137 163.495 136.464 163.742 135.907 163.933C135.342 164.131 134.752 164.252 134.154 164.292C133.526 164.337 132.897 164.212 132.334 163.929C132.049 163.77 131.793 163.564 131.577 163.32C131.368 163.074 131.194 162.8 131.06 162.506L131.053 162.488L131.042 162.45C130.898 161.961 130.685 161.494 130.409 161.065C130.137 160.641 129.793 160.266 129.394 159.959C129.215 159.821 128.937 159.648 128.72 159.454C128.491 159.262 128.283 159.045 128.099 158.809C127.911 158.572 127.751 158.314 127.622 158.04C127.485 157.754 127.391 157.45 127.342 157.137L127.441 157.356C126.789 156.644 126.114 155.942 125.439 155.257C125.268 155.087 125.096 154.919 124.922 154.757L124.646 154.497C124.557 154.403 124.467 154.31 124.384 154.213C124.047 153.826 123.757 153.4 123.521 152.944C123.246 152.466 123.141 151.907 123.226 151.362C123.256 151.218 123.31 151.081 123.385 150.955C123.466 150.836 123.557 150.725 123.658 150.622L123.997 150.389L124.361 150.239C124.858 150.063 125.404 150.078 125.89 150.283C126.118 150.392 126.32 150.546 126.486 150.737C126.651 150.928 126.775 151.15 126.851 151.391Z" fill="#1E1E22"/>
<path d="M127.724 157.093C127.605 156.661 127.613 156.203 127.748 155.775C127.813 155.551 127.927 155.345 128.083 155.173C128.159 155.085 128.254 155.013 128.359 154.964C128.465 154.915 128.58 154.888 128.697 154.887C128.524 154.995 128.38 155.145 128.278 155.323C128.18 155.495 128.103 155.679 128.049 155.87C127.924 156.257 127.848 156.666 127.724 157.093Z" fill="#1E1E22"/>
<path d="M128.645 150.164C128.913 150.098 129.132 150.052 129.364 150.006C129.607 149.952 129.855 149.92 130.104 149.91C129.935 150.125 129.693 150.27 129.424 150.317C129.291 150.348 129.152 150.351 129.018 150.325C128.884 150.298 128.756 150.244 128.645 150.164Z" fill="#1E1E22"/>
<path d="M130.069 146.726C130.064 147.066 130.108 147.404 130.201 147.731C130.282 148.057 130.456 148.353 130.701 148.583C130.83 148.692 130.98 148.774 131.143 148.823C131.305 148.872 131.475 148.887 131.643 148.868C131.818 148.854 131.992 148.825 132.162 148.782L132.664 148.601L132.177 148.829C132.007 148.889 131.831 148.934 131.653 148.965C131.468 149.002 131.278 149.001 131.094 148.961C130.909 148.922 130.735 148.846 130.581 148.737C130.279 148.503 130.051 148.187 129.924 147.826C129.789 147.475 129.706 147.105 129.679 146.729C129.676 146.703 129.679 146.677 129.687 146.653C129.695 146.628 129.707 146.605 129.724 146.585C129.741 146.565 129.761 146.549 129.784 146.537C129.807 146.525 129.832 146.518 129.858 146.516C129.884 146.514 129.91 146.517 129.934 146.525C129.959 146.534 129.982 146.547 130.001 146.564C130.021 146.581 130.037 146.601 130.048 146.624C130.06 146.648 130.066 146.673 130.068 146.699C130.069 146.705 130.069 146.711 130.069 146.717L130.069 146.726Z" fill="#1E1E22"/>
<path d="M131.641 148.934C131.911 149.347 132.15 149.78 132.356 150.229C132.586 150.682 132.743 151.167 132.822 151.669C132.844 151.762 132.889 151.849 132.951 151.921C133.014 151.994 133.094 152.05 133.183 152.085C133.387 152.187 133.605 152.257 133.831 152.293C134.062 152.335 134.298 152.337 134.529 152.299C134.768 152.278 134.989 152.166 135.147 151.986C135.088 152.1 135.005 152.2 134.905 152.279C134.805 152.359 134.689 152.417 134.566 152.449C134.319 152.522 134.062 152.551 133.805 152.535C133.544 152.523 133.286 152.461 133.048 152.352C132.909 152.297 132.786 152.208 132.691 152.092C132.597 151.976 132.533 151.837 132.507 151.69C132.429 151.222 132.303 150.763 132.132 150.32L131.641 148.934Z" fill="#1E1E22"/>
<path d="M136.401 149.434C136.487 150.045 136.68 150.635 136.972 151.178C137.045 151.308 137.128 151.432 137.22 151.549C137.337 151.689 137.441 151.841 137.53 152.001C137.619 152.163 137.691 152.335 137.743 152.512C137.797 152.699 137.822 152.855 137.859 153.01C137.878 153.148 137.915 153.282 137.971 153.41C138.047 153.525 138.143 153.625 138.255 153.707C138.365 153.793 138.491 153.856 138.626 153.894C138.76 153.931 138.901 153.941 139.04 153.923C139.332 153.862 139.595 153.703 139.785 153.473C139.998 153.235 140.18 152.971 140.326 152.686L140.317 152.711C140.415 152.251 140.48 151.785 140.511 151.316C140.554 150.844 140.523 150.37 140.419 149.908C140.557 150.365 140.623 150.841 140.614 151.318C140.617 151.797 140.585 152.275 140.52 152.75C140.519 152.757 140.517 152.764 140.514 152.77L140.512 152.775C140.378 153.09 140.204 153.386 139.993 153.656C139.777 153.954 139.465 154.169 139.11 154.266C138.923 154.305 138.73 154.307 138.543 154.271C138.355 154.234 138.177 154.161 138.018 154.056C137.854 153.953 137.71 153.822 137.593 153.668C137.529 153.583 137.483 153.486 137.456 153.383L137.383 153.139C137.317 152.839 137.203 152.552 137.044 152.29C136.963 152.166 136.87 152.051 136.768 151.945C136.645 151.811 136.533 151.667 136.432 151.516C136.05 150.918 135.778 150.256 135.631 149.561C135.62 149.511 135.618 149.459 135.627 149.408C135.635 149.358 135.653 149.309 135.681 149.266C135.708 149.222 135.743 149.184 135.785 149.155C135.827 149.125 135.874 149.104 135.924 149.092C135.974 149.08 136.026 149.079 136.076 149.087C136.127 149.096 136.175 149.114 136.219 149.142C136.262 149.169 136.3 149.205 136.33 149.246C136.359 149.288 136.381 149.336 136.392 149.386C136.394 149.395 136.396 149.404 136.398 149.414L136.401 149.434Z" fill="#1E1E22"/>
<path d="M135.682 156.285C135.697 156.285 135.709 156.289 135.725 156.289L135.76 156.313L135.682 156.285Z" fill="#1E1E22"/>
<path d="M143.595 155.757C136.895 154.737 130.58 152.133 129.013 151.457C128.741 151.338 128.451 151.268 128.155 151.25C126.727 151.176 126.236 151.641 126.103 152.122C126.044 152.354 126.061 152.599 126.151 152.821C126.242 153.043 126.402 153.229 126.606 153.353L133.576 157.747L133.58 157.743C133.931 157.32 134.337 156.946 134.789 156.633C134.624 156.98 134.421 157.308 134.184 157.61C134.833 157.432 135.518 157.434 136.165 157.618C144.234 158.384 146.262 156.695 146.262 156.695C145.397 155.886 143.595 155.757 143.595 155.757ZM137.71 155.089L139.348 156.285L135.592 155.722L132.211 153.451L137.71 155.089ZM139.816 157.118C138.419 156.989 137.027 156.828 135.635 156.672C135.608 156.667 135.581 156.658 135.557 156.645C134.27 155.867 132.987 155.081 131.715 154.276L129.808 153.06C129.184 152.642 128.549 152.239 127.928 151.809C128.595 152.161 129.251 152.532 129.91 152.892L131.871 154.014C133.166 154.753 134.445 155.519 135.724 156.289C137.097 156.457 138.478 156.629 139.851 156.824C141.235 157.02 142.624 157.223 144.004 157.466C142.604 157.379 141.208 157.25 139.816 157.118H139.816Z" fill="#1E1E22"/>
<path d="M135.76 156.313L135.682 156.285C135.697 156.285 135.709 156.289 135.725 156.289L135.76 156.313Z" fill="white"/>
<path d="M88.2488 100.236C88.2488 100.236 87.2474 99.6338 86.3127 100.704C86.3127 100.704 84.6437 98.3274 77.5669 100.386C77.5669 100.386 78.5016 102.177 79.1692 102.177C79.8368 102.177 77.9007 105.255 76.0982 105.121C76.0982 105.121 73.0271 109.604 75.3638 113.954C77.6668 118.241 79.3213 119.603 81.6057 116.822C81.6758 116.736 81.754 116.657 81.8392 116.585C82.4961 116.042 85.4045 113.784 86.4353 115.468C86.6549 115.842 86.7177 116.288 86.6101 116.708C86.1395 118.683 83.9394 125.958 77.5669 123.055C77.5669 123.055 70.1406 120.263 71.8922 113.651C72.0795 112.978 72.3511 112.332 72.7006 111.728C73.0375 111.111 73.2452 110.431 73.3108 109.731C73.3765 109.031 73.2987 108.324 73.0823 107.655C72.8139 106.701 72.2083 105.877 71.3785 105.338C70.5741 104.835 69.5137 104.61 68.7104 106.017C68.3779 106.602 68.2026 107.263 68.2017 107.937C68.2002 108.553 68.3146 109.309 68.8211 109.671L68.2017 110.876C67.8649 110.189 67.4341 109.552 66.9218 108.984C66.064 108.114 65.5129 106.986 65.3522 105.773C65.1254 103.848 65.3984 100.975 67.6862 97.6263C67.6862 97.6263 70.7572 91.4699 76.4987 91.6037C82.2403 91.7375 87.1806 93.2766 88.2488 100.236Z" fill="#1E1E22"/>
<path d="M78.6367 108.267C79.634 108.038 80.6587 107.954 81.6799 108.016C82.1943 108.041 82.7047 108.119 83.2035 108.247C83.7126 108.357 84.1856 108.594 84.5785 108.936C84.125 108.725 83.6405 108.588 83.1437 108.531C82.6529 108.46 82.1576 108.409 81.6581 108.387C80.6598 108.325 79.6562 108.32 78.6367 108.267Z" fill="#1E1E22"/>
<path d="M88.2491 108.172C87.8838 108.283 87.5459 108.47 87.2569 108.72C87.12 108.833 87.0084 108.974 86.9295 109.133C86.8506 109.293 86.806 109.467 86.7989 109.645C86.8258 110.01 86.9212 110.366 87.0801 110.696L87.5167 111.771C87.8423 112.499 88.0316 113.281 88.075 114.078C88.0743 114.287 88.0359 114.495 87.9615 114.692C87.8816 114.89 87.751 115.064 87.5827 115.196C87.241 115.412 86.8376 115.508 86.4355 115.469C86.8125 115.437 87.1713 115.293 87.4664 115.056C87.5875 114.927 87.6789 114.772 87.734 114.603C87.7891 114.435 87.8067 114.256 87.7856 114.08C87.7568 113.707 87.6813 113.34 87.5609 112.986C87.4487 112.624 87.3146 112.265 87.1717 111.907C87.0345 111.547 86.8861 111.189 86.7525 110.82C86.6886 110.633 86.6237 110.448 86.5736 110.251C86.5111 110.048 86.49 109.835 86.5114 109.623C86.5337 109.413 86.6021 109.21 86.7115 109.03C86.821 108.849 86.9689 108.695 87.1447 108.578C87.4753 108.356 87.8539 108.217 88.2491 108.172Z" fill="#1E1E22"/>
<path d="M88.2494 100.234C88.3745 100.984 88.4675 101.739 88.5284 102.497C88.5979 103.254 88.6409 104.013 88.6573 104.774C88.6691 105.536 88.6578 106.298 88.5985 107.062C88.5636 107.84 88.3903 108.605 88.0865 109.322C88.0821 109.331 88.0764 109.339 88.0697 109.346C87.8354 109.599 87.6155 109.865 87.411 110.143C87.3095 110.282 87.2191 110.429 87.1409 110.582C87.0539 110.732 87.0191 110.906 87.042 111.077C86.9884 110.905 86.9981 110.719 87.0693 110.553C87.1307 110.385 87.2054 110.223 87.2926 110.068C87.467 109.758 87.6685 109.464 87.8949 109.19L87.8782 109.214C88.0075 108.872 88.0937 108.515 88.1347 108.151C88.1925 107.784 88.2159 107.409 88.2435 107.036C88.2876 106.286 88.2953 105.532 88.2996 104.778C88.2996 103.267 88.2665 101.754 88.2494 100.234Z" fill="#1E1E22"/>
<path d="M84.2442 113.352C84.1738 113.497 84.1169 113.648 84.0742 113.804C84.0307 113.948 84.0212 114.1 84.0464 114.248C84.0672 114.395 84.1312 114.532 84.2302 114.642C84.3351 114.764 84.4516 114.875 84.5781 114.974C84.4972 114.95 84.4177 114.921 84.34 114.888C84.2644 114.846 84.1932 114.797 84.1273 114.741C83.9896 114.622 83.8966 114.459 83.8637 114.279C83.8403 114.101 83.8669 113.92 83.9404 113.756C84.009 113.6 84.113 113.461 84.2442 113.352Z" fill="#1E1E22"/>
<path d="M68.8223 109.672C69.0533 109.963 69.2377 110.288 69.3687 110.635C69.4389 110.813 69.4897 110.998 69.5201 111.186C69.5365 111.285 69.5431 111.385 69.5396 111.485L69.5377 111.562L69.5422 111.604C69.5405 111.631 69.5464 111.658 69.5594 111.682C69.6167 111.805 69.7178 111.901 69.8427 111.952C69.991 112.028 70.1471 112.087 70.3084 112.129C70.6514 112.222 71.0041 112.273 71.3592 112.282C71.0084 112.419 70.6284 112.465 70.2551 112.414C70.0603 112.394 69.8696 112.345 69.6893 112.269C69.5832 112.227 69.4863 112.166 69.4042 112.087C69.322 112.008 69.2563 111.913 69.2108 111.809C69.1868 111.75 69.1751 111.687 69.1764 111.623L69.175 111.529L69.1779 111.47C69.182 111.39 69.1802 111.308 69.1725 111.228C69.1577 111.056 69.1309 110.886 69.0925 110.718C69.0168 110.375 68.9171 110.029 68.8223 109.672Z" fill="#1E1E22"/>
<path d="M68.2026 110.875C68.0536 111.416 67.8435 111.939 67.5764 112.432C67.315 112.933 66.9994 113.404 66.6353 113.835C66.2711 114.275 65.839 114.654 65.3556 114.957C64.8708 115.258 64.3161 115.427 63.7461 115.447C64.2677 115.29 64.7578 115.043 65.1941 114.716C65.6211 114.387 66.0098 114.01 66.353 113.594C66.7056 113.179 67.0315 112.741 67.3288 112.284C67.6281 111.825 67.9253 111.36 68.2026 110.875Z" fill="#1E1E22"/>
<path d="M73.0957 126.535C73.5176 126.35 73.9165 126.116 74.2844 125.838C74.6494 125.565 74.9957 125.267 75.3209 124.947C75.6562 124.637 75.9568 124.29 76.2691 123.95L76.7237 123.424C76.8717 123.245 77.0193 123.064 77.1822 122.891C77.0892 123.108 76.9811 123.317 76.8733 123.528C76.7512 123.73 76.6312 123.934 76.497 124.129C76.2262 124.52 75.9184 124.884 75.5779 125.215C75.2357 125.549 74.8538 125.84 74.4409 126.081C74.0314 126.33 73.5721 126.485 73.0957 126.535Z" fill="#1E1E22"/>
<path d="M66.4165 113.718C66.0843 113.224 65.6734 112.789 65.2002 112.429C65.1017 112.342 64.9824 112.282 64.8538 112.254C64.7252 112.227 64.5918 112.233 64.4665 112.273C64.245 112.424 64.0861 112.651 64.0195 112.91C63.9283 113.188 63.8625 113.472 63.8231 113.762C63.8033 113.905 63.7857 114.055 63.7727 114.193C63.7735 114.325 63.785 114.48 63.7982 114.624C63.8556 115.214 63.9648 115.798 64.1243 116.369C64.4182 117.53 64.8747 118.644 65.4802 119.678C66.0936 120.711 66.8275 121.667 67.6664 122.526C68.087 122.953 68.5242 123.363 68.9678 123.763C69.4286 124.144 69.8689 124.554 70.3485 124.904C70.5799 125.091 70.835 125.243 71.0767 125.414C71.3325 125.562 71.5781 125.729 71.8445 125.854C72.3594 126.135 72.9071 126.35 73.4749 126.495C74.609 126.796 75.8142 126.67 76.8611 126.139C77.9131 125.576 78.7968 124.742 79.4214 123.724C79.4237 123.72 79.4276 123.716 79.4323 123.715C79.437 123.713 79.4421 123.714 79.4465 123.716C79.4505 123.719 79.4536 123.723 79.455 123.727C79.4565 123.732 79.4563 123.737 79.4545 123.741C78.9112 124.847 78.0573 125.769 76.9979 126.395C76.4554 126.703 75.8585 126.904 75.2401 126.986C74.6197 127.059 73.9911 127.019 73.385 126.867C72.7832 126.724 72.204 126.499 71.6637 126.197C71.3878 126.06 71.1373 125.882 70.8756 125.723C70.6299 125.541 70.37 125.378 70.1369 125.182C69.6484 124.814 69.2206 124.384 68.7685 123.98C68.538 123.784 68.3426 123.549 68.1309 123.333C67.927 123.109 67.7062 122.901 67.5168 122.664C66.7263 121.748 66.0086 120.772 65.37 119.744C64.7197 118.716 64.2018 117.61 63.8286 116.452C63.6464 115.866 63.5275 115.262 63.4738 114.651C63.4636 114.494 63.4543 114.348 63.4578 114.178C63.4755 114.017 63.4972 113.868 63.5218 113.714C63.571 113.406 63.6483 113.104 63.7528 112.811C63.7998 112.649 63.8786 112.498 63.9844 112.367C64.0901 112.236 64.2209 112.128 64.369 112.048C64.5354 111.983 64.7197 111.979 64.8887 112.037C65.0424 112.09 65.1859 112.169 65.313 112.27C65.7795 112.669 66.165 113.154 66.4483 113.698C66.4495 113.701 66.4503 113.703 66.4506 113.705C66.4509 113.708 66.4507 113.71 66.4501 113.713C66.4494 113.715 66.4483 113.717 66.4468 113.719C66.4453 113.721 66.4435 113.723 66.4414 113.724C66.4372 113.726 66.4324 113.726 66.4278 113.725C66.4233 113.724 66.4193 113.722 66.4165 113.718Z" fill="#1E1E22"/>
<path d="M67.5437 112.139C66.9476 111.771 66.2828 111.53 65.59 111.429C64.9075 111.304 64.203 111.431 63.6062 111.785C63.3248 111.981 63.0882 112.235 62.912 112.53L62.3063 113.402C61.9054 113.994 61.4565 114.553 60.9642 115.072C60.9527 115.083 60.939 115.092 60.9239 115.097C60.9088 115.103 60.8927 115.106 60.8766 115.105L60.8676 115.104C58.3727 114.956 55.8692 114.897 53.3723 114.914C52.1236 114.924 50.8761 114.974 49.6359 115.072C48.4053 115.14 47.1868 115.352 46.0051 115.704L45.9842 115.709L45.9557 115.715C45.3017 115.883 44.6787 116.155 44.1106 116.52C43.8151 116.7 43.5307 116.897 43.259 117.111L42.8474 117.429C42.7146 117.54 42.5893 117.662 42.4599 117.778C41.4291 118.722 40.5132 119.785 39.7314 120.945C38.1623 123.284 36.8798 125.804 35.9116 128.451C35.6723 129.115 35.4102 129.77 35.1894 130.441L34.5574 132.464C34.3436 133.13 34.1524 133.836 33.9033 134.511C33.6611 135.192 33.3777 135.851 33.1064 136.505L32.2712 138.47L31.8363 139.45C31.688 139.789 31.5228 140.12 31.3412 140.442C31.3044 140.502 31.2625 140.559 31.2161 140.612C31.2426 140.613 31.2449 140.552 31.2464 140.576C31.2421 140.614 31.2437 140.653 31.2511 140.691C31.2789 140.829 31.3265 140.963 31.3924 141.087C31.5382 141.366 31.7327 141.617 31.9669 141.827C32.4451 142.257 33.0431 142.531 33.681 142.612L33.4302 143.222C33.0369 142.914 32.6645 142.58 32.3157 142.222C32.1246 142.029 31.9579 141.813 31.8194 141.58C31.7777 141.503 31.7446 141.423 31.7207 141.339C31.7081 141.284 31.6996 141.229 31.6952 141.172C31.6952 141.099 31.7078 141.025 31.7323 140.956C31.7603 140.881 31.8052 140.814 31.8636 140.76C31.8907 140.735 31.9192 140.711 31.9489 140.689C31.9748 140.674 31.9999 140.662 32.0262 140.649C32.114 140.609 32.2076 140.583 32.3037 140.572C32.5781 140.552 32.8539 140.572 33.1228 140.63C33.374 140.676 33.6145 140.737 33.8541 140.8L34.5684 141.027L35.2593 141.305C37.0639 142.121 38.6644 143.205 40.3305 144.158C41.9858 145.127 43.6977 145.995 45.4571 146.758C47.2222 147.512 49.0263 148.17 50.8617 148.73L50.8638 148.731C50.9142 148.746 50.9576 148.779 50.9871 148.823C51.0166 148.866 51.0303 148.919 51.0259 148.971C50.867 150.769 50.8026 152.574 50.833 154.378C50.8455 155.275 50.922 156.17 51.0619 157.056C51.1285 157.489 51.2524 157.91 51.4305 158.31C51.5134 158.49 51.6374 158.647 51.7925 158.77C51.8322 158.788 51.8707 158.806 51.9091 158.827C51.9497 158.839 51.9929 158.838 52.0344 158.848C52.1276 158.859 52.2549 158.852 52.3636 158.855L63.2132 158.885C66.8297 158.903 70.446 158.883 74.0624 158.879L84.9118 158.842L84.7867 158.898C85.5254 158.118 86.3339 157.407 87.2021 156.776C88.0684 156.134 89.0095 155.602 90.0044 155.189C91.01 154.765 92.0902 154.547 93.1812 154.549C93.7348 154.559 94.2849 154.639 94.8185 154.788L96.3216 155.292C96.8239 155.456 97.3276 155.615 97.8323 155.763C98.3177 155.926 98.82 156.035 99.3297 156.087C99.8956 156.151 100.443 156.328 100.938 156.61C101.199 156.749 101.435 156.932 101.635 157.149C101.747 157.27 101.834 157.411 101.891 157.566C101.947 157.721 101.972 157.885 101.964 158.05C101.978 158.33 101.968 158.611 101.935 158.89C101.901 159.213 101.764 159.517 101.546 159.758C101.31 159.991 101 160.132 100.671 160.158C100.381 160.189 100.088 160.18 99.8005 160.131C99.5264 160.088 99.2556 160.026 98.9899 159.946L98.2314 159.716C97.9889 159.646 97.7422 159.592 97.4929 159.554C97.2864 159.512 97.0733 159.514 96.8677 159.56L96.9426 159.043C97.9462 159.747 99.1247 160.16 100.348 160.234C100.966 160.267 101.586 160.231 102.196 160.128C102.826 160.041 103.451 159.935 104.087 159.829C104.406 159.779 104.724 159.723 105.076 159.7C105.268 159.684 105.462 159.695 105.652 159.734C105.88 159.783 106.087 159.905 106.241 160.082C106.373 160.24 106.474 160.421 106.539 160.616C106.725 161.14 106.753 161.707 106.619 162.247C106.525 162.605 106.356 162.94 106.125 163.229C105.894 163.518 105.606 163.756 105.278 163.927C104.663 164.243 103.994 164.44 103.306 164.507L103.606 164.28C103.445 164.648 103.246 164.997 103.011 165.322C102.778 165.65 102.507 165.949 102.203 166.212C101.884 166.48 101.52 166.691 101.129 166.835C100.727 166.971 100.301 167.025 99.8777 166.994L100.198 166.862C99.5466 167.623 98.9073 168.37 98.1733 169.09C98.0796 169.179 97.9805 169.269 97.8702 169.358C97.7568 169.445 97.6379 169.524 97.5145 169.596C97.2828 169.727 97.0421 169.841 96.7941 169.937C96.3106 170.126 95.8108 170.269 95.3011 170.366C94.2918 170.555 93.2612 170.602 92.2389 170.507C91.984 170.489 91.7322 170.448 91.4787 170.419L90.7276 170.287L90.0236 170.172L89.307 170.097C87.3565 169.996 85.4009 170.06 83.4609 170.286C81.5073 170.485 79.5594 170.78 77.621 171.124C76.6593 171.295 75.7067 171.522 74.7365 171.736C73.7702 171.951 72.8007 172.161 71.8285 172.358C69.8834 172.747 67.9297 173.102 65.9646 173.384C62.035 173.969 58.0701 174.283 54.0976 174.325C53.6011 174.327 53.1048 174.345 52.6084 174.333L51.1191 174.3C50.1259 174.293 49.1348 174.222 48.1436 174.163C47.1511 174.121 46.1639 174.005 45.1757 173.909C44.6793 173.854 44.1931 173.823 43.6869 173.745C43.1857 173.667 42.6894 173.559 42.2008 173.423C40.2271 172.889 38.4367 171.825 37.0238 170.344C35.609 168.855 34.7143 166.946 34.4742 164.904C34.0393 160.946 33.8647 156.982 33.7657 153.017C33.6793 149.051 33.6685 145.086 33.7332 141.122C33.7333 141.111 33.7375 141.102 33.7449 141.094C33.7523 141.087 33.7623 141.083 33.7726 141.083C33.7829 141.083 33.7928 141.087 33.8001 141.095C33.8073 141.102 33.8113 141.112 33.8112 141.123C33.8278 145.085 33.9188 149.047 34.0844 153.006C34.2593 156.961 34.4752 160.923 34.9657 164.84C35.2175 166.765 36.0867 168.556 37.4423 169.943C38.7931 171.331 40.4963 172.323 42.3681 172.812C42.8332 172.938 43.3052 173.036 43.7817 173.105C44.2534 173.175 44.7554 173.204 45.242 173.253C46.2222 173.341 47.2008 173.446 48.1851 173.48C49.168 173.53 50.1502 173.592 51.135 173.59L52.6111 173.611C53.103 173.618 53.5952 173.595 54.0872 173.589L55.5631 173.559L57.0376 173.483C58.0212 173.444 59.0019 173.357 59.9831 173.278C60.9655 173.214 61.9422 173.083 62.9218 172.987C63.8986 172.865 64.876 172.745 65.8497 172.598C67.7988 172.315 69.737 171.96 71.6685 171.569C72.6341 171.372 73.5971 171.162 74.5605 170.945C75.5205 170.732 76.4923 170.499 77.4773 170.321C79.4316 169.971 81.3958 169.669 83.3764 169.464C85.3659 169.227 87.3724 169.168 89.3723 169.287L90.1302 169.37L90.8889 169.498L91.5978 169.626C91.8352 169.654 92.0717 169.695 92.31 169.712C93.2588 169.805 94.2159 169.766 95.154 169.596C95.6165 169.51 96.0703 169.383 96.5097 169.215C96.7231 169.133 96.9305 169.036 97.1303 168.925C97.2211 168.873 97.3088 168.816 97.3928 168.753C97.4752 168.687 97.5598 168.612 97.6456 168.531C98.3292 167.868 98.9849 167.113 99.6232 166.374C99.6605 166.33 99.7069 166.296 99.7591 166.273C99.8114 166.25 99.868 166.239 99.925 166.241L99.944 166.242C100.262 166.265 100.581 166.226 100.884 166.126C101.19 166.014 101.475 165.85 101.726 165.641C101.984 165.419 102.214 165.166 102.413 164.889C102.614 164.613 102.787 164.316 102.928 164.004L102.928 164.002C102.955 163.941 102.996 163.889 103.049 163.85C103.101 163.81 103.163 163.785 103.228 163.777C103.818 163.723 104.393 163.56 104.924 163.295C105.168 163.173 105.384 163.001 105.557 162.79C105.729 162.579 105.856 162.334 105.927 162.07C105.997 161.804 106.012 161.526 105.971 161.254C105.944 161.003 105.857 160.762 105.715 160.552C105.659 160.482 105.58 160.435 105.491 160.419C105.366 160.395 105.239 160.388 105.112 160.399C104.823 160.413 104.507 160.463 104.194 160.51C103.564 160.609 102.925 160.71 102.284 160.791C101.629 160.894 100.964 160.924 100.301 160.882C98.9508 160.787 97.654 160.314 96.5589 159.515L96.5531 159.511C96.5101 159.479 96.4767 159.436 96.4564 159.387C96.4361 159.337 96.4298 159.283 96.4382 159.23C96.4465 159.177 96.4691 159.127 96.5037 159.087C96.5382 159.046 96.5832 159.015 96.6339 158.998C96.9415 158.906 97.2673 158.893 97.5813 158.96C97.8555 159.004 98.1266 159.067 98.3929 159.146L99.1534 159.385C99.3943 159.46 99.64 159.52 99.8889 159.562C100.368 159.644 100.891 159.635 101.147 159.367C101.418 159.102 101.434 158.579 101.422 158.057C101.424 157.997 101.422 157.938 101.415 157.879C101.414 157.836 101.405 157.793 101.387 157.754C101.352 157.66 101.3 157.573 101.232 157.5C101.073 157.326 100.886 157.18 100.68 157.068C100.252 156.82 99.7807 156.66 99.2915 156.595C98.7467 156.536 98.2103 156.415 97.6925 156.235C97.1814 156.08 96.676 155.915 96.1722 155.745L94.6663 155.222C94.1789 155.084 93.6766 155.007 93.1705 154.993C92.1374 154.981 91.1124 155.177 90.1558 155.569C88.2234 156.388 86.4806 157.599 85.0367 159.125L85.0313 159.131C85.0156 159.147 84.997 159.159 84.9764 159.168C84.9558 159.176 84.9338 159.181 84.9115 159.181L74.0632 159.144C70.447 159.14 66.8308 159.12 63.2148 159.138L52.3668 159.168C52.2497 159.166 52.1499 159.175 52.0186 159.164C51.9485 159.158 51.879 159.147 51.8107 159.13L51.6206 159.042C51.4139 158.891 51.2475 158.691 51.1363 158.46C50.9377 158.034 50.7973 157.584 50.7191 157.12C50.5634 156.218 50.4725 155.305 50.4472 154.39C50.3913 152.57 50.4313 150.748 50.5669 148.932L50.7311 149.173C48.8702 148.633 47.0396 147.992 45.2473 147.255C43.4571 146.507 41.7134 145.652 40.0258 144.694C38.3306 143.76 36.717 142.676 34.9977 141.91L34.3459 141.651L33.6815 141.443C33.4548 141.384 33.2276 141.327 33.0043 141.288C32.8015 141.244 32.5938 141.228 32.3866 141.238C32.3589 141.246 32.3105 141.251 32.3173 141.255L32.3127 141.254C32.3196 141.252 32.3259 141.249 32.3306 141.243C32.3339 141.233 32.3566 141.217 32.3606 141.194C32.3723 141.101 32.3602 141.188 32.4117 141.259C32.5231 141.438 32.655 141.605 32.8046 141.754C33.1314 142.085 33.4796 142.395 33.8471 142.681L33.8503 142.683C33.9089 142.729 33.9508 142.794 33.9695 142.866C33.9882 142.938 33.9828 143.015 33.954 143.084C33.9251 143.153 33.8745 143.21 33.81 143.248C33.7454 143.285 33.6703 143.3 33.5963 143.291C32.8172 143.195 32.0859 142.863 31.5007 142.338C31.2046 142.074 30.9584 141.758 30.7738 141.406C30.6732 141.217 30.6018 141.013 30.562 140.802C30.5361 140.666 30.5397 140.525 30.5726 140.389C30.5996 140.288 30.6498 140.195 30.7193 140.118C30.727 140.096 30.7218 140.116 30.7469 140.07C30.9001 139.805 31.0553 139.47 31.2019 139.157L31.6366 138.191L32.4781 136.24C32.7542 135.583 33.0357 134.938 33.2726 134.282C33.5191 133.624 33.7025 132.958 33.9259 132.273L34.5752 130.232C34.8021 129.555 35.0709 128.892 35.3167 128.221C36.3168 125.533 37.6362 122.975 39.2467 120.603C39.6571 120.011 40.0972 119.442 40.5652 118.895C41.042 118.353 41.5524 117.841 42.0934 117.363C42.2296 117.244 42.3612 117.12 42.5012 117.005L42.9362 116.678C43.2248 116.457 43.5265 116.254 43.8396 116.069C44.4708 115.673 45.1639 115.386 45.8899 115.22L45.8406 115.232C47.0659 114.881 48.3281 114.676 49.6013 114.622C50.8583 114.539 52.1152 114.505 53.3705 114.51C55.8817 114.516 58.3863 114.643 60.8873 114.843L60.7908 114.876C61.2803 114.379 61.7289 113.843 62.1323 113.274L62.754 112.419C62.9497 112.11 63.2081 111.846 63.5124 111.644C63.8201 111.445 64.1705 111.322 64.5348 111.285C64.8917 111.243 65.2528 111.25 65.6077 111.306C66.3131 111.424 66.9869 111.686 67.5874 112.075C67.5961 112.08 67.6022 112.089 67.6045 112.099C67.6068 112.109 67.605 112.12 67.5996 112.128C67.5941 112.137 67.5855 112.143 67.5755 112.146C67.5655 112.148 67.555 112.146 67.5462 112.141L67.5437 112.139Z" fill="#1E1E22"/>
<path d="M49.2285 118.773C49.7147 118.912 50.1559 119.176 50.5076 119.54C50.8699 119.898 51.1597 120.323 51.3611 120.791C51.5628 121.257 51.6762 121.757 51.6954 122.264C51.7051 122.514 51.6924 122.764 51.6573 123.011C51.6149 123.257 51.5501 123.498 51.4638 123.732C51.3773 123.49 51.3383 123.256 51.2747 123.028C51.2065 122.802 51.1656 122.576 51.0897 122.36C50.9688 121.932 50.8205 121.512 50.6457 121.103C50.4705 120.696 50.2655 120.302 50.0326 119.925C49.7886 119.525 49.5201 119.14 49.2285 118.773Z" fill="#1E1E22"/>
<path d="M50.9304 128.141C51.0806 129.876 51.1539 131.611 51.2002 133.345C51.2513 135.08 51.2567 136.814 51.2534 138.549C51.2354 140.283 51.2077 142.017 51.1346 143.751C51.0663 145.485 50.9703 147.219 50.7968 148.952C50.6456 147.217 50.5719 145.482 50.5259 143.747C50.475 142.012 50.4695 140.278 50.4738 138.544C50.4927 136.809 50.5205 135.075 50.5938 133.341C50.6623 131.608 50.7578 129.874 50.9304 128.141Z" fill="#1E1E22"/>
<path d="M86.634 116.678C88.0624 117.574 89.4645 118.507 90.8404 119.477C91.5291 119.961 92.2121 120.454 92.8895 120.956L93.8975 121.728C94.0743 121.861 94.2408 122.007 94.3956 122.165L94.6352 122.416L94.8369 122.672C95.3594 123.347 95.836 124.057 96.2635 124.797C96.6943 125.525 97.1135 126.259 97.5213 126.997C98.327 128.48 99.1568 129.946 100.011 131.396C100.438 132.122 100.873 132.842 101.316 133.558L101.979 134.632C102.176 134.983 102.41 135.311 102.676 135.612C102.959 135.89 103.295 136.166 103.588 136.511C103.935 136.873 104.144 137.346 104.178 137.847C104.152 138.36 103.929 138.844 103.555 139.196C103.396 139.358 103.228 139.511 103.052 139.655C102.895 139.782 102.743 139.915 102.594 140.052C102.294 140.329 102.017 140.619 101.737 140.931C101.451 141.248 101.155 141.555 100.854 141.859C100.248 142.466 99.6039 143.034 98.9263 143.56C98.2355 144.096 97.4834 144.548 96.686 144.906C96.2678 145.083 95.8283 145.205 95.3786 145.268C94.9064 145.339 94.4243 145.297 93.9712 145.146C93.899 145.124 93.8374 145.076 93.7984 145.011L93.7959 145.007C93.5031 144.521 93.1826 144.036 92.8584 143.562C92.5346 143.085 92.1954 142.62 91.8409 142.167C91.485 141.716 91.1046 141.286 90.7015 140.878C90.3135 140.458 89.8382 140.128 89.3092 139.913L89.3063 139.912C89.2971 139.908 89.2894 139.902 89.2848 139.893C89.2802 139.884 89.2792 139.874 89.2818 139.864C89.2844 139.855 89.2905 139.847 89.2988 139.842C89.3072 139.836 89.3173 139.835 89.3269 139.836C89.9049 139.986 90.4393 140.271 90.8863 140.667C91.3448 141.039 91.7744 141.445 92.1713 141.882C92.9692 142.748 93.7024 143.672 94.3649 144.646L94.1897 144.507C94.9323 144.659 95.7046 144.546 96.3733 144.189C97.1034 143.84 97.7897 143.406 98.4178 142.895C99.0687 142.388 99.691 141.846 100.282 141.271C100.581 140.984 100.877 140.693 101.163 140.393C101.453 140.087 101.765 139.775 102.092 139.491C102.256 139.348 102.425 139.208 102.598 139.076C102.756 138.944 102.905 138.831 103.037 138.697C103.292 138.477 103.459 138.171 103.507 137.836C103.486 137.489 103.348 137.159 103.115 136.901C102.876 136.593 102.575 136.314 102.282 135.979C102.204 135.891 102.132 135.8 102.065 135.704L101.896 135.417L101.592 134.858L100.997 133.742C100.605 132.996 100.204 132.255 99.7951 131.52C98.9746 130.051 98.1096 128.606 97.1726 127.209C96.2438 125.813 95.3015 124.401 94.2952 123.111L94.105 122.873L93.9066 122.67C93.7706 122.524 93.623 122.389 93.4654 122.267L92.4849 121.486L90.5053 119.928C89.1826 118.891 87.8769 117.829 86.5882 116.741C86.5806 116.735 86.5757 116.726 86.5745 116.716C86.5733 116.706 86.5759 116.696 86.5817 116.688C86.5875 116.68 86.5962 116.674 86.6059 116.673C86.6156 116.671 86.6257 116.673 86.6341 116.678L86.634 116.678Z" fill="#1E1E22"/>
<path d="M91.8551 129.301C91.1724 131.872 90.5277 134.45 89.9892 137.038C89.7122 138.321 89.5188 139.621 89.4102 140.929C89.3733 141.558 89.3695 142.252 89.3144 142.925C89.2608 143.612 89.1462 144.292 88.9721 144.958C88.5622 146.274 87.9055 147.5 87.0372 148.57C86.6359 149.106 86.2108 149.625 85.8127 150.146C85.6213 150.405 85.427 150.661 85.2551 150.938C85.0707 151.205 84.904 151.486 84.7381 151.768C84.085 152.912 83.5011 154.095 82.9894 155.309C82.4497 156.519 81.9842 157.761 81.5293 159.012C82.1085 156.398 83.0075 153.865 84.206 151.472C84.5155 150.867 84.8699 150.286 85.2664 149.734C85.6596 149.189 86.0625 148.669 86.4421 148.131C87.2408 147.125 87.8442 145.977 88.2211 144.748C88.3884 144.129 88.5005 143.497 88.5561 142.858C88.6181 142.207 88.616 141.571 88.6758 140.874C88.8151 139.534 89.0565 138.207 89.3978 136.905C90.0525 134.32 90.8733 131.78 91.8551 129.301Z" fill="#1E1E22"/>
<path d="M103.268 138.98C104.126 139.649 104.939 140.36 105.765 141.023C105.974 141.184 106.182 141.343 106.386 141.482L106.726 141.685C106.851 141.764 106.97 141.848 107.083 141.935C107.521 142.289 107.924 142.684 108.286 143.115C109.006 143.969 109.572 144.941 109.958 145.989C110.363 147.027 110.478 148.157 110.289 149.255C110.175 148.2 109.875 147.174 109.401 146.224C108.94 145.289 108.365 144.413 107.691 143.618C107.366 143.219 107.006 142.849 106.616 142.514C106.522 142.43 106.424 142.352 106.327 142.281L105.989 142.045C105.766 141.873 105.556 141.686 105.358 141.485C104.586 140.717 103.886 139.878 103.268 138.98Z" fill="#1E1E22"/>
<path d="M94.6562 144.941C95.4232 145.973 95.9472 147.164 96.1892 148.427C96.2163 148.588 96.2393 148.751 96.261 148.914C96.2761 149.072 96.2778 149.258 96.2976 149.394C96.3277 149.67 96.3935 149.942 96.4931 150.201C96.7106 150.755 96.9894 151.283 97.3243 151.775C97.656 152.284 98.0208 152.771 98.4166 153.232C98.6077 153.469 98.819 153.69 99.0221 153.918C99.2424 154.128 99.4433 154.362 99.6703 154.566C100.535 155.446 101.572 156.139 102.715 156.602C102.078 156.537 101.459 156.357 100.887 156.068C100.315 155.777 99.7749 155.428 99.2731 155.028C98.2627 154.23 97.3848 153.276 96.6721 152.203C96.3101 151.653 96.0161 151.062 95.7967 150.441C95.6908 150.109 95.6301 149.763 95.6163 149.415C95.6061 149.239 95.6106 149.111 95.6106 148.956L95.5883 148.509C95.4484 147.281 95.1346 146.08 94.6562 144.941Z" fill="#1E1E22"/>
<path d="M103.268 154.976C103.345 154.472 103.52 153.988 103.781 153.551C104.037 153.108 104.347 152.7 104.706 152.337C105.068 151.979 105.471 151.665 105.905 151.399C106.12 151.268 106.343 151.148 106.572 151.041C106.806 150.945 107.04 150.852 107.278 150.773C106.864 151.061 106.456 151.338 106.069 151.639C105.682 151.936 105.315 152.257 104.968 152.599C104.626 152.944 104.31 153.315 104.023 153.707C103.73 154.104 103.477 154.529 103.268 154.976Z" fill="#1E1E22"/>
<path d="M104.674 155.867C105.54 154.478 106.489 153.143 107.516 151.869C108.03 151.231 108.563 150.607 109.117 149.998C109.68 149.392 110.277 148.819 110.904 148.28C111.543 147.717 112.262 147.253 113.038 146.904C113.457 146.727 113.909 146.64 114.364 146.649C114.83 146.661 115.286 146.792 115.688 147.029C116.437 147.512 117.01 148.225 117.322 149.061C117.485 149.459 117.602 149.874 117.672 150.298C117.759 150.737 117.75 151.19 117.646 151.625L117.522 151.351C118.399 151.8 119.244 152.286 120.082 152.792C120.918 153.298 121.743 153.823 122.538 154.393C123.351 154.948 124.104 155.586 124.785 156.297C125.129 156.664 125.422 157.077 125.653 157.523C125.908 158 125.968 158.556 125.822 159.076L125.826 159.061C125.715 159.492 125.478 159.879 125.145 160.172C124.963 160.317 124.753 160.421 124.527 160.476C124.301 160.531 124.067 160.536 123.839 160.491C123.417 160.404 123.015 160.236 122.657 159.996C122.312 159.771 121.987 159.517 121.684 159.238L122.207 159.012C122.192 159.548 122.078 160.076 121.869 160.57C121.665 161.069 121.36 161.52 120.972 161.893C120.583 162.261 120.128 162.551 119.631 162.748C119.421 162.839 119.216 162.943 119.018 163.057C118.926 163.11 118.839 163.168 118.755 163.232C118.724 163.256 118.694 163.283 118.667 163.312C118.646 163.33 118.652 163.351 118.67 163.281L118.538 162.907C118.781 163.119 118.982 163.374 119.13 163.66C119.288 163.954 119.371 164.283 119.371 164.617C119.371 164.951 119.289 165.28 119.13 165.574C118.987 165.853 118.797 166.106 118.57 166.323C118.114 166.754 117.535 167.03 116.913 167.113C116.625 167.148 116.335 167.162 116.044 167.154C115.732 167.153 115.421 167.104 115.124 167.007L115.4 167.008C114.492 167.29 113.558 167.483 112.613 167.584C111.67 167.68 110.719 167.675 109.777 167.569C109.286 167.522 108.805 167.408 108.345 167.23C108.09 167.131 107.859 166.978 107.668 166.781C107.477 166.585 107.33 166.349 107.238 166.09C107.103 165.573 107.165 165.023 107.413 164.549C107.523 164.319 107.666 164.107 107.837 163.918C108.019 163.69 108.281 163.54 108.569 163.497L108.537 163.501C108.673 163.481 108.81 163.469 108.948 163.467C109.083 163.463 109.218 163.468 109.352 163.481C109.628 163.504 109.896 163.576 110.146 163.694L109.945 163.929C109.821 163.709 109.724 163.474 109.657 163.23C109.587 162.987 109.556 162.735 109.564 162.483C109.573 162.228 109.645 161.979 109.773 161.759C109.904 161.546 110.081 161.366 110.291 161.233C110.3 161.227 110.31 161.225 110.32 161.227C110.33 161.229 110.339 161.235 110.345 161.244C110.35 161.252 110.352 161.262 110.351 161.272C110.349 161.282 110.344 161.29 110.336 161.297C110.154 161.439 110.006 161.621 109.904 161.829C109.808 162.034 109.763 162.259 109.772 162.485C109.783 162.712 109.829 162.936 109.909 163.149C109.987 163.362 110.089 163.564 110.215 163.753C110.234 163.781 110.244 163.814 110.242 163.848C110.241 163.882 110.229 163.915 110.208 163.942C110.187 163.969 110.158 163.988 110.126 163.997C110.093 164.006 110.058 164.005 110.027 163.993L110.014 163.988C109.793 163.907 109.561 163.863 109.326 163.856C109.207 163.852 109.087 163.855 108.968 163.864C108.85 163.873 108.734 163.89 108.619 163.913L108.604 163.916L108.587 163.917C108.423 163.974 108.282 164.081 108.182 164.223C108.053 164.384 107.947 164.564 107.868 164.756C107.702 165.117 107.673 165.527 107.789 165.907C107.862 166.081 107.971 166.237 108.109 166.364C108.248 166.492 108.412 166.588 108.59 166.647C108.997 166.784 109.42 166.866 109.848 166.89C110.74 166.958 111.636 166.931 112.522 166.808C113.407 166.698 114.279 166.504 115.127 166.228C115.213 166.199 115.306 166.198 115.393 166.226L115.403 166.229C115.861 166.33 116.334 166.349 116.798 166.286C117.247 166.228 117.667 166.03 117.998 165.721C118.323 165.438 118.526 165.04 118.567 164.61C118.568 164.404 118.521 164.201 118.427 164.018C118.331 163.826 118.202 163.651 118.045 163.504L118.018 163.478C117.971 163.435 117.936 163.379 117.918 163.318C117.899 163.257 117.898 163.191 117.913 163.129C117.944 163 118.01 162.882 118.103 162.788C118.161 162.728 118.223 162.673 118.289 162.623C118.402 162.54 118.519 162.465 118.642 162.398C118.87 162.272 119.105 162.159 119.345 162.061C119.765 161.907 120.151 161.673 120.482 161.372C120.808 161.07 121.07 160.705 121.254 160.3C121.442 159.894 121.555 159.458 121.587 159.012L121.588 158.989C121.592 158.93 121.612 158.873 121.647 158.826C121.682 158.778 121.729 158.741 121.784 158.72C121.839 158.699 121.898 158.693 121.956 158.705C122.014 158.717 122.067 158.745 122.109 158.786C122.379 159.051 122.668 159.294 122.975 159.514C123.263 159.732 123.589 159.892 123.936 159.985C124.094 160.028 124.259 160.035 124.42 160.005C124.581 159.976 124.733 159.911 124.866 159.816C125.139 159.595 125.341 159.298 125.445 158.962L125.449 158.948C125.586 158.522 125.553 158.06 125.356 157.659C125.161 157.228 124.898 156.831 124.577 156.485C123.922 155.775 123.193 155.138 122.401 154.586C120.805 153.485 119.105 152.542 117.326 151.772C117.278 151.751 117.239 151.713 117.216 151.666C117.192 151.619 117.186 151.565 117.197 151.514L117.201 151.498C117.26 151.131 117.243 150.757 117.15 150.397C117.066 150.02 116.94 149.653 116.774 149.303C116.477 148.614 115.978 148.03 115.344 147.629C115.031 147.459 114.682 147.363 114.326 147.349C113.97 147.336 113.616 147.404 113.29 147.55C112.577 147.865 111.913 148.282 111.319 148.788C110.695 149.293 110.099 149.833 109.534 150.404C108.959 150.97 108.402 151.559 107.862 152.163C106.787 153.378 105.741 154.627 104.738 155.911C104.735 155.915 104.731 155.919 104.727 155.921C104.722 155.924 104.717 155.926 104.712 155.926C104.707 155.927 104.702 155.927 104.697 155.926C104.692 155.924 104.687 155.922 104.683 155.919C104.676 155.913 104.67 155.904 104.669 155.895C104.667 155.885 104.669 155.875 104.674 155.867Z" fill="#1E1E22"/>
<path d="M112.507 149.91C112.511 150.634 112.603 151.354 112.78 152.056C112.872 152.387 113.019 152.701 113.214 152.985C113.398 153.251 113.675 153.439 113.991 153.51C114.316 153.588 114.656 153.585 114.98 153.499C115.316 153.421 115.634 153.281 115.918 153.085C116.509 152.674 117.02 152.157 117.425 151.561C117.138 152.255 116.681 152.864 116.095 153.333C115.794 153.585 115.44 153.766 115.059 153.862C114.679 153.958 114.281 153.968 113.897 153.889C113.495 153.791 113.144 153.545 112.915 153.2C112.706 152.873 112.56 152.509 112.486 152.128C112.352 151.394 112.359 150.641 112.507 149.91Z" fill="#1E1E22"/>
<path d="M118.248 156.824C118.989 156.851 119.711 157.074 120.338 157.47C120.655 157.662 120.948 157.89 121.212 158.149C121.477 158.406 121.707 158.695 121.898 159.01C121.62 158.769 121.353 158.53 121.07 158.314C120.791 158.094 120.498 157.892 120.194 157.709C119.892 157.523 119.578 157.357 119.254 157.211C118.927 157.061 118.591 156.932 118.248 156.824Z" fill="#1E1E22"/>
<path d="M110.08 163.84C110.252 164.014 110.451 164.16 110.668 164.273C110.879 164.396 111.093 164.511 111.31 164.623C111.743 164.847 112.184 165.061 112.626 165.271C113.508 165.7 114.401 166.111 115.264 166.617C114.294 166.391 113.353 166.058 112.457 165.623C112.006 165.408 111.571 165.162 111.155 164.885C110.718 164.628 110.349 164.27 110.08 163.84Z" fill="#1E1E22"/>
<path d="M116.958 158.52C117.111 158.603 117.244 158.718 117.35 158.857C117.41 158.931 117.454 159.017 117.478 159.11C117.502 159.202 117.505 159.299 117.487 159.393C117.432 159.58 117.316 159.742 117.158 159.855C117.015 159.965 116.859 160.056 116.693 160.126C116.617 160.159 116.544 160.196 116.473 160.239C116.406 160.271 116.342 160.309 116.28 160.351L116.111 160.499C116.061 160.554 116.014 160.613 115.972 160.675C115.794 160.923 115.687 161.215 115.664 161.52C115.62 161.82 115.665 162.127 115.794 162.402C115.923 162.677 116.13 162.908 116.389 163.066C116.453 163.109 116.523 163.141 116.598 163.161C116.672 163.185 116.743 163.218 116.82 163.238C116.977 163.269 117.137 163.288 117.298 163.296C117.463 163.301 117.628 163.295 117.793 163.279C117.957 163.25 118.123 163.226 118.294 163.204C118.137 163.266 117.976 163.326 117.813 163.381C117.646 163.427 117.476 163.463 117.305 163.488C117.128 163.503 116.951 163.504 116.774 163.491C116.685 163.475 116.596 163.455 116.51 163.429C116.419 163.412 116.332 163.381 116.251 163.338C115.907 163.181 115.628 162.909 115.463 162.568C115.303 162.229 115.238 161.853 115.276 161.481C115.314 161.108 115.452 160.753 115.677 160.454C115.734 160.379 115.797 160.309 115.864 160.244L116.087 160.069C116.243 159.979 116.408 159.904 116.579 159.845C116.877 159.777 117.137 159.595 117.305 159.339C117.33 159.269 117.339 159.195 117.332 159.121C117.324 159.047 117.301 158.975 117.263 158.911C117.183 158.765 117.08 158.633 116.958 158.52Z" fill="#1E1E22"/>
<path d="M113.798 151.027C113.843 151.233 113.906 151.434 113.985 151.629C114.05 151.814 114.167 151.977 114.321 152.098C114.398 152.153 114.486 152.191 114.579 152.208C114.672 152.226 114.768 152.223 114.859 152.2C114.96 152.182 115.059 152.156 115.156 152.124C115.254 152.086 115.35 152.043 115.453 152.009C115.372 152.079 115.283 152.139 115.195 152.206C115.097 152.259 114.996 152.303 114.891 152.34C114.779 152.378 114.659 152.39 114.542 152.374C114.424 152.358 114.312 152.316 114.213 152.249C114.034 152.102 113.907 151.901 113.851 151.676C113.791 151.465 113.773 151.245 113.798 151.027Z" fill="#1E1E22"/>
<path d="M114.154 150.774C114.364 150.715 114.58 150.686 114.798 150.688C115.019 150.689 115.239 150.724 115.45 150.792C115.67 150.864 115.862 151.003 115.999 151.19C116.117 151.384 116.158 151.616 116.113 151.838C116.088 151.634 116.009 151.44 115.885 151.276C115.751 151.129 115.579 151.022 115.388 150.967C114.988 150.846 114.573 150.781 114.154 150.774Z" fill="#1E1E22"/>
<path d="M117.135 162.538C117.212 162.379 117.33 162.244 117.476 162.145C117.554 162.091 117.642 162.053 117.734 162.034C117.827 162.015 117.923 162.015 118.016 162.033C118.193 162.09 118.349 162.201 118.462 162.349C118.508 162.425 118.557 162.498 118.596 162.574C118.626 162.657 118.661 162.735 118.684 162.817C118.57 162.687 118.469 162.557 118.355 162.444C118.249 162.336 118.118 162.257 117.973 162.214C117.828 162.18 117.676 162.2 117.545 162.27C117.398 162.341 117.26 162.432 117.135 162.538Z" fill="#1E1E22"/>
<path d="M110.289 163.402C110.299 163.096 110.377 162.796 110.517 162.524C110.554 162.448 110.606 162.38 110.671 162.324C110.735 162.269 110.81 162.227 110.891 162.202C110.976 162.185 111.064 162.188 111.148 162.211C111.232 162.233 111.31 162.274 111.376 162.331C111.504 162.428 111.613 162.549 111.697 162.686C111.783 162.832 111.812 163.004 111.779 163.17C111.733 163.32 111.655 163.457 111.55 163.573C111.445 163.689 111.316 163.781 111.172 163.841C111.405 163.672 111.57 163.426 111.638 163.146C111.65 163.015 111.62 162.884 111.552 162.772C111.475 162.659 111.379 162.56 111.267 162.481C111.223 162.438 111.169 162.405 111.111 162.385C111.052 162.365 110.99 162.358 110.929 162.366C110.807 162.407 110.704 162.49 110.637 162.6C110.484 162.85 110.367 163.12 110.289 163.402Z" fill="#1E1E22"/>
<path d="M105.53 161.137C105.512 161.443 105.426 161.741 105.279 162.01C105.24 162.085 105.186 162.151 105.121 162.205C105.055 162.259 104.979 162.299 104.898 162.322C104.812 162.336 104.724 162.331 104.641 162.306C104.557 162.282 104.48 162.238 104.416 162.18C104.29 162.079 104.184 161.956 104.104 161.816C104.022 161.669 103.997 161.495 104.035 161.33C104.085 161.182 104.167 161.047 104.274 160.934C104.382 160.82 104.514 160.732 104.659 160.676C104.422 160.839 104.25 161.081 104.175 161.359C104.159 161.489 104.186 161.621 104.251 161.734C104.325 161.85 104.419 161.951 104.529 162.033C104.572 162.078 104.624 162.112 104.682 162.133C104.74 162.155 104.802 162.163 104.864 162.157C104.986 162.119 105.092 162.039 105.161 161.931C105.321 161.685 105.445 161.418 105.53 161.137Z" fill="#1E1E22"/>
<path d="M108.322 166.193C108.402 165.982 108.514 165.785 108.654 165.608C108.726 165.515 108.812 165.433 108.909 165.366C108.964 165.324 109.029 165.297 109.098 165.286C109.166 165.276 109.237 165.282 109.302 165.305C109.419 165.371 109.506 165.478 109.547 165.605C109.589 165.714 109.615 165.829 109.626 165.945C109.653 166.169 109.643 166.396 109.596 166.617C109.572 166.399 109.535 166.183 109.485 165.97C109.462 165.869 109.431 165.769 109.392 165.672C109.348 165.586 109.295 165.494 109.227 165.474C109.101 165.405 108.904 165.562 108.759 165.704C108.605 165.86 108.46 166.023 108.322 166.193Z" fill="#1E1E22"/>
<path d="M103.264 155.891L101.689 157.63C101.689 157.63 101.7 159.855 100.577 159.948C100.577 159.948 100.008 160.464 100.413 160.57C100.776 160.66 102.083 160.335 102.648 160.402C102.648 160.402 105.327 159.87 105.784 160.159C105.921 160.253 106.036 160.375 106.122 160.517C106.207 160.66 106.261 160.819 106.279 160.984L106.497 160.961L114.949 161.465L118.615 155.891L103.264 155.891ZM114.153 159.792L102.293 159.593L103.841 157.095H115.725L114.153 159.792Z" fill="#1E1E22"/>
<path d="M93.5469 159.949C94.004 159.616 94.5208 159.373 95.0694 159.235C95.6269 159.091 96.2043 159.041 96.7781 159.087C96.8296 159.091 96.8773 159.115 96.9109 159.155C96.9445 159.194 96.9611 159.245 96.9572 159.297C96.9534 159.348 96.9293 159.396 96.8902 159.43C96.8511 159.464 96.8003 159.481 96.7488 159.477C96.7407 159.477 96.7327 159.475 96.7248 159.474C96.1922 159.369 95.6459 159.353 95.108 159.426C94.559 159.499 94.0289 159.676 93.5469 159.949Z" fill="#1E1E22"/>
<path d="M96.75 163.987C97.8473 164.007 98.9445 164.045 100.042 164.15C100.314 164.174 100.598 164.218 100.86 164.249C101.125 164.278 101.392 164.283 101.658 164.265C102.184 164.229 102.701 164.105 103.186 163.897L103.199 163.892C103.246 163.871 103.3 163.869 103.348 163.888C103.397 163.907 103.436 163.944 103.456 163.992C103.477 164.039 103.479 164.093 103.46 164.141C103.441 164.19 103.404 164.229 103.357 164.25L103.346 164.254C102.808 164.45 102.241 164.553 101.669 164.558C101.387 164.561 101.104 164.538 100.826 164.491C100.546 164.441 100.29 164.385 100.017 164.344C98.9375 164.175 97.8434 164.072 96.75 163.987Z" fill="#1E1E22"/>
<path d="M97.5957 167.021C97.9677 166.887 98.3437 166.762 98.7237 166.646C99.1079 166.524 99.4996 166.428 99.8964 166.358C99.9477 166.35 100 166.362 100.042 166.393C100.084 166.423 100.113 166.469 100.121 166.52C100.129 166.572 100.117 166.624 100.086 166.667C100.056 166.709 100.01 166.737 99.9588 166.745C99.9485 166.747 99.938 166.748 99.9276 166.748H99.9238C99.5358 166.752 99.1486 166.782 98.7645 166.837C98.3745 166.888 97.9844 166.95 97.5957 167.021Z" fill="#1E1E22"/>
<path d="M99.0645 157.145C99.2641 157.352 99.4987 157.523 99.7576 157.648C100.02 157.77 100.295 157.861 100.578 157.921C100.428 157.956 100.274 157.964 100.122 157.944C99.9675 157.924 99.8173 157.88 99.676 157.815C99.5372 157.743 99.4108 157.65 99.3014 157.538C99.1922 157.428 99.1109 157.293 99.0645 157.145Z" fill="#1E1E22"/>
<path d="M105.019 164.055C104.915 164.056 104.816 164.015 104.742 163.942C104.669 163.869 104.627 163.77 104.627 163.666C104.626 163.562 104.667 163.463 104.74 163.389C104.813 163.315 104.912 163.274 105.015 163.273L109.955 163.227C110.007 163.225 110.058 163.234 110.106 163.253C110.154 163.272 110.198 163.3 110.235 163.336C110.271 163.372 110.3 163.416 110.32 163.463C110.34 163.511 110.35 163.562 110.349 163.614C110.35 163.665 110.34 163.716 110.321 163.764C110.302 163.811 110.273 163.855 110.237 163.891C110.202 163.928 110.159 163.957 110.112 163.977C110.065 163.997 110.014 164.008 109.963 164.009L105.022 164.055H105.019Z" fill="#1E1E22"/>
<path d="M118.593 163.929C118.49 163.929 118.391 163.888 118.318 163.814C118.244 163.741 118.203 163.642 118.203 163.538C118.203 163.434 118.244 163.335 118.317 163.262C118.39 163.188 118.489 163.147 118.593 163.147L132.211 163.129H132.211C132.315 163.129 132.414 163.17 132.487 163.243C132.56 163.316 132.602 163.416 132.602 163.52C132.602 163.623 132.561 163.723 132.488 163.796C132.415 163.869 132.315 163.911 132.212 163.911L118.594 163.929H118.593Z" fill="#1E1E22"/>
<path d="M209 163.809C208.896 163.809 208.797 163.768 208.724 163.694C208.651 163.621 208.609 163.522 208.609 163.418C208.609 163.314 208.65 163.215 208.723 163.142C208.797 163.068 208.896 163.027 208.999 163.027L221.516 163.012H221.517C221.62 163.012 221.719 163.053 221.793 163.126C221.866 163.199 221.907 163.299 221.907 163.402C221.907 163.506 221.866 163.606 221.793 163.679C221.72 163.752 221.621 163.794 221.517 163.794L209 163.809H209Z" fill="#1E1E22"/>
<path d="M137.71 163.607H136.784C136.759 163.607 136.735 163.598 136.718 163.58C136.7 163.563 136.69 163.539 136.689 163.515C136.689 163.503 136.692 163.491 136.696 163.479C136.701 163.468 136.707 163.458 136.716 163.449C136.724 163.441 136.734 163.434 136.745 163.429C136.757 163.424 136.769 163.422 136.781 163.422H137.71C137.722 163.422 137.734 163.424 137.745 163.429C137.757 163.433 137.767 163.44 137.775 163.449C137.784 163.457 137.791 163.468 137.796 163.479C137.8 163.49 137.803 163.502 137.803 163.515C137.803 163.527 137.8 163.539 137.796 163.55C137.791 163.562 137.784 163.572 137.775 163.58C137.767 163.589 137.757 163.596 137.745 163.6C137.734 163.605 137.722 163.607 137.71 163.607Z" fill="#1E1E22"/>
<path d="M17.4817 164.875C17.3782 164.876 17.2788 164.835 17.2054 164.762C17.1319 164.689 17.0903 164.59 17.0898 164.486C17.0894 164.383 17.13 164.283 17.2028 164.209C17.2756 164.136 17.3746 164.094 17.478 164.094L34.6487 163.934C34.7513 163.935 34.8492 163.977 34.9225 164.049C34.9957 164.121 35.0386 164.218 35.0423 164.321C35.0428 164.372 35.0332 164.423 35.014 164.471C34.9949 164.518 34.9666 164.562 34.9307 164.598C34.8948 164.635 34.8521 164.664 34.8049 164.684C34.7578 164.704 34.7072 164.715 34.6559 164.715L17.4853 164.875H17.4817Z" fill="#1E1E22"/>
<path d="M82.2406 110.764C82.3848 110.759 82.5215 110.698 82.6218 110.594C82.722 110.49 82.7781 110.351 82.7781 110.206C82.7781 110.061 82.722 109.922 82.6218 109.818C82.5215 109.714 82.3848 109.653 82.2406 109.648C82.0964 109.653 81.9597 109.714 81.8594 109.818C81.7592 109.922 81.7031 110.061 81.7031 110.206C81.7031 110.351 81.7592 110.49 81.8594 110.594C81.9597 110.698 82.0964 110.759 82.2406 110.764Z" fill="#1E1E22"/>
<path d="M110.365 99.9493L105.81 100.119C104.316 100.165 102.838 100.201 101.369 100.229C99.9021 100.249 98.4401 100.272 96.9841 100.256C95.5273 100.245 94.0707 100.18 92.5995 100.139L92.8161 99.9217C92.7927 100.764 92.7546 101.607 92.7433 102.449C92.7226 103.291 92.7219 104.134 92.7169 104.976C92.7157 106.661 92.751 108.346 92.7985 110.031L92.5995 109.832L96.2342 109.73C96.2712 109.729 96.3081 109.736 96.3427 109.749C96.3773 109.762 96.4089 109.782 96.4356 109.808L96.4464 109.818L97.8345 111.157H97.3572L98.6995 109.773C98.7318 109.739 98.7704 109.712 98.8131 109.694C98.8559 109.676 98.9018 109.666 98.9483 109.666L98.9574 109.666C100.863 109.65 102.769 109.611 104.675 109.614C105.628 109.609 106.581 109.613 107.533 109.626L110.392 109.662L110.024 110.031C110.05 108.389 110.097 106.747 110.165 105.071L110.365 99.9493ZM110.42 99.894L110.619 104.882C110.687 106.576 110.734 108.303 110.76 110.031C110.762 110.127 110.725 110.22 110.658 110.29C110.591 110.359 110.499 110.399 110.403 110.4H110.402L110.392 110.4L107.533 110.436C106.581 110.448 105.628 110.452 104.675 110.448C102.769 110.452 100.863 110.412 98.9574 110.397L99.2153 110.29L97.8345 111.635L97.8264 111.643C97.7953 111.673 97.7584 111.697 97.718 111.713C97.6777 111.729 97.6345 111.737 97.591 111.737C97.5476 111.736 97.5047 111.727 97.4647 111.71C97.4248 111.692 97.3887 111.668 97.3584 111.636L97.3572 111.635L96.0222 110.244L96.2342 110.332L92.5996 110.231L92.5884 110.23C92.5371 110.229 92.4885 110.207 92.4533 110.17C92.418 110.132 92.399 110.083 92.4004 110.031V110.031C92.448 108.346 92.4832 106.661 92.4821 104.976C92.4771 104.134 92.4763 103.291 92.4557 102.449C92.4444 101.607 92.4063 100.764 92.3829 99.9217C92.3821 99.894 92.3868 99.8664 92.3967 99.8405C92.4065 99.8146 92.4214 99.7909 92.4404 99.7708C92.4594 99.7507 92.4822 99.7345 92.5074 99.7232C92.5326 99.7119 92.5599 99.7056 92.5875 99.7049H92.5876L92.5996 99.7046C94.0938 99.6638 95.6026 99.5985 97.1113 99.5876C98.6207 99.5712 100.124 99.5945 101.623 99.6149C103.119 99.6423 104.607 99.6786 106.078 99.7241L110.42 99.894Z" fill="#1E1E22"/>
<path d="M162.691 81.247L155.988 81.3632L149.341 81.4472L136.14 81.5402L129.572 81.517L123.009 81.4338C118.629 81.3664 114.226 81.3342 109.826 81.3453L109.952 81.2194L109.975 86.274L110.033 91.3287L109.826 91.1213C113.704 91.0683 117.582 91.0182 121.46 90.9913L133.094 90.927C136.971 90.8969 140.849 90.9314 144.727 90.9306C148.605 90.9258 152.483 90.9769 156.361 91.008L156.366 91.0081C156.449 91.0088 156.529 91.0426 156.587 91.102L157.937 92.4789H157.508L158.885 91.1294L158.89 91.1243C158.916 91.0992 158.946 91.0795 158.98 91.0662C159.013 91.0529 159.048 91.0463 159.084 91.0467L162.719 91.0997L162.49 91.3287C162.517 89.6698 162.539 88.0109 162.584 86.3298L162.691 81.247ZM162.746 81.1917L162.853 86.2182C162.899 87.9069 162.921 89.6178 162.947 91.3287C162.948 91.3885 162.925 91.4462 162.884 91.4892C162.842 91.5321 162.786 91.5567 162.726 91.5577H162.726L162.719 91.5578L159.084 91.6108L159.283 91.5282L157.937 92.9081C157.881 92.965 157.805 92.9975 157.726 92.9984C157.646 92.9992 157.57 92.9685 157.513 92.9128L157.513 92.9123L157.508 92.9081L156.135 91.5556L156.361 91.6495C152.483 91.6806 148.605 91.7317 144.727 91.7269C140.849 91.726 136.971 91.7606 133.094 91.7305L121.46 91.6662C117.582 91.6393 113.704 91.5892 109.826 91.5362H109.821C109.794 91.5359 109.768 91.5303 109.743 91.5196C109.718 91.509 109.696 91.4937 109.677 91.4744C109.658 91.4551 109.644 91.4323 109.634 91.4073C109.624 91.3824 109.619 91.3556 109.619 91.3287L109.677 86.274L109.7 81.2194C109.701 81.186 109.714 81.154 109.737 81.1303C109.761 81.1067 109.793 81.0934 109.826 81.0933C114.242 81.1045 118.655 81.0723 123.09 81.0049L129.749 80.9217L136.405 80.8984L149.65 80.9915L156.227 81.0754L162.746 81.1917Z" fill="#1E1E22"/>
<path d="M125.966 59.6737C123.106 59.7553 120.295 59.812 117.5 59.8609C114.699 59.9192 111.931 59.9453 109.165 59.9667C106.399 59.9884 103.652 59.971 100.899 59.9093C98.1444 59.8621 95.3773 59.785 92.6008 59.7712L92.7256 59.6461C92.7245 60.4885 92.7125 61.3309 92.7219 62.1733L92.7373 64.7007C92.7393 66.3856 92.7803 68.0705 92.8049 69.7554L92.6008 69.5508L96.2354 69.4826C96.2695 69.4819 96.3035 69.488 96.3353 69.5005C96.367 69.513 96.3961 69.5316 96.4207 69.5554L96.428 69.5625L97.8113 70.9053H97.3828L98.7272 69.5235C98.7563 69.4935 98.791 69.4696 98.8294 69.4531C98.8678 69.4366 98.909 69.4279 98.9508 69.4275L98.9587 69.4274L105.717 69.3685C107.97 69.3506 110.223 69.3341 112.476 69.3376C116.982 69.3355 121.488 69.4015 125.993 69.4617L125.7 69.7554L125.82 64.7727L125.966 59.6737ZM126.021 59.6184L126.167 64.6287L126.286 69.7554C126.288 69.8315 126.26 69.9052 126.207 69.9602C126.155 70.0153 126.083 70.0472 126.007 70.049L126.004 70.0491L125.993 70.0492C121.488 70.1093 116.982 70.1753 112.476 70.1732C110.223 70.1769 107.97 70.1603 105.717 70.1424L98.9586 70.0834L99.19 69.9874L97.8113 71.3349L97.8051 71.3409C97.7485 71.3963 97.6723 71.4268 97.5932 71.4258C97.5141 71.4248 97.4387 71.3924 97.3834 71.3357L97.3827 71.3349L96.043 69.9484L96.2354 70.0283L92.6008 69.96L92.5939 69.9599C92.5676 69.9595 92.5415 69.9539 92.5173 69.9434C92.4931 69.9329 92.4712 69.9177 92.4529 69.8987C92.4346 69.8797 92.4201 69.8573 92.4105 69.8327C92.4008 69.8081 92.396 69.7818 92.3965 69.7554C92.4211 68.0705 92.4621 66.3856 92.4642 64.7007L92.4795 62.1733C92.4889 61.3309 92.4769 60.4885 92.4758 59.6461C92.4758 59.6129 92.489 59.581 92.5124 59.5575C92.5358 59.534 92.5676 59.5208 92.6008 59.5208C95.3896 59.5069 98.188 59.4299 100.999 59.3828C103.811 59.3209 106.63 59.3037 109.43 59.3253C112.229 59.3468 115.026 59.3728 117.791 59.4312C120.561 59.4799 123.315 59.5368 126.021 59.6184V59.6184Z" fill="#1E1E22"/>
</g>
<defs>
<clipPath id="clip0">
<rect width="238" height="238" fill="white"/>
</clipPath>
</defs>
</svg>
