<svg width="236" height="236" viewBox="0 0 236 236" fill="none" xmlns="http://www.w3.org/2000/svg">
<g clip-path="url(#clip0)">
<path d="M163.667 65.1373C182.075 79.0613 205.203 88.7373 208.625 102.779C212.165 116.821 195.881 135.229 181.013 148.445C166.263 161.779 153.047 169.921 140.303 171.101C127.441 172.163 115.051 166.263 99.5926 162.959C84.2526 159.773 65.8446 159.301 59.3546 150.569C52.9826 141.955 58.5286 125.199 58.7646 104.785C59.1186 84.2533 54.1626 60.0633 63.1306 44.4873C72.0986 28.9113 94.9906 21.8313 113.281 27.3773C131.571 32.9233 145.259 51.0953 163.667 65.1373Z" fill="#F5F5F5"/>
<path d="M135.215 58.3802C135.36 58.8788 135.449 59.2397 135.462 59.2921C135.528 59.5421 135.627 59.7825 135.755 60.0073C135.788 60.0664 135.818 60.1287 135.847 60.191C140.494 60.1156 145.141 60.0259 149.79 59.922C149.995 59.6891 150.189 59.4824 150.37 59.2921C150.591 59.0592 150.795 58.8591 150.983 58.6885C145.727 58.5671 140.471 58.4644 135.215 58.3802ZM146.791 150.63C135.109 150.148 123.43 149.885 111.751 149.751L102.992 149.672C100.076 149.639 97.1561 149.636 94.2364 149.636C91.3166 149.639 88.3969 149.619 85.4772 149.639L76.7213 149.711L67.9621 149.846L65.774 149.879L64.6799 149.898L64.2054 149.905L64.2021 149.495L64.1757 147.313C64.1065 141.5 64.0537 135.69 63.922 129.877L63.4672 112.441C63.3288 106.627 63.2102 100.814 63.2102 95.0012C63.1805 92.0946 63.2299 89.1913 63.2398 86.2847C63.2892 83.3781 63.3222 80.4715 63.4112 77.5649L63.9352 60.5289C63.9419 60.5178 63.9517 60.5089 63.9634 60.5031C63.975 60.4973 63.9881 60.4949 64.0011 60.4961C64.0068 60.4956 64.0125 60.4968 64.0175 60.4994H64.0241L64.1032 60.5027L64.6502 60.5092L66.8384 60.5289L71.218 60.5683L75.5975 60.6044L79.9771 60.6142C85.8166 60.6405 91.6527 60.6044 97.4922 60.5781L106.251 60.5388L115.007 60.4568C118.329 60.4338 121.651 60.3988 124.973 60.3518C124.933 60.2435 124.897 60.132 124.864 60.0204C124.792 59.7827 124.742 59.5389 124.715 59.2921C124.67 58.9355 124.706 58.5733 124.821 58.2325C121.549 58.1866 118.277 58.1516 115.007 58.1275L106.251 58.0455L97.4922 58.0062C91.6527 57.9799 85.8166 57.9438 79.9771 57.9701L75.5975 57.9799L71.218 58.016L66.8384 58.0554L64.6502 58.075L64.1032 58.0816L64.034 58.0849L63.9088 58.0882C63.6425 58.1084 63.3805 58.167 63.1311 58.2621C62.803 58.3942 62.5073 58.595 62.2639 58.8508C62.0206 59.1066 61.8353 59.4115 61.7207 59.7449C61.6628 59.9105 61.6241 60.0822 61.6053 60.2566C61.5948 60.3426 61.5892 60.4292 61.5888 60.5158L61.5921 60.6044V60.6733L61.6053 61.2179L61.635 62.307L61.6943 64.4886L61.8293 68.8452L62.093 77.5649C62.182 80.4715 62.215 83.3781 62.2677 86.2847C62.2743 89.1913 62.3237 92.0946 62.2973 95.0012C62.2973 100.814 62.1787 106.627 62.0403 112.441L61.5855 129.877C61.4504 135.69 61.3977 141.5 61.3285 147.313L61.3054 149.495L61.2988 150.039V150.105L61.3021 150.246C61.3054 150.341 61.3153 150.436 61.3285 150.535C61.358 150.728 61.4089 150.917 61.4801 151.099C61.6206 151.465 61.8392 151.798 62.1208 152.072C62.4023 152.347 62.7402 152.558 63.1113 152.69C63.2967 152.757 63.489 152.803 63.6847 152.828C63.782 152.84 63.8799 152.848 63.978 152.851L64.1493 152.854H64.6964L65.7905 152.857L67.982 152.861L76.7411 152.864L85.497 152.811C88.4167 152.785 91.3364 152.726 94.2562 152.683C97.1759 152.641 100.092 152.595 103.012 152.523L111.771 152.313C123.447 152.008 135.119 151.578 146.795 150.925C146.833 150.922 146.868 150.906 146.894 150.878C146.92 150.85 146.934 150.814 146.933 150.776C146.933 150.738 146.918 150.702 146.892 150.675C146.865 150.648 146.829 150.631 146.791 150.63L146.791 150.63ZM132.967 58.3441C132.819 58.3408 132.674 58.3408 132.526 58.3375C132.14 58.3309 131.754 58.3276 131.369 58.3211C131.425 58.3998 131.486 58.4754 131.55 58.5475C132.16 59.2397 132.858 59.0067 132.967 58.5048C132.976 58.4516 132.976 58.3973 132.967 58.3441H132.967Z" fill="#1E1E22"/>
<path d="M153.338 42.166C153.341 42.1843 153.36 42.1733 153.349 42.1856L153.327 42.2179L153.286 42.2832C153.26 42.3276 153.232 42.3707 153.208 42.4163C153.156 42.5057 153.109 42.5971 153.063 42.6895C152.973 42.8742 152.89 43.0622 152.817 43.2533C152.673 43.6348 152.576 44.0319 152.527 44.4363C152.425 45.2341 152.543 46.0444 152.867 46.781L152.87 46.7878C152.874 46.7988 152.877 46.8102 152.879 46.8219C152.964 47.2022 152.962 47.5967 152.873 47.9762C152.84 48.0771 152.794 48.1737 152.738 48.2638L152.607 48.4898L152.352 48.9447C152.269 49.0964 152.189 49.2492 152.117 49.401C152.082 49.4766 152.048 49.5527 152.022 49.624C152.01 49.6557 151.999 49.6881 151.991 49.721C151.988 49.7324 151.987 49.7446 151.987 49.7446C151.982 49.7457 152.001 49.7334 151.957 49.6488C151.927 49.6024 151.88 49.5691 151.827 49.5557L151.852 49.5613L151.907 49.5714L152.024 49.5872C152.103 49.5957 152.182 49.6003 152.262 49.6008C152.413 49.6044 152.563 49.5866 152.709 49.548C152.77 49.5298 152.837 49.5345 152.895 49.5613C152.954 49.5882 153.001 49.6352 153.027 49.6938L153.031 49.703C153.246 50.1761 153.496 50.6324 153.779 51.068C154.057 51.5005 154.379 51.9037 154.739 52.2714C155.072 52.6291 155.488 52.9009 155.951 53.0635C156.174 53.1313 156.408 53.1544 156.64 53.1313C156.872 53.1083 157.098 53.0396 157.303 52.9293L157.32 52.921C157.373 52.8954 157.433 52.8889 157.49 52.9028C157.547 52.9166 157.597 52.9499 157.632 52.9968C157.926 53.3889 158.198 53.7962 158.447 54.2171C158.573 54.4307 158.688 54.6508 158.791 54.8763C158.91 55.1176 158.98 55.3801 158.996 55.6486L158.929 55.5042L160.903 57.2676C161.564 57.8519 162.231 58.4302 162.902 59.0022L164.929 60.7045C165.602 61.275 166.29 61.8276 166.973 62.3867L166.71 62.4936L166.956 58.7518L167.233 55.0126L167.348 55.276C166.905 54.9336 166.492 54.5783 166.084 54.2066C165.678 53.8345 165.283 53.4499 164.91 53.0399C164.53 52.6316 164.179 52.1973 163.859 51.7403C163.526 51.2715 163.259 50.7597 163.065 50.219L163.229 50.4168C162.683 50.113 162.152 49.7818 161.64 49.4245C161.385 49.2402 161.134 49.0465 160.892 48.8317C160.615 48.6039 160.389 48.3222 160.226 48.0038C160.199 47.9453 160.19 47.8796 160.201 47.8159C160.212 47.7521 160.243 47.6934 160.289 47.6476L160.309 47.6278C160.473 47.4563 160.607 47.2575 160.703 47.0405C160.803 46.8175 160.866 46.5798 160.889 46.3367C160.908 46.0896 160.888 45.8412 160.83 45.6003C160.798 45.4772 160.758 45.3563 160.71 45.2384C160.67 45.1248 160.618 45.0155 160.556 44.9119C160.447 44.7251 160.274 44.5837 160.068 44.5139C159.863 44.4442 159.639 44.4506 159.438 44.5321C159.054 44.7018 158.888 45.2383 158.842 45.7574L158.841 45.7722C158.838 45.8025 158.83 45.832 158.815 45.859C158.801 45.886 158.782 45.9099 158.759 45.9295C158.735 45.949 158.708 45.9638 158.679 45.973C158.65 45.9821 158.619 45.9854 158.589 45.9828C158.578 45.9818 158.568 45.9801 158.557 45.9778C158.003 45.8483 157.459 45.6767 156.931 45.4644C156.402 45.259 155.894 45.0056 155.412 44.7073C154.928 44.4093 154.489 44.0432 154.11 43.6202C153.738 43.205 153.473 42.7059 153.338 42.166ZM153.35 42.1016C153.56 42.6168 153.867 43.087 154.255 43.4867C154.647 43.8636 155.09 44.1847 155.57 44.441C156.049 44.7039 156.55 44.9224 157.069 45.0936C157.583 45.27 158.11 45.4073 158.645 45.5043L158.36 45.7247C158.369 45.4156 158.428 45.11 158.536 44.8199C158.653 44.4916 158.888 44.2176 159.195 44.0503C159.354 43.9698 159.527 43.9213 159.705 43.9075C159.883 43.8938 160.062 43.9151 160.231 43.9703C160.563 44.0791 160.85 44.2929 161.049 44.579C161.138 44.7137 161.213 44.8572 161.273 45.0072C161.336 45.1489 161.389 45.2945 161.432 45.4432C161.516 45.7487 161.552 46.0655 161.537 46.382C161.518 46.7019 161.442 47.0158 161.313 47.3095C161.185 47.6113 161.001 47.8869 160.772 48.1222L160.854 47.7463C160.985 47.9647 161.153 48.1579 161.352 48.3167C161.57 48.5037 161.806 48.6811 162.049 48.8514C162.539 49.1941 163.046 49.5122 163.568 49.8043C163.645 49.848 163.704 49.9184 163.732 50.0022C163.908 50.4804 164.143 50.9353 164.43 51.3566C164.724 51.7934 165.049 52.2093 165.401 52.6012C165.751 53.0003 166.127 53.3798 166.515 53.7477C166.902 54.1133 167.306 54.4737 167.716 54.8018L167.724 54.8082C167.762 54.8389 167.792 54.8784 167.811 54.9233C167.83 54.9681 167.837 55.0169 167.832 55.0653L167.445 58.7948L167.028 62.5216L167.027 62.5282C167.024 62.5569 167.013 62.5842 166.995 62.607C166.978 62.6299 166.954 62.6475 166.927 62.6578C166.9 62.6682 166.87 62.6709 166.842 62.6658C166.813 62.6606 166.787 62.6478 166.765 62.6286C166.104 62.0445 165.448 61.454 164.777 60.8812L162.772 59.154C162.098 58.5845 161.42 58.0195 160.739 57.4592L158.681 55.793C158.662 55.7778 158.647 55.7589 158.635 55.7375C158.624 55.7161 158.617 55.6926 158.616 55.6685L158.614 55.6486C158.584 55.4393 158.516 55.2373 158.412 55.0526C158.306 54.8471 158.189 54.6471 158.061 54.4537C157.802 54.0618 157.521 53.6838 157.222 53.3213L157.551 53.3888C157.288 53.5366 156.999 53.6356 156.7 53.6811C156.395 53.7229 156.084 53.6998 155.789 53.6133C155.229 53.4333 154.724 53.1149 154.321 52.6879C153.93 52.2902 153.587 51.8485 153.298 51.3717C153.006 50.9041 152.751 50.4149 152.534 49.9085L152.857 50.0635C152.659 50.1135 152.456 50.1348 152.253 50.1267C152.155 50.1241 152.058 50.1166 151.962 50.1043L151.816 50.0815L151.741 50.0661L151.702 50.0568C151.666 50.0469 151.632 50.0313 151.601 50.0108C151.568 49.9885 151.541 49.9596 151.52 49.926C151.479 49.859 151.462 49.7801 151.472 49.7022C151.475 49.6663 151.481 49.6308 151.491 49.5959C151.505 49.5438 151.522 49.4924 151.542 49.4422C151.579 49.349 151.619 49.2648 151.66 49.1818C151.742 49.0166 151.829 48.8589 151.918 48.7032C152.006 48.5471 152.099 48.3948 152.196 48.2444L152.34 48.0193C152.382 47.9626 152.415 47.901 152.441 47.8358C152.522 47.529 152.536 47.2085 152.482 46.8959L152.494 46.9367C152.26 46.3294 152.152 45.6813 152.175 45.0312C152.191 44.8173 152.219 44.6046 152.26 44.3942C152.343 43.9772 152.475 43.5714 152.653 43.1854C152.742 42.9941 152.842 42.808 152.952 42.6282C153.008 42.5387 153.065 42.4505 153.126 42.3648C153.155 42.3212 153.188 42.2798 153.219 42.2374L153.268 42.175L153.293 42.1442C153.307 42.1244 153.327 42.1095 153.35 42.1016Z" fill="#1E1E22"/>
<path d="M159.876 48.9414C159.854 49.5266 159.737 50.1044 159.53 50.6527C159.429 50.9306 159.299 51.1972 159.143 51.4484C159.063 51.577 158.967 51.6958 158.859 51.8024C158.808 51.8609 158.744 51.9079 158.673 51.9403C158.602 51.9726 158.525 51.9895 158.447 51.9899C158.573 51.9293 158.674 51.8272 158.733 51.7011C158.802 51.5806 158.863 51.456 158.916 51.328C159.023 51.0697 159.125 50.806 159.221 50.5392C159.411 49.9955 159.63 49.4622 159.876 48.9414Z" fill="#1E1E22"/>
<path d="M152.51 46.3836C152.644 46.2765 152.797 46.196 152.961 46.1465C153.122 46.0943 153.29 46.0637 153.46 46.0556C153.632 46.0498 153.805 46.0707 153.971 46.1174C154.14 46.1649 154.294 46.2569 154.416 46.3836L153.932 46.3704C153.777 46.3748 153.626 46.3757 153.473 46.3833C153.152 46.4034 152.83 46.4035 152.51 46.3836Z" fill="#1E1E22"/>
<path d="M153.709 51.4761C153.996 51.2803 154.272 51.0687 154.535 50.8422C154.652 50.7318 154.757 50.609 154.848 50.476C154.94 50.3275 155.017 50.1708 155.08 50.0078C155.143 50.1942 155.144 50.3963 155.081 50.5831C155.016 50.7723 154.906 50.943 154.761 51.0807C154.617 51.2111 154.45 51.3137 154.269 51.3835C154.092 51.4559 153.9 51.4876 153.709 51.4761Z" fill="#1E1E22"/>
<path d="M153.751 47.9448C153.875 47.9405 153.993 47.8885 154.079 47.7996C154.165 47.7108 154.213 47.5921 154.213 47.4685C154.213 47.345 154.165 47.2262 154.079 47.1374C153.993 47.0485 153.875 46.9965 153.751 46.9922C153.627 46.9965 153.51 47.0485 153.423 47.1374C153.337 47.2262 153.289 47.345 153.289 47.4685C153.289 47.5921 153.337 47.7108 153.423 47.7996C153.51 47.8885 153.627 47.9405 153.751 47.9448Z" fill="#1E1E22"/>
<path d="M163.398 50.1118C168.549 48.0929 164.317 40.9664 164.317 40.9664C165.133 41.7793 169.063 37.6131 164.317 36.5461C159.57 35.4791 160.948 39.2389 160.948 39.2389C155.589 37.6639 153.344 42.135 153.344 42.135C153.344 42.135 153.741 44.4411 158.601 45.7423C158.601 45.7423 158.875 43.1691 160.792 44.7323C161.121 45.2046 161.276 45.7759 161.23 46.3491C161.184 46.9222 160.94 47.4618 160.54 47.8762C160.54 47.8762 162.884 50.3133 163.398 50.1118Z" fill="#1E1E22"/>
<path d="M158.807 55.6824C157.746 55.8405 156.695 56.0595 155.659 56.3384C155.146 56.4732 154.644 56.6428 154.154 56.8461C153.688 57.009 153.279 57.3023 152.975 57.6909L152.889 57.3854C153.459 57.7321 153.95 58.1937 154.33 58.7406C154.522 59.0059 154.695 59.285 154.846 59.5757C154.984 59.8708 155.113 60.1727 155.223 60.479C155.621 61.7177 155.732 63.0298 155.549 64.3173C155.531 64.477 155.521 64.6381 155.497 64.7966L155.4 65.2668L155.196 66.2046C154.995 66.8092 154.821 67.4246 154.581 68.0121C154.321 68.5914 154.094 69.1849 153.808 69.7493L152.923 71.4255L152.925 71.2769C153.442 72.3574 153.97 73.4328 154.508 74.5031L154.452 74.4529C155.159 74.7093 155.882 74.9224 156.616 75.0911C157.348 75.2697 158.089 75.4127 158.832 75.5336C160.321 75.7567 161.826 75.8513 163.331 75.8166L164.454 75.7649L165.57 75.6436C166.309 75.5475 167.044 75.414 167.77 75.2439L168.848 74.9529C169.203 74.8469 169.546 74.7016 169.896 74.5783L170.418 74.3859C170.588 74.3123 170.752 74.2245 170.919 74.1446L171.915 73.6553L171.767 73.8266C172.287 72.3175 172.727 70.7822 173.086 69.2271C173.457 67.6782 173.71 66.1037 173.842 64.5169C173.956 62.943 173.932 61.328 173.436 59.849C173.206 59.1111 172.81 58.4349 172.278 57.8716C171.725 57.3221 171.035 56.9276 170.279 56.728L170.269 56.7252C170.26 56.7225 170.251 56.7187 170.243 56.7138L167.515 55.0687C167.508 55.0643 167.503 55.0572 167.5 55.049C167.498 55.0408 167.499 55.032 167.503 55.0246C167.508 55.0172 167.515 55.0116 167.523 55.0092C167.531 55.0068 167.54 55.0076 167.547 55.0115L170.383 56.4656L170.346 56.4515C171.172 56.6259 171.936 57.0164 172.56 57.5828C173.172 58.1656 173.636 58.8841 173.916 59.6797C174.493 61.2547 174.56 62.9309 174.491 64.5572C174.39 66.1836 174.149 67.7984 173.772 69.3841C173.408 70.9686 172.943 72.5285 172.38 74.0545L172.374 74.0704C172.349 74.1388 172.298 74.1946 172.232 74.2259L171.184 74.7201C171.009 74.8004 170.837 74.8886 170.659 74.9622L170.113 75.154C169.748 75.2765 169.39 75.4206 169.019 75.5245L167.898 75.7984C166.398 76.1172 164.867 76.2626 163.333 76.2315C161.81 76.2003 160.291 76.047 158.792 75.7731C157.293 75.513 155.817 75.1367 154.377 74.6477C154.354 74.6397 154.335 74.6231 154.323 74.6012L154.321 74.5974C153.772 73.5329 153.211 72.4744 152.638 71.4219C152.627 71.4012 152.621 71.3782 152.62 71.3547C152.619 71.3312 152.624 71.3078 152.634 71.2864L152.64 71.2733L153.436 69.5787C153.692 69.0109 153.888 68.4191 154.116 67.8423C154.222 67.5513 154.313 67.2551 154.389 66.9549L154.651 66.0657L154.826 65.16L154.917 64.7083C154.939 64.5568 154.948 64.4041 154.964 64.2521C155.139 63.0458 155.052 61.8162 154.709 60.6462C154.612 60.3618 154.497 60.0821 154.376 59.8075C154.242 59.5387 154.089 59.2801 153.917 59.0338C153.583 58.5421 153.162 58.1156 152.674 57.7756L152.649 57.7592C152.603 57.7284 152.571 57.6811 152.559 57.6271C152.548 57.5731 152.558 57.5168 152.587 57.4701C152.758 57.2178 152.986 57.009 153.252 56.8604C153.494 56.7186 153.748 56.5976 154.011 56.4988C154.524 56.3091 155.051 56.1575 155.586 56.0452C156.646 55.8272 157.72 55.6842 158.801 55.6171C158.809 55.6166 158.818 55.6196 158.824 55.6254C158.831 55.6311 158.835 55.6393 158.835 55.6479C158.836 55.6562 158.833 55.6642 158.828 55.6705C158.823 55.6769 158.815 55.6811 158.807 55.6824Z" fill="#1E1E22"/>
<path d="M136.395 64.3679C137.363 64.3023 138.336 64.2498 139.304 64.2071C141.058 64.1251 142.807 64.0792 144.561 64.0431C145.256 64.0333 145.951 64.0267 146.647 64.0234C146.502 64.2301 146.36 64.4401 146.212 64.6599C145.665 64.6763 145.118 64.6894 144.57 64.6992C142.821 64.7222 141.067 64.7386 139.314 64.7189C138.395 64.7091 137.479 64.6927 136.559 64.6664L136.395 64.3679Z" fill="#1E1E22"/>
<path d="M143.114 69.5462C143.071 69.6151 143.028 69.684 142.989 69.7562L142.274 69.7923C141.697 69.8218 141.12 69.8448 140.544 69.8645C140.455 69.7661 140.366 69.6644 140.273 69.5594C140.939 69.5462 141.601 69.5364 142.267 69.5397L143.114 69.5462Z" fill="#1E1E22"/>
<path d="M127.213 63.6236C126.318 63.6455 125.424 63.6597 124.533 63.7063C124.088 63.7283 123.643 63.7634 123.204 63.8039C122.984 63.826 122.765 63.852 122.555 63.8907C122.453 63.9083 122.352 63.9323 122.253 63.9626C122.213 63.9746 122.173 63.9907 122.136 64.0107C122.128 64.0148 122.12 64.02 122.114 64.0262C122.124 64.0175 122.132 64.0068 122.137 63.9948C122.142 63.9827 122.145 63.9697 122.145 63.9565L121.93 64.1554C121.866 64.1604 121.803 64.1726 121.741 64.192C121.69 64.2065 121.643 64.231 121.602 64.2638C121.591 64.2737 121.582 64.2856 121.575 64.2989C121.568 64.3123 121.565 64.3268 121.564 64.3416C121.562 64.3886 121.569 64.4355 121.585 64.4797C121.598 64.5298 121.595 64.5826 121.578 64.6312C121.56 64.6799 121.528 64.722 121.485 64.7519C121.402 64.8111 121.324 64.8773 121.253 64.9497C121.185 65.0163 121.127 65.0918 121.081 65.1741C121.047 65.2295 121.031 65.2941 121.036 65.3588C121.049 65.4155 121.081 65.4663 121.126 65.5038C121.175 65.5512 121.204 65.6157 121.207 65.6838C121.209 65.7519 121.185 65.8183 121.14 65.8693L121.13 65.8807C120.938 66.0945 120.784 66.4282 120.855 66.5747C120.9 66.6715 120.981 66.7476 121.08 66.7878C121.141 66.8182 121.204 66.8433 121.268 66.8627L121.528 66.9277C122.225 67.0971 122.923 67.2598 123.623 67.4158C124.323 67.5685 125.026 67.7093 125.728 67.8209C126.078 67.8785 126.429 67.9299 126.776 67.9633C127.105 68.0044 127.438 68.0072 127.767 67.9717L127.771 67.9711C127.84 67.9602 127.912 67.9725 127.974 68.006C128.036 68.0395 128.085 68.0923 128.114 68.1564C128.143 68.2205 128.15 68.2922 128.133 68.3606C128.117 68.429 128.079 68.4901 128.025 68.5347C127.656 68.8413 127.324 69.1896 127.036 69.5726C126.749 69.9342 126.551 70.3577 126.458 70.8091C126.425 71.0195 126.437 71.2344 126.493 71.44C126.548 71.6456 126.646 71.8375 126.78 72.0032C126.833 72.0688 126.902 72.1189 126.981 72.1482C127.06 72.1775 127.146 72.1848 127.228 72.1694C127.42 72.1282 127.589 72.0167 127.702 71.8571C127.764 71.7742 127.813 71.6822 127.847 71.5845C127.864 71.5351 127.878 71.4845 127.888 71.4329L127.935 71.2197C128.025 70.9403 128.19 70.6908 128.412 70.4984C128.835 70.142 129.356 69.9207 129.907 69.8635C130.18 69.8164 130.46 69.8379 130.722 69.9261C130.786 69.9512 130.85 69.9799 130.911 70.012C130.966 70.0461 131.024 70.0735 131.086 70.0934C131.199 70.1379 131.317 70.1686 131.437 70.1847C131.938 70.2461 132.445 70.1456 132.884 69.8981C132.461 70.2064 131.945 70.361 131.421 70.336C131.155 70.3301 130.894 70.1996 130.662 70.2171C130.426 70.2121 130.19 70.2207 129.956 70.2427C129.488 70.2997 129.048 70.4943 128.692 70.8017C128.53 70.9459 128.411 71.1316 128.347 71.3388L128.316 71.4975C128.307 71.5713 128.292 71.6443 128.271 71.7159C128.231 71.861 128.166 71.9984 128.081 72.1229C127.907 72.3888 127.637 72.5788 127.327 72.6545C127.16 72.6914 126.985 72.684 126.821 72.6331C126.657 72.5821 126.509 72.4894 126.392 72.364C126.192 72.144 126.043 71.8834 125.954 71.6003C125.869 71.3183 125.845 71.0214 125.883 70.7293C125.976 70.1797 126.198 69.6597 126.532 69.2121C126.844 68.7748 127.211 68.3795 127.625 68.0359L127.883 68.5989C127.496 68.6495 127.104 68.6525 126.717 68.6078C126.346 68.575 125.983 68.5256 125.622 68.4681C124.901 68.3472 124.19 68.1982 123.483 68.0376C122.776 67.8782 122.073 67.7018 121.376 67.5083L121.113 67.4355C121.005 67.4023 120.901 67.3585 120.802 67.3046C120.572 67.191 120.395 66.9929 120.308 66.7518C120.241 66.5098 120.267 66.2517 120.38 66.0274C120.47 65.8354 120.592 65.6597 120.74 65.5075L120.744 65.8843C120.616 65.758 120.534 65.592 120.513 65.4136C120.502 65.2411 120.545 65.0695 120.637 64.9229C120.712 64.8023 120.803 64.6925 120.908 64.5967C121.006 64.505 121.113 64.4224 121.227 64.3499L121.127 64.6221C121.091 64.506 121.083 64.3833 121.102 64.2634C121.126 64.126 121.2 64.002 121.308 63.914C121.4 63.8428 121.507 63.792 121.62 63.7652C121.721 63.7395 121.826 63.7266 121.93 63.727L121.716 63.9259C121.724 63.8438 121.764 63.768 121.826 63.7138C121.862 63.6835 121.902 63.658 121.944 63.638C122.007 63.6088 122.073 63.586 122.14 63.5699C122.257 63.5413 122.376 63.5201 122.495 63.5066C122.726 63.4783 122.953 63.4652 123.179 63.4559C123.632 63.4361 124.081 63.4481 124.53 63.4597C125.427 63.4884 126.321 63.5359 127.213 63.6236Z" fill="#1E1E22"/>
<path d="M126.498 64.667C125.724 64.6428 124.954 64.5624 124.192 64.4264C123.813 64.3596 123.434 64.2902 123.058 64.207C122.681 64.1283 122.31 64.03 121.93 63.943C122.318 63.9063 122.709 63.91 123.097 63.9539C123.483 63.9859 123.866 64.0418 124.247 64.1031C125.012 64.2254 125.765 64.4141 126.498 64.667Z" fill="#1E1E22"/>
<path d="M121.355 64.5508C122.118 64.5728 122.878 64.6635 123.624 64.8216C123.997 64.8999 124.368 64.9855 124.734 65.0937C124.917 65.1472 125.099 65.2069 125.279 65.2728C125.464 65.3314 125.639 65.4192 125.796 65.5329C125.613 65.4819 125.427 65.4471 125.239 65.4288L124.677 65.3434C124.302 65.2867 123.93 65.2153 123.559 65.1428C122.811 64.9988 122.074 64.801 121.355 64.5508Z" fill="#1E1E22"/>
<path d="M120.936 65.6953C121.846 65.7023 122.754 65.7885 123.65 65.9531C124.097 66.0348 124.543 66.1276 124.982 66.2526C125.433 66.3498 125.86 66.5361 126.237 66.8004C126.031 66.7096 125.814 66.6485 125.59 66.619L124.926 66.5023L123.592 66.2758C122.704 66.1126 121.815 65.9474 120.936 65.6953Z" fill="#1E1E22"/>
<path d="M158.635 55.039C160.111 55.0939 161.544 55.2342 162.975 55.2727C163.686 55.3048 164.397 55.2937 165.106 55.2395C165.821 55.2063 166.524 55.0416 167.179 54.7539C166.631 55.2778 165.935 55.6236 165.185 55.7454C164.452 55.8986 163.703 55.96 162.955 55.9281C162.215 55.9012 161.479 55.8145 160.754 55.6688C160.028 55.5311 159.318 55.3201 158.635 55.039Z" fill="#1E1E22"/>
<path d="M155.32 74.8477C155.436 75.5328 155.491 76.2268 155.484 76.9217C155.492 77.6166 155.437 78.3107 155.32 78.9957C155.202 78.3107 155.147 77.6166 155.155 76.9217C155.148 76.2268 155.203 75.5328 155.32 74.8477Z" fill="#1E1E22"/>
<path d="M170.099 74.8477C170.215 75.3915 170.271 75.9465 170.264 76.5025C170.271 77.0586 170.216 77.6137 170.099 78.1574C169.982 77.6137 169.927 77.0586 169.934 76.5025C169.927 75.9465 169.983 75.3915 170.099 74.8477Z" fill="#1E1E22"/>
<path d="M147.423 159.854C147.117 163.817 137.93 167.78 135.787 168.161C133.643 168.542 134.868 169.076 134.868 169.076C134.868 169.076 144.744 171.438 156.227 161.836C156.227 161.836 156.993 160.159 156.227 159.168C155.462 158.178 156.113 157.062 156.113 157.062" stroke="#1E1E22" stroke-width="1.24903" stroke-linecap="round" stroke-linejoin="round"/>
<path d="M156.228 159.168C158.065 161.531 155.616 169.99 155.616 169.99H153.855V166.484C153.855 166.484 151.099 166.637 146.895 169.332C143.608 171.44 138.346 171.399 136.204 171.281C135.83 171.266 135.464 171.164 135.137 170.982C134.81 170.801 134.53 170.546 134.319 170.237C133.256 168.613 135.787 168.161 135.787 168.161C135.787 168.161 136.394 168.368 139.007 167.89C144.583 166.856 149.803 164.43 154.18 160.84L156.228 159.168Z" fill="#1E1E22"/>
<path d="M141.916 165.57C142.248 165.645 142.548 165.823 142.773 166.078C142.999 166.326 143.161 166.625 143.247 166.949C143.339 167.279 143.339 167.627 143.248 167.958C143.163 168.292 142.962 168.586 142.681 168.788C142.579 168.44 142.543 168.172 142.472 167.917C142.413 167.665 142.356 167.435 142.291 167.199L142.1 166.461C142.034 166.196 141.969 165.919 141.916 165.57Z" fill="#1E1E22"/>
<path d="M145.32 163.199C145.742 163.33 146.126 163.562 146.437 163.875C146.753 164.182 147.008 164.547 147.187 164.949C147.368 165.368 147.448 165.823 147.422 166.278C147.392 166.734 147.205 167.166 146.893 167.501C146.833 167.11 146.751 166.723 146.647 166.341C146.54 165.995 146.418 165.671 146.28 165.339C146.133 165.01 145.976 164.678 145.811 164.33C145.647 163.98 145.478 163.619 145.32 163.199Z" fill="#1E1E22"/>
<path d="M171.017 157.862C170.711 161.825 161.524 165.788 159.38 166.169C157.237 166.55 158.462 167.084 158.462 167.084C158.462 167.084 168.337 169.446 179.821 159.844C179.821 159.844 180.586 158.167 179.821 157.176C179.055 156.185 179.707 155.07 179.707 155.07" stroke="#1E1E22" stroke-width="1.24903" stroke-linecap="round" stroke-linejoin="round"/>
<path d="M179.822 157.176C181.659 159.538 179.209 167.998 179.209 167.998H177.448V164.492C177.448 164.492 174.692 164.645 170.488 167.34C167.202 169.447 161.939 169.407 159.798 169.289C159.424 169.274 159.058 169.172 158.731 168.99C158.403 168.809 158.123 168.553 157.913 168.245C156.85 166.621 159.381 166.169 159.381 166.169C159.381 166.169 159.988 166.376 162.601 165.898C168.176 164.864 173.397 162.438 177.774 158.847L179.822 157.176Z" fill="#1E1E22"/>
<path d="M165.51 163.578C165.842 163.653 166.142 163.831 166.367 164.086C166.592 164.334 166.755 164.633 166.84 164.956C166.933 165.286 166.933 165.635 166.842 165.965C166.757 166.3 166.556 166.594 166.275 166.796C166.173 166.448 166.137 166.18 166.065 165.925C166.007 165.673 165.95 165.442 165.885 165.207L165.694 164.468C165.628 164.204 165.563 163.927 165.51 163.578Z" fill="#1E1E22"/>
<path d="M168.914 161.203C169.336 161.334 169.719 161.566 170.03 161.879C170.347 162.186 170.601 162.551 170.781 162.953C170.962 163.372 171.042 163.827 171.016 164.282C170.986 164.738 170.799 165.17 170.487 165.505C170.427 165.114 170.345 164.727 170.241 164.345C170.133 163.999 170.012 163.674 169.873 163.343C169.727 163.014 169.57 162.682 169.405 162.334C169.24 161.983 169.072 161.623 168.914 161.203Z" fill="#1E1E22"/>
<path d="M53.0559 168.664C52.6159 164.734 52.3875 160.804 52.2227 156.874C52.1842 155.891 52.1473 154.909 52.1212 153.926L52.1102 153.558L52.1048 153.374C52.1035 153.309 52.0993 153.265 52.1031 153.155C52.11 152.768 52.203 152.387 52.3754 152.04C52.5501 151.691 52.7989 151.384 53.1047 151.14C53.4105 150.896 53.7659 150.721 54.1463 150.627C54.3346 150.583 54.5267 150.557 54.7201 150.55L55.0905 150.537L55.8311 150.513L57.3124 150.466L60.2756 150.395L63.2392 150.351C63.7326 150.346 64.2274 150.346 64.7248 150.355L65.4695 150.365L65.6619 150.368C65.7599 150.373 65.8582 150.375 65.9557 150.389C66.1514 150.414 66.3437 150.46 66.5293 150.527C66.8983 150.659 67.2339 150.87 67.5126 151.145C67.7913 151.419 68.0064 151.751 68.1429 152.117C68.2114 152.298 68.2587 152.487 68.2836 152.679C68.3064 152.848 68.3139 153.019 68.3059 153.19L68.2839 153.926C68.2575 154.909 68.2218 155.891 68.1824 156.874C68.0183 160.804 67.7892 164.734 67.3464 168.664C66.9035 164.734 66.6743 160.804 66.5103 156.874C66.4709 155.891 66.4352 154.909 66.4088 153.926L66.3868 153.19C66.3885 153.114 66.3819 153.039 66.3671 152.966C66.358 152.914 66.3421 152.864 66.3198 152.817C66.2783 152.723 66.2166 152.639 66.139 152.571C66.0615 152.504 65.97 152.454 65.8709 152.425C65.8232 152.411 65.7742 152.403 65.7248 152.399L65.6494 152.397L65.4717 152.399L64.7361 152.408C64.2465 152.411 63.7544 152.424 63.2611 152.442L60.3042 152.511L54.5992 152.579C54.4976 152.598 54.4013 152.639 54.317 152.699C54.2327 152.758 54.1623 152.835 54.1106 152.925C54.0588 153.017 54.0262 153.119 54.0149 153.225C54.0094 153.274 54.0067 153.324 54.007 153.374L54.0016 153.558L53.9906 153.926C53.9646 154.909 53.9276 155.891 53.8891 156.874C53.7243 160.804 53.4959 164.734 53.0559 168.664Z" fill="#1E1E22"/>
<path d="M53.2601 172.066C58.1861 172.066 58.1943 164.445 53.2601 164.445C48.3341 164.445 48.3259 172.066 53.2601 172.066Z" fill="#1E1E22"/>
<path d="M67.5491 172.27C72.4751 172.27 72.4833 164.648 67.5491 164.648C62.6231 164.648 62.615 172.27 67.5491 172.27Z" fill="#1E1E22"/>
<path d="M68.2637 58.3315C68.3196 57.8224 68.4243 57.3199 68.5764 56.8307C68.6552 56.5812 68.7512 56.3375 68.8637 56.1012C68.9806 55.8424 69.148 55.6092 69.3563 55.4154C69.4864 55.2947 69.6495 55.2151 69.825 55.1866C70.0151 55.1616 70.2079 55.2047 70.3689 55.3081C70.6176 55.4787 70.8249 55.7025 70.9755 55.963C71.2435 56.4248 71.4511 56.9189 71.593 57.4333C71.7272 57.9432 71.8058 58.4661 71.8274 58.9929C71.8362 59.5256 71.8127 60.0166 71.7873 60.5245C71.739 61.5337 71.6673 62.5428 71.5301 63.552C71.3929 62.5428 71.3212 61.5337 71.2729 60.5245C71.2375 60.0236 71.2479 59.5046 71.2044 59.0293C71.1698 58.5476 71.0871 58.0705 70.9574 57.6052C70.8374 57.1433 70.6633 56.6972 70.4384 56.2759C70.3474 56.0914 70.2195 55.9273 70.0626 55.7937C70.0133 55.753 69.9512 55.7309 69.8872 55.7313C69.8099 55.7355 69.736 55.7644 69.6764 55.8136C69.5016 55.9527 69.353 56.1217 69.2375 56.3126C69.1032 56.5173 68.9821 56.7304 68.875 56.9504C68.6485 57.3936 68.4567 57.8603 68.2637 58.3315Z" fill="#1E1E22"/>
<path d="M78.8027 58.3315C78.8587 57.8224 78.9634 57.3199 79.1155 56.8307C79.1943 56.5812 79.2902 56.3375 79.4027 56.1012C79.5196 55.8424 79.6871 55.6092 79.8954 55.4154C80.0254 55.2947 80.1885 55.215 80.3641 55.1866C80.5541 55.1616 80.7469 55.2047 80.908 55.3081C81.1567 55.4787 81.3639 55.7025 81.5145 55.963C81.7825 56.4248 81.9901 56.9189 82.1321 57.4333C82.2663 57.9432 82.3448 58.4661 82.3663 58.9929C82.3752 59.5256 82.3518 60.0166 82.3263 60.5245C82.278 61.5337 82.2063 62.5428 82.0691 63.552C81.932 62.5428 81.8603 61.5337 81.812 60.5245C81.7766 60.0236 81.787 59.5046 81.7434 59.0293C81.7089 58.5476 81.6261 58.0705 81.4964 57.6052C81.3765 57.1433 81.2023 56.6972 80.9774 56.2759C80.8864 56.0914 80.7585 55.9273 80.6016 55.7937C80.5523 55.753 80.4902 55.7309 80.4262 55.7313C80.3489 55.7355 80.2751 55.7644 80.2155 55.8136C80.0407 55.9527 79.892 56.1217 79.7766 56.3126C79.6422 56.5173 79.5211 56.7303 79.414 56.9504C79.1875 57.3936 78.9957 57.8603 78.8027 58.3315Z" fill="#1E1E22"/>
<path d="M90.7227 58.3315C90.7786 57.8224 90.8833 57.3199 91.0353 56.8307C91.1142 56.5812 91.2102 56.3375 91.3226 56.1012C91.4395 55.8423 91.607 55.6092 91.8153 55.4154C91.9453 55.2946 92.1085 55.215 92.284 55.1866C92.474 55.1616 92.6668 55.2047 92.8279 55.3081C93.0766 55.4787 93.2838 55.7025 93.4344 55.963C93.7025 56.4248 93.91 56.9189 94.052 57.4333C94.1862 57.9432 94.2647 58.4661 94.2863 58.9929C94.2952 59.5256 94.2716 60.0166 94.2462 60.5245C94.1979 61.5337 94.1262 62.5428 93.9891 63.552C93.8519 62.5428 93.7801 61.5337 93.7318 60.5245C93.6964 60.0236 93.7068 59.5046 93.6633 59.0293C93.6287 58.5476 93.546 58.0705 93.4164 57.6052C93.2964 57.1433 93.1222 56.6972 92.8974 56.2759C92.8063 56.0914 92.6784 55.9273 92.5215 55.7937C92.4722 55.753 92.4101 55.7309 92.3461 55.7313C92.2688 55.7355 92.1949 55.7644 92.1353 55.8136C91.9605 55.9527 91.8119 56.1217 91.6965 56.3126C91.5621 56.5173 91.441 56.7303 91.3338 56.9504C91.1074 57.3936 90.9156 57.8603 90.7227 58.3315Z" fill="#1E1E22"/>
<path d="M103.254 58.3315C103.31 57.8224 103.415 57.3199 103.567 56.8307C103.645 56.5812 103.741 56.3375 103.854 56.1012C103.971 55.8424 104.138 55.6092 104.347 55.4154C104.477 55.2947 104.64 55.2151 104.815 55.1866C105.005 55.1616 105.198 55.2047 105.359 55.3081C105.608 55.4787 105.815 55.7025 105.966 55.963C106.234 56.4248 106.441 56.9189 106.583 57.4333C106.717 57.9432 106.796 58.4661 106.818 58.9929C106.826 59.5256 106.803 60.0166 106.777 60.5245C106.729 61.5337 106.657 62.5428 106.52 63.552C106.383 62.5428 106.311 61.5337 106.263 60.5245C106.228 60.0236 106.238 59.5046 106.195 59.0293C106.16 58.5476 106.077 58.0705 105.948 57.6052C105.828 57.1433 105.653 56.6972 105.429 56.2759C105.338 56.0914 105.21 55.9273 105.053 55.7937C105.004 55.753 104.941 55.7309 104.877 55.7313C104.8 55.7355 104.726 55.7644 104.667 55.8136C104.492 55.9527 104.343 56.1217 104.228 56.3126C104.093 56.5173 103.972 56.7303 103.865 56.9504C103.639 57.3936 103.447 57.8603 103.254 58.3315Z" fill="#1E1E22"/>
<path d="M66.4277 67.5634C67.1771 66.688 67.9806 65.8726 68.797 65.0713C69.2101 64.6762 69.6191 64.2763 70.042 63.8919C70.4634 63.5058 70.8829 63.1177 71.3152 62.7437L71.3211 62.7386C71.3529 62.7111 71.3899 62.69 71.4299 62.6767C71.47 62.6633 71.5122 62.658 71.5543 62.6609C71.5964 62.6639 71.6375 62.675 71.6753 62.6938C71.7131 62.7125 71.7468 62.7385 71.7745 62.7702C71.7838 62.7811 71.7925 62.7925 71.8004 62.8044C72.3064 63.5707 72.7939 64.3494 73.2628 65.1403C73.4998 65.5341 73.726 65.935 73.9506 66.3371C74.1732 66.7404 74.3913 67.1466 74.5938 67.5634C74.2858 67.2166 73.9935 66.8594 73.7058 66.4992C73.4199 66.1378 73.1358 65.7753 72.8625 65.4055C72.3107 64.6695 71.7774 63.9212 71.2626 63.1607L71.7478 63.2214C71.3294 63.6108 70.8983 63.9861 70.4691 64.3636C70.0415 64.7427 69.5997 65.1063 69.1622 65.4746C68.2774 66.2002 67.3797 66.9117 66.4277 67.5634Z" fill="#1E1E22"/>
<path d="M76.3516 67.5634C77.1008 66.6881 77.9044 65.8726 78.7207 65.0713C79.1339 64.6762 79.5428 64.2763 79.9657 63.8919C80.3871 63.5059 80.8067 63.1177 81.239 62.7437L81.2448 62.7386C81.2766 62.7111 81.3136 62.69 81.3537 62.6767C81.3937 62.6634 81.436 62.658 81.4781 62.6609C81.5202 62.6639 81.5613 62.675 81.5991 62.6938C81.6368 62.7125 81.6705 62.7385 81.6982 62.7702C81.7076 62.7811 81.7162 62.7925 81.7242 62.8044C82.2302 63.5707 82.7177 64.3494 83.1865 65.1404C83.4236 65.5341 83.6498 65.935 83.8744 66.3371C84.0969 66.7404 84.3151 67.1467 84.5175 67.5634C84.2095 67.2166 83.9173 66.8594 83.6295 66.4992C83.3437 66.1378 83.0596 65.7753 82.7862 65.4056C82.2344 64.6695 81.7011 63.9212 81.1863 63.1607L81.6716 63.2214C81.2532 63.6108 80.8221 63.9862 80.3929 64.3636C79.9652 64.7427 79.5234 65.1063 79.086 65.4747C78.2011 66.2002 77.3034 66.9118 76.3516 67.5634Z" fill="#1E1E22"/>
<path d="M88.2734 67.5634C89.0227 66.688 89.8263 65.8726 90.6426 65.0713C91.0558 64.6762 91.4647 64.2763 91.8876 63.8919C92.309 63.5059 92.7285 63.1177 93.1608 62.7437L93.1667 62.7386C93.1985 62.7111 93.2355 62.69 93.2755 62.6767C93.3156 62.6634 93.3578 62.658 93.3999 62.6609C93.442 62.6639 93.4832 62.675 93.5209 62.6938C93.5587 62.7125 93.5924 62.7385 93.6201 62.7702C93.6294 62.7811 93.6381 62.7925 93.6461 62.8044C94.1521 63.5707 94.6396 64.3494 95.1084 65.1403C95.3455 65.5341 95.5717 65.935 95.7962 66.3371C96.0188 66.7404 96.237 67.1466 96.4394 67.5634C96.1314 67.2166 95.8392 66.8594 95.5514 66.4992C95.2656 66.1378 94.9815 65.7753 94.7081 65.4056C94.1563 64.6695 93.623 63.9212 93.1082 63.1607L93.5934 63.2214C93.1751 63.6108 92.744 63.9861 92.3148 64.3636C91.8871 64.7427 91.4453 65.1063 91.0079 65.4747C90.123 66.2002 89.2253 66.9117 88.2734 67.5634Z" fill="#1E1E22"/>
<path d="M101.363 67.5634C102.113 66.688 102.916 65.8726 103.732 65.0713C104.146 64.6762 104.555 64.2763 104.977 63.8919C105.399 63.5058 105.818 63.1177 106.251 62.7437L106.257 62.7386C106.288 62.7111 106.325 62.69 106.365 62.6767C106.405 62.6633 106.448 62.658 106.49 62.6609C106.532 62.6639 106.573 62.675 106.611 62.6938C106.649 62.7125 106.682 62.7385 106.71 62.7702C106.719 62.7811 106.728 62.7925 106.736 62.8044C107.242 63.5707 107.729 64.3494 108.198 65.1403C108.435 65.5341 108.662 65.935 108.886 66.3371C109.109 66.7404 109.327 67.1466 109.529 67.5634C109.221 67.2166 108.929 66.8594 108.641 66.4992C108.355 66.1378 108.071 65.7753 107.798 65.4055C107.246 64.6695 106.713 63.9212 106.198 63.1607L106.683 63.2214C106.265 63.6108 105.834 63.9861 105.405 64.3636C104.977 64.7427 104.535 65.1063 104.098 65.4746C103.213 66.2002 102.315 66.9117 101.363 67.5634Z" fill="#1E1E22"/>
<path d="M68.8985 87.7284H68.8194C68.8571 87.851 68.9068 87.9697 68.9677 88.0827C68.9298 87.968 68.9066 87.8489 68.8985 87.7284ZM68.8985 87.7284H68.8194C68.8571 87.851 68.9068 87.9697 68.9677 88.0827C68.9298 87.968 68.9066 87.8489 68.8985 87.7284ZM68.8985 87.7284H68.8194C68.8571 87.851 68.9068 87.9697 68.9677 88.0827C68.9298 87.968 68.9066 87.8489 68.8985 87.7284ZM68.8985 87.7284H68.8194C68.8571 87.851 68.9068 87.9697 68.9677 88.0827C68.9298 87.968 68.9066 87.8489 68.8985 87.7284ZM68.8985 87.7284H68.8194C68.8571 87.851 68.9068 87.9697 68.9677 88.0827C68.9298 87.968 68.9066 87.8489 68.8985 87.7284ZM75.3081 102.917C74.8665 100.795 74.4666 98.6647 74.1085 96.5269C73.7427 94.3945 73.4132 92.2523 73.0936 90.1101C72.7838 87.9679 72.4839 85.8224 72.2203 83.6736C71.95 81.5248 71.7194 79.3706 71.5282 77.2109C71.9698 79.3334 72.3697 81.4636 72.7278 83.6015C73.0936 85.7338 73.4231 87.876 73.7427 90.015C74.0525 92.1604 74.3524 94.3027 74.616 96.4547C74.8896 98.6035 75.1203 100.758 75.3081 102.917H78.8012C81.2727 100.582 82.0669 92.5541 81.3288 90.4185C81.0454 89.5983 79.1868 84.73 78.8012 84.0181C78.4156 83.3062 77.7566 76.8041 78.2674 72.0276C78.7782 67.2511 71.5282 67.5627 71.5282 67.5627C71.6514 68.5833 71.5363 69.6184 71.1921 70.5874C71.0123 71.1042 70.7066 71.5686 70.3023 71.939C69.8592 72.3202 69.2896 72.5236 68.7041 72.5098C68.6513 72.5066 68.5986 72.5033 68.5459 72.4967C68.6513 73.7138 68.7107 74.9342 68.7535 76.1513C68.803 77.4799 68.8227 78.8086 68.8425 80.1372C68.8524 81.4625 68.859 82.7911 68.8524 84.1165L68.8491 86.1045C68.8458 86.4359 68.8557 86.7672 68.8623 87.0985C68.8689 87.2658 68.8722 87.4299 68.8886 87.5939C68.8919 87.6398 68.8952 87.6825 68.8985 87.7284C69.1767 87.7303 69.4543 87.7533 69.7289 87.7973C69.9768 87.8362 70.2191 87.9045 70.4507 88.0007C70.6931 88.0909 70.8952 88.2642 71.0208 88.4895C70.8213 88.3778 70.5971 88.3169 70.3683 88.3123C70.1434 88.2981 69.9178 88.297 69.6927 88.3091C69.2412 88.3255 68.7865 88.3714 68.3251 88.4042C67.8671 88.4403 67.4024 88.4731 66.9344 88.4928C66.4592 88.5212 65.9826 88.5201 65.5075 88.4895C65.9362 88.27 66.3899 88.1026 66.8587 87.9909C67.3231 87.87 67.7972 87.7898 68.2757 87.7514C68.457 87.735 68.6349 87.7284 68.8194 87.7284C68.7601 87.5283 68.7239 87.3216 68.681 87.1182C68.6184 86.7902 68.5722 86.4588 68.5261 86.1275C68.4438 85.4648 68.3811 84.8 68.3383 84.1329C68.2394 82.8043 68.2032 81.4724 68.1834 80.1437C68.1768 78.8118 68.1867 77.4832 68.2394 76.1513C68.2889 74.9309 68.3548 73.7105 68.4866 72.4902C67.9841 72.4086 67.5204 72.1709 67.1618 71.8111C66.7865 71.4325 66.4818 70.9904 66.2622 70.5054C65.8312 69.579 65.5754 68.5814 65.5075 67.5627C59.0914 71.5585 53.7693 95.7035 53.4629 99.7681C53.3512 100.895 53.5836 102.029 54.1298 103.022C54.676 104.016 55.5105 104.822 56.5243 105.335C56.521 103.731 56.5902 102.133 56.689 100.536C56.7813 98.9414 56.9197 97.347 57.0779 95.756C57.2493 94.1649 57.4371 92.5738 57.6876 90.9926C57.8095 90.202 57.9545 89.4113 58.1159 88.624C58.2016 88.2336 58.2906 87.8399 58.3961 87.4528C58.4521 87.256 58.5081 87.0624 58.574 86.8721C58.6102 86.777 58.6465 86.6852 58.6893 86.59C58.7355 86.5047 58.7783 86.3965 58.8739 86.3538C58.8016 86.4223 58.7531 86.5119 58.7355 86.6097C58.7091 86.7048 58.6893 86.8 58.6696 86.8984C58.63 87.0952 58.6036 87.2921 58.574 87.4889C58.5212 87.8826 58.4751 88.2795 58.4356 88.6765C58.3499 89.4671 58.2774 90.261 58.1983 91.0549L57.7337 95.8216C57.5623 97.4094 57.3976 98.9972 57.1966 100.585C57.0021 102.169 56.7912 103.754 56.5243 105.335C57.3416 109.177 54.6888 129.949 54.6888 129.949C77.8587 149.967 84.4924 138.889 84.4924 138.889C81.5331 135.74 75.3081 102.917 75.3081 102.917ZM74.2799 72.4508C74.4782 72.07 74.735 71.7225 75.0412 71.4207C75.3519 71.1029 75.7302 70.8585 76.1484 70.7055C76.5678 70.548 77.0306 70.548 77.4501 70.7055C77.0678 70.8013 76.7038 70.9586 76.3725 71.1714C76.0584 71.3791 75.7669 71.6188 75.5025 71.8865C74.9522 72.4213 74.4711 73.0413 73.8779 73.6515C73.9397 73.2308 74.0758 72.8243 74.2799 72.4508ZM68.8985 87.7284H68.8194C68.8571 87.851 68.9068 87.9697 68.9677 88.0827C68.9298 87.968 68.9066 87.8489 68.8985 87.7284ZM65.5108 67.566C65.8213 68.5022 66.2243 69.4055 66.7137 70.2626C66.9477 70.6686 67.2422 71.0369 67.5869 71.3551C67.8941 71.6528 68.2991 71.8299 68.7272 71.8537C69.1544 71.8694 69.5727 71.7295 69.9036 71.4601C70.2527 71.1661 70.5318 70.7985 70.7208 70.384C71.1219 69.4861 71.3937 68.5363 71.5282 67.5627C68.8293 70.1577 65.6427 67.671 65.5108 67.566ZM68.8985 87.7284H68.8194C68.8571 87.851 68.9068 87.9697 68.9677 88.0827C68.9298 87.968 68.9066 87.8489 68.8985 87.7284ZM68.8985 87.7284H68.8194C68.8571 87.851 68.9068 87.9697 68.9677 88.0827C68.9298 87.968 68.9066 87.8489 68.8985 87.7284ZM68.8985 87.7284H68.8194C68.8571 87.851 68.9068 87.9697 68.9677 88.0827C68.9298 87.968 68.9066 87.8489 68.8985 87.7284Z" fill="#1E1E22"/>
<path d="M68.9686 88.0809C68.9077 87.9678 68.8581 87.8492 68.8203 87.7266H68.8994C68.9075 87.8471 68.9307 87.9661 68.9686 88.0809Z" fill="white"/>
<path d="M68.9686 88.0809C68.9077 87.9678 68.8581 87.8492 68.8203 87.7266H68.8994C68.9075 87.8471 68.9307 87.9661 68.9686 88.0809Z" fill="white"/>
<path d="M75.665 68.1666C77.4406 68.1098 79.2152 68.0824 80.989 68.0415L86.3095 67.9668L86.642 67.9621L86.725 67.9609C86.7858 67.962 86.845 67.9806 86.8954 68.0145C86.9716 68.0773 86.9467 68.0689 86.9667 68.0912C86.984 68.1176 86.9982 68.1458 87.0089 68.1754C87.0322 68.2398 87.0506 68.3058 87.0637 68.3729C87.1132 68.6069 87.1384 68.8267 87.1656 69.0497C87.2174 69.4936 87.258 69.9349 87.2972 70.3765L87.5075 73.0231C87.6341 74.7872 87.7748 76.5494 87.8821 78.3136L88.5377 88.8974C88.6496 90.6613 88.7709 92.4247 88.9241 94.1855C89.0702 95.9468 89.2238 97.7076 89.4176 99.4644C89.7806 102.98 90.2376 106.486 90.7568 109.981C91.2797 113.475 91.8475 116.962 92.5282 120.424C93.188 123.884 94.0412 127.305 95.0838 130.671C95.6039 132.343 96.2613 133.969 97.0496 135.532C97.4426 136.302 97.9052 137.034 98.4318 137.72C98.9347 138.396 99.585 138.949 100.334 139.338L100.354 139.347C100.401 139.37 100.442 139.405 100.47 139.449C100.498 139.493 100.514 139.544 100.514 139.597C100.515 139.649 100.501 139.7 100.474 139.745C100.446 139.79 100.407 139.826 100.36 139.85C99.7322 140.154 99.0688 140.379 98.385 140.519C98.0533 140.605 97.7145 140.647 97.3798 140.713C97.0423 140.755 96.7049 140.8 96.3669 140.833C95.0169 140.942 93.6595 140.919 92.3138 140.767C90.9742 140.627 89.6457 140.397 88.3376 140.078C87.6876 139.908 87.041 139.726 86.3951 139.547L84.484 138.92C84.4799 138.919 84.4761 138.917 84.4728 138.914C84.4695 138.911 84.4668 138.908 84.4649 138.904C84.463 138.9 84.4618 138.896 84.4615 138.892C84.4612 138.887 84.4617 138.883 84.4631 138.879C84.4661 138.871 84.4721 138.864 84.4798 138.86C84.4875 138.857 84.4964 138.856 84.5047 138.858L86.437 139.397C87.0883 139.547 87.7389 139.699 88.3909 139.839C89.6977 140.099 91.0188 140.28 92.3473 140.384C93.6691 140.491 94.9981 140.474 96.3168 140.334C96.6442 140.295 96.97 140.245 97.2958 140.199C97.6165 140.129 97.9437 140.083 98.2587 139.995C98.8856 139.853 99.493 139.637 100.068 139.351L100.094 139.863C99.252 139.451 98.5158 138.853 97.9414 138.114C97.3712 137.408 96.8754 136.646 96.4617 135.839C95.6493 134.245 94.9704 132.587 94.4319 130.882C93.3655 127.493 92.5241 124.039 91.913 120.541C90.6042 113.572 89.8984 106.522 89.2022 99.4861L88.1812 88.9256L87.7014 83.6419C87.5472 81.8801 87.4309 80.1156 87.3001 78.3524C87.1696 76.5892 87.0807 74.8233 86.965 73.0602L86.7856 70.418C86.7519 69.9788 86.7165 69.5393 86.6708 69.1047C86.6478 68.8887 86.6219 68.669 86.5869 68.4691C86.58 68.4275 86.5705 68.3864 86.5586 68.346C86.5547 68.3314 86.5583 68.3469 86.5658 68.3553C86.5805 68.3712 86.596 68.3862 86.6122 68.4004C86.6476 68.445 86.7814 68.4394 86.7454 68.4378L86.662 68.4367L86.3286 68.432L80.9949 68.3573C79.2174 68.3164 77.4406 68.289 75.6648 68.2322C75.6562 68.2319 75.6481 68.2284 75.6421 68.2222C75.6361 68.2161 75.6328 68.2079 75.6328 68.1993C75.6328 68.1908 75.6362 68.1825 75.6422 68.1764C75.6482 68.1703 75.6564 68.1668 75.665 68.1666H75.665Z" fill="#1E1E22"/>
<path d="M83.4727 72.1641C84.0478 73.2725 84.5279 74.3778 85.1174 75.4107C85.3965 75.925 85.7268 76.4101 86.1033 76.8587C86.474 77.3194 86.9823 77.6507 87.5546 77.8047C87.2337 77.8679 86.9014 77.8406 86.5952 77.726C86.2857 77.6096 85.9987 77.4411 85.7467 77.2277C85.258 76.8061 84.8503 76.2996 84.5435 75.7329C84.237 75.1838 83.9915 74.6031 83.8113 74.0011C83.6217 73.4053 83.5079 72.7881 83.4727 72.1641Z" fill="#1E1E22"/>
<path d="M77.4512 69.3359C79.0925 69.3917 80.6941 69.592 82.2959 69.7563C83.095 69.8464 83.8938 69.9262 84.6896 69.9821C85.0854 70.011 85.4824 70.02 85.8792 70.0089C86.0752 70.0062 86.2705 69.9847 86.4625 69.9449C86.6587 69.9176 86.8405 69.8269 86.9799 69.6867C86.8864 69.8804 86.7247 70.033 86.5254 70.1157C86.3343 70.2085 86.1333 70.2796 85.9262 70.3277C85.5193 70.42 85.1048 70.4757 84.6878 70.4941C83.8659 70.5298 83.0425 70.5011 82.2251 70.4082C81.4131 70.3176 80.6064 70.1849 79.8083 70.0106C79.0071 69.8431 78.2193 69.6176 77.4512 69.3359Z" fill="#1E1E22"/>
<path d="M81.7384 68.1992C81.8039 68.4952 81.8381 68.7972 81.8407 69.1002C81.8451 69.3872 81.8349 69.6742 81.8101 69.9602C81.7848 70.2432 81.7518 70.5215 81.7101 70.8005C81.6681 71.0829 81.6158 71.3531 81.5853 71.6704C81.3725 71.4302 81.2357 71.1327 81.1921 70.8154C81.1378 70.5151 81.1248 70.2088 81.1534 69.9049C81.1792 69.6058 81.2383 69.3104 81.3299 69.0243C81.4205 68.7292 81.5585 68.4506 81.7384 68.1992Z" fill="#1E1E22"/>
<path d="M83.3084 68.1992C83.4093 68.4924 83.4662 68.7987 83.4771 69.1084C83.4895 69.4092 83.4705 69.7103 83.4204 70.0071C83.3685 70.291 83.2977 70.5712 83.2083 70.8457C83.1689 70.9652 83.148 71.0901 83.1463 71.2159C83.138 71.3548 83.1617 71.5065 83.1553 71.6705C83.0286 71.5678 82.9204 71.4444 82.8354 71.3055C82.7487 71.1512 82.6995 70.9788 82.6919 70.8022C82.6875 70.499 82.7139 70.1962 82.7707 69.8984C82.8188 69.6115 82.8834 69.3276 82.9642 69.0481C83.0455 68.7528 83.161 68.4679 83.3084 68.1992Z" fill="#1E1E22"/>
<path d="M86.7402 68.2005V64.5078C86.7402 64.5078 87.3527 71.7225 97.8664 66.9466C97.8664 66.9466 97.4581 85.8471 103.685 107.186C103.685 107.186 104.495 111.718 89.9522 105.337" fill="#1E1E22"/>
<path d="M118.917 82.7946C116.224 82.9727 113.523 82.9727 110.83 82.7946C111.142 81.9372 111.231 81.0154 111.09 80.1144C111.039 79.6638 110.96 79.2167 110.853 78.7759C110.738 78.3429 110.616 77.9066 110.467 77.4834C110.173 76.6361 109.816 75.8115 109.4 75.0164C108.992 74.2183 108.515 73.4576 107.973 72.743C108.599 74.4193 109.281 76.0399 109.844 77.6966C110.139 78.515 110.385 79.3496 110.583 80.1964C110.799 81.0447 110.882 81.9211 110.83 82.7946C110.83 82.7946 108.642 84.4874 104.888 82.9324C104.98 82.7172 105.056 82.4957 105.116 82.2697C105.158 82.0434 105.214 81.8105 105.238 81.5775C105.254 81.3446 105.271 81.1117 105.284 80.8788L105.274 80.18C105.226 79.2545 105.112 78.3335 104.931 77.4244C104.748 76.5197 104.518 75.6251 104.242 74.7441C103.975 73.8612 103.645 72.9984 103.254 72.1623C103.392 73.0776 103.567 73.9765 103.748 74.8721L104.285 77.549C104.463 78.4413 104.622 79.3336 104.763 80.226L104.852 80.8985L104.911 81.571C104.938 81.7974 104.924 82.0172 104.934 82.2468C104.939 82.3598 104.933 82.473 104.915 82.5847L104.888 82.9324C101.131 81.3742 98.8741 83.1916 98.8741 83.1916L97.9316 71.2043C98.9137 67.4383 100.212 65.8242 100.212 65.8242C100.212 65.8242 100.314 70.5089 112.155 67.5563C112.155 67.5564 118.123 78.6283 118.917 82.7946Z" fill="#1E1E22"/>
<path d="M116.735 82.8124C116.133 84.5334 115.769 86.3281 115.654 88.147C115.635 88.6007 115.606 89.0537 115.604 89.5071C115.616 89.9606 115.598 90.4141 115.634 90.8663C115.672 91.7713 115.761 92.6736 115.899 93.5689C115.982 94.0143 116.051 94.4621 116.144 94.9049L116.465 96.2247L117.255 98.8441C117.534 99.727 117.73 100.627 117.937 101.524C118.121 102.425 118.299 103.327 118.455 104.232C118.598 105.138 118.76 106.042 118.877 106.951L119.076 108.312L119.261 109.674C119.509 111.49 119.753 113.306 119.97 115.126C120.427 118.764 120.83 122.407 121.083 126.07C121.088 126.136 121.07 126.201 121.033 126.256C120.996 126.31 120.941 126.351 120.878 126.371L120.876 126.372C118.623 127.092 116.333 127.691 114.015 128.168C111.697 128.649 109.349 128.973 106.986 129.137C104.617 129.313 102.235 129.221 99.8867 128.865C98.7136 128.667 97.5638 128.35 96.4549 127.92C95.3474 127.49 94.3195 126.879 93.4136 126.112C93.4103 126.109 93.4077 126.106 93.4057 126.102C93.4038 126.098 93.4027 126.094 93.4024 126.089C93.4021 126.085 93.4027 126.081 93.4041 126.077C93.4055 126.073 93.4077 126.069 93.4106 126.066C93.4161 126.06 93.4238 126.056 93.4321 126.055C93.4403 126.054 93.4486 126.056 93.4553 126.061C94.398 126.751 95.4445 127.288 96.5558 127.652C97.6595 128.023 98.7976 128.283 99.9532 128.429C101.111 128.567 102.275 128.639 103.441 128.648C104.607 128.656 105.774 128.589 106.938 128.493C109.268 128.286 111.584 127.949 113.876 127.483C116.174 127.038 118.447 126.477 120.687 125.801L120.48 126.103C120.389 124.28 120.271 122.452 120.149 120.627C120.033 118.801 119.882 116.977 119.716 115.154C119.379 111.509 118.83 107.887 118.072 104.305C117.878 103.412 117.666 102.523 117.447 101.638C117.198 100.762 116.993 99.8725 116.698 99.014C116.439 98.1529 116.145 97.2635 115.902 96.3718L115.595 95.0169C115.507 94.5625 115.444 94.1032 115.367 93.6469C115.241 92.73 115.165 91.8067 115.141 90.8814C115.122 90.4192 115.158 89.9562 115.164 89.4944C115.185 89.0328 115.233 88.5724 115.271 88.1126C115.452 86.2737 115.927 84.4752 116.676 82.7846C116.679 82.7769 116.686 82.7709 116.694 82.7679C116.702 82.7648 116.71 82.7649 116.718 82.7681C116.726 82.7714 116.732 82.7775 116.736 82.7852C116.739 82.793 116.739 82.8017 116.736 82.8096L116.735 82.8124Z" fill="#1E1E22"/>
<path d="M152.811 71.3651C151.701 72.9422 150.503 74.4559 149.223 75.8991C147.95 77.3639 146.535 78.7004 144.999 79.889C144.21 80.4925 143.329 80.967 142.39 81.2947C141.891 81.4553 141.363 81.5058 140.843 81.4426C140.326 81.3391 139.839 81.1193 139.421 80.7998C138.642 80.1851 137.952 79.4662 137.37 78.6634C136.795 77.8791 136.263 77.0645 135.776 76.2232C134.806 74.5516 133.933 72.8259 133.162 71.0547C132.77 70.1744 132.392 69.2881 132.03 68.3959L131.496 67.0541L131.236 66.3802C131.148 66.165 131.072 65.9068 130.977 65.7317C130.871 65.5442 130.71 65.3938 130.515 65.3008C130.332 65.2138 130.068 65.1745 129.841 65.0873C129.38 64.9258 128.932 64.7305 128.5 64.5032C128.06 64.288 127.642 64.0311 127.252 63.7362C126.869 63.4299 126.527 63.0765 126.233 62.6846C125.606 61.9341 125.119 61.0788 124.794 60.1586C124.627 59.6893 124.562 59.1906 124.601 58.6945C124.616 58.435 124.687 58.1819 124.811 57.9528C124.934 57.7237 125.106 57.5241 125.315 57.368L125.252 57.4776C125.254 57.2267 125.24 56.9768 125.261 56.7241C125.269 56.4687 125.3 56.2145 125.354 55.9646C125.395 55.6866 125.521 55.4281 125.716 55.2247C125.78 55.1709 125.854 55.131 125.934 55.1072C126.015 55.0835 126.099 55.0764 126.182 55.0866C126.336 55.1094 126.481 55.1733 126.602 55.2716L126.342 55.3501L126.409 55.1454C126.439 55.076 126.474 55.0086 126.514 54.9439C126.604 54.7969 126.745 54.6884 126.911 54.6393C127.074 54.5998 127.246 54.6129 127.401 54.6766C127.543 54.7308 127.675 54.8075 127.792 54.9037L127.523 54.9391C127.629 54.7718 127.768 54.6281 127.932 54.5168C128.096 54.4056 128.281 54.3293 128.476 54.2927C128.772 54.2366 129.078 54.2701 129.355 54.3889C129.632 54.5076 129.867 54.7062 130.03 54.9589C130.085 55.0427 130.13 55.1323 130.165 55.2261C130.206 55.3207 130.226 55.3904 130.257 55.4737C130.373 55.7934 130.496 56.11 130.629 56.4213C130.878 57.0402 131.199 57.6281 131.585 58.1727C131.735 58.4155 131.965 58.5993 132.236 58.693C132.282 58.7093 132.332 58.7156 132.381 58.7117C132.43 58.7077 132.478 58.6935 132.522 58.6699C132.565 58.6464 132.603 58.614 132.633 58.5749C132.663 58.5359 132.684 58.4909 132.696 58.4431C132.694 58.3903 132.687 58.3378 132.677 58.2861C132.663 58.212 132.644 58.1327 132.624 58.0529L132.489 57.5654C132.394 57.2365 132.294 56.9042 132.208 56.5643C132.116 56.2188 132.048 55.8677 132.002 55.5133C131.98 55.323 131.975 55.131 131.988 54.9399C131.998 54.7065 132.077 54.4813 132.216 54.2926C132.392 54.1087 132.635 54.0022 132.891 53.9963C133.147 53.9905 133.395 54.0859 133.58 54.2615C133.869 54.5145 134.111 54.8162 134.295 55.1527C134.64 55.7716 134.928 56.4207 135.155 57.0917C135.388 57.7512 135.589 58.4168 135.765 59.0918C135.842 59.4058 135.966 59.7066 136.133 59.9842C136.288 60.3392 136.376 60.7198 136.391 61.1067C136.411 61.4706 136.398 61.8354 136.352 62.1969C136.332 62.3719 136.302 62.5611 136.273 62.7212C136.251 62.8579 136.248 62.9972 136.266 63.1347C136.285 63.2776 136.327 63.4165 136.392 63.5456C136.459 63.6933 136.512 63.8436 136.59 63.9897L136.825 64.4287C136.906 64.5739 136.998 64.7159 137.084 64.8598C137.821 66.0048 138.631 67.1012 139.509 68.142C140.383 69.194 141.285 70.2329 142.21 71.2378L141.724 71.2947C143.252 68.7471 144.813 66.2146 146.552 63.7982C147.41 62.5807 148.328 61.4067 149.304 60.2808C149.796 59.7194 150.319 59.1857 150.87 58.6821C151.148 58.4307 151.441 58.1975 151.749 57.984C151.904 57.8772 152.067 57.7814 152.235 57.6974C152.405 57.6029 152.596 57.5506 152.79 57.545C152.799 57.5453 152.807 57.5488 152.812 57.5549C152.818 57.561 152.821 57.5691 152.821 57.5775C152.821 57.5859 152.818 57.5939 152.812 57.5999C152.806 57.6058 152.798 57.6092 152.789 57.6093L152.778 57.6095C152.6 57.6274 152.429 57.685 152.277 57.7778C152.116 57.8669 151.962 57.9671 151.816 58.0777C151.523 58.301 151.245 58.5429 150.983 58.802C150.46 59.324 149.967 59.8744 149.506 60.4507C148.578 61.6004 147.714 62.8018 146.891 64.0312C145.251 66.4936 143.721 69.0296 142.253 71.6002C142.23 71.6411 142.197 71.676 142.158 71.7021C142.118 71.7282 142.073 71.7449 142.026 71.7508C141.98 71.7566 141.932 71.7515 141.887 71.7358C141.843 71.7202 141.802 71.6944 141.77 71.6605L141.766 71.6571C140.806 70.6545 139.879 69.6316 138.996 68.5635C138.093 67.5029 137.261 66.385 136.504 65.2169C136.413 65.0661 136.317 64.9192 136.229 64.7652L135.976 64.2947C135.891 64.1383 135.827 63.9637 135.752 63.7988C135.666 63.6178 135.608 63.4247 135.582 63.2262C135.554 63.0225 135.557 62.8158 135.589 62.6128C135.62 62.4344 135.643 62.284 135.662 62.1175C135.701 61.7966 135.712 61.4729 135.693 61.1502C135.682 60.8487 135.618 60.5516 135.504 60.2721L135.458 60.1783L135.393 60.0554C135.351 59.9719 135.311 59.886 135.274 59.7978C135.202 59.623 135.145 59.4423 135.104 59.2577C134.94 58.6007 134.75 57.9468 134.532 57.3073C134.325 56.6727 134.061 56.0581 133.743 55.471C133.6 55.2004 133.412 54.9559 133.187 54.7479C133.107 54.6754 133.007 54.6285 132.9 54.6131C132.792 54.6103 132.728 54.6289 132.693 54.6797C132.633 54.7737 132.599 54.8826 132.596 54.9944C132.585 55.1461 132.587 55.2986 132.604 55.4498C132.643 55.7776 132.703 56.1026 132.785 56.4225C132.863 56.7501 132.954 57.0786 133.044 57.4117C133.089 57.5783 133.134 57.7465 133.174 57.9204C133.195 58.0074 133.214 58.0959 133.23 58.191C133.255 58.3078 133.259 58.4279 133.243 58.5461C133.218 58.6702 133.166 58.7872 133.091 58.889C133.015 58.9909 132.918 59.075 132.807 59.1355C132.593 59.249 132.343 59.2768 132.109 59.2134C131.719 59.0871 131.387 58.8282 131.169 58.4821C130.766 57.8977 130.437 57.2656 130.19 56.6004C130.061 56.2756 129.944 55.9478 129.835 55.6177C129.796 55.4671 129.738 55.3218 129.663 55.1852C129.591 55.0606 129.492 54.9532 129.374 54.8706C129.256 54.7844 129.121 54.7225 128.979 54.6885C128.836 54.6546 128.688 54.6493 128.544 54.673C128.398 54.696 128.258 54.7492 128.134 54.8291C128.01 54.909 127.904 55.0139 127.823 55.1369C127.796 55.1766 127.754 55.2039 127.707 55.2129C127.66 55.2218 127.611 55.2118 127.571 55.1849L127.554 55.1724C127.47 55.1014 127.376 55.0437 127.274 55.0013C127.188 54.9613 127.092 54.9493 126.998 54.9667C126.911 54.9918 126.836 55.049 126.789 55.1268C126.76 55.1728 126.734 55.2204 126.71 55.2692L126.652 55.4345L126.649 55.441C126.635 55.4817 126.605 55.5151 126.566 55.5338C126.526 55.5525 126.481 55.5549 126.44 55.5405C126.423 55.5342 126.406 55.5249 126.391 55.5131C126.319 55.4532 126.232 55.4125 126.14 55.3945C126.1 55.3884 126.059 55.3907 126.019 55.4011C125.98 55.4115 125.943 55.4299 125.911 55.455C125.763 55.6153 125.666 55.8153 125.631 56.0303C125.575 56.2638 125.54 56.5018 125.527 56.7415C125.501 56.9827 125.509 57.2291 125.501 57.4734C125.5 57.4948 125.494 57.5157 125.484 57.5345C125.473 57.5532 125.458 57.5692 125.441 57.5812L125.438 57.5831C125.262 57.7189 125.117 57.8905 125.013 58.0865C124.909 58.2824 124.848 58.4982 124.834 58.7194C124.794 59.1839 124.853 59.6515 125.005 60.0923C125.313 60.9915 125.782 61.8278 126.39 62.5606C126.678 62.9362 127.013 63.2738 127.386 63.5654C127.768 63.8471 128.177 64.0913 128.607 64.2949C129.03 64.5116 129.47 64.6968 129.921 64.8492C130.034 64.8853 130.147 64.9196 130.26 64.9488C130.386 64.975 130.509 65.0143 130.626 65.0659C130.871 65.1786 131.077 65.3611 131.218 65.5904C131.281 65.7015 131.335 65.8175 131.379 65.9373L131.516 66.2699L131.795 66.9333L132.367 68.2538C132.757 69.1307 133.158 70.0015 133.573 70.8661C133.989 71.7299 134.421 72.5849 134.869 73.431C135.315 74.2781 135.773 75.1176 136.264 75.9359C136.749 76.7542 137.277 77.5468 137.844 78.3107C138.384 79.075 139.026 79.762 139.753 80.3525C140.098 80.6241 140.501 80.8146 140.93 80.9099C141.37 80.965 141.816 80.9253 142.239 80.7936C143.127 80.4919 143.961 80.0524 144.711 79.4915C146.256 78.3625 147.686 77.0849 148.98 75.6773C150.305 74.2895 151.561 72.8313 152.757 71.3265C152.763 71.3195 152.77 71.315 152.779 71.3138C152.788 71.3126 152.797 71.3149 152.804 71.3201C152.81 71.3254 152.815 71.3329 152.816 71.3412C152.817 71.3495 152.815 71.358 152.811 71.3651Z" fill="#1E1E22"/>
<path d="M176.564 103.921C176.198 108.056 176.08 112.209 176.211 116.358C176.316 120.507 176.598 124.65 177.033 128.775C177.473 132.899 178.068 137.009 178.911 141.065C179.324 143.09 179.842 145.094 180.463 147.066C180.774 148.045 181.142 149.006 181.565 149.943C181.954 150.868 182.496 151.722 183.169 152.469L183.176 152.475C183.233 152.534 183.265 152.614 183.264 152.696C183.263 152.778 183.229 152.856 183.17 152.914L183.149 152.933C181.916 153.919 180.599 154.797 179.213 155.556C177.831 156.328 176.372 156.955 174.859 157.427C173.331 157.912 171.733 158.14 170.129 158.103C169.32 158.075 168.517 157.955 167.735 157.746C167.539 157.694 167.346 157.634 167.153 157.57C166.957 157.5 166.775 157.439 166.6 157.383C166.247 157.256 165.879 157.173 165.515 157.08C164.772 156.928 164.02 156.829 163.263 156.785C162.5 156.75 161.735 156.755 160.973 156.801C159.439 156.905 157.915 157.125 156.414 157.459C153.401 158.13 150.459 159.083 147.627 160.306L147.619 160.309C147.559 160.335 147.495 160.349 147.43 160.35C147.365 160.35 147.3 160.339 147.24 160.315C147.179 160.291 147.124 160.255 147.077 160.21C147.031 160.165 146.993 160.111 146.968 160.051C146.947 160.002 146.934 159.951 146.929 159.898C146.757 157.9 146.604 155.903 146.47 153.91C146.342 151.913 146.228 149.916 146.129 147.918C145.921 143.922 145.82 139.921 145.74 135.921C145.653 131.921 145.684 127.919 145.765 123.919L145.848 120.919C145.871 119.92 145.939 118.921 145.983 117.922C146.065 115.924 146.222 113.929 146.365 111.935C146.365 111.928 146.367 111.922 146.37 111.916C146.373 111.91 146.377 111.905 146.382 111.901C146.387 111.897 146.392 111.894 146.398 111.892C146.405 111.89 146.411 111.889 146.418 111.889C146.43 111.89 146.442 111.896 146.451 111.906C146.459 111.915 146.464 111.928 146.463 111.94C146.348 115.936 146.3 119.931 146.322 123.924C146.321 124.922 146.346 125.92 146.357 126.918C146.369 127.917 146.384 128.915 146.415 129.913L146.483 132.907L146.575 135.9C146.707 139.891 146.917 143.878 147.128 147.865C147.239 149.859 147.362 151.851 147.496 153.843C147.622 155.834 147.759 157.828 147.918 159.813L147.22 159.405C148.671 158.788 150.153 158.245 151.659 157.776C153.16 157.301 154.685 156.903 156.228 156.583C157.776 156.257 159.347 156.048 160.926 155.958C161.721 155.92 162.518 155.923 163.312 155.968C164.112 156.024 164.907 156.137 165.69 156.307C166.08 156.41 166.472 156.504 166.853 156.644C167.048 156.709 167.235 156.773 167.406 156.835C167.583 156.896 167.761 156.954 167.941 157.002C168.665 157.202 169.41 157.32 170.161 157.353C171.682 157.4 173.2 157.195 174.654 156.746C176.124 156.301 177.544 155.706 178.89 154.969C180.245 154.241 181.534 153.399 182.742 152.45L182.722 152.914C182.001 152.11 181.424 151.189 181.013 150.192C180.59 149.23 180.222 148.245 179.912 147.241C179.303 145.244 178.797 143.218 178.397 141.169C177.604 137.083 177.019 132.959 176.646 128.814C176.258 124.673 176.025 120.52 175.968 116.363C175.885 112.206 176.051 108.048 176.466 103.911C176.467 103.898 176.474 103.886 176.484 103.878C176.494 103.87 176.507 103.866 176.52 103.867C176.533 103.869 176.545 103.875 176.553 103.885C176.561 103.895 176.565 103.908 176.564 103.921L176.564 103.921Z" fill="#1E1E22"/>
<path d="M146.365 112.62C146.644 107.826 147.189 103.051 148 98.3171C148.412 95.9462 148.946 93.5978 149.599 91.2811C150.247 88.9532 151.088 86.6826 152.112 84.4924L152.096 84.533C152.301 83.9195 152.532 83.3325 152.789 82.7463C153.044 82.1579 153.334 81.5848 153.656 81.0299C153.981 80.4559 154.377 79.9244 154.834 79.4476C155.082 79.1945 155.369 78.9822 155.684 78.8189C156.034 78.6369 156.433 78.5677 156.824 78.621L156.741 78.617L170.437 77.6579L170.446 77.6572C170.525 77.6522 170.604 77.6665 170.675 77.699C170.747 77.7315 170.81 77.7811 170.858 77.8435C172.221 79.7011 173.344 81.723 174.198 83.861L174.524 84.6529C174.635 84.9162 174.716 85.1902 174.814 85.4583C174.996 85.9988 175.204 86.531 175.35 87.0825C175.505 87.631 175.678 88.1745 175.817 88.7265L176.197 90.3918C176.325 90.9461 176.394 91.5125 176.495 92.0716L176.635 92.9125C176.676 93.1936 176.694 93.4778 176.725 93.7601L176.89 95.4548L176.954 97.1549C177.03 98.2866 176.937 99.4204 176.903 100.549L176.886 100.973L176.842 101.395L176.753 102.238L176.565 103.919C176.563 103.932 176.557 103.944 176.547 103.952C176.537 103.96 176.525 103.964 176.512 103.963C176.499 103.962 176.488 103.956 176.479 103.947C176.47 103.938 176.466 103.925 176.466 103.913L176.466 103.909L176.517 102.222L176.548 101.381L176.563 100.961L176.551 100.54L176.503 98.8586C176.493 98.5789 176.502 98.2988 176.476 98.0198L176.406 97.1831L176.262 95.5126L176.017 93.8549C175.974 93.5793 175.942 93.3021 175.889 93.0282L175.723 92.2081C175.605 91.6632 175.52 91.1117 175.376 90.5733C174.856 88.4092 174.155 86.2925 173.279 84.2456C173.072 83.7296 172.831 83.2294 172.59 82.7296C172.361 82.2234 172.085 81.7422 171.829 81.2505C171.305 80.2861 170.72 79.3561 170.077 78.4662L170.498 78.6516L156.787 79.3693L156.775 79.3699C156.751 79.371 156.727 79.3694 156.704 79.3652C156.256 79.2822 155.756 79.565 155.344 79.9651C154.924 80.3925 154.559 80.8698 154.257 81.3861C153.94 81.9133 153.654 82.4583 153.401 83.0185C153.144 83.5786 152.907 84.1583 152.705 84.7325L152.702 84.74C152.698 84.7513 152.693 84.7624 152.688 84.7732C151.645 86.9177 150.782 89.1441 150.107 91.4297C149.418 93.7159 148.856 96.043 148.387 98.3897C147.482 103.096 146.84 107.849 146.464 112.627C146.463 112.64 146.457 112.652 146.447 112.661C146.437 112.669 146.424 112.673 146.411 112.672C146.398 112.671 146.386 112.665 146.377 112.655C146.369 112.646 146.364 112.633 146.365 112.62H146.365Z" fill="#1E1E22"/>
<path d="M173.361 117.211C173.374 108.566 173.19 96.0609 172.228 80.9375C171.625 71.4599 171.77 61.2082 171.153 56.8712C170.939 55.3425 167.977 54.6339 167.812 55.0374C166.454 58.377 166.075 60.7587 163.172 84.077C162.981 85.6024 162.898 87.1394 162.925 88.6764C163.113 101.27 163.303 113.862 163.495 126.452C163.495 126.452 168.402 123.07 170.659 125.474C172.544 127.479 178.123 125.881 179.932 125.297C174.37 126.885 173.361 117.211 173.361 117.211ZM164.49 125.005C164.362 125.001 164.24 124.947 164.151 124.856C164.062 124.764 164.012 124.641 164.012 124.513C164.012 124.386 164.062 124.263 164.151 124.171C164.24 124.079 164.362 124.025 164.49 124.021C164.618 124.025 164.74 124.079 164.829 124.171C164.918 124.263 164.968 124.386 164.968 124.513C164.968 124.641 164.918 124.764 164.829 124.856C164.74 124.947 164.618 125.001 164.49 125.005ZM166.942 123.903C166.814 123.899 166.692 123.845 166.603 123.753C166.513 123.662 166.464 123.539 166.464 123.411C166.464 123.283 166.513 123.16 166.603 123.069C166.692 122.977 166.814 122.923 166.942 122.919C167.07 122.923 167.192 122.977 167.281 123.069C167.37 123.16 167.42 123.283 167.42 123.411C167.42 123.539 167.37 123.662 167.281 123.753C167.192 123.845 167.07 123.899 166.942 123.903ZM170.066 124.061C169.938 124.056 169.816 124.003 169.727 123.911C169.638 123.819 169.588 123.696 169.588 123.568C169.588 123.441 169.638 123.318 169.727 123.226C169.816 123.134 169.938 123.081 170.066 123.076C170.194 123.081 170.316 123.134 170.405 123.226C170.494 123.318 170.544 123.441 170.544 123.568C170.544 123.696 170.494 123.819 170.405 123.911C170.316 124.003 170.194 124.056 170.066 124.061ZM172.478 125.478C172.35 125.474 172.228 125.42 172.139 125.328C172.05 125.236 172 125.113 172 124.986C172 124.858 172.05 124.735 172.139 124.643C172.228 124.552 172.35 124.498 172.478 124.494C172.606 124.498 172.728 124.552 172.817 124.643C172.906 124.735 172.956 124.858 172.956 124.986C172.956 125.113 172.906 125.236 172.817 125.328C172.728 125.42 172.606 125.474 172.478 125.478H172.478ZM175.602 125.832C175.474 125.828 175.352 125.774 175.263 125.682C175.174 125.591 175.124 125.468 175.124 125.34C175.124 125.212 175.174 125.089 175.263 124.998C175.352 124.906 175.474 124.852 175.602 124.848C175.73 124.852 175.852 124.906 175.941 124.998C176.031 125.089 176.08 125.212 176.08 125.34C176.08 125.468 176.03 125.59 175.941 125.682C175.852 125.774 175.73 125.828 175.602 125.832Z" fill="#1E1E22"/>
<path d="M180.462 125.117C180.281 125.189 180.103 125.248 179.932 125.298C180.199 125.209 180.383 125.143 180.462 125.117Z" fill="#1E1E22"/>
<path d="M155.196 74.1053C155.324 74.1009 155.446 74.0471 155.535 73.9553C155.624 73.8635 155.674 73.7408 155.674 73.6132C155.674 73.4855 155.624 73.3629 155.535 73.2711C155.446 73.1793 155.324 73.1255 155.196 73.1211C155.068 73.1255 154.947 73.1793 154.858 73.2711C154.769 73.3629 154.719 73.4855 154.719 73.6132C154.719 73.7408 154.769 73.8635 154.858 73.9553C154.947 74.0471 155.068 74.1009 155.196 74.1053Z" fill="#1E1E22"/>
<path d="M157.726 74.5389C157.854 74.5345 157.975 74.4807 158.064 74.3889C158.153 74.2971 158.203 74.1744 158.203 74.0468C158.203 73.9191 158.153 73.7965 158.064 73.7047C157.975 73.6129 157.854 73.5591 157.726 73.5547C157.597 73.5591 157.476 73.6129 157.387 73.7047C157.298 73.7965 157.248 73.9191 157.248 74.0468C157.248 74.1744 157.298 74.2971 157.387 74.3889C157.476 74.4807 157.597 74.5345 157.726 74.5389Z" fill="#1E1E22"/>
<path d="M160.534 74.7771C160.662 74.7727 160.784 74.7189 160.873 74.6271C160.962 74.5353 161.012 74.4127 161.012 74.2851C161.012 74.1574 160.962 74.0348 160.873 73.943C160.784 73.8512 160.662 73.7974 160.534 73.793C160.406 73.7974 160.285 73.8512 160.196 73.943C160.106 74.0348 160.057 74.1574 160.057 74.2851C160.057 74.4127 160.106 74.5353 160.196 74.6271C160.285 74.7189 160.406 74.7727 160.534 74.7771Z" fill="#1E1E22"/>
<path d="M163.341 74.9334C163.469 74.929 163.59 74.8752 163.679 74.7834C163.768 74.6916 163.818 74.5689 163.818 74.4413C163.818 74.3137 163.768 74.191 163.679 74.0992C163.59 74.0074 163.469 73.9536 163.341 73.9492C163.213 73.9536 163.091 74.0074 163.002 74.0992C162.913 74.191 162.863 74.3137 162.863 74.4413C162.863 74.5689 162.913 74.6916 163.002 74.7834C163.091 74.8752 163.213 74.929 163.341 74.9334Z" fill="#1E1E22"/>
<path d="M158.397 57.2185C158.526 57.2141 158.647 57.1604 158.736 57.0686C158.825 56.9768 158.875 56.8541 158.875 56.7265C158.875 56.5988 158.825 56.4762 158.736 56.3844C158.647 56.2926 158.526 56.2388 158.397 56.2344C158.269 56.2388 158.148 56.2926 158.059 56.3844C157.97 56.4762 157.92 56.5988 157.92 56.7265C157.92 56.8541 157.97 56.9768 158.059 57.0686C158.148 57.1604 158.269 57.2141 158.397 57.2185Z" fill="#1E1E22"/>
<path d="M160.296 59.031C160.424 59.0266 160.545 58.9729 160.635 58.8811C160.724 58.7893 160.773 58.6666 160.773 58.539C160.773 58.4113 160.724 58.2887 160.635 58.1969C160.545 58.1051 160.424 58.0513 160.296 58.0469C160.168 58.0513 160.046 58.1051 159.957 58.1969C159.868 58.2887 159.818 58.4113 159.818 58.539C159.818 58.6666 159.868 58.7893 159.957 58.8811C160.046 58.9729 160.168 59.0266 160.296 59.031Z" fill="#1E1E22"/>
<path d="M162.55 61.0389C162.678 61.0345 162.799 60.9807 162.888 60.8889C162.978 60.7971 163.027 60.6744 163.027 60.5468C163.027 60.4191 162.978 60.2965 162.888 60.2047C162.799 60.1129 162.678 60.0591 162.55 60.0547C162.422 60.0591 162.3 60.1129 162.211 60.2047C162.122 60.2965 162.072 60.4191 162.072 60.5468C162.072 60.6744 162.122 60.7971 162.211 60.8889C162.3 60.9807 162.422 61.0345 162.55 61.0389Z" fill="#1E1E22"/>
<path d="M164.845 62.574C164.973 62.5696 165.094 62.5158 165.183 62.424C165.272 62.3322 165.322 62.2096 165.322 62.0819C165.322 61.9543 165.272 61.8316 165.183 61.7398C165.094 61.648 164.973 61.5942 164.845 61.5898C164.717 61.5942 164.595 61.648 164.506 61.7398C164.417 61.8316 164.367 61.9543 164.367 62.0819C164.367 62.2096 164.417 62.3322 164.506 62.424C164.595 62.5158 164.717 62.5696 164.845 62.574Z" fill="#1E1E22"/>
<path d="M149.065 157.644C149.194 157.64 149.315 157.586 149.404 157.494C149.493 157.403 149.543 157.28 149.543 157.152C149.543 157.025 149.493 156.902 149.404 156.81C149.315 156.718 149.194 156.665 149.065 156.66C148.937 156.665 148.816 156.718 148.727 156.81C148.638 156.902 148.588 157.025 148.588 157.152C148.588 157.28 148.638 157.403 148.727 157.494C148.816 157.586 148.937 157.64 149.065 157.644Z" fill="#1E1E22"/>
<path d="M152.19 156.582C152.318 156.577 152.44 156.524 152.529 156.432C152.618 156.34 152.668 156.217 152.668 156.09C152.668 155.962 152.618 155.839 152.529 155.748C152.44 155.656 152.318 155.602 152.19 155.598C152.062 155.602 151.941 155.656 151.852 155.748C151.763 155.839 151.713 155.962 151.713 156.09C151.713 156.217 151.763 156.34 151.852 156.432C151.941 156.524 152.062 156.577 152.19 156.582Z" fill="#1E1E22"/>
<path d="M155.946 155.754C156.074 155.749 156.196 155.696 156.285 155.604C156.374 155.512 156.424 155.389 156.424 155.262C156.424 155.134 156.374 155.011 156.285 154.92C156.196 154.828 156.074 154.774 155.946 154.77C155.818 154.774 155.697 154.828 155.608 154.92C155.519 155.011 155.469 155.134 155.469 155.262C155.469 155.389 155.519 155.512 155.608 155.604C155.697 155.696 155.818 155.749 155.946 155.754Z" fill="#1E1E22"/>
<path d="M159.821 155.281C159.949 155.277 160.071 155.223 160.16 155.131C160.249 155.039 160.299 154.917 160.299 154.789C160.299 154.661 160.249 154.539 160.16 154.447C160.071 154.355 159.949 154.301 159.821 154.297C159.693 154.301 159.572 154.355 159.483 154.447C159.394 154.539 159.344 154.661 159.344 154.789C159.344 154.917 159.394 155.039 159.483 155.131C159.572 155.223 159.693 155.277 159.821 155.281Z" fill="#1E1E22"/>
<path d="M164.173 155.242C164.301 155.238 164.422 155.184 164.511 155.092C164.601 155 164.65 154.878 164.65 154.75C164.65 154.622 164.601 154.5 164.511 154.408C164.422 154.316 164.301 154.262 164.173 154.258C164.045 154.262 163.923 154.316 163.834 154.408C163.745 154.5 163.695 154.622 163.695 154.75C163.695 154.878 163.745 155 163.834 155.092C163.923 155.184 164.045 155.238 164.173 155.242Z" fill="#1E1E22"/>
<path d="M168.048 156.226C168.176 156.222 168.297 156.168 168.386 156.076C168.476 155.985 168.525 155.862 168.525 155.734C168.525 155.607 168.476 155.484 168.386 155.392C168.297 155.3 168.176 155.247 168.048 155.242C167.92 155.247 167.798 155.3 167.709 155.392C167.62 155.484 167.57 155.607 167.57 155.734C167.57 155.862 167.62 155.985 167.709 156.076C167.798 156.168 167.92 156.222 168.048 156.226Z" fill="#1E1E22"/>
<path d="M171.962 156.699C172.09 156.695 172.211 156.641 172.301 156.549C172.39 156.457 172.439 156.335 172.439 156.207C172.439 156.079 172.39 155.957 172.301 155.865C172.211 155.773 172.09 155.719 171.962 155.715C171.834 155.719 171.712 155.773 171.623 155.865C171.534 155.957 171.484 156.079 171.484 156.207C171.484 156.335 171.534 156.457 171.623 156.549C171.712 156.641 171.834 156.695 171.962 156.699Z" fill="#1E1E22"/>
<path d="M175.679 155.597C175.807 155.593 175.928 155.539 176.017 155.447C176.106 155.356 176.156 155.233 176.156 155.105C176.156 154.978 176.106 154.855 176.017 154.763C175.928 154.671 175.807 154.618 175.679 154.613C175.551 154.618 175.429 154.671 175.34 154.763C175.251 154.855 175.201 154.978 175.201 155.105C175.201 155.233 175.251 155.356 175.34 155.447C175.429 155.539 175.551 155.593 175.679 155.597Z" fill="#1E1E22"/>
<path d="M178.685 154.062C178.813 154.058 178.934 154.004 179.023 153.912C179.112 153.821 179.162 153.698 179.162 153.57C179.162 153.443 179.112 153.32 179.023 153.228C178.934 153.136 178.813 153.083 178.685 153.078C178.556 153.083 178.435 153.136 178.346 153.228C178.257 153.32 178.207 153.443 178.207 153.57C178.207 153.698 178.257 153.821 178.346 153.912C178.435 154.004 178.556 154.058 178.685 154.062Z" fill="#1E1E22"/>
<path d="M181.335 152.172C181.463 152.167 181.584 152.113 181.674 152.022C181.763 151.93 181.812 151.807 181.812 151.68C181.812 151.552 181.763 151.429 181.674 151.337C181.584 151.246 181.463 151.192 181.335 151.188C181.207 151.192 181.085 151.246 180.996 151.337C180.907 151.429 180.857 151.552 180.857 151.68C180.857 151.807 180.907 151.93 180.996 152.022C181.085 152.113 181.207 152.167 181.335 152.172Z" fill="#1E1E22"/>
<path d="M94.5537 125.285C94.6818 125.281 94.8032 125.227 94.8923 125.135C94.9814 125.043 95.0311 124.921 95.0311 124.793C95.0311 124.665 94.9814 124.543 94.8923 124.451C94.8032 124.359 94.6818 124.305 94.5537 124.301C94.4255 124.305 94.3041 124.359 94.215 124.451C94.126 124.543 94.0762 124.665 94.0762 124.793C94.0762 124.921 94.126 125.043 94.215 125.135C94.3041 125.227 94.4255 125.281 94.5537 125.285Z" fill="#1E1E22"/>
<path d="M97.9931 126.762C98.1213 126.757 98.2427 126.703 98.3317 126.612C98.4208 126.52 98.4706 126.397 98.4706 126.269C98.4706 126.142 98.4208 126.019 98.3317 125.927C98.2427 125.836 98.1213 125.782 97.9931 125.777C97.865 125.782 97.7436 125.836 97.6545 125.927C97.5654 126.019 97.5156 126.142 97.5156 126.269C97.5156 126.397 97.5654 126.52 97.6545 126.612C97.7436 126.703 97.865 126.757 97.9931 126.762Z" fill="#1E1E22"/>
<path d="M102.384 127.41C102.512 127.406 102.633 127.352 102.722 127.26C102.811 127.168 102.861 127.046 102.861 126.918C102.861 126.79 102.811 126.668 102.722 126.576C102.633 126.484 102.512 126.43 102.384 126.426C102.256 126.43 102.134 126.484 102.045 126.576C101.956 126.668 101.906 126.79 101.906 126.918C101.906 127.046 101.956 127.168 102.045 127.26C102.134 127.352 102.256 127.406 102.384 127.41Z" fill="#1E1E22"/>
<path d="M107.128 127.172C107.256 127.167 107.377 127.114 107.467 127.022C107.556 126.93 107.605 126.807 107.605 126.68C107.605 126.552 107.556 126.429 107.467 126.337C107.377 126.246 107.256 126.192 107.128 126.188C107 126.192 106.878 126.246 106.789 126.337C106.7 126.429 106.65 126.552 106.65 126.68C106.65 126.807 106.7 126.93 106.789 127.022C106.878 127.114 107 127.167 107.128 127.172Z" fill="#1E1E22"/>
<path d="M112.052 126.347C112.18 126.343 112.301 126.289 112.39 126.197C112.479 126.106 112.529 125.983 112.529 125.855C112.529 125.728 112.479 125.605 112.39 125.513C112.301 125.421 112.18 125.368 112.052 125.363C111.924 125.368 111.802 125.421 111.713 125.513C111.624 125.605 111.574 125.728 111.574 125.855C111.574 125.983 111.624 126.106 111.713 126.197C111.802 126.289 111.924 126.343 112.052 126.347Z" fill="#1E1E22"/>
<path d="M116.737 125.461C116.865 125.456 116.987 125.403 117.076 125.311C117.165 125.219 117.215 125.096 117.215 124.969C117.215 124.841 117.165 124.718 117.076 124.627C116.987 124.535 116.865 124.481 116.737 124.477C116.609 124.481 116.488 124.535 116.399 124.627C116.31 124.718 116.26 124.841 116.26 124.969C116.26 125.096 116.31 125.219 116.399 125.311C116.488 125.403 116.609 125.456 116.737 125.461Z" fill="#1E1E22"/>
<path d="M118.991 120.797C119.119 120.792 119.241 120.738 119.33 120.647C119.419 120.555 119.469 120.432 119.469 120.305C119.469 120.177 119.419 120.054 119.33 119.962C119.241 119.871 119.119 119.817 118.991 119.812C118.863 119.817 118.742 119.871 118.653 119.962C118.563 120.054 118.514 120.177 118.514 120.305C118.514 120.432 118.563 120.555 118.653 120.647C118.742 120.738 118.863 120.792 118.991 120.797Z" fill="#1E1E22"/>
<path d="M118.577 116.074C118.705 116.07 118.827 116.016 118.916 115.924C119.005 115.832 119.055 115.71 119.055 115.582C119.055 115.454 119.005 115.332 118.916 115.24C118.827 115.148 118.705 115.094 118.577 115.09C118.449 115.094 118.328 115.148 118.238 115.24C118.149 115.332 118.1 115.454 118.1 115.582C118.1 115.71 118.149 115.832 118.238 115.924C118.328 116.016 118.449 116.07 118.577 116.074Z" fill="#1E1E22"/>
<path d="M119.407 124.34C119.535 124.335 119.657 124.281 119.746 124.19C119.835 124.098 119.885 123.975 119.885 123.848C119.885 123.72 119.835 123.597 119.746 123.505C119.657 123.414 119.535 123.36 119.407 123.355C119.279 123.36 119.158 123.414 119.069 123.505C118.979 123.597 118.93 123.72 118.93 123.848C118.93 123.975 118.979 124.098 119.069 124.19C119.158 124.281 119.279 124.335 119.407 124.34Z" fill="#1E1E22"/>
<path d="M118.222 112.117C118.35 112.113 118.471 112.059 118.56 111.967C118.649 111.875 118.699 111.753 118.699 111.625C118.699 111.497 118.649 111.375 118.56 111.283C118.471 111.191 118.35 111.137 118.222 111.133C118.094 111.137 117.972 111.191 117.883 111.283C117.794 111.375 117.744 111.497 117.744 111.625C117.744 111.753 117.794 111.875 117.883 111.967C117.972 112.059 118.094 112.113 118.222 112.117Z" fill="#1E1E22"/>
<path d="M117.747 108.453C117.875 108.449 117.997 108.395 118.086 108.303C118.175 108.211 118.225 108.088 118.225 107.961C118.225 107.833 118.175 107.711 118.086 107.619C117.997 107.527 117.875 107.473 117.747 107.469C117.619 107.473 117.497 107.527 117.408 107.619C117.319 107.711 117.27 107.833 117.27 107.961C117.27 108.088 117.319 108.211 117.408 108.303C117.497 108.395 117.619 108.449 117.747 108.453Z" fill="#1E1E22"/>
<path d="M116.856 104.262C116.985 104.257 117.106 104.203 117.195 104.112C117.284 104.02 117.334 103.897 117.334 103.769C117.334 103.642 117.284 103.519 117.195 103.427C117.106 103.336 116.985 103.282 116.856 103.277C116.728 103.282 116.607 103.336 116.518 103.427C116.429 103.519 116.379 103.642 116.379 103.769C116.379 103.897 116.429 104.02 116.518 104.112C116.607 104.203 116.728 104.257 116.856 104.262Z" fill="#1E1E22"/>
<path d="M115.552 101.015C115.68 101.011 115.801 100.957 115.89 100.865C115.979 100.774 116.029 100.651 116.029 100.523C116.029 100.396 115.979 100.273 115.89 100.181C115.801 100.089 115.68 100.036 115.552 100.031C115.424 100.036 115.302 100.089 115.213 100.181C115.124 100.273 115.074 100.396 115.074 100.523C115.074 100.651 115.124 100.774 115.213 100.865C115.302 100.957 115.424 101.011 115.552 101.015Z" fill="#1E1E22"/>
<path d="M114.364 97.2342C114.492 97.2298 114.614 97.176 114.703 97.0842C114.792 96.9924 114.842 96.8697 114.842 96.7421C114.842 96.6144 114.792 96.4918 114.703 96.4C114.614 96.3082 114.492 96.2544 114.364 96.25C114.236 96.2544 114.115 96.3082 114.026 96.4C113.937 96.4918 113.887 96.6144 113.887 96.7421C113.887 96.8697 113.937 96.9924 114.026 97.0842C114.115 97.176 114.236 97.2298 114.364 97.2342Z" fill="#1E1E22"/>
<path d="M113.712 93.0428C113.84 93.0384 113.961 92.9846 114.051 92.8928C114.14 92.801 114.189 92.6783 114.189 92.5507C114.189 92.423 114.14 92.3004 114.051 92.2086C113.961 92.1168 113.84 92.063 113.712 92.0586C113.584 92.063 113.462 92.1168 113.373 92.2086C113.284 92.3004 113.234 92.423 113.234 92.5507C113.234 92.6783 113.284 92.801 113.373 92.8928C113.462 92.9846 113.584 93.0384 113.712 93.0428Z" fill="#1E1E22"/>
<path d="M113.712 88.4959C113.84 88.4915 113.961 88.4377 114.05 88.3459C114.14 88.2541 114.189 88.1314 114.189 88.0038C114.189 87.8762 114.14 87.7535 114.05 87.6617C113.961 87.5699 113.84 87.5161 113.712 87.5117C113.584 87.5161 113.462 87.5699 113.373 87.6617C113.284 87.7535 113.234 87.8762 113.234 88.0038C113.234 88.1314 113.284 88.2541 113.373 88.3459C113.462 88.4377 113.584 88.4915 113.712 88.4959Z" fill="#1E1E22"/>
<path d="M152.778 57.6102C152.601 57.63 152.43 57.6887 152.278 57.7821C152.119 57.8724 151.966 57.9734 151.821 58.0846C151.528 58.3083 151.25 58.5506 150.989 58.8099C150.469 59.3333 149.976 59.8829 149.512 60.4566C148.583 61.6054 147.717 62.8044 146.893 64.0336C146.475 64.643 146.091 65.2759 145.705 65.9079L144.53 67.7922L143.352 69.6741L142.233 71.5887L142.23 71.5936C142.193 71.6572 142.132 71.7035 142.06 71.7223C141.989 71.741 141.913 71.7308 141.849 71.6938C141.825 71.6796 141.803 71.6621 141.784 71.6416L140.38 70.118C139.911 69.6068 139.473 69.0736 139.032 68.5416C138.14 67.4787 137.318 66.3599 136.57 65.1921C136.381 64.8943 136.215 64.5835 136.071 64.2622L135.853 63.7737C135.77 63.6022 135.715 63.4181 135.691 63.2289C135.666 63.0358 135.67 62.8401 135.702 62.6481C135.736 62.4707 135.763 62.3163 135.785 62.1478C135.83 61.8199 135.848 61.4887 135.838 61.1578C135.833 60.8391 135.77 60.5238 135.654 60.2268C135.481 59.9165 135.351 59.5842 135.268 59.2391C135.102 58.5777 134.931 57.9158 134.714 57.2697C134.512 56.6216 134.247 55.9946 133.923 55.3976C133.77 55.1055 133.569 54.8413 133.328 54.6158C133.27 54.565 133.206 54.5222 133.137 54.4885L133.037 54.4406L132.932 54.4243C132.865 54.4109 132.795 54.4143 132.73 54.4343C132.664 54.4543 132.604 54.4902 132.556 54.5389C132.395 54.8104 132.341 55.1318 132.406 55.4404C132.442 55.7767 132.502 56.1102 132.585 56.4383C132.665 56.7696 132.763 57.0977 132.856 57.4283L132.993 57.9279C133.048 58.105 133.075 58.2893 133.075 58.4746C133.065 58.5756 133.032 58.673 132.978 58.7592C132.924 58.8455 132.851 58.9183 132.765 58.9722C132.592 59.0779 132.385 59.1133 132.187 59.0712C131.824 58.9723 131.511 58.743 131.308 58.4276C130.902 57.8596 130.565 57.2454 130.305 56.5981C130.169 56.2798 130.043 55.9574 129.925 55.6323L129.838 55.3891C129.811 55.3178 129.778 55.2489 129.739 55.1834C129.663 55.0523 129.559 54.9387 129.436 54.8502C129.188 54.6712 128.88 54.5966 128.578 54.6426C128.431 54.6657 128.29 54.7188 128.165 54.7983C128.039 54.8779 127.931 54.9824 127.848 55.1052L127.827 55.1299L127.818 55.1471C127.806 55.1657 127.79 55.1818 127.772 55.1944C127.753 55.207 127.733 55.2158 127.711 55.2204C127.689 55.225 127.666 55.2253 127.644 55.2213C127.623 55.2172 127.602 55.2088 127.583 55.1967L127.569 55.1869L127.554 55.1744C127.468 55.1065 127.372 55.0521 127.27 55.0131C127.186 54.9771 127.093 54.9685 127.004 54.9888C126.924 55.0158 126.857 55.0717 126.816 55.1454C126.79 55.1905 126.766 55.2368 126.745 55.2842L126.693 55.4465C126.683 55.478 126.665 55.5067 126.642 55.5301C126.618 55.5536 126.589 55.571 126.558 55.5812C126.526 55.5913 126.492 55.5937 126.459 55.5882C126.426 55.5828 126.395 55.5696 126.369 55.5498L126.364 55.5459C126.296 55.4945 126.217 55.4605 126.133 55.4469C126.1 55.4434 126.068 55.4465 126.036 55.4562C126.005 55.4658 125.976 55.4818 125.952 55.503C125.821 55.6589 125.737 55.8485 125.71 56.0499C125.662 56.28 125.635 56.5139 125.628 56.7488C125.609 56.9862 125.623 57.2312 125.621 57.4721C125.621 57.5128 125.611 57.5527 125.592 57.5887C125.573 57.6246 125.545 57.6554 125.512 57.6786L125.497 57.6882C125.344 57.8054 125.221 57.9575 125.138 58.1318C125.048 58.3216 124.991 58.5261 124.973 58.7355C124.943 59.18 125.007 59.6256 125.16 60.0442C125.474 60.9186 125.943 61.73 126.544 62.4398C126.823 62.8034 127.146 63.13 127.508 63.4118C127.88 63.6858 128.278 63.9237 128.696 64.1223C129.111 64.335 129.541 64.5166 129.983 64.6656C130.093 64.7006 130.201 64.7335 130.311 64.7616C130.449 64.7908 130.582 64.8343 130.71 64.8915C130.989 65.0213 131.223 65.2313 131.381 65.4944C131.421 65.5599 131.455 65.6283 131.484 65.699L131.556 65.8689L131.697 66.1996L131.977 66.8608L132.538 68.1832C132.914 69.0639 133.273 69.9512 133.682 70.8171C134.484 72.5546 135.341 74.2681 136.308 75.9112C136.786 76.7318 137.308 77.5267 137.87 78.2925C138.404 79.0575 139.043 79.7444 139.767 80.3332C140.106 80.6099 140.505 80.8034 140.933 80.8983C141.37 80.9505 141.814 80.9114 142.235 80.7838C143.124 80.4856 143.959 80.0496 144.711 79.4919C146.257 78.3647 147.689 77.0889 148.985 75.6828C150.308 74.2935 151.575 72.8428 152.758 71.3273C152.763 71.3203 152.771 71.3156 152.779 71.3144C152.788 71.3131 152.797 71.3153 152.804 71.3205C152.81 71.3257 152.815 71.3333 152.816 71.3417C152.818 71.3501 152.816 71.3588 152.811 71.3658C151.693 72.937 150.494 74.4489 149.218 75.8953C147.947 77.3618 146.534 78.7 144.999 79.8905C144.211 80.4973 143.332 80.9752 142.393 81.3063C141.892 81.4678 141.362 81.5213 140.839 81.4633C140.318 81.3629 139.828 81.1412 139.41 80.8161C138.624 80.2055 137.929 79.4878 137.344 78.684C136.763 77.9024 136.224 77.0901 135.731 76.2505C134.74 74.5825 133.868 72.8556 133.052 71.1064C132.634 70.2358 132.27 69.3415 131.905 68.4488L131.354 67.1109L131.079 66.442L130.941 66.1076L130.874 65.9451C130.858 65.9044 130.839 65.8651 130.816 65.8274C130.727 65.6744 130.593 65.5517 130.433 65.4751C130.304 65.408 130.012 65.3582 129.781 65.2711C129.31 65.1073 128.852 64.9087 128.411 64.677C128.191 64.5634 127.978 64.4466 127.762 64.3206C127.543 64.1916 127.332 64.0481 127.132 63.891C126.736 63.5757 126.382 63.2118 126.078 62.8081C125.445 62.0346 124.959 61.1537 124.641 60.2079C124.474 59.7169 124.412 59.1966 124.458 58.6803C124.479 58.4006 124.561 58.1289 124.699 57.8843C124.836 57.6396 125.026 57.428 125.255 57.2644L125.131 57.4804C125.14 57.2262 125.133 56.9748 125.16 56.7183C125.175 56.4582 125.213 56.1999 125.275 55.9465C125.325 55.6554 125.466 55.387 125.676 55.1782C125.747 55.1206 125.829 55.0782 125.918 55.0536C126.006 55.0291 126.099 55.023 126.189 55.0358C126.352 55.0628 126.505 55.1335 126.63 55.2403L126.301 55.3397L126.374 55.132C126.407 55.0611 126.445 54.9926 126.487 54.9268C126.584 54.7763 126.732 54.6667 126.905 54.6188C127.073 54.5813 127.248 54.5979 127.405 54.6664C127.546 54.724 127.677 54.804 127.793 54.9032L127.528 54.9305L127.572 54.8756L127.551 54.9002C127.665 54.7405 127.811 54.6058 127.979 54.5045C128.148 54.4032 128.335 54.3374 128.53 54.3113C128.919 54.2611 129.311 54.3658 129.623 54.6026C129.777 54.7191 129.904 54.8664 129.998 55.0351C130.045 55.1182 130.084 55.2053 130.115 55.2954L130.196 55.5391C130.304 55.8624 130.42 56.183 130.546 56.4989C130.784 57.133 131.103 57.7341 131.494 58.2874C131.661 58.5592 131.923 58.7602 132.23 58.8522C132.298 58.8716 132.37 58.8762 132.441 58.8657C132.512 58.8552 132.579 58.8298 132.639 58.7912C132.699 58.7526 132.75 58.7018 132.788 58.642C132.827 58.5823 132.852 58.515 132.863 58.4448C132.858 58.2867 132.833 58.1298 132.789 57.978L132.658 57.4833C132.566 57.1529 132.475 56.8207 132.392 56.4854C132.302 56.1488 132.237 55.8065 132.195 55.4609C132.173 55.2832 132.17 55.1038 132.185 54.9254C132.195 54.7293 132.266 54.5413 132.39 54.3883C132.543 54.2563 132.741 54.1875 132.944 54.196C133.146 54.2046 133.337 54.2899 133.479 54.4344C133.745 54.6749 133.968 54.9589 134.139 55.2741C134.475 55.8832 134.759 56.5193 134.988 57.1756C135.228 57.8249 135.421 58.4877 135.608 59.1529C135.696 59.4736 135.828 59.7807 136.001 60.0651C136.149 60.4035 136.234 60.7659 136.251 61.1346C136.273 61.4896 136.264 61.8457 136.226 62.1992C136.208 62.3717 136.182 62.5564 136.156 62.7171C136.136 62.8648 136.137 63.0146 136.161 63.1619C136.184 63.3133 136.234 63.4595 136.308 63.5939L136.523 64.0403C136.669 64.342 136.836 64.6329 137.023 64.9108C137.774 66.0476 138.594 67.1379 139.478 68.1756C140.353 69.2288 141.276 70.2357 142.193 71.2549L141.744 71.3077L142.892 69.3952L144.096 67.519L145.303 65.6453C145.708 65.0229 146.111 64.3986 146.55 63.7967C147.406 62.5777 148.323 61.4028 149.298 60.2766C149.793 59.717 150.316 59.1831 150.865 58.6771C151.142 58.424 151.436 58.1906 151.745 57.9787C151.901 57.8732 152.064 57.7784 152.234 57.6951C152.405 57.602 152.595 57.5508 152.79 57.5457C152.799 57.5461 152.807 57.5497 152.812 57.5557C152.818 57.5617 152.821 57.5698 152.821 57.5781C152.821 57.5864 152.818 57.5944 152.812 57.6003C152.806 57.6063 152.798 57.6097 152.79 57.61L152.778 57.6102Z" fill="#1E1E22"/>
<path d="M114.839 84.5389C114.967 84.5345 115.088 84.4807 115.178 84.3889C115.267 84.2971 115.316 84.1744 115.316 84.0468C115.316 83.9191 115.267 83.7965 115.178 83.7047C115.088 83.6129 114.967 83.5591 114.839 83.5547C114.711 83.5591 114.589 83.6129 114.5 83.7047C114.411 83.7965 114.361 83.9191 114.361 84.0468C114.361 84.1744 114.411 84.2971 114.5 84.3889C114.589 84.4807 114.711 84.5345 114.839 84.5389Z" fill="#1E1E22"/>
<path d="M127.672 55.0391C127.808 55.4241 127.92 55.8051 128.059 56.1759C128.198 56.5464 128.345 56.9114 128.516 57.2659C128.681 57.623 128.868 57.9698 129.066 58.312C129.266 58.6545 129.485 58.9859 129.701 59.3323C129.067 58.809 128.56 58.1503 128.218 57.4052C127.864 56.6658 127.678 55.858 127.672 55.0391Z" fill="#1E1E22"/>
<path d="M126.498 55.3945C126.564 55.8773 126.587 56.358 126.681 56.8165C126.773 57.2754 126.916 57.7228 127.106 58.1506C127.298 58.578 127.535 58.9833 127.815 59.3593C128.107 59.7286 128.412 60.1146 128.686 60.5134C128.312 60.2023 127.955 59.8715 127.617 59.5223C126.942 58.7837 126.524 57.8475 126.428 56.8535C126.393 56.3661 126.416 55.8764 126.498 55.3945Z" fill="#1E1E22"/>
<path d="M125.375 57.4766C125.507 57.8022 125.62 58.1352 125.713 58.4737C125.814 58.7971 125.939 59.1123 126.088 59.4165C126.242 59.7218 126.412 60.0183 126.599 60.3044C126.785 60.6044 126.951 60.9157 127.097 61.2364C126.845 60.9896 126.608 60.7273 126.388 60.4512C126.154 60.1795 125.954 59.8802 125.792 59.5599C125.634 59.2345 125.524 58.8883 125.464 58.5317C125.411 58.1824 125.381 57.8299 125.375 57.4766Z" fill="#1E1E22"/>
</g>
<defs>
<clipPath id="clip0">
<rect width="236" height="236" fill="white"/>
</clipPath>
</defs>
</svg>
