<svg width="238" height="238" viewBox="0 0 238 238" fill="none" xmlns="http://www.w3.org/2000/svg">
<g clip-path="url(#clip0)">
<path d="M160.65 44.8644C176.12 55.6934 193.613 60.6914 201.705 72.1154C209.916 83.5394 208.607 101.27 207.06 118.049C205.394 134.947 203.609 150.893 191.471 155.296C179.333 159.699 156.723 152.559 142.919 161.603C129.115 170.647 124.117 195.875 118.405 196.946C112.693 198.017 106.386 174.931 95.3187 164.221C84.2517 153.63 68.5437 155.415 53.6687 149.941C38.9127 144.467 25.1087 131.734 30.9397 122.333C36.7707 112.932 62.2367 106.982 71.9947 92.8214C81.7527 78.5414 75.8027 56.2884 81.0387 39.6284C86.2747 22.9684 102.578 11.9014 117.453 14.7574C132.209 17.4944 145.299 34.0354 160.65 44.8644Z" fill="#F5F5F5"/>
<path d="M95.5773 205.374C94.8534 202.99 94.1244 200.611 93.4313 198.221C92.7382 195.832 92.0605 193.438 91.4085 191.038C90.7514 188.633 90.1301 186.223 89.5295 183.808L89.242 182.66C89.0218 182.869 88.7867 183.062 88.5386 183.237L88.7799 184.019C89.5192 186.398 90.2431 188.777 90.931 191.172C91.6241 193.561 92.2933 195.957 92.9384 198.36C93.5494 200.59 94.1193 202.835 94.6943 205.075C91.5214 205.008 88.3486 204.905 85.1758 204.864L80.1599 204.782L75.1491 204.736L65.1224 204.658L60.1116 204.653L55.7631 204.684C55.4397 202.568 55.0752 200.456 54.7261 198.33L53.5196 191.259L50.9372 176.779L55.4551 177.073L57.673 177.196L59.9422 177.294C62.961 177.418 65.9832 177.51 69.0089 177.572C72.0328 177.644 75.0567 177.655 78.0806 177.66C78.6351 177.655 79.1896 177.649 79.7389 177.644C79.757 177.165 79.8632 176.694 80.0521 176.254L78.0704 176.269L69.014 176.336L59.9525 176.434L57.6832 176.47L55.3729 176.527L50.8242 176.676L52.4568 190.945L53.3604 198.247C53.6736 200.693 53.9714 203.144 54.3205 205.59L54.418 206.26L55.0957 206.265L60.1116 206.306L65.1224 206.301L75.1491 206.218L80.1599 206.172L85.1758 206.09C88.5181 206.049 91.8603 205.935 95.2025 205.868L95.7262 205.858L95.5773 205.374Z" fill="#1E1E22"/>
<path d="M122.589 128.787C115.607 139.401 109.117 150.786 107.926 152.887C106.955 150.21 106.256 147.441 105.842 144.622C105.842 144.622 105.801 144.694 105.724 144.828C105.653 144.429 105.605 144.027 105.58 143.623C105.523 143.015 105.503 142.403 105.503 141.795C105.51 140.575 105.578 139.357 105.708 138.144C105.846 136.91 105.884 135.667 105.821 134.426C105.791 133.184 105.555 131.955 105.123 130.791C105.26 131.388 105.345 131.996 105.374 132.608C105.424 133.216 105.443 133.827 105.431 134.436C105.41 135.657 105.333 136.874 105.2 138.087C105.064 139.322 105.033 140.566 105.107 141.805C105.159 142.866 105.343 143.917 105.657 144.931C103.889 147.753 101.841 150.388 99.5422 152.794C97.5032 154.933 95.144 156.74 92.5497 158.15C87.9291 160.683 79.8995 165.086 78.1437 166.054C78.2914 165.437 78.3638 164.804 78.3593 164.169C78.3593 161.862 79.7044 159.113 80.3154 156.919V156.914L83.5446 157.521C85.6034 157.532 87.6673 157.547 89.7414 157.377C87.811 156.615 85.8858 155.92 83.9656 155.209L80.5618 154.571C80.52 154.333 80.4278 154.107 80.2914 153.908C80.155 153.709 79.9776 153.542 79.7712 153.417C78.1796 152.434 77.0193 152.434 76.2287 153.752L74.976 153.51C74.1392 149.354 72.3731 147.964 71.1512 147.506C70.7412 147.338 70.2993 147.265 69.8574 147.289C69.8574 147.289 69.8728 147.279 69.8985 147.259C70.6481 146.671 82.0815 137.655 88.3193 127.969C94.7727 117.943 101.329 111.784 108.301 111.624C108.301 111.624 115.529 111.573 119.067 111.882C120.088 113.592 121.536 124.333 122.589 128.787Z" fill="#1E1E22"/>
<path d="M123.82 168.812C123.965 168.855 124.113 168.889 124.262 168.916H114.902L123.82 168.812Z" fill="#1E1E22"/>
<path d="M132.168 115.483C132.425 113.974 132.671 112.331 132.902 110.539C132.902 110.539 134.889 110.2 137.928 109.891C136.347 110.838 134.36 112.836 132.168 115.483Z" fill="#1E1E22"/>
<path d="M173.569 168.914H126.131C132.79 167.652 140.84 153.939 147.37 140.159C147.406 141.285 147.509 142.408 147.678 143.522C147.832 144.65 148.115 145.757 148.325 146.848C148.517 147.948 148.652 149.057 148.731 150.17C148.801 151.283 148.789 152.4 148.695 153.512C148.615 154.618 148.405 155.71 148.068 156.766L148.063 156.782L148.058 156.807C147.928 157.758 147.881 158.717 147.92 159.676C147.955 160.629 148.069 161.578 148.258 162.513C148.447 163.448 148.742 164.359 149.136 165.227C149.526 166.091 150.027 166.902 150.625 167.637C150.081 166.869 149.629 166.04 149.28 165.165C148.939 164.292 148.688 163.386 148.531 162.462C148.216 160.622 148.202 158.744 148.489 156.9C148.484 156.91 148.484 156.916 148.479 156.926L148.489 156.885C148.843 155.806 149.071 154.69 149.167 153.558C149.271 152.422 149.294 151.279 149.234 150.139C149.162 149.003 149.018 147.873 148.803 146.756C148.577 145.633 148.294 144.552 148.13 143.45C147.921 142.101 147.789 140.741 147.735 139.377C154.481 125.01 159.507 110.812 159.507 110.812C163.034 111.806 165.966 113.434 167.531 116.003C167.831 116.498 168.154 116.978 168.502 117.44C170.827 120.463 177.984 129.459 173.569 168.914Z" fill="#1E1E22"/>
<path d="M122.494 128.885C122.024 127.206 121.676 125.497 121.304 123.797L120.269 118.686L119.723 116.143C119.537 115.3 119.347 114.455 119.111 113.642C119.052 113.438 118.996 113.232 118.924 113.043C118.867 112.858 118.795 112.678 118.708 112.505C118.53 112.159 118.303 111.84 118.036 111.556C117.777 111.272 117.478 111.027 117.149 110.829C116.988 110.735 116.819 110.654 116.644 110.589C116.489 110.53 116.327 110.489 116.163 110.466L116.421 110.415C115.8 110.7 115.146 110.902 114.474 111.017C113.791 111.137 113.092 111.14 112.409 111.024C111.693 110.905 111.024 110.591 110.475 110.115C109.978 109.651 109.548 109.119 109.197 108.536C108.529 107.433 107.945 106.281 107.449 105.089C106.944 103.914 106.487 102.728 106.071 101.518L106.37 101.715C105.859 101.751 105.346 101.659 104.88 101.446C104.629 101.32 104.42 101.124 104.277 100.882C104.146 100.646 104.07 100.382 104.057 100.112C104.042 99.6181 104.123 99.1258 104.294 98.6623C104.449 98.2092 104.649 97.773 104.891 97.3603C105.397 96.6234 105.639 95.7354 105.576 94.8424C105.535 94.4016 105.411 93.9726 105.21 93.5788C104.999 93.1887 104.759 92.7664 104.567 92.3419C104.364 91.915 104.2 91.4711 104.075 91.0153C103.937 90.5662 103.825 90.11 103.737 89.6485C103.629 89.1903 103.591 88.7204 103.517 88.2554C103.483 87.7861 103.435 87.3163 103.442 86.8441C103.434 85.8977 103.523 84.9529 103.709 84.025C103.889 83.0807 104.187 82.1629 104.596 81.2933C104.626 81.2321 104.672 81.1806 104.73 81.1446C104.788 81.1087 104.854 81.0897 104.922 81.0898C104.99 81.09 105.056 81.1093 105.114 81.1456C105.171 81.1819 105.217 81.2336 105.247 81.2949L105.265 81.3326C106.05 82.9425 107.017 84.4567 108.146 85.8457C109.259 87.2329 110.566 88.4511 112.027 89.4622C112.75 89.9599 113.521 90.3816 114.33 90.7209C115.129 91.0669 115.966 91.3195 116.823 91.4738C118.542 91.7753 120.304 91.7329 122.008 91.3491L122.041 91.3423C122.145 91.3213 122.253 91.3291 122.352 91.3649C122.452 91.4007 122.54 91.463 122.607 91.5453C122.819 91.8076 123.004 92.0913 123.157 92.3917C123.306 92.6663 123.437 92.95 123.55 93.241C123.774 93.8105 123.953 94.3974 124.083 94.9958C124.322 96.1746 124.429 97.3765 124.401 98.5792C124.381 99.7649 124.264 100.947 124.052 102.114C123.944 102.711 123.878 103.235 123.793 103.791C123.76 104.065 123.743 104.34 123.739 104.616C123.716 104.89 123.714 105.166 123.733 105.44C123.751 106.527 124.016 107.595 124.508 108.564C125 109.517 125.768 110.3 126.711 110.808C127.686 111.311 128.778 111.546 129.873 111.489C130.994 111.418 132.098 111.178 133.148 110.777L133.169 110.769C133.202 110.757 133.238 110.754 133.273 110.761C133.307 110.767 133.34 110.782 133.367 110.805C133.394 110.828 133.414 110.857 133.426 110.89C133.438 110.924 133.441 110.959 133.435 110.994C133.195 112.316 132.961 113.637 132.707 114.952C132.704 114.968 132.696 114.981 132.683 114.99C132.67 114.999 132.654 115.002 132.639 114.999C132.624 114.996 132.612 114.987 132.603 114.975C132.594 114.963 132.59 114.948 132.592 114.933C132.725 113.599 132.877 112.269 133.025 110.941L133.312 111.158C132.238 111.662 131.088 111.982 129.91 112.106C128.695 112.227 127.47 112.024 126.36 111.516C125.23 110.985 124.296 110.108 123.694 109.012C123.102 107.932 122.762 106.731 122.701 105.5C122.672 105.199 122.664 104.896 122.679 104.593C122.674 104.292 122.685 103.99 122.711 103.689C122.78 103.1 122.846 102.476 122.927 101.933C123.096 100.82 123.186 99.6958 123.196 98.5698C123.207 97.4594 123.094 96.3512 122.859 95.266C122.743 94.7352 122.585 94.2144 122.388 93.7083C122.293 93.4605 122.182 93.2189 122.056 92.9852C121.947 92.7712 121.819 92.5675 121.674 92.3763L122.273 92.5724C120.406 92.9883 118.473 93.0107 116.596 92.638C115.66 92.4523 114.748 92.1598 113.878 91.7663C113.01 91.384 112.182 90.9134 111.41 90.362C109.88 89.2686 108.527 87.9453 107.399 86.4387C106.257 84.9601 105.309 83.3408 104.577 81.6204L105.245 81.6597C104.434 83.2716 103.993 85.0453 103.956 86.8505C103.917 87.7612 103.984 88.6733 104.155 89.5686C104.234 90.0181 104.337 90.4629 104.464 90.9011C104.577 91.3406 104.729 91.7691 104.918 92.1818C105.102 92.6032 105.315 92.9896 105.537 93.4164C105.749 93.8536 105.881 94.3249 105.929 94.8084C106.009 95.7794 105.759 96.7488 105.219 97.5589C104.768 98.3197 104.527 99.1875 104.521 100.073C104.528 100.263 104.587 100.448 104.693 100.606C104.799 100.764 104.946 100.89 105.119 100.969C105.507 101.116 105.925 101.166 106.337 101.115C106.398 101.11 106.46 101.125 106.512 101.158C106.565 101.19 106.606 101.239 106.629 101.296L106.635 101.313C107.099 102.477 107.612 103.633 108.16 104.761C108.691 105.886 109.306 106.97 109.999 108.003C110.313 108.498 110.693 108.948 111.128 109.341C111.552 109.683 112.057 109.909 112.595 109.996C113.746 110.142 114.914 109.963 115.97 109.48L116.015 109.461C116.082 109.433 116.155 109.422 116.228 109.429C116.494 109.46 116.755 109.525 117.004 109.624C117.234 109.713 117.457 109.821 117.669 109.949C118.082 110.203 118.455 110.516 118.778 110.877C119.104 111.23 119.376 111.628 119.587 112.06C119.69 112.278 119.775 112.504 119.841 112.736C119.918 112.956 119.97 113.171 120.026 113.387C120.47 115.109 120.747 116.823 121.026 118.546L121.816 123.706C122.056 125.428 122.316 127.145 122.608 128.859C122.609 128.866 122.609 128.874 122.608 128.882C122.606 128.889 122.603 128.896 122.599 128.903C122.594 128.909 122.589 128.915 122.582 128.919C122.576 128.923 122.569 128.926 122.561 128.927C122.547 128.93 122.532 128.927 122.52 128.919C122.507 128.911 122.498 128.899 122.494 128.885Z" fill="#1E1E22"/>
<path d="M105.155 101.867C105.029 102.8 104.92 103.73 104.815 104.656C104.718 105.584 104.634 106.51 104.604 107.436C104.557 108.357 104.596 109.28 104.72 110.193C104.784 110.644 104.904 111.086 105.078 111.508C105.246 111.939 105.526 112.316 105.888 112.602C105.459 112.381 105.105 112.037 104.871 111.614C104.633 111.192 104.46 110.738 104.358 110.265C104.16 109.33 104.084 108.374 104.131 107.419C104.21 105.53 104.555 103.661 105.155 101.867Z" fill="#1E1E22"/>
<path d="M104.874 82.0958C104.753 81.8846 104.677 81.6512 104.649 81.4097C104.621 81.1681 104.642 80.9233 104.71 80.6901L104.805 80.3394L104.955 80.0143C105.007 79.9064 105.056 79.7951 105.114 79.6908L105.314 79.3975C105.58 79.0066 105.88 78.6404 106.212 78.3035C106.547 77.977 106.904 77.676 107.254 77.3632C108.73 76.2432 110.312 75.2695 111.976 74.4558C112.807 74.0605 113.646 73.6823 114.485 73.3063C115.334 72.9569 116.188 72.6195 117.044 72.2878C117.902 71.9728 118.773 71.7009 119.639 71.4123C120.077 71.2801 120.5 71.13 120.968 71.0001C121.422 70.8778 121.883 70.7796 122.347 70.7059C124.191 70.4015 126.078 70.4786 127.892 70.9324C129.699 71.389 131.369 72.2763 132.76 73.5191C134.133 74.7807 135.264 76.2836 136.097 77.9535C136.936 79.616 137.577 81.3715 138.007 83.1839L138.016 83.233C138.464 85.7212 139.258 88.1339 140.376 90.4002C140.927 91.5313 141.565 92.6177 142.284 93.6494C142.627 94.1755 143.024 94.6592 143.411 95.1521C143.804 95.6385 144.245 96.0838 144.67 96.5418L146.062 97.8355L146.792 98.5173C147.041 98.7379 147.244 99.0082 147.472 99.2511C148.367 100.244 149.106 101.368 149.662 102.584C150.815 104.988 151.104 107.718 150.479 110.311C150.475 110.326 150.466 110.338 150.453 110.346C150.441 110.354 150.425 110.357 150.411 110.354C150.396 110.351 150.383 110.343 150.375 110.331C150.366 110.318 150.362 110.303 150.364 110.289L150.365 110.282C150.53 109.016 150.479 107.731 150.215 106.482C149.976 105.245 149.542 104.054 148.929 102.953C148.787 102.675 148.627 102.406 148.45 102.149C148.274 101.891 148.115 101.623 147.927 101.374C147.55 100.876 147.142 100.404 146.705 99.9589C146.483 99.7401 146.288 99.4958 146.044 99.2979L145.335 98.6857L143.848 97.3938C141.937 95.5425 140.385 93.3513 139.272 90.9316C138.718 89.7335 138.25 88.4976 137.87 87.233C137.477 85.9672 137.189 84.6711 137.008 83.3579L137.017 83.4068C136.668 81.6433 136.146 79.9187 135.461 78.2576C134.772 76.5946 133.762 75.0851 132.488 73.8164C131.832 73.2029 131.103 72.6743 130.316 72.2429C129.524 71.8211 128.677 71.5121 127.8 71.3247C126.043 70.9735 124.231 71.0168 122.493 71.4514C122.063 71.5513 121.638 71.6738 121.22 71.8185C120.818 71.9604 120.392 72.145 119.967 72.3069L117.41 73.2667C116.57 73.606 115.729 73.9395 114.882 74.261L112.393 75.3342C110.753 76.0719 109.173 76.9346 107.665 77.9149C107.313 78.184 106.948 78.4446 106.606 78.7279C106.271 79.015 105.96 79.3285 105.675 79.6653L105.462 79.9183C105.4 80.0076 105.349 80.1027 105.29 80.1943L105.118 80.4735L104.998 80.7737C104.827 81.1722 104.816 81.6219 104.969 82.0279L104.975 82.0402C104.981 82.0535 104.982 82.0687 104.977 82.0826C104.972 82.0965 104.963 82.1082 104.95 82.1152C104.937 82.1223 104.922 82.1242 104.908 82.1206C104.894 82.1169 104.881 82.1081 104.873 82.0958L104.874 82.0958Z" fill="#1E1E22"/>
<path d="M106.322 93.445C107.132 92.8609 108.016 92.3873 108.951 92.0367C109.418 91.8566 109.897 91.7121 110.386 91.6045C110.878 91.4782 111.39 91.4545 111.891 91.535C111.412 91.64 110.943 91.7826 110.487 91.9613L109.119 92.4806C108.204 92.8251 107.29 93.1813 106.322 93.445Z" fill="#1E1E22"/>
<path d="M108.884 96.7267C109.068 96.7203 109.243 96.6424 109.371 96.5094C109.499 96.3764 109.571 96.1987 109.571 96.0138C109.571 95.8288 109.499 95.6511 109.371 95.5181C109.243 95.3851 109.068 95.3072 108.884 95.3008C108.7 95.3072 108.525 95.3851 108.397 95.5181C108.269 95.6511 108.197 95.8288 108.197 96.0138C108.197 96.1987 108.269 96.3764 108.397 96.5094C108.525 96.6424 108.7 96.7203 108.884 96.7267Z" fill="#1E1E22"/>
<path d="M107.738 105.367C108.441 105.385 109.143 105.328 109.834 105.199C110.172 105.132 110.51 105.057 110.849 104.964C111.19 104.875 111.526 104.765 111.891 104.68C111.341 105.19 110.657 105.532 109.92 105.666C109.55 105.732 109.173 105.746 108.799 105.706C108.425 105.675 108.062 105.559 107.738 105.367Z" fill="#1E1E22"/>
<path d="M148.489 156.887V156.902C148.484 156.913 148.484 156.918 148.479 156.928L148.489 156.887Z" fill="white"/>
<path d="M121.371 130.653C122.044 129.086 122.829 127.57 123.718 126.116C124.58 124.655 125.519 123.245 126.503 121.868C127.49 120.494 128.526 119.153 129.638 117.871C130.732 116.561 131.934 115.346 133.23 114.238C132.405 115.745 131.519 117.18 130.599 118.595C129.688 120.015 128.734 121.402 127.753 122.77C126.769 124.137 125.761 125.486 124.701 126.801C123.65 128.122 122.565 129.419 121.371 130.653Z" fill="#1E1E22"/>
<path d="M159.506 110.813C152.632 108.866 143.508 109.325 137.928 109.891C138.262 109.685 138.621 109.521 138.996 109.402C138.996 109.402 154.932 106.58 159.506 110.813Z" fill="white"/>
<path d="M159.574 110.854C159.358 110.827 159.14 110.814 158.923 110.813C158.658 110.803 158.394 110.779 158.132 110.74C157.682 110.696 157.233 110.658 156.789 110.602C156.34 110.566 155.893 110.533 155.449 110.484C155.003 110.447 154.554 110.429 154.111 110.384L151.434 110.226C150.54 110.191 149.648 110.137 148.753 110.074C146.965 109.947 145.16 109.727 143.353 109.75C141.547 109.783 139.746 109.966 137.969 110.297L136.162 110.62L137.723 109.546C138.074 109.295 138.455 109.089 138.857 108.932L138.911 108.919C140.633 108.497 142.381 108.188 144.143 107.993C145.022 107.884 145.905 107.804 146.791 107.736C147.677 107.693 148.567 107.645 149.458 107.672C151.254 107.684 153.043 107.888 154.796 108.28C155.683 108.48 156.546 108.773 157.371 109.154C157.784 109.351 158.179 109.582 158.553 109.845C158.741 109.973 158.913 110.13 159.09 110.269C159.195 110.357 159.289 110.458 159.37 110.57C159.452 110.685 159.509 110.781 159.574 110.854ZM159.44 110.778C159.345 110.719 159.242 110.675 159.135 110.646C159.052 110.621 158.972 110.586 158.897 110.543C158.701 110.451 158.517 110.347 158.318 110.27C157.922 110.115 157.518 109.984 157.108 109.876C156.282 109.67 155.443 109.528 154.596 109.452C152.888 109.299 151.174 109.247 149.46 109.298C147.739 109.338 146.01 109.393 144.278 109.491C142.548 109.597 140.81 109.756 139.082 109.891L139.137 109.878C138.789 109.957 138.452 110.079 138.135 110.242L137.888 109.491C139.71 109.449 141.521 109.386 143.33 109.241C145.138 109.101 146.953 108.823 148.783 108.778C149.24 108.771 149.697 108.754 150.154 108.783C150.611 108.801 151.068 108.812 151.524 108.864C151.98 108.91 152.436 108.942 152.891 108.999C153.345 109.066 153.799 109.125 154.252 109.201C155.157 109.354 156.054 109.554 156.939 109.799C157.381 109.928 157.818 110.075 158.253 110.217C158.432 110.296 158.607 110.384 158.777 110.481C158.989 110.6 159.211 110.699 159.44 110.778Z" fill="#1E1E22"/>
<path d="M108.119 154.922C109.014 155.141 109.865 155.343 110.716 155.52C111.568 155.685 112.412 155.82 113.259 155.906C113.681 155.964 114.105 155.972 114.53 156.008C114.954 156.006 115.383 156.042 115.812 156.021C116.677 156.028 117.531 155.908 118.46 155.854C117.695 156.383 116.83 156.749 115.919 156.931C115.006 157.135 114.066 157.183 113.137 157.074C112.212 156.98 111.306 156.751 110.448 156.393C109.586 156.053 108.796 155.554 108.119 154.922Z" fill="#1E1E22"/>
<path d="M129.844 156.566C130.738 156.785 131.589 156.988 132.44 157.165C133.293 157.33 134.137 157.465 134.983 157.551C135.406 157.609 135.83 157.617 136.255 157.652C136.679 157.651 137.108 157.686 137.536 157.666C138.402 157.672 139.256 157.552 140.185 157.499C139.42 158.027 138.555 158.394 137.644 158.576C136.731 158.779 135.791 158.827 134.862 158.719C133.937 158.625 133.031 158.395 132.172 158.037C131.311 157.698 130.521 157.199 129.844 156.566Z" fill="#1E1E22"/>
<path d="M57.3753 167.895C57.8895 168.56 58.2966 169.302 58.5818 170.093H58.3302C50.0029 170.088 41.6773 170.007 33.3533 169.851C25.026 169.681 16.6986 169.475 8.37129 169.12C8.35768 169.12 8.34428 169.117 8.33189 169.111C8.31951 169.105 8.30841 169.097 8.29928 169.087C8.29015 169.077 8.28318 169.065 8.27879 169.052C8.2744 169.039 8.27268 169.025 8.27374 169.012C8.27545 168.986 8.28627 168.963 8.30421 168.945C8.32215 168.927 8.34598 168.916 8.37129 168.914C16.6986 168.548 25.0209 168.337 33.3482 168.162C41.3572 168.003 49.3663 167.913 57.3753 167.895Z" fill="#1E1E22"/>
<path d="M83.7482 168.024C83.3728 168.618 83.0596 169.25 82.8138 169.909C80.1287 169.94 77.4453 169.967 74.7637 169.991C75.8033 169.609 76.6926 168.901 77.2999 167.973C79.451 167.988 81.6004 168.005 83.7482 168.024Z" fill="#1E1E22"/>
<path d="M208.305 168.816C208.305 168.829 208.303 168.842 208.298 168.854C208.294 168.866 208.287 168.877 208.277 168.886C208.268 168.895 208.257 168.902 208.245 168.907C208.233 168.912 208.22 168.914 208.207 168.914C199.885 169.284 191.558 169.506 183.231 169.634L176.988 169.717L173.645 169.743L170.74 169.763C168.66 169.779 166.576 169.794 164.497 169.784C162.412 169.789 160.329 169.777 158.249 169.748C154.198 169.691 150.147 169.598 146.096 169.506C141.825 169.408 137.548 169.315 133.272 169.259C124.944 169.171 116.617 169.248 108.29 169.444C104.557 169.542 100.825 169.624 97.0923 169.691C95.9988 169.212 94.7615 168.677 93.5293 168.141C98.4477 168.208 103.368 168.301 108.29 168.419C116.617 168.599 124.944 168.642 133.272 168.548C141.594 168.419 149.921 168.136 158.249 167.997C160.328 167.966 162.409 167.949 164.491 167.945C166.576 167.93 168.655 167.94 170.74 167.951L176.982 167.981L183.231 168.054C191.553 168.162 199.88 168.357 208.207 168.708C208.221 168.708 208.234 168.712 208.246 168.717C208.259 168.723 208.27 168.731 208.279 168.741C208.288 168.751 208.295 168.763 208.299 168.776C208.304 168.789 208.306 168.802 208.305 168.816Z" fill="#1E1E22"/>
<path d="M150.633 169.076C147.253 169.558 143.857 169.946 140.462 170.295C137.065 170.628 133.666 170.944 130.266 171.242C126.867 171.547 123.463 171.794 120.061 172.061C116.658 172.315 113.257 172.593 109.85 172.808L109.846 172.808C109.816 172.81 109.786 172.809 109.757 172.806L100.608 171.728L100.601 171.727C100.555 171.722 100.512 171.71 100.47 171.691C96.8527 170.053 93.2385 168.406 89.6074 166.806C88.701 166.411 87.7858 166.002 86.8814 165.646C86.5976 165.462 86.1601 165.767 85.7888 166.034C85.4106 166.33 85.064 166.664 84.7543 167.032C83.485 168.524 82.6851 170.36 82.4556 172.308C82.4521 172.34 82.4414 172.37 82.4241 172.398C82.0028 173.042 81.5898 173.692 81.2038 174.355C80.8094 175.008 80.469 175.692 80.186 176.401C80.0288 176.729 79.9416 177.087 79.9301 177.45C79.9186 177.814 79.983 178.176 80.1192 178.514C80.5269 179.173 80.8997 179.853 81.2358 180.552C81.2508 180.592 81.2533 180.635 81.243 180.676L81.2423 180.679C81.1289 181.143 81.081 181.62 81.1001 182.098C81.1114 182.567 81.2232 183.028 81.4278 183.45C81.6316 183.862 81.9639 184.196 82.3743 184.401C82.5777 184.511 82.7937 184.597 83.0175 184.655C83.2426 184.715 83.4821 184.735 83.7134 184.776L83.6698 184.777C84.3196 184.682 84.961 184.536 85.5881 184.341C86.2151 184.15 86.8235 183.903 87.406 183.603C87.6946 183.455 87.9728 183.288 88.2387 183.102C88.5066 182.922 88.735 182.696 88.9857 182.498C89.4518 182.073 89.817 181.549 90.0546 180.965C90.0782 180.905 90.1194 180.855 90.1727 180.82C90.2259 180.785 90.2886 180.768 90.3521 180.77C90.4157 180.772 90.477 180.794 90.5278 180.832C90.5787 180.87 90.6165 180.923 90.6361 180.984L90.6436 181.008C91.1836 182.698 92.3674 184.106 93.9373 184.925C95.5548 185.65 97.3595 185.845 99.0937 185.48C100.829 185.119 102.639 184.578 104.4 184.086C106.156 183.571 107.964 183.063 109.606 182.417L109.617 182.413C109.7 182.381 109.788 182.369 109.876 182.378C116.232 183.063 122.606 183.638 128.979 184.161C135.351 184.706 141.73 185.162 148.112 185.444C151.303 185.598 154.495 185.706 157.683 185.702C159.277 185.698 160.87 185.666 162.457 185.579C164.035 185.51 165.608 185.336 167.163 185.059C167.914 184.934 168.641 184.696 169.319 184.352C169.468 184.269 169.606 184.17 169.733 184.056L170.117 183.624C170.379 183.338 170.617 183.032 170.829 182.708C171.697 181.395 172.339 179.945 172.726 178.418C173.511 175.319 173.777 172.109 173.511 168.922C173.509 168.907 173.514 168.891 173.524 168.879C173.533 168.867 173.547 168.859 173.563 168.857C173.578 168.856 173.593 168.861 173.605 168.87C173.617 168.879 173.625 168.893 173.627 168.908C173.82 170.509 173.885 172.122 173.823 173.733C173.773 175.352 173.572 176.964 173.221 178.545C172.868 180.149 172.243 181.68 171.373 183.071C171.155 183.424 170.91 183.759 170.639 184.072L170.236 184.549C170.072 184.711 169.889 184.853 169.691 184.972C168.953 185.379 168.157 185.67 167.33 185.832C165.743 186.169 164.134 186.388 162.515 186.487C160.908 186.603 159.3 186.663 157.694 186.695C154.481 186.755 151.272 186.702 148.066 186.603C141.656 186.366 135.262 185.917 128.876 185.4C122.491 184.847 116.118 184.195 109.754 183.444L110.025 183.405C109.117 183.768 108.236 184.029 107.342 184.294C106.45 184.555 105.557 184.801 104.664 185.041L101.979 185.743C101.093 185.978 100.171 186.181 99.2362 186.365C97.3203 186.724 95.3403 186.456 93.587 185.603C92.7335 185.132 91.9808 184.498 91.3723 183.735C90.7637 182.973 90.3111 182.097 90.0405 181.159L90.6295 181.202C90.3454 181.861 89.918 182.449 89.3786 182.921C89.1011 183.135 88.8412 183.376 88.5483 183.564C88.2596 183.756 87.9582 183.928 87.6463 184.078C87.0295 184.38 86.3868 184.624 85.726 184.809C85.0682 184.998 84.3966 185.134 83.7174 185.217L83.704 185.219C83.6938 185.22 83.6835 185.219 83.6735 185.218C83.4175 185.167 83.1578 185.145 82.9053 185.075C82.6491 185.006 82.4022 184.906 82.1698 184.777C81.6873 184.528 81.2977 184.129 81.0587 183.641C80.8303 183.163 80.7072 182.642 80.6977 182.113C80.6808 181.594 80.7378 181.075 80.8669 180.571L80.8734 180.698C80.7328 180.349 80.5637 180.012 80.3678 179.692C80.1537 179.361 79.9578 179.02 79.7811 178.668C79.6058 178.287 79.5321 177.867 79.5671 177.449C79.6087 177.047 79.7059 176.653 79.8558 176.278C80.1403 175.548 80.4822 174.842 80.8784 174.167C81.2622 173.491 81.6711 172.832 82.0878 172.179L82.0565 172.268C82.2731 170.231 83.0876 168.304 84.3968 166.731C84.7188 166.33 85.0805 165.962 85.4763 165.634C85.6833 165.463 85.9083 165.315 86.1474 165.193C86.284 165.124 86.4306 165.077 86.5817 165.055C86.6757 165.042 86.7713 165.045 86.8642 165.065C86.9363 165.085 87.0078 165.107 87.0649 165.128C88.0184 165.473 88.9276 165.85 89.8525 166.223C93.5341 167.722 97.1907 169.275 100.853 170.815L100.715 170.778L109.873 171.77L109.781 171.768L130.204 170.415C133.608 170.201 137.012 169.974 140.415 169.734L145.519 169.381L150.618 168.96C150.633 168.958 150.649 168.962 150.661 168.972C150.673 168.982 150.681 168.996 150.683 169.011C150.684 169.026 150.68 169.041 150.671 169.053C150.661 169.065 150.648 169.074 150.633 169.076Z" fill="#1E1E22"/>
<path d="M86.3281 179.821C86.659 179.475 87.0411 179.182 87.461 178.953C87.8911 178.696 88.4005 178.606 88.8921 178.701C89.3853 178.856 89.798 179.199 90.0413 179.656C90.157 179.876 90.2615 180.103 90.3563 180.332L90.5753 181.036C90.5847 181.066 90.5881 181.098 90.5852 181.129C90.5824 181.161 90.5734 181.191 90.5589 181.219C90.5443 181.247 90.5243 181.272 90.5002 181.292C90.4761 181.312 90.4482 181.328 90.4182 181.337C90.3882 181.346 90.3567 181.35 90.3254 181.347C90.2941 181.344 90.2636 181.335 90.2358 181.32C90.208 181.306 90.1833 181.286 90.1631 181.262C90.143 181.237 90.1278 181.209 90.1184 181.179C90.1165 181.173 90.1148 181.167 90.1134 181.16L90.1078 181.135L89.9592 180.463C89.89 180.249 89.8126 180.034 89.7258 179.827C89.5542 179.422 89.231 179.1 88.8256 178.931C88.3868 178.812 87.9197 178.858 87.5124 179.061C87.081 179.252 86.6816 179.508 86.3281 179.821Z" fill="#1E1E22"/>
<path d="M80.8626 180.482C81.6091 179.535 82.3035 178.547 82.9428 177.523C83.2636 177.012 83.5563 176.483 83.8196 175.939C84.1007 175.403 84.2898 174.822 84.3792 174.223C84.3286 174.832 84.1764 175.428 83.9291 175.987C83.6996 176.553 83.4395 177.106 83.1499 177.643C82.5721 178.719 81.9362 179.763 81.2449 180.77C81.2091 180.822 81.1539 180.858 81.0916 180.87C81.0292 180.882 80.9648 180.868 80.9125 180.832C80.8602 180.796 80.8243 180.741 80.8127 180.678C80.801 180.616 80.8146 180.551 80.8505 180.499L80.8594 180.486L80.8626 180.482Z" fill="#1E1E22"/>
<path d="M79.8208 178.634L84.378 170.961L80.2377 178.868C80.2231 178.896 80.2032 178.921 80.179 178.941C80.1549 178.961 80.1271 178.976 80.0971 178.986C80.0672 178.995 80.0357 178.999 80.0044 178.996C79.9732 178.993 79.9428 178.984 79.915 178.969C79.8872 178.955 79.8625 178.935 79.8425 178.91C79.8224 178.886 79.8072 178.858 79.7979 178.828C79.7886 178.798 79.7852 178.767 79.7881 178.735C79.7909 178.704 79.7999 178.673 79.8145 178.646L79.8208 178.634Z" fill="#1E1E22"/>
<path d="M82.0532 172.155L85.0667 167.973L82.453 172.417C82.4207 172.472 82.3681 172.511 82.3067 172.527C82.2453 172.543 82.1801 172.534 82.1255 172.502C82.0708 172.469 82.0312 172.417 82.0154 172.355C81.9995 172.293 82.0088 172.228 82.041 172.173C82.0447 172.167 82.049 172.16 82.0532 172.155Z" fill="#1E1E22"/>
<path d="M71.1261 147.556C70.84 147.426 70.5269 147.368 70.2135 147.386C69.8994 147.387 69.5858 147.411 69.2752 147.458C68.6728 147.574 68.1111 147.846 67.6461 148.247C67.1989 148.657 66.8453 149.159 66.6094 149.718C66.3675 150.277 66.2166 150.87 66.1623 151.477C66.1549 151.562 66.1175 151.643 66.0565 151.703C65.9956 151.764 65.9152 151.801 65.8297 151.808C65.7442 151.814 65.659 151.79 65.5895 151.74C65.5199 151.69 65.4704 151.616 65.4499 151.533L65.4471 151.521C65.1926 150.433 64.8038 149.381 64.2898 148.389C63.8122 147.429 63.0863 146.614 62.1879 146.031C61.9743 145.899 61.7466 145.792 61.5091 145.712C61.4023 145.674 61.2919 145.646 61.1796 145.63L60.7735 145.579C60.2594 145.509 59.7369 145.535 59.2319 145.653C58.7542 145.759 58.3082 145.977 57.9307 146.29C57.5531 146.602 57.2546 146.999 57.0597 147.449L57.0394 147.496C56.986 147.619 56.8862 147.716 56.7617 147.765C56.6373 147.814 56.4984 147.812 56.3757 147.759C56.3405 147.743 56.3071 147.724 56.2761 147.701C56.0109 147.5 55.6901 147.387 55.358 147.377C54.992 147.376 54.6295 147.449 54.2914 147.59C53.5652 147.845 52.9613 148.365 52.5998 149.046L52.5787 149.087L52.5406 149.173L52.486 149.305C52.4539 149.392 52.4264 149.48 52.4037 149.569C52.3592 149.741 52.3397 149.919 52.3461 150.096C52.3657 150.452 52.5047 150.791 52.7405 151.058C53.2957 151.629 54.0013 152.03 54.7751 152.214L54.7955 152.22C54.8457 152.234 54.8894 152.265 54.919 152.308C55.2443 152.797 55.529 153.312 55.7702 153.847C55.8948 154.107 56.0138 154.364 56.1549 154.603C56.2999 154.856 56.445 155.109 56.5709 155.377C56.7105 155.65 56.8123 155.94 56.8735 156.24C56.9068 156.336 56.9126 156.44 56.8901 156.539C56.8677 156.638 56.8179 156.729 56.7465 156.801C56.6751 156.873 56.585 156.924 56.4863 156.947C56.3876 156.97 56.2844 156.965 56.1884 156.933C55.6071 156.791 55.0527 156.555 54.5472 156.235C54.0421 155.943 53.5602 155.632 53.0773 155.3C52.6019 154.949 52.1642 154.55 51.7712 154.108C51.573 153.896 51.3812 153.656 51.2026 153.485C51.015 153.308 50.7975 153.167 50.5603 153.068C50.0757 152.876 49.5452 152.834 49.0365 152.946C48.5349 153.044 48.0709 153.282 47.6978 153.632C47.5365 153.797 47.4176 153.999 47.3513 154.221C47.2851 154.442 47.2733 154.677 47.3172 154.904C47.4131 155.414 47.6058 155.901 47.8848 156.339C48.1668 156.807 48.492 157.247 48.856 157.654C49.0374 157.86 49.2277 158.059 49.4218 158.243L50.0594 158.801C50.4968 159.19 50.9216 159.587 51.3339 159.993C52.1621 160.805 52.9667 161.628 53.7645 162.471C53.8383 162.549 53.8872 162.647 53.9049 162.752L53.9121 162.795C53.9809 163.137 54.094 163.468 54.2486 163.781C54.4102 164.112 54.6076 164.424 54.8374 164.711C55.0672 165.003 55.3269 165.269 55.6122 165.506C55.8991 165.761 56.1885 165.923 56.5784 166.215C57.2858 166.768 57.8887 167.443 58.3588 168.209C58.8333 168.968 59.1887 169.796 59.4126 170.663L59.3785 170.556C59.6477 171.257 60.1378 171.851 60.7743 172.247C61.4557 172.616 62.2201 172.802 62.994 172.789C63.8216 172.785 64.6452 172.673 65.444 172.456C66.2588 172.244 67.053 171.96 67.8172 171.606L67.8469 171.592C67.8591 171.587 67.8717 171.582 67.8845 171.578C68.8774 171.267 69.8686 170.962 70.871 170.685C71.8736 170.406 72.8717 170.126 73.9015 169.898C74.8876 169.75 75.8046 169.301 76.5288 168.614C77.2631 167.906 77.8001 167.017 78.0868 166.037C78.0913 166.022 78.1015 166.009 78.1152 166.002C78.1289 165.995 78.145 165.993 78.1599 165.998C78.1737 166.002 78.1854 166.011 78.1929 166.024C78.2004 166.036 78.2032 166.051 78.2006 166.065C78.0056 167.117 77.5252 168.096 76.8124 168.892C76.4495 169.297 76.0277 169.644 75.5613 169.921C75.3251 170.061 75.0767 170.179 74.8191 170.273C74.5509 170.361 74.2788 170.447 74.048 170.502C73.0689 170.782 72.0878 171.121 71.1123 171.457L68.1853 172.481L68.2524 172.453C67.4422 172.867 66.5961 173.207 65.7245 173.467C64.8412 173.741 63.9259 173.899 63.0019 173.935C62.0177 173.981 61.0394 173.759 60.1714 173.291C59.7306 173.035 59.3364 172.705 59.0057 172.316C58.6899 171.929 58.4286 171.5 58.2293 171.042L58.2176 171.011L58.1951 170.934C57.9935 170.209 57.6921 169.516 57.2996 168.874C56.9082 168.234 56.4081 167.668 55.822 167.201C55.5611 166.992 55.1426 166.729 54.8198 166.429C54.4792 166.134 54.1702 165.803 53.898 165.443C53.622 165.081 53.3865 164.691 53.1958 164.278C52.9928 163.848 52.853 163.391 52.7808 162.922L52.9283 163.246C52.1627 162.403 51.3779 161.565 50.5809 160.752C50.1804 160.347 49.781 159.941 49.3733 159.552C49.1678 159.35 48.9717 159.185 48.7357 158.95C48.5201 158.731 48.3217 158.507 48.1308 158.274C47.7448 157.809 47.4031 157.309 47.1103 156.78C46.7924 156.23 46.5907 155.621 46.5176 154.99C46.4837 154.647 46.5235 154.301 46.6341 153.975C46.7513 153.646 46.9482 153.351 47.2072 153.118C47.697 152.698 48.2953 152.426 48.9327 152.334C49.559 152.229 50.2023 152.314 50.7807 152.577C51.0679 152.714 51.3284 152.901 51.5499 153.13C51.7736 153.37 51.9275 153.59 52.1123 153.807C52.468 154.239 52.8733 154.627 53.3199 154.964C53.7776 155.29 54.2566 155.611 54.741 155.902C55.2014 156.206 55.7065 156.435 56.2378 156.581C56.7687 156.743 56.457 156 56.2373 155.54C56.1156 155.288 55.9712 155.043 55.8275 154.8C55.6743 154.545 55.537 154.286 55.4049 154.031C55.1564 153.525 54.8657 153.041 54.536 152.584L54.6798 152.678C54.2417 152.589 53.8155 152.449 53.4104 152.26C52.9886 152.071 52.6051 151.806 52.279 151.477C51.9281 151.119 51.7068 150.653 51.6502 150.154C51.6254 149.907 51.6371 149.657 51.6849 149.413C51.7078 149.295 51.737 149.177 51.7725 149.062L51.8298 148.896L51.8607 148.811L51.9168 148.689L51.8958 148.729C52.089 148.277 52.3739 147.871 52.7324 147.536C53.0853 147.209 53.4886 146.941 53.9267 146.742C54.377 146.522 54.8701 146.403 55.3713 146.394C55.9098 146.394 56.435 146.561 56.8753 146.872L56.0919 147.123C56.2083 146.802 56.3708 146.499 56.5742 146.225C56.7666 145.957 56.9911 145.714 57.2426 145.5C57.7477 145.074 58.3475 144.775 58.9917 144.629C59.6113 144.492 60.2505 144.467 60.8788 144.557L61.3281 144.621C61.5004 144.648 61.6697 144.691 61.8336 144.751C62.1403 144.859 62.4338 145.002 62.7086 145.176C63.7417 145.872 64.5641 146.84 65.086 147.973C65.5953 149.052 65.9553 150.196 66.156 151.373L65.4408 151.417C65.5359 150.734 65.742 150.071 66.0509 149.455C66.349 148.83 66.7922 148.285 67.3434 147.868C67.8985 147.465 68.5492 147.215 69.2305 147.144C69.562 147.119 69.8951 147.124 70.2257 147.158C70.561 147.179 70.8866 147.279 71.1763 147.45C71.1894 147.457 71.1992 147.469 71.2037 147.483C71.2083 147.497 71.2073 147.513 71.2009 147.526C71.1945 147.54 71.1832 147.55 71.1693 147.556C71.1554 147.561 71.14 147.561 71.1261 147.556L71.1261 147.556Z" fill="#1E1E22"/>
<path d="M72.6456 153.027C72.8761 153.557 73.006 154.125 73.0286 154.703C73.0446 154.987 73.0439 155.271 73.0266 155.555C73.0023 155.839 72.9716 156.124 72.9224 156.405L72.9178 156.432C72.9114 156.468 72.8988 156.502 72.8806 156.534C72.7527 156.763 72.6057 156.981 72.4412 157.185C72.2667 157.388 72.0738 157.574 71.8649 157.741C71.4647 158.093 70.9965 158.359 70.4895 158.521C69.9485 158.657 69.3778 158.609 68.8677 158.383C68.5985 158.268 68.3531 158.103 68.1439 157.898C68.0868 157.838 68.0332 157.775 67.9833 157.709C67.9277 157.624 67.8804 157.534 67.8422 157.44L67.7182 157.082L67.4881 156.394C67.4186 156.206 67.3318 156.025 67.2288 155.853C67.1273 155.679 67.0156 155.512 66.8942 155.352C66.8428 155.29 66.7508 155.162 66.6758 155.048C66.599 154.932 66.5196 154.819 66.4477 154.701C66.1828 154.243 65.9946 153.744 65.8904 153.225C65.7788 152.724 65.7429 152.209 65.7841 151.697C65.7856 151.681 65.7934 151.665 65.8059 151.655C65.8185 151.644 65.8346 151.639 65.8509 151.641C65.8606 151.642 65.87 151.645 65.8782 151.65C65.8865 151.656 65.8934 151.663 65.8984 151.671C66.3347 152.504 66.8386 153.299 67.405 154.049C67.4794 154.126 67.5465 154.207 67.6161 154.285C67.6881 154.365 67.7379 154.435 67.8494 154.553C68.0391 154.767 68.2004 155.004 68.3294 155.26C68.4567 155.517 68.5537 155.788 68.6183 156.068C68.6532 156.217 68.6704 156.338 68.6915 156.448L68.7539 156.794L68.8121 157.142C68.8244 157.181 68.8116 157.166 68.8242 157.203C68.8431 157.237 68.8508 157.274 68.8733 157.312C68.9729 157.486 69.0965 157.645 69.2404 157.784C69.3888 157.938 69.5723 158.054 69.7751 158.12C69.978 158.187 70.1939 158.203 70.4043 158.167C70.6218 158.113 70.8242 158.01 70.9962 157.866C71.1683 157.722 71.3055 157.54 71.3975 157.335C71.5031 157.134 71.5973 156.927 71.6796 156.715C71.7513 156.499 71.8365 156.288 71.9347 156.082L71.8929 156.211C71.9536 155.69 72.0843 155.179 72.1728 154.649C72.2789 154.121 72.3838 153.597 72.5291 153.039C72.531 153.031 72.5345 153.024 72.5393 153.017C72.5441 153.01 72.5502 153.005 72.5572 153.001C72.5642 152.996 72.5719 152.993 72.58 152.992C72.5881 152.991 72.5963 152.991 72.6042 152.993C72.6131 152.996 72.6215 153 72.6286 153.006C72.6357 153.012 72.6415 153.019 72.6456 153.027Z" fill="#1E1E22"/>
<path d="M53.3444 162.862C53.2498 162.542 53.2082 162.208 53.221 161.874C53.2282 161.537 53.2818 161.203 53.3801 160.881C53.4771 160.545 53.649 160.236 53.883 159.977C53.9973 159.844 54.1387 159.736 54.2976 159.662C54.4566 159.588 54.6295 159.549 54.8048 159.547C54.5455 159.711 54.3298 159.936 54.1764 160.203C54.0282 160.462 53.9124 160.737 53.8316 161.025C53.6438 161.606 53.5304 162.221 53.3444 162.862Z" fill="#1E1E22"/>
<path d="M54.7285 152.448C55.1311 152.349 55.4597 152.28 55.8088 152.211C55.9821 152.179 56.1556 152.144 56.3373 152.117C56.5294 152.084 56.7241 152.067 56.9192 152.066C56.6655 152.389 56.3023 152.606 55.899 152.677C55.6992 152.715 55.4947 152.718 55.2937 152.688C55.0865 152.663 54.8906 152.58 54.7285 152.448Z" fill="#1E1E22"/>
<path d="M56.8657 147.285C56.8588 147.795 56.9257 148.304 57.0643 148.794C57.1869 149.284 57.4475 149.729 57.8149 150.074C58.0092 150.239 58.235 150.361 58.4783 150.435C58.7217 150.509 58.9774 150.532 59.23 150.503C59.4927 150.482 59.7532 150.439 60.0089 150.374L60.7621 150.101L60.0319 150.444C59.7756 150.534 59.5123 150.603 59.2446 150.649C58.9672 150.704 58.6815 150.702 58.4049 150.643C58.1283 150.584 57.8665 150.47 57.6354 150.306C57.1823 149.955 56.8399 149.48 56.6491 148.938C56.4459 148.41 56.3216 147.854 56.2802 147.29C56.2742 147.212 56.2992 147.135 56.3498 147.076C56.4004 147.016 56.4724 146.98 56.5499 146.974C56.6275 146.968 56.7043 146.993 56.7634 147.043C56.8225 147.094 56.8591 147.166 56.8651 147.244C56.8658 147.253 56.8661 147.262 56.8659 147.271L56.8657 147.285Z" fill="#1E1E22"/>
<path d="M59.2246 150.602C59.6321 151.222 59.9919 151.872 60.3011 152.547C60.6435 153.228 60.8788 153.958 60.9985 154.711C61.0318 154.851 61.0984 154.981 61.1927 155.09C61.2869 155.199 61.406 155.283 61.5398 155.336C61.8457 155.491 62.1745 155.596 62.5136 155.646C62.86 155.705 63.2137 155.709 63.5613 155.657C63.9195 155.627 64.2521 155.459 64.4898 155.188C64.4004 155.359 64.2765 155.508 64.1262 155.628C63.9758 155.748 63.8022 155.835 63.6165 155.884C63.2476 155.999 62.8601 156.044 62.4747 156.014C62.0816 155.994 61.6957 155.9 61.3371 155.737C61.1282 155.655 60.944 155.52 60.8019 155.346C60.6599 155.172 60.5648 154.964 60.5259 154.743C60.4875 154.395 60.4119 154.053 60.3004 153.722C60.1996 153.375 60.0774 153.032 59.9597 152.686L59.2246 150.602Z" fill="#1E1E22"/>
<path d="M66.8589 154.285C66.4533 154.208 66.0529 154.125 65.6473 154.043L53.7467 151.602L52.6018 151.365L47.7964 150.371C45.8865 149.609 43.9767 148.852 42.0977 147.956C44.1821 147.894 46.2305 147.972 48.2841 148.049C49.5984 148.342 50.923 148.615 52.2476 148.888C52.9047 149.027 53.5619 149.161 54.219 149.3L65.8424 151.684C66.0357 152.601 66.3792 153.48 66.8589 154.285Z" fill="#1E1E22"/>
<path d="M65.7949 151.449C66.1091 152.374 66.5492 153.25 67.1028 154.054L67.5499 154.574C67.7424 154.77 67.9163 154.982 68.0694 155.21C68.2235 155.444 68.3493 155.696 68.4443 155.96C68.5439 156.242 68.5985 156.473 68.6701 156.698C68.744 156.919 68.7987 157.212 68.8568 157.241C68.9698 157.389 69.1073 157.516 69.2633 157.617C69.5621 157.824 69.9274 157.912 70.2874 157.863C70.6674 157.768 71.0066 157.552 71.2545 157.248C71.4071 157.086 71.5463 156.912 71.6707 156.727L72.0337 156.132L72.0006 156.233C72.1404 155.562 72.2858 154.876 72.3601 154.178C72.4039 153.831 72.4351 153.482 72.4455 153.13C72.4651 152.775 72.4523 152.419 72.4075 152.067C72.6975 152.739 72.8594 153.46 72.8847 154.192C72.9052 154.556 72.9092 154.922 72.9022 155.287C72.8846 155.653 72.8437 156.019 72.8144 156.387C72.8128 156.408 72.8077 156.428 72.7994 156.448L72.7813 156.489C72.5775 156.988 72.3035 157.456 71.9676 157.877C71.6043 158.367 71.0806 158.712 70.4885 158.853C70.1782 158.914 69.8587 158.91 69.5499 158.842C69.2412 158.773 68.9499 158.641 68.6941 158.455C68.4377 158.279 68.215 158.058 68.0369 157.803C67.9798 157.724 67.9328 157.639 67.8969 157.548C67.8654 157.476 67.8419 157.401 67.8269 157.324L67.7415 156.948C67.6817 156.694 67.6358 156.437 67.5821 156.247C67.5208 156.039 67.4398 155.837 67.3402 155.644C67.2383 155.445 67.1182 155.257 66.9813 155.08C66.8317 154.855 66.6706 154.637 66.5425 154.405C66.0794 153.487 65.8241 152.478 65.7949 151.449Z" fill="#1E1E22"/>
<path d="M145.314 93.0291C145.318 93.2868 145.386 93.5395 145.511 93.7642C145.637 93.989 145.817 94.1786 146.034 94.316C146.468 94.5909 146.948 94.7857 147.451 94.8912L148.965 95.2458L149.725 95.4421C149.852 95.4764 149.98 95.5101 150.105 95.5507L150.463 95.6424C150.935 95.7794 151.425 95.8438 151.916 95.8334C152.417 95.82 152.903 95.6684 153.323 95.3952C153.742 95.1102 154.07 94.7098 154.268 94.2422C154.363 94.0117 154.424 93.7683 154.449 93.5199C154.48 93.29 154.465 93.0564 154.407 92.8321C154.34 92.6534 154.217 92.5012 154.057 92.398C153.864 92.2814 153.658 92.1862 153.444 92.1143C152.984 91.951 152.469 91.8088 151.949 91.6353C151.409 91.4646 150.884 91.247 150.382 90.9851C150.122 90.8478 149.873 90.691 149.637 90.516C149.435 90.3958 149.251 90.2479 149.054 90.1558C148.692 89.9397 148.272 89.8445 147.853 89.884C147.434 89.9235 147.039 90.0958 146.724 90.3757C146.317 90.6943 145.981 91.0952 145.738 91.5522C145.496 92.0093 145.351 92.5125 145.314 93.0291ZM145.195 93.0291C145.213 92.4803 145.299 91.9358 145.45 91.408C145.589 90.849 145.826 90.319 146.148 89.8419C146.506 89.2957 147.056 88.9048 147.689 88.747C148.344 88.6067 149.028 88.701 149.622 89.0135C149.892 89.1558 150.152 89.3171 150.399 89.4963C150.595 89.6341 150.79 89.7719 150.998 89.8998C151.43 90.158 151.88 90.3845 152.345 90.5775C152.823 90.7846 153.328 90.9651 153.843 91.242C154.119 91.3839 154.373 91.5672 154.595 91.7857C154.841 92.0357 155 92.3588 155.047 92.7066C155.046 95.2113 152.641 96.9054 150.294 96.6229C149.745 96.5572 149.204 96.4376 148.678 96.2658C148.149 96.0968 147.64 95.8716 147.158 95.594C146.666 95.3123 146.218 94.9582 145.829 94.5436C145.438 94.1353 145.212 93.5954 145.195 93.0291Z" fill="#1E1E22"/>
<path d="M152.813 76.1183C152.821 76.5635 152.933 77.0005 153.14 77.3945C153.355 77.7807 153.649 78.1167 154.004 78.3802C154.723 78.8949 155.526 79.2809 156.376 79.5211C157.218 79.7963 158.084 80.0018 158.945 80.2367L160.245 80.5751C160.463 80.6299 160.681 80.6839 160.897 80.7472L161.528 80.8915C162.365 81.1007 163.23 81.1701 164.09 81.097C164.959 81.0243 165.795 80.7284 166.517 80.2379C167.237 79.7312 167.807 79.0384 168.166 78.233C168.242 78.0282 168.326 77.8257 168.388 77.6174C168.444 77.4078 168.487 77.1947 168.515 76.9794C168.581 76.5673 168.574 76.1468 168.495 75.737C168.387 75.3754 168.166 75.0582 167.865 74.8322C167.527 74.5972 167.161 74.4055 166.775 74.2615C165.976 73.9454 165.104 73.6913 164.238 73.3821C163.35 73.0807 162.487 72.7088 161.657 72.27C161.236 72.0412 160.83 71.7833 160.444 71.498C160.111 71.2498 159.759 71.0285 159.391 70.8362C158.712 70.4469 157.929 70.2822 157.152 70.3653C156.359 70.5036 155.624 70.8737 155.04 71.4293C154.394 72.0257 153.867 72.7397 153.487 73.5334C153.082 74.3372 152.852 75.2184 152.813 76.1183ZM152.693 76.1183C152.721 75.1962 152.887 74.2836 153.186 73.4111C153.464 72.5051 153.896 71.6543 154.463 70.8963C155.067 70.0638 155.947 69.4741 156.945 69.233C157.974 69.0437 159.036 69.207 159.961 69.6964C160.399 69.9184 160.816 70.1802 161.207 70.4787C161.555 70.7236 161.902 70.9684 162.273 71.1877C163.028 71.6305 163.817 72.0123 164.633 72.3296C165.459 72.6662 166.32 72.9593 167.173 73.389C167.621 73.6032 168.035 73.883 168.402 74.2192C168.789 74.5916 169.046 75.0795 169.135 75.6104C169.194 76.5806 168.985 77.5483 168.531 78.407C168.103 79.2462 167.492 79.9786 166.745 80.5506C165.98 81.1186 165.109 81.528 164.184 81.7549C163.26 81.9818 162.299 82.0216 161.359 81.872L160.655 81.7596C160.431 81.7151 160.21 81.6611 159.988 81.608C159.544 81.4986 159.099 81.3911 158.661 81.2486C157.772 80.9866 156.91 80.6437 156.083 80.2239C155.243 79.8073 154.472 79.2621 153.799 78.6078C153.459 78.2871 153.187 77.9018 152.997 77.4744C152.807 77.047 152.704 76.586 152.693 76.1183H152.693Z" fill="#1E1E22"/>
<path d="M156.48 53.3561C156.228 53.9892 156.106 54.6668 156.122 55.3483C156.152 56.0291 156.372 56.6878 156.755 57.2504C157.564 58.3519 158.625 59.2419 159.849 59.8451C162.297 61.0725 164.852 62.0739 167.482 62.837C170.099 63.6639 172.738 64.4475 175.342 65.3667C176.647 65.8149 177.942 66.3019 179.224 66.8276C180.498 67.3324 181.75 67.8501 183.049 68.2564C185.605 69.1643 188.287 69.6678 190.998 69.7489C192.346 69.7714 193.69 69.5908 194.985 69.2132C196.28 68.8311 197.473 68.1637 198.478 67.2599C199.475 66.3406 200.27 65.2238 200.814 63.9803C201.352 62.7287 201.714 61.4079 201.889 60.0561C202.074 58.702 202.134 57.3339 202.07 55.9687C202.034 55.2856 201.995 54.6035 201.915 53.9234C201.857 53.2495 201.751 52.5805 201.598 51.9216C200.891 49.2972 199.77 46.8031 198.277 44.5341C196.816 42.2485 195.073 40.1569 193.09 38.3089C191.127 36.4651 188.868 34.9663 186.409 33.8755C185.188 33.3454 183.917 32.9409 182.614 32.6684C181.313 32.4059 179.984 32.3053 178.658 32.3688C175.988 32.401 173.36 33.0344 170.967 34.2222C168.576 35.4605 166.436 37.1364 164.659 39.1634C162.856 41.2217 161.287 43.4748 159.981 45.8812C158.661 48.2979 157.492 50.7944 156.48 53.3561ZM156.37 53.3115C157.386 50.7479 158.468 48.2084 159.688 45.7265C160.889 43.2183 162.355 40.847 164.062 38.6536C165.791 36.4133 167.964 34.5559 170.443 33.198C172.97 31.8744 175.768 31.1545 178.619 31.0944C181.473 30.9728 184.314 31.5351 186.908 32.7348C189.474 33.9159 191.822 35.5225 193.855 37.487C195.881 39.4247 197.639 41.6266 199.081 44.0338C200.558 46.4209 201.625 49.0403 202.235 51.7823C202.678 54.5416 202.701 57.3522 202.304 60.1185C201.897 62.8551 200.817 65.6142 198.739 67.546C197.706 68.5089 196.477 69.2368 195.138 69.68C193.806 70.1307 192.414 70.3782 191.009 70.4143C188.211 70.4528 185.424 70.0451 182.754 69.2064C181.418 68.8161 180.107 68.3276 178.826 67.8146C177.56 67.3037 176.276 66.8314 174.991 66.3572C172.413 65.4272 169.816 64.524 167.236 63.5459C165.947 63.0573 164.661 62.5515 163.393 61.9994C162.116 61.4606 160.879 60.8309 159.692 60.115C159.1 59.751 158.533 59.3463 157.997 58.9039C157.461 58.4545 156.996 57.9265 156.617 57.3377C156.233 56.7456 156.015 56.0608 155.985 55.355C155.974 54.6548 156.105 53.9597 156.37 53.3115Z" fill="#1E1E22"/>
<path d="M194.882 125.355C195.68 126.67 196.635 127.883 197.724 128.968C196.621 129.007 195.525 128.768 194.536 128.275C193.822 127.906 193.219 127.353 192.789 126.672C192.37 125.981 192.139 125.193 192.118 124.385C192.098 123.279 192.356 122.186 192.868 121.207C193.366 122.668 194.043 124.061 194.882 125.355Z" fill="#1E1E22"/>
<path d="M198.483 125.791C198.503 126.898 198.241 127.991 197.723 128.969C197.225 127.508 196.549 126.115 195.71 124.821C194.909 123.507 193.954 122.294 192.867 121.207C193.969 121.168 195.062 121.41 196.045 121.91C196.76 122.278 197.365 122.828 197.802 123.504C198.23 124.191 198.465 124.981 198.483 125.791Z" fill="#1E1E22"/>
<path d="M192.245 134.8C193.044 136.118 194.002 137.331 195.098 138.414C193.994 138.453 192.898 138.215 191.909 137.721C191.193 137.351 190.586 136.798 190.153 136.117C189.734 135.426 189.502 134.638 189.482 133.83C189.461 132.724 189.719 131.632 190.232 130.652C190.734 132.111 191.41 133.504 192.245 134.8Z" fill="#1E1E22"/>
<path d="M195.848 135.236C195.868 136.342 195.61 137.435 195.098 138.414C194.592 136.957 193.916 135.565 193.085 134.266C192.28 132.953 191.323 131.74 190.232 130.653C191.334 130.612 192.428 130.854 193.41 131.356C194.132 131.717 194.74 132.27 195.17 132.954C195.6 133.638 195.835 134.428 195.848 135.236H195.848Z" fill="#1E1E22"/>
<path d="M189.275 145.195C190.076 146.511 191.034 147.724 192.127 148.808C191.022 148.85 189.925 148.608 188.939 148.105C188.221 147.743 187.614 147.192 187.182 146.511C186.763 145.821 186.532 145.033 186.511 144.225C186.49 143.119 186.748 142.026 187.261 141.047C187.763 142.506 188.439 143.899 189.275 145.195Z" fill="#1E1E22"/>
<path d="M192.878 145.621C192.898 146.73 192.64 147.826 192.127 148.809C191.622 147.349 190.943 145.957 190.104 144.661C189.303 143.347 188.349 142.134 187.262 141.047C188.363 141.007 189.457 141.249 190.44 141.75C191.154 142.118 191.76 142.668 192.197 143.344C192.623 144.028 192.858 144.814 192.878 145.621Z" fill="#1E1E22"/>
<path d="M187.825 156.263C188.627 157.581 189.585 158.798 190.677 159.886C189.572 159.928 188.475 159.686 187.489 159.184C186.773 158.817 186.169 158.262 185.742 157.579C185.314 156.896 185.079 156.109 185.061 155.303C185.045 154.198 185.303 153.106 185.811 152.125C186.318 153.579 186.994 154.968 187.825 156.263Z" fill="#1E1E22"/>
<path d="M191.426 156.699C191.452 157.808 191.194 158.906 190.676 159.887C189.635 156.976 187.974 154.328 185.811 152.125C186.912 152.085 188.006 152.327 188.989 152.828C189.707 153.191 190.314 153.742 190.745 154.422C191.178 155.104 191.413 155.892 191.426 156.699Z" fill="#1E1E22"/>
<path d="M187.39 163.027C188.492 162.99 189.586 163.231 190.571 163.729C191.287 164.096 191.894 164.648 192.328 165.327C192.755 166.011 192.99 166.798 193.009 167.605C193.029 168.712 192.769 169.808 192.253 170.787C191.149 170.829 190.052 170.589 189.066 170.09C188.349 169.723 187.744 169.17 187.315 168.487C186.893 167.8 186.661 167.012 186.642 166.205C186.621 165.1 186.879 164.007 187.39 163.027Z" fill="#1E1E22"/>
<path d="M201.483 128.265C200.163 128.89 198.89 129.611 197.674 130.423C197.843 129.371 198.23 128.366 198.809 127.473C199.208 126.868 199.755 126.377 200.398 126.047C201.022 125.74 201.719 125.61 202.411 125.671C203.43 125.773 204.432 126.006 205.392 126.364L201.483 128.265Z" fill="#1E1E22"/>
<path d="M204.839 129.65C204.425 130.384 203.801 130.978 203.049 131.355C202.297 131.732 201.449 131.876 200.615 131.768C199.525 131.616 198.503 131.148 197.674 130.422C198.418 130.355 199.153 130.206 199.865 129.977C200.571 129.751 201.26 129.476 201.928 129.155C202.597 128.824 203.234 128.433 203.833 127.987C204.446 127.545 204.974 126.995 205.392 126.363C205.628 127.49 205.431 128.664 204.839 129.65Z" fill="#1E1E22"/>
<path d="M199.945 137.177C198.316 137.771 196.658 138.295 194.99 138.998C195.469 137.936 196.145 136.975 196.984 136.167C197.598 135.587 198.323 135.139 199.116 134.85C199.867 134.578 200.668 134.47 201.465 134.534C202.564 134.644 203.653 134.839 204.722 135.118C203.194 135.946 201.596 136.636 199.945 137.177Z" fill="#1E1E22"/>
<path d="M203.607 138.681C202.961 139.471 202.115 140.072 201.159 140.422C200.202 140.772 199.169 140.858 198.168 140.671C196.966 140.444 195.859 139.861 194.99 138.998C195.89 139.033 196.791 138.963 197.675 138.79C198.558 138.636 199.426 138.407 200.27 138.107C201.126 137.812 201.947 137.424 202.718 136.949C203.506 136.485 204.188 135.861 204.722 135.117C204.791 135.756 204.728 136.403 204.536 137.016C204.344 137.629 204.027 138.196 203.607 138.681Z" fill="#1E1E22"/>
<path d="M198.089 144.876C196.461 145.47 194.803 145.995 193.135 146.697C193.613 145.632 194.293 144.67 195.138 143.866C195.747 143.285 196.47 142.836 197.261 142.55C198.012 142.277 198.813 142.169 199.609 142.233C200.708 142.343 201.797 142.539 202.867 142.817C201.339 143.646 199.74 144.335 198.089 144.876Z" fill="#1E1E22"/>
<path d="M201.751 146.38C201.105 147.17 200.26 147.771 199.303 148.121C198.347 148.471 197.314 148.557 196.313 148.37C195.111 148.143 194.004 147.56 193.135 146.697C194.035 146.732 194.936 146.663 195.82 146.489C196.702 146.335 197.571 146.106 198.415 145.806C199.271 145.511 200.092 145.123 200.863 144.648C201.651 144.184 202.333 143.56 202.867 142.816C202.936 143.455 202.872 144.102 202.68 144.715C202.488 145.329 202.172 145.895 201.751 146.38Z" fill="#1E1E22"/>
<path d="M196.528 154.311C194.88 155.063 193.153 155.677 191.426 156.449C191.909 155.357 192.588 154.364 193.429 153.519C194.036 152.904 194.748 152.405 195.532 152.044C196.252 151.725 197.025 151.544 197.812 151.51C198.661 151.43 199.529 151.598 201.059 151.391C200.45 152.072 199.733 152.647 198.937 153.093C198.162 153.552 197.357 153.959 196.528 154.311Z" fill="#1E1E22"/>
<path d="M201.345 152.47C201.356 152.821 201.333 153.172 201.276 153.519C201.137 154.159 200.879 154.767 200.516 155.311C199.879 156.267 198.982 157.02 197.93 157.479C196.954 157.912 195.882 158.079 194.821 157.964C193.562 157.818 192.377 157.289 191.426 156.449C192.374 156.449 193.319 156.332 194.239 156.103C195.163 155.893 196.066 155.594 196.933 155.212C197.819 154.833 198.646 154.33 199.391 153.717C200.167 153.128 200.749 152.317 201.059 151.391C201.133 151.564 201.196 151.743 201.246 151.925C201.29 152.105 201.323 152.287 201.345 152.47Z" fill="#1E1E22"/>
<path d="M191.387 167.727C191.44 166.637 191.678 165.565 192.09 164.555C192.36 163.889 192.765 163.287 193.28 162.787C193.743 162.363 194.3 162.057 194.906 161.894C195.562 161.668 196.365 161.68 197.647 160.945C197.79 161.052 197.927 161.168 198.056 161.292C198.171 161.423 198.279 161.561 198.379 161.705C198.546 161.993 198.676 162.301 198.767 162.621C198.913 163.221 198.925 163.846 198.802 164.452C198.604 165.494 198.074 166.444 197.29 167.157C196.584 167.812 195.696 168.236 194.744 168.373C193.584 168.533 192.405 168.306 191.387 167.727Z" fill="#1E1E22"/>
<path d="M200.932 119.267C200.358 120.85 199.967 122.495 199.768 124.167C199.051 123.258 198.576 122.182 198.386 121.039C198.247 120.174 198.318 119.287 198.593 118.455C198.879 117.625 199.368 116.88 200.014 116.287C200.869 115.51 201.904 114.958 203.024 114.684C202.156 116.127 201.454 117.665 200.932 119.267Z" fill="#1E1E22"/>
<path d="M204.199 120.396C203.907 121.223 203.416 121.964 202.768 122.554C201.919 123.337 200.887 123.892 199.768 124.167C200.628 122.72 201.33 121.183 201.86 119.584C202.433 118 202.824 116.356 203.024 114.684C203.743 115.593 204.222 116.668 204.416 117.812C204.557 118.678 204.482 119.565 204.199 120.396Z" fill="#1E1E22"/>
<path d="M186.165 175.071C186.323 175.378 186.471 175.695 186.62 176.002C186.787 176.358 186.955 176.705 187.123 177.061C187.419 177.685 187.715 178.299 188.001 178.922C188.258 178.239 188.524 177.566 188.781 176.893C188.939 176.507 189.097 176.111 189.255 175.725C189.314 175.557 189.383 175.398 189.452 175.23C188.357 175.2 187.261 175.151 186.165 175.071ZM190.419 176.725L190.163 176.101C190.074 176.329 189.985 176.556 189.896 176.784C189.511 177.764 189.126 178.744 188.722 179.714C189.689 179.675 190.656 179.645 191.624 179.635L190.419 176.725ZM193.548 175.259C193.074 175.259 192.6 175.27 192.117 175.279C191.702 175.27 191.288 175.27 190.864 175.259L190.972 175.537L191.377 176.636L192.255 178.982L193.203 176.457L193.647 175.259H193.548ZM194.387 176.339L194.18 175.754L193.963 176.378L192.847 179.645C193.765 179.655 194.683 179.675 195.611 179.714L194.387 176.339ZM194.673 175.24L195.019 176.279L196.055 179.417L197.506 176.041L197.911 175.091C196.835 175.161 195.749 175.21 194.673 175.24V175.24ZM198.513 175.943L198.207 175.19L197.891 176.002L196.44 179.754C197.684 179.823 198.937 179.932 200.191 180.11L198.513 175.943ZM186.165 175.071C186.323 175.378 186.471 175.695 186.62 176.002C186.787 176.358 186.955 176.705 187.123 177.061C187.419 177.685 187.715 178.299 188.001 178.922C188.258 178.239 188.524 177.566 188.781 176.893C188.939 176.507 189.097 176.111 189.255 175.725C189.314 175.557 189.383 175.398 189.452 175.23C188.357 175.2 187.261 175.151 186.165 175.071ZM190.419 176.725L190.163 176.101C190.074 176.329 189.985 176.556 189.896 176.784C189.511 177.764 189.126 178.744 188.722 179.714C189.689 179.675 190.656 179.645 191.624 179.635L190.419 176.725ZM193.548 175.259C193.074 175.259 192.6 175.27 192.117 175.279C191.702 175.27 191.288 175.27 190.864 175.259L190.972 175.537L191.377 176.636L192.255 178.982L193.203 176.457L193.647 175.259H193.548ZM194.387 176.339L194.18 175.754L193.963 176.378L192.847 179.645C193.765 179.655 194.683 179.675 195.611 179.714L194.387 176.339ZM194.673 175.24L195.019 176.279L196.055 179.417L197.506 176.041L197.911 175.091C196.835 175.161 195.749 175.21 194.673 175.24V175.24ZM198.513 175.943L198.207 175.19L197.891 176.002L196.44 179.754C197.684 179.823 198.937 179.932 200.191 180.11L198.513 175.943ZM185.642 175.507C185.534 175.715 185.415 175.933 185.307 176.141L185.869 176.081C185.79 175.893 185.721 175.695 185.642 175.507ZM186.165 175.071C186.323 175.378 186.471 175.695 186.62 176.002C186.787 176.358 186.955 176.705 187.123 177.061C187.676 177.002 188.228 176.943 188.781 176.893C188.939 176.507 189.097 176.111 189.255 175.725C189.314 175.557 189.383 175.398 189.452 175.23C188.357 175.2 187.261 175.151 186.165 175.071ZM190.163 176.101C190.074 176.329 189.985 176.556 189.896 176.784C190.064 176.764 190.242 176.744 190.419 176.725L190.163 176.101ZM192.117 175.279C191.702 175.27 191.288 175.27 190.864 175.259L190.972 175.537C191.831 175.448 192.689 175.349 193.548 175.259C193.074 175.259 192.601 175.27 192.117 175.279ZM180.855 160.688L183.047 174.784C183.876 174.675 184.705 174.596 185.524 174.527C185.562 174.499 185.606 174.481 185.652 174.474C185.699 174.468 185.746 174.472 185.79 174.487L185.81 174.507C187.212 174.408 188.603 174.339 189.995 174.309C190.098 174.28 190.208 174.28 190.311 174.309C190.913 174.299 191.515 174.289 192.117 174.289C194.604 174.299 197.081 174.359 199.559 174.596C200.102 174.656 200.654 174.715 201.197 174.784L201.256 174.408L203.379 160.688L180.855 160.688ZM184.34 173.963C182.435 173.963 182.435 170.993 184.34 170.993C186.254 170.993 186.244 173.963 184.34 173.963ZM189.669 173.963C187.764 173.963 187.764 170.993 189.669 170.993C191.584 170.993 191.574 173.963 189.669 173.963ZM194.821 173.785C192.916 173.785 192.916 170.815 194.821 170.815C196.736 170.815 196.726 173.785 194.821 173.785V173.785ZM199.885 173.963C197.98 173.963 197.98 170.993 199.885 170.993C201.799 170.993 201.789 173.963 199.885 173.963ZM198.513 175.943L198.207 175.19L197.891 176.002L196.44 179.754C197.684 179.823 198.937 179.932 200.191 180.11L198.513 175.943ZM194.673 175.24L195.019 176.279L196.055 179.417L197.506 176.041L197.911 175.091C196.835 175.161 195.749 175.21 194.673 175.24ZM194.387 176.339L194.18 175.754L193.963 176.378L192.847 179.645C193.765 179.655 194.683 179.675 195.611 179.714L194.387 176.339ZM193.548 175.259C193.074 175.259 192.6 175.27 192.117 175.279C191.702 175.27 191.288 175.27 190.864 175.259L190.972 175.537L191.377 176.636L192.255 178.982L193.203 176.457L193.647 175.259H193.548ZM190.419 176.725L190.163 176.101C190.074 176.329 189.985 176.556 189.896 176.784C189.511 177.764 189.126 178.744 188.722 179.714C189.689 179.675 190.656 179.645 191.624 179.635L190.419 176.725ZM186.165 175.071C186.323 175.378 186.471 175.695 186.62 176.002C186.787 176.358 186.955 176.705 187.123 177.061C187.419 177.685 187.715 178.299 188.001 178.922C188.258 178.239 188.524 177.566 188.781 176.893C188.939 176.507 189.097 176.111 189.255 175.725C189.314 175.557 189.383 175.398 189.452 175.23C188.357 175.2 187.261 175.151 186.165 175.071L186.165 175.071ZM198.513 175.943L198.207 175.19L197.891 176.002L196.44 179.754C197.684 179.823 198.937 179.932 200.191 180.11L198.513 175.943ZM194.673 175.24L195.019 176.279L196.055 179.417L197.506 176.041L197.911 175.091C196.835 175.161 195.749 175.21 194.673 175.24ZM194.387 176.339L194.18 175.754L193.963 176.378L192.847 179.645C193.765 179.655 194.683 179.675 195.611 179.714L194.387 176.339ZM193.548 175.259C193.074 175.259 192.6 175.27 192.117 175.279C191.702 175.27 191.288 175.27 190.864 175.259L190.972 175.537L191.377 176.636L192.255 178.982L193.203 176.457L193.647 175.259H193.548ZM190.419 176.725L190.163 176.101C190.074 176.329 189.985 176.556 189.896 176.784C189.511 177.764 189.126 178.744 188.722 179.714C189.689 179.675 190.656 179.645 191.624 179.635L190.419 176.725ZM186.165 175.071C186.323 175.378 186.471 175.695 186.62 176.002C186.787 176.358 186.955 176.705 187.123 177.061C187.419 177.685 187.715 178.299 188.001 178.922C188.258 178.239 188.524 177.566 188.781 176.893C188.939 176.507 189.097 176.111 189.255 175.725C189.314 175.557 189.383 175.398 189.452 175.23C188.357 175.2 187.261 175.151 186.165 175.071L186.165 175.071ZM193.548 175.259C192.689 175.349 191.831 175.448 190.972 175.537L191.377 176.636C191.979 176.576 192.591 176.517 193.203 176.457L193.647 175.259H193.548ZM194.18 175.754L193.963 176.378C194.101 176.368 194.249 176.358 194.387 176.339L194.18 175.754ZM194.673 175.24L195.019 176.279C195.848 176.2 196.677 176.121 197.506 176.042L197.911 175.091C196.835 175.161 195.749 175.21 194.673 175.24ZM198.207 175.19L197.891 176.002C198.098 175.982 198.305 175.963 198.513 175.943L198.207 175.19ZM198.463 175.052L198.779 175.923L200.289 180.11V180.12C200.316 180.119 200.343 180.122 200.368 180.13L201.059 175.705L201.197 174.784C200.28 174.903 199.371 174.982 198.463 175.052V175.052ZM200.28 180.14C200.28 180.15 200.28 180.17 200.26 180.17C200.249 180.174 200.237 180.175 200.226 180.171C200.216 180.167 200.206 180.16 200.201 180.15C197.519 180.481 194.819 180.639 192.117 180.625C190.844 180.615 189.571 180.585 188.297 180.526C188.234 180.573 188.16 180.602 188.082 180.611C188.004 180.619 187.925 180.607 187.853 180.576C187.812 180.553 187.772 180.526 187.735 180.496C186.452 180.417 185.159 180.308 183.876 180.13L184.537 184.387H199.707L200.368 180.13C200.338 180.128 200.308 180.132 200.28 180.14V180.14ZM187.705 184.011C185.79 184.011 185.8 181.041 187.705 181.041C189.61 181.041 189.61 184.011 187.705 184.011L187.705 184.011ZM192.68 184.011C190.765 184.011 190.775 181.041 192.68 181.041C194.585 181.041 194.585 184.011 192.68 184.011V184.011ZM197.654 183.833C195.739 183.833 195.749 180.863 197.654 180.863C199.559 180.863 199.559 183.833 197.654 183.833V183.833ZM198.513 175.943L198.207 175.19L197.891 176.002L196.44 179.754C197.684 179.823 198.937 179.932 200.191 180.11L198.513 175.943ZM194.673 175.24L195.019 176.279L196.055 179.417L197.506 176.041L197.911 175.091C196.835 175.161 195.749 175.21 194.673 175.24ZM194.387 176.339L194.18 175.754L193.963 176.378L192.847 179.645C193.765 179.655 194.683 179.675 195.611 179.714L194.387 176.339ZM193.548 175.259C193.074 175.259 192.6 175.27 192.117 175.279C191.702 175.27 191.288 175.27 190.864 175.259L190.972 175.537L191.377 176.636L192.255 178.982L193.203 176.457L193.647 175.259H193.548ZM190.419 176.725L190.163 176.101C190.074 176.329 189.985 176.556 189.896 176.784C189.511 177.764 189.126 178.744 188.722 179.714C189.689 179.675 190.656 179.645 191.624 179.635L190.419 176.725ZM186.165 175.071C186.323 175.378 186.471 175.695 186.62 176.002C186.787 176.358 186.955 176.705 187.123 177.061C187.419 177.685 187.715 178.299 188.001 178.922C188.258 178.239 188.524 177.566 188.781 176.893C188.939 176.507 189.097 176.111 189.255 175.725C189.314 175.557 189.383 175.398 189.452 175.23C188.357 175.2 187.261 175.151 186.165 175.071L186.165 175.071ZM186.294 177.14C186.156 176.794 186.008 176.438 185.869 176.081C185.79 175.893 185.722 175.695 185.642 175.507C185.534 175.715 185.415 175.933 185.307 176.141C185.109 176.527 184.902 176.913 184.695 177.299C184.389 177.883 184.073 178.467 183.748 179.051C183.744 179.055 183.739 179.058 183.734 179.059C183.729 179.061 183.723 179.062 183.718 179.061L183.876 180.13C185.04 179.962 186.215 179.863 187.38 179.784C187.024 178.903 186.659 178.021 186.294 177.14L186.294 177.14ZM187.123 177.061C187.419 177.685 187.715 178.299 188.001 178.922C188.258 178.239 188.524 177.566 188.781 176.893C188.228 176.942 187.676 177.002 187.123 177.061V177.061ZM190.419 176.725C190.242 176.744 190.064 176.764 189.896 176.784C189.511 177.764 189.126 178.744 188.722 179.714C189.689 179.675 190.656 179.645 191.624 179.635L190.419 176.725ZM191.377 176.636L192.255 178.982L193.203 176.457C192.591 176.517 191.979 176.576 191.377 176.636L191.377 176.636ZM194.387 176.339C194.249 176.358 194.101 176.368 193.963 176.378L192.847 179.645C193.765 179.655 194.683 179.675 195.611 179.714L194.387 176.339ZM195.019 176.279L196.055 179.417L197.506 176.041C196.677 176.121 195.848 176.2 195.019 176.279V176.279ZM198.513 175.943C198.306 175.962 198.098 175.982 197.891 176.002L196.44 179.754C197.684 179.823 198.937 179.932 200.191 180.11L198.513 175.943ZM183.047 174.784L183.293 176.358L183.451 177.428L183.688 178.922C183.895 178.388 184.103 177.863 184.31 177.338C184.458 176.952 184.616 176.576 184.774 176.2C184.932 175.804 185.09 175.408 185.257 175.012C184.517 174.953 183.787 174.873 183.047 174.784V174.784Z" fill="#1E1E22"/>
<path d="M193.486 172.533C192.602 171.858 192.128 170.795 191.72 169.779C191.565 169.25 191.363 168.727 191.245 168.186L190.911 166.557C190.639 164.364 190.555 162.151 190.662 159.943C190.701 157.731 191.031 155.552 191.286 153.364C191.686 151.204 191.994 149.019 192.517 146.887C193.007 144.746 193.498 142.605 194.118 140.501C194.715 138.39 195.289 136.274 196.025 134.208C196.737 132.135 197.376 130.04 198.167 127.997C198.968 125.957 199.729 123.906 200.563 121.883C199.402 126.109 198.058 130.264 196.927 134.481L196.048 137.632L195.239 140.8C194.977 141.858 194.662 142.902 194.427 143.965L193.712 147.151C193.17 149.263 192.864 151.415 192.428 153.547C192.108 155.693 191.772 157.84 191.599 160.001C191.386 162.156 191.354 164.326 191.504 166.486L191.696 168.095C191.767 168.63 191.919 169.147 192.027 169.679C192.352 170.692 192.697 171.763 193.486 172.533Z" fill="#1E1E22"/>
<path d="M41.3615 133.586C40.8728 134.972 40.3182 136.329 39.7637 137.686L37.5553 141.419L33.3169 148.602H31.6816L31.9354 148.178L36.343 140.703L38.5513 136.961C39.4723 135.829 40.3841 134.689 41.3615 133.586Z" fill="#1E1E22"/>
<path d="M31.0414 138.28L30.515 142.899L29.8666 148.602H28.4473L29.1147 142.739L29.6316 138.12C30.0169 136.602 30.3927 135.085 30.8626 133.586C30.9755 135.16 31.0129 136.715 31.0414 138.28Z" fill="#1E1E22"/>
<path d="M25.2252 148.602H26.118L25.62 145.105L25.2158 142.296L24.5956 137.884C24.1726 136.451 23.7591 135.009 23.2611 133.586C23.1953 134.821 23.1765 136.046 23.1859 137.272V138.092L23.3644 139.308L23.8249 142.494L24.699 148.602H25.2252Z" fill="#1E1E22"/>
<path d="M22.2449 148.602H20.8258L19.9424 142.494L19.3128 138.092C19.3032 136.593 19.3032 135.094 19.3879 133.586C19.886 135.01 20.2994 136.452 20.7225 137.884L21.3427 142.296L21.9441 146.5L22.2449 148.602Z" fill="#1E1E22"/>
<path d="M23.3644 138.481V139.31L23.355 142.817V148.604H21.9453V138.481C22.152 137.038 22.3588 135.596 22.6502 134.145C22.8569 135.191 23.0356 136.237 23.1859 137.274C23.2517 137.679 23.3082 138.075 23.3644 138.481Z" fill="#1E1E22"/>
<path d="M27.7058 139.203L27.2171 143.511L26.6437 148.601H25.2246L25.6195 145.104L25.8168 143.351L26.2961 139.043C26.6625 137.629 27.0292 136.215 27.4802 134.82C27.6117 136.281 27.6588 137.743 27.7058 139.203Z" fill="#1E1E22"/>
<path d="M17.8945 154.37V159.46C18.1391 159.432 18.3832 159.413 18.6276 159.385L20.7421 154.625C19.7929 154.559 18.844 154.483 17.8945 154.37ZM21.0053 154.71L18.7405 159.376C20.1031 159.234 21.4752 159.14 22.838 159.083L21.0053 154.71ZM21.3061 154.663L23.2421 158.848L24.7833 154.804C23.6273 154.785 22.462 154.729 21.3061 154.663ZM25.2719 155.209L23.6838 159.055C24.6892 159.017 25.6854 158.998 26.691 158.989L25.2719 155.209ZM27.2736 154.842C26.7849 154.832 26.287 154.823 25.7983 154.823L27.2362 158.376L28.4579 154.823C28.0631 154.832 27.6685 154.832 27.2736 154.842ZM29.0875 155.737L27.8564 158.989C28.6459 158.998 29.4351 159.008 30.2246 159.036C29.83 157.933 29.4539 156.84 29.0875 155.737H29.0875ZM29.7453 154.804C30.1494 155.926 30.5348 157.047 30.9107 158.169C31.4182 157.01 31.9163 155.86 32.4332 154.71C31.5403 154.757 30.6475 154.785 29.7453 154.804ZM32.9593 155.238C32.4894 156.519 32.001 157.792 31.5123 159.074C32.5929 159.112 33.6736 159.178 34.7451 159.272C34.1247 157.933 33.5421 156.595 32.9593 155.238V155.238ZM17.8945 148.602V154.37C21.009 154.03 24.1407 153.872 27.2736 153.899C27.847 153.899 28.4203 153.908 28.9935 153.918C29.0764 153.894 29.1643 153.894 29.2472 153.918C30.4502 153.937 31.6437 153.984 32.8373 154.05C32.8675 154.039 32.8991 154.033 32.9311 154.031C32.9795 154.031 33.0274 154.041 33.0722 154.059C34.2658 154.135 35.4593 154.229 36.6526 154.37V148.602H17.8945ZM20.0843 152.815C18.2612 152.815 18.2706 149.987 20.0843 149.987C21.8983 149.987 21.8983 152.815 20.0843 152.815V152.815ZM25.1591 152.815C23.3359 152.815 23.3453 149.987 25.1591 149.987C26.973 149.987 26.973 152.815 25.1591 152.815V152.815ZM30.0649 152.645C28.2418 152.645 28.251 149.818 30.0649 149.818C31.8787 149.818 31.8787 152.645 30.0649 152.645V152.645ZM34.8859 152.815C33.0628 152.815 33.0722 149.987 34.8859 149.987C36.6999 149.987 36.6999 152.815 34.8859 152.815V152.815ZM33.373 154.653C33.8991 156.189 34.4066 157.726 34.8765 159.281C35.4687 159.338 36.0607 159.385 36.6526 159.461V154.37C35.5625 154.493 34.4725 154.587 33.373 154.653V154.653ZM21.0053 154.71L18.7405 159.376C20.1031 159.234 21.4752 159.14 22.838 159.083L21.0053 154.71ZM21.3061 154.663L23.2421 158.848L24.7833 154.804C23.6273 154.785 22.462 154.729 21.3061 154.663V154.663ZM25.2719 155.209L23.6838 159.055C24.6892 159.017 25.6854 158.998 26.691 158.989L25.2719 155.209ZM27.2736 154.842C26.7849 154.832 26.287 154.823 25.7983 154.823L27.2362 158.376L28.4579 154.823C28.0631 154.832 27.6685 154.832 27.2736 154.842V154.842ZM29.0875 155.737L27.8564 158.989C28.6459 158.998 29.4351 159.008 30.2246 159.036C29.83 157.933 29.4539 156.84 29.0875 155.737L29.0875 155.737ZM29.7453 154.804C30.1494 155.926 30.5348 157.047 30.9107 158.169C31.4182 157.01 31.9163 155.86 32.4332 154.71C31.5403 154.757 30.6475 154.785 29.7453 154.804V154.804ZM32.9593 155.238C32.4894 156.519 32.001 157.792 31.5123 159.074C32.5929 159.112 33.6736 159.178 34.7451 159.272C34.1247 157.933 33.5421 156.595 32.9593 155.238V155.238ZM21.0053 154.71L18.7405 159.376C20.1031 159.234 21.4752 159.14 22.838 159.083L21.0053 154.71ZM21.3061 154.663L23.2421 158.848L24.7833 154.804C23.6273 154.785 22.462 154.729 21.3061 154.663V154.663ZM25.2719 155.209L23.6838 159.055C24.6892 159.017 25.6854 158.998 26.691 158.989L25.2719 155.209ZM27.2736 154.842C26.7849 154.832 26.287 154.823 25.7983 154.823L27.2362 158.376L28.4579 154.823C28.0631 154.832 27.6685 154.832 27.2736 154.842V154.842ZM29.0875 155.737L27.8564 158.989C28.6459 158.998 29.4351 159.008 30.2246 159.036C29.83 157.933 29.4539 156.84 29.0875 155.737L29.0875 155.737ZM29.7453 154.804C30.1494 155.926 30.5348 157.047 30.9107 158.169C31.4182 157.01 31.9163 155.86 32.4332 154.71C31.5403 154.757 30.6475 154.785 29.7453 154.804V154.804ZM32.9593 155.238C32.4894 156.519 32.001 157.792 31.5123 159.074C32.5929 159.112 33.6736 159.178 34.7451 159.272C34.1247 157.933 33.5421 156.595 32.9593 155.238V155.238ZM17.8945 164.975V166.144C17.8945 168.639 18.8827 171.031 20.6416 172.796C22.4005 174.56 24.7861 175.551 27.2736 175.551C29.7611 175.551 32.1467 174.56 33.9056 172.796C35.6645 171.031 36.6526 168.639 36.6526 166.144V164.975C30.4156 165.603 24.1315 165.603 17.8945 164.975ZM31.108 159.856C31.0479 159.897 30.9789 159.922 30.907 159.93C30.835 159.939 30.7622 159.929 30.6945 159.904C30.675 159.892 30.6561 159.879 30.6381 159.866C29.5198 159.904 28.3921 159.922 27.2736 159.932C24.1409 159.949 21.0098 159.792 17.8945 159.461V164.975C21.009 164.634 24.1407 164.477 27.2736 164.503C30.4064 164.477 33.5381 164.635 36.6526 164.975V159.461C34.8015 159.677 32.9593 159.79 31.108 159.856V159.856ZM20.5072 163.674C18.684 163.674 18.6934 160.846 20.5072 160.846C22.3209 160.846 22.3209 163.674 20.5072 163.674V163.674ZM24.8209 163.589C22.9977 163.589 23.0071 160.761 24.8209 160.761C26.6346 160.761 26.6346 163.589 24.8209 163.589V163.589ZM29.5574 163.589C27.7343 163.589 27.7435 160.761 29.5574 160.761C31.3711 160.761 31.3711 163.589 29.5574 163.589V163.589ZM34.294 163.419C32.4709 163.419 32.48 160.592 34.294 160.592C36.1077 160.592 36.1077 163.419 34.294 163.419V163.419ZM34.7451 159.272C34.1247 157.933 33.5421 156.595 32.9593 155.238C32.4894 156.519 32.001 157.792 31.5123 159.074C32.5929 159.112 33.6736 159.178 34.7451 159.272V159.272ZM32.4332 154.71C31.5403 154.757 30.6475 154.785 29.7453 154.804C30.1494 155.926 30.5348 157.047 30.9107 158.169C31.4182 157.01 31.9163 155.86 32.4332 154.71V154.71ZM30.2246 159.036C29.83 157.933 29.454 156.84 29.0875 155.737L27.8564 158.989C28.6459 158.998 29.4351 159.008 30.2246 159.036V159.036ZM28.4579 154.823C28.0631 154.832 27.6685 154.832 27.2736 154.842C26.7849 154.832 26.287 154.823 25.7983 154.823L27.2362 158.376L28.4579 154.823ZM26.691 158.989L25.2719 155.209L23.6838 159.055C24.6892 159.017 25.6854 158.998 26.691 158.989V158.989ZM24.7832 154.804C23.6273 154.785 22.462 154.729 21.3061 154.663L23.2421 158.848L24.7832 154.804ZM21.0053 154.71L18.7405 159.376C20.1031 159.234 21.4752 159.14 22.838 159.083L21.0053 154.71ZM32.9593 155.238C32.4894 156.519 32.001 157.792 31.5123 159.074C32.5929 159.112 33.6736 159.178 34.7451 159.272C34.1247 157.933 33.5421 156.595 32.9593 155.238V155.238ZM29.7453 154.804C30.1494 155.926 30.5348 157.047 30.9107 158.169C31.4182 157.01 31.9163 155.86 32.4332 154.71C31.5403 154.757 30.6475 154.785 29.7453 154.804V154.804ZM29.0875 155.737L27.8564 158.989C28.6459 158.998 29.4351 159.008 30.2246 159.036C29.83 157.933 29.4539 156.84 29.0875 155.737ZM27.2736 154.842C26.7849 154.832 26.287 154.823 25.7983 154.823L27.2362 158.376L28.458 154.823C28.0631 154.832 27.6685 154.832 27.2736 154.842H27.2736ZM25.272 155.209L23.6838 159.055C24.6892 159.017 25.6854 158.998 26.691 158.989L25.272 155.209ZM21.3061 154.663L23.2421 158.848L24.7833 154.804C23.6273 154.785 22.462 154.729 21.3061 154.663H21.3061ZM21.0053 154.71L18.7405 159.376C20.1031 159.234 21.4752 159.14 22.8381 159.083L21.0053 154.71ZM32.9593 155.238C32.4894 156.519 32.001 157.792 31.5123 159.074C32.5929 159.112 33.6736 159.178 34.7451 159.272C34.1247 157.933 33.5421 156.595 32.9593 155.238H32.9593ZM29.7454 154.804C30.1494 155.926 30.5349 157.047 30.9107 158.169C31.4182 157.01 31.9163 155.86 32.4332 154.71C31.5402 154.757 30.6475 154.785 29.7453 154.804L29.7454 154.804ZM29.0875 155.737L27.8564 158.989C28.6459 158.998 29.4351 159.008 30.2246 159.036C29.83 157.933 29.4539 156.84 29.0875 155.737ZM27.2736 154.842C26.7849 154.832 26.287 154.823 25.7983 154.823L27.2362 158.376L28.458 154.823C28.0631 154.832 27.6685 154.832 27.2736 154.842H27.2736ZM25.272 155.209L23.6838 159.055C24.6892 159.017 25.6854 158.998 26.691 158.989L25.272 155.209ZM21.3061 154.663L23.2421 158.848L24.7833 154.804C23.6273 154.785 22.462 154.729 21.3061 154.663H21.3061ZM21.0053 154.71L18.7405 159.376C20.1031 159.234 21.4752 159.14 22.8381 159.083L21.0053 154.71Z" fill="#1E1E22"/>
<path d="M107.926 152.887C108.288 154.245 108.692 155.568 109.088 156.895C109.498 158.217 109.908 159.536 110.34 160.85C110.542 161.511 110.759 162.168 110.978 162.824C111.174 163.489 111.419 164.137 111.614 164.804C111.827 165.465 112.041 166.127 112.24 166.795C112.442 167.463 112.653 168.129 112.818 168.816C112.444 168.22 112.108 167.605 111.774 166.987C111.463 166.36 111.146 165.734 110.866 165.092C110.296 163.811 109.794 162.5 109.363 161.165C108.932 159.828 108.582 158.466 108.313 157.087C108.027 155.706 107.897 154.297 107.926 152.887Z" fill="#1E1E22"/>
<path d="M80.6131 155.142C80.6131 154.95 80.5942 154.759 80.5566 154.57H80.5618V154.575C80.5978 154.762 80.615 154.952 80.6131 155.142Z" fill="white"/>
<path d="M76.2285 153.751C76.824 153.869 77.4144 153.983 78.01 154.096L80.5616 154.575C80.5815 155.362 80.4987 156.148 80.3152 156.913V156.918L77.5685 156.403C76.86 156.269 76.1566 156.13 75.4481 155.986C75.33 155.97 75.2171 155.945 75.099 155.919C74.2467 155.754 73.3894 155.589 72.5371 155.419C72.6334 154.628 72.6506 153.83 72.5885 153.035C73.3226 153.184 74.0619 153.329 74.7961 153.473L74.9758 153.509" fill="#1E1E22"/>
<g clip-path="url(#clip1)">
<path d="M186.507 53.1281C183.9 52.2746 182.339 49.8617 183.02 47.7451L183.101 47.4583C183.706 45.0271 181.956 42.363 179.072 41.4188C176.342 40.5247 173.525 41.477 172.433 43.5507C172.337 43.7331 172.261 43.9253 172.197 44.1213L170.13 50.4725C169.315 52.9749 171.078 55.8049 174.071 56.785C176.392 57.5453 178.777 56.9701 180.11 55.5056C180.324 57.4768 181.911 59.3526 184.233 60.113L192.079 62.6822L194.352 55.6973L186.507 53.1281ZM178.846 42.1134C181.457 42.9684 183.02 45.3881 182.33 47.5074C181.981 48.5791 181.122 49.3712 180.02 49.7825L180.997 46.7808C181.064 46.5806 181.165 46.2149 181.182 45.9123C181.234 44.9487 180.808 43.9647 180.012 43.2129C179.282 42.5216 178.372 42.0568 177.422 41.8294C177.891 41.8648 178.37 41.9574 178.846 42.1134ZM173.402 43.3884C173.454 43.322 173.61 43.1709 173.632 43.1548C175.242 41.9364 177.88 42.201 179.513 43.7446C180.152 44.3486 180.495 45.1241 180.454 45.8724C180.419 46.5183 180.1 47.1004 179.557 47.5116C179.066 47.883 178.39 48.0381 177.693 47.95L178.651 45.0073C178.695 44.8729 178.657 44.7252 178.554 44.6281C177.697 43.8176 176.349 43.6956 175.484 44.3503C175.144 44.6074 174.901 44.9415 174.774 45.3195C174.77 45.3278 174.767 45.336 174.764 45.3446L173.837 48.1925C172.857 47.1 172.439 45.6975 172.86 44.406C172.982 44.0311 173.167 43.6906 173.402 43.3884ZM175.462 47.6758C175.86 48.0514 176.345 48.3373 176.877 48.5117C176.96 48.5387 177.043 48.563 177.128 48.5846C177.128 48.5847 177.128 48.5848 177.129 48.5849C178.06 48.8225 179.017 48.699 179.749 48.2595L179.178 50.0133C178.294 50.1749 177.314 50.1177 176.344 49.8C175.612 49.5602 174.962 49.1973 174.421 48.7525L174.973 47.0566C175.1 47.2789 175.264 47.4882 175.462 47.6758ZM175.923 44.9336C176.305 44.6444 176.869 44.5956 177.376 44.7617C177.555 44.8203 177.727 44.9057 177.881 45.0167L176.984 47.7753C176.6 47.6324 176.251 47.4176 175.962 47.144C175.581 46.784 175.376 46.3249 175.4 45.8847C175.421 45.5106 175.606 45.1729 175.923 44.9336ZM180.283 53.7974C179.593 55.9167 176.907 56.9454 174.297 56.0904C171.686 55.2354 170.123 52.8155 170.812 50.6961L172.139 46.622C172.207 46.8617 172.295 47.0979 172.401 47.3287L172.07 48.3481C172.007 48.5399 172.112 48.7462 172.303 48.8088C172.494 48.8714 172.7 48.7667 172.762 48.5749L172.893 48.1736C173.058 48.4062 173.243 48.6296 173.447 48.8412L173.145 49.7679C173.083 49.9597 173.187 50.166 173.379 50.2286C173.57 50.2912 173.775 50.1865 173.838 49.9947L174.038 49.3791C174.306 49.5931 174.597 49.789 174.907 49.9633L174.657 50.7326C174.594 50.9244 174.699 51.1307 174.89 51.1933C175.081 51.2559 175.287 51.1512 175.349 50.9594L175.568 50.288C175.746 50.3638 175.929 50.4329 176.118 50.4946C176.306 50.5562 176.495 50.6091 176.683 50.6534L176.465 51.3248C176.403 51.5166 176.507 51.7229 176.698 51.7855C176.889 51.8481 177.095 51.7433 177.157 51.5516L177.408 50.7823C177.761 50.8253 178.111 50.8389 178.453 50.8248L178.253 51.4404C178.19 51.6322 178.295 51.8385 178.486 51.9011C178.677 51.9637 178.883 51.859 178.945 51.6672L179.247 50.7405C179.651 50.6631 179.924 50.5839 180.087 50.5296L179.956 50.9309C179.894 51.1227 179.998 51.329 180.19 51.3916C180.381 51.4542 180.587 51.3494 180.649 51.1577L180.981 50.1383C181.203 50.0149 181.413 49.876 181.609 49.7226L180.283 53.7974ZM189.278 60.9965L184.459 59.4184C181.856 58.5661 180.296 56.1589 180.969 54.0445L182.302 49.951C182.343 50.0965 182.392 50.2406 182.448 50.383L182.09 51.4804C182.028 51.6721 182.133 51.8784 182.324 51.941C182.515 52.0037 182.721 51.8989 182.783 51.7071L182.917 51.2966C183.003 51.4299 183.095 51.5605 183.194 51.6881L182.841 52.7723C182.778 52.9641 182.883 53.1704 183.074 53.233C183.265 53.2956 183.471 53.1908 183.533 52.9991L183.756 52.3156C183.971 52.5244 184.206 52.7204 184.457 52.9012L184.104 53.9862C184.042 54.178 184.146 54.3843 184.337 54.4469C184.528 54.5095 184.734 54.4048 184.797 54.213L185.092 53.3043C185.441 53.4981 185.814 53.6644 186.209 53.7985L185.89 54.7799C185.827 54.9717 185.932 55.178 186.123 55.2406C186.314 55.3032 186.52 55.1985 186.582 55.0067L186.902 54.0261L188.056 54.4043L187.737 55.3849C187.675 55.5766 187.779 55.7829 187.97 55.8455C188.162 55.9082 188.367 55.8034 188.43 55.6116L188.749 54.631L189.904 55.0092L189.584 55.9898C189.522 56.1816 189.626 56.3879 189.818 56.4505C190.009 56.5131 190.215 56.4083 190.277 56.2166L190.596 55.236L191.1 55.4009L189.278 60.9965L189.278 60.9965ZM191.612 61.7608L189.971 61.2233L191.792 55.6276L193.434 56.1651L191.612 61.7608Z" fill="#1E1E22"/>
</g>
</g>
<defs>
<clipPath id="clip0">
<rect width="238" height="238" fill="white"/>
</clipPath>
<clipPath id="clip1">
<rect width="24.6504" height="24.7103" fill="white" transform="matrix(0.95034 0.311213 -0.309527 0.950891 174.979 35.5781)"/>
</clipPath>
</defs>
</svg>
