<svg width="80" height="80" viewBox="0 0 80 80" fill="none" xmlns="http://www.w3.org/2000/svg">
<rect width="80" height="80" fill="white"/>
<path d="M33.418 9.54297L20.2975 14.7913C17.1335 34.0266 17.1846 45.845 17.8921 67.2741C20.4841 68.9637 21.9711 68.864 24.6711 67.4928C24.1863 53.0992 24.1857 45.1031 24.6711 30.9735C26.5943 36.4838 27.1719 43.1848 25.9832 70.9916C32.7367 72.933 35.8024 73.1654 39.1039 70.9916V42.5634C33.9433 30.4676 31.8467 24.9815 29.2633 16.978L33.6369 12.3858L31.1377 15.0099L28.3884 14.5726L33.418 9.54297Z" stroke="#616161"/>
<path d="M45.8828 9.54297L59.0032 14.7913C62.1673 34.0266 62.1162 45.845 61.4087 67.2741C58.8166 68.9637 57.3297 68.864 54.6297 67.4928C55.1145 53.0992 55.1151 45.1031 54.6297 30.9735C52.7064 36.4838 52.1288 43.1848 53.3176 70.9916C46.564 72.933 42.6234 72.9467 39.322 70.7729L39.1033 46.4996C44.2638 34.4038 47.4541 24.9815 50.0374 16.978L45.6639 12.3858L48.163 15.0099L50.9124 14.5726L45.8828 9.54297Z" stroke="#616161"/>
<path d="M39.3222 37.3149L39.1035 42.5632L45.8826 9.54272C42.8211 6.04397 36.2607 6.2626 33.1992 9.54272L33.6366 12.6042L39.3222 37.3149Z" stroke="#616161"/>
<path d="M39.3223 46.9375H42.6024" stroke="#616161" stroke-width="0.5"/>
<path d="M39.3223 56.5586H42.6024" stroke="#616161" stroke-width="0.5"/>
<circle cx="40.6345" cy="46.9372" r="0.624714" fill="white" stroke="#616161" stroke-width="0.5"/>
<path d="M24.0148 28.3495C22.7092 23.7008 22.2474 20.9958 21.6094 16.1035" stroke="#616161"/>
<path d="M55.5046 28.5675C56.6916 23.0888 57.1114 19.9007 57.6914 14.1348" stroke="#616161"/>
<g clip-path="url(#clip0)">
<path d="M26.5546 42.6406L26.2011 42.287L25.8475 42.6406L25.4929 42.9952L25.1397 43.3484L25.4926 43.702L26.0442 44.2545H24.1893H23.6893V44.7545V45.2574V45.7574H24.1893H26.0411L25.4907 46.3068L25.1366 46.6604L25.4904 47.0142L25.8475 47.3713L26.2011 47.7249L26.5546 47.3713L28.5664 45.3595L28.92 45.006L28.5664 44.6524L26.5546 42.6406Z" fill="#757575" stroke="white"/>
</g>
<g clip-path="url(#clip1)">
<path d="M52.4385 47.3711L52.7921 47.7247L53.1456 47.3711L53.5002 47.0165L53.8535 46.6633L53.5005 46.3098L52.949 45.7572H54.8039H55.3039V45.2572V44.7543V44.2543H54.8039H52.9521L53.5024 43.7049L53.8566 43.3514L53.5027 42.9975L53.1456 42.6404L52.7921 42.2868L52.4385 42.6404L50.4267 44.6522L50.0732 45.0058L50.4267 45.3593L52.4385 47.3711Z" fill="#757575" stroke="white"/>
</g>
<defs>
<clipPath id="clip0">
<rect width="6.03544" height="6.03544" fill="white" transform="translate(29.2188 41.9883) rotate(90)"/>
</clipPath>
<clipPath id="clip1">
<rect width="6.03544" height="6.03544" fill="white" transform="translate(49.7744 48.0234) rotate(-90)"/>
</clipPath>
</defs>
</svg>
