<svg width="80" height="80" viewBox="0 0 80 80" fill="none" xmlns="http://www.w3.org/2000/svg">
<rect width="80" height="80" fill="white"/>
<path d="M8 47.0194L17 38.0198C25.5268 37.5182 33.2335 42.3502 38.5 52.1309" stroke="#757575" stroke-width="1.5"/>
<path d="M31.5751 59.3075L33.3306 57.552C36.3503 63.328 36.8418 66.5806 33.3306 70.844C22.0454 74.1042 4.99157 53.2882 8.50269 46.7678C12.5155 42.7554 21.3705 45.919 31.5751 59.3075Z" stroke="#757575" stroke-width="1.5"/>
<path d="M38.5 52.3789L33.3281 57.5476C35.2352 61.3132 35.6633 63.8274 35.5852 68.8331L41.5 62.1659C41.985 57.2274 40.7297 55.6576 38.5 52.3789Z" stroke="#757575" stroke-width="1.5"/>
<path d="M34.1311 48.3948C33.8274 49.1322 32.8254 49.5765 31.785 49.148C30.7447 48.7195 30.3463 47.6983 30.65 46.9609C30.9537 46.2236 31.9557 45.7792 32.9961 46.2077C34.0364 46.6362 34.4348 47.6574 34.1311 48.3948Z" fill="#757575" stroke="#757575" stroke-width="1.5"/>
<rect x="29.2984" y="45.1719" width="0.250787" height="8.36908" transform="rotate(-45 29.2984 45.1719)" fill="#757575" stroke="#757575" stroke-width="0.250787"/>
<path d="M43.0657 42.8108C42.762 43.5482 41.76 43.9925 40.7196 43.564C39.6793 43.1355 39.2808 42.1144 39.5846 41.377C39.8883 40.6396 40.8903 40.1953 41.9306 40.6238C42.971 41.0522 43.3694 42.0734 43.0657 42.8108Z" fill="#757575" stroke="#757575" stroke-width="1.5"/>
<path d="M48.0657 38.8108C47.762 39.5482 46.76 39.9925 45.7196 39.564C44.6793 39.1355 44.2808 38.1144 44.5846 37.377C44.8883 36.6396 45.8903 36.1953 46.9306 36.6238C47.971 37.0522 48.3694 38.0734 48.0657 38.8108Z" fill="#757575" stroke="#757575" stroke-width="1.5"/>
<path d="M53.0657 35.8108C52.762 36.5482 51.76 36.9925 50.7196 36.564C49.6793 36.1355 49.2808 35.1144 49.5846 34.377C49.8883 33.6396 50.8903 33.1953 51.9306 33.6238C52.971 34.0522 53.3694 35.0734 53.0657 35.8108Z" fill="#757575" stroke="#757575" stroke-width="1.5"/>
<rect x="38.233" y="39.5898" width="0.250787" height="8.36908" transform="rotate(-45 38.233 39.5898)" fill="#757575" stroke="#757575" stroke-width="0.250787"/>
<rect x="43.233" y="35.5898" width="0.250787" height="8.36908" transform="rotate(-45 43.233 35.5898)" fill="#757575" stroke="#757575" stroke-width="0.250787"/>
<rect x="48.233" y="32.5898" width="0.250787" height="8.36908" transform="rotate(-45 48.233 32.5898)" fill="#757575" stroke="#757575" stroke-width="0.250787"/>
<path d="M42.7982 7.92773C31.3578 19.9002 22.0138 29.7855 13.5 40.4277C21.7477 29.7855 51.578 54.7534 37.7431 65.9277C51.578 56.8819 58.4954 46.2397 71.5321 34.2672" stroke="#757575"/>
<path d="M40.9355 55.8168L60.3576 37.459" stroke="#757575"/>
<path d="M60.3581 37.459L41.2021 56.881" stroke="#757575"/>
</svg>
