<svg width="80" height="80" viewBox="0 0 80 80" fill="none" xmlns="http://www.w3.org/2000/svg">
<rect width="80" height="80" fill="white"/>
<path d="M33.3887 9.55469L20.2063 14.8278C17.0272 34.1539 17.0786 46.0281 17.7894 67.5584C20.3937 69.256 21.8878 69.1558 24.6005 67.7781C24.1133 53.3166 24.1128 45.2827 24.6005 31.0864C26.5328 36.6227 27.1131 43.3554 25.9187 71.2935C32.7042 73.244 35.7844 73.4776 39.1014 71.2935V42.7311C33.9165 30.5781 31.81 25.0662 29.2144 17.0249L33.6086 12.4109L31.0977 15.0475L28.3353 14.608L33.3887 9.55469Z" stroke="#757575"/>
<path d="M45.9131 9.55469L59.0955 14.8278C62.2745 34.1539 62.2231 46.0281 61.5123 67.5584C58.908 69.256 57.414 69.1558 54.7013 67.7781C55.1884 53.3165 55.189 45.2827 54.7013 31.0864C52.7689 36.6227 52.1886 43.3554 53.383 71.2935C46.5976 73.244 42.6383 73.2578 39.3213 71.0738L39.1016 46.6859C44.2865 34.5329 47.4918 25.0662 50.0873 17.0249L45.6931 12.4109L48.2041 15.0475L50.9664 14.608L45.9131 9.55469Z" stroke="#757575"/>
<path d="M39.3209 37.458L39.1011 42.7311L45.9122 9.55473C42.8362 6.03945 36.2449 6.25912 33.1689 9.55473L33.6084 12.6307L39.3209 37.458Z" stroke="#757575"/>
<path d="M39.3213 47.125H42.617" stroke="#757575" stroke-width="0.5"/>
<path d="M23.9403 28.4503C22.6285 23.7797 22.1645 21.0619 21.5234 16.1465" stroke="#757575"/>
<path d="M39.3213 56.793H42.617" stroke="#757575" stroke-width="0.5"/>
<circle cx="40.6386" cy="47.1249" r="0.628844" fill="white" stroke="#757575" stroke-width="0.5"/>
<path d="M55.5793 28.6689C56.7718 23.1642 57.1936 19.9611 57.7764 14.168" stroke="#757575"/>
</svg>
