<svg width="80" height="80" viewBox="0 0 80 80" fill="none" xmlns="http://www.w3.org/2000/svg">
<path d="M62.5 64.4995L58 62.4995L57.5 62.9995L22.4068 42.4033L10 19.1406" stroke="#1E1E22" stroke-width="1.5"/>
<circle cx="59.25" cy="59.25" r="1.25" fill="#1E1E22"/>
<path d="M70.9996 54.6384L35.6748 32.7543L26.542 14.3164" stroke="#1E1E22" stroke-width="1.5"/>
<path d="M63 64.5C63.5 62.5 66.5 56 70.5 55C69.5 60.5 67 63 63 64.5Z" stroke="#1E1E22" stroke-width="1.5"/>
<path d="M57.2051 63.0621C58.5947 56.2469 60.0086 53.2075 65.1316 51" stroke="#1E1E22" stroke-width="1.5"/>
<path d="M57.7232 60.3043L56 59.2704L56.3446 58.9258L57.8955 59.9597" stroke="#1E1E22" stroke-width="0.5"/>
<path d="M47.5654 52.4002L58.001 58.7082V57.502L47.9101 51.7109L47.5654 52.4002Z" fill="#1E1E22"/>
<path d="M57.1563 52.7451L59.7411 54.296L60.0857 53.9513L57.501 52.4005L57.1563 52.7451Z" fill="#1E1E22"/>
<path d="M47.5654 52.4002L58.001 58.7082V57.502L47.9101 51.7109L47.5654 52.4002Z" stroke="#1E1E22" stroke-width="0.5"/>
<path d="M57.1563 52.7451L59.7411 54.296L60.0857 53.9513L57.501 52.4005L57.1563 52.7451Z" stroke="#1E1E22" stroke-width="0.5"/>
</svg>
