<svg width="21" height="20" viewBox="0 0 21 20" fill="none" xmlns="http://www.w3.org/2000/svg">
<g clip-path="url(#clip0)">
<path fill-rule="evenodd" clip-rule="evenodd" d="M17.0298 9.12119C17.0356 7.59776 16.508 6.12033 15.5386 4.94515C14.5691 3.76997 13.2189 2.97117 11.7222 2.68727V2.57097C11.7222 2.28952 11.6104 2.0196 11.4113 1.82058C11.2123 1.62157 10.9424 1.50977 10.661 1.50977C10.3795 1.50977 10.1096 1.62157 9.91058 1.82058C9.71156 2.0196 9.59976 2.28952 9.59976 2.57097V2.66613C8.11724 2.91789 6.77144 3.68562 5.8002 4.83363C4.82896 5.98165 4.29481 7.43604 4.29214 8.93978V9.12121C3.58385 9.37171 2.9869 9.8645 2.60677 10.5125C2.22664 11.1605 2.0878 11.9221 2.21478 12.6625C2.34176 13.403 2.72639 14.0748 3.30071 14.5591C3.87502 15.0435 4.60206 15.3092 5.35334 15.3094H7.4766C7.4766 16.154 7.81209 16.9639 8.40928 17.5611C9.00646 18.1583 9.81641 18.4938 10.661 18.4938C11.5055 18.4938 12.3155 18.1583 12.9126 17.5611C13.5098 16.9639 13.8453 16.154 13.8453 15.3094H15.9686C16.7199 15.3092 17.4469 15.0435 18.0212 14.5591C18.5955 14.0748 18.9802 13.403 19.1071 12.6625C19.2341 11.9221 19.0953 11.1605 18.7151 10.5125C18.335 9.8645 17.7381 9.37171 17.0298 9.12121V9.12119ZM10.661 16.3706C10.3796 16.3705 10.1097 16.2587 9.91067 16.0597C9.71165 15.8607 9.59982 15.5908 9.59976 15.3094H11.7222C11.7221 15.5908 11.6103 15.8607 11.4113 16.0597C11.2123 16.2587 10.9424 16.3705 10.661 16.3706ZM15.9686 13.1854H5.35334C5.07189 13.1854 4.80197 13.0736 4.60296 12.8746C4.40395 12.6755 4.29214 12.4056 4.29214 12.1242C4.29214 11.8427 4.40395 11.5728 4.60296 11.3738C4.80197 11.1748 5.07189 11.063 5.35334 11.063H6.41459V8.93977C6.41484 7.81369 6.86233 6.73382 7.65866 5.93764C8.45498 5.14145 9.53493 4.69415 10.661 4.69411C10.7985 4.69411 10.9377 4.70062 11.0777 4.71369C12.1314 4.80518 13.1116 5.29153 13.8218 6.07526C14.532 6.85898 14.9198 7.88218 14.9074 8.93977V11.063H15.9686C16.25 11.063 16.5199 11.1748 16.719 11.3738C16.918 11.5728 17.0298 11.8427 17.0298 12.1242C17.0298 12.4056 16.918 12.6755 16.719 12.8746C16.5199 13.0736 16.25 13.1854 15.9686 13.1854Z" fill="#757575"/>
</g>
<defs>
<clipPath id="clip0">
<rect width="20" height="20" fill="white" transform="translate(0.661133)"/>
</clipPath>
</defs>
</svg>
