<svg width="80" height="80" viewBox="0 0 80 80" fill="none" xmlns="http://www.w3.org/2000/svg">
<path d="M33.3897 9.55469L20.2072 14.8278C17.0282 34.1539 17.0796 46.0281 17.7904 67.5584C20.3947 69.256 21.8887 69.1558 24.6015 67.7781C24.1143 53.3166 24.1138 45.2827 24.6015 31.0864C26.5338 36.6227 27.1141 43.3554 25.9197 71.2935C32.7052 73.244 35.7854 73.4776 39.1024 71.2935V42.7311C33.9175 30.5781 31.8109 25.0662 29.2154 17.0249L33.6096 12.4109L31.0986 15.0475L28.3363 14.608L33.3897 9.55469Z" stroke="#1E1E22"/>
<path d="M45.914 9.55469L59.0965 14.8278C62.2755 34.1539 62.2241 46.0281 61.5133 67.5584C58.909 69.256 57.415 69.1558 54.7023 67.7781C55.1894 53.3165 55.19 45.2827 54.7023 31.0864C52.7699 36.6227 52.1896 43.3554 53.384 71.2935C46.5985 73.244 42.6393 73.2578 39.3223 71.0738L39.1026 46.6859C44.2875 34.5329 47.4928 25.0662 50.0883 17.0249L45.6941 12.4109L48.2051 15.0475L50.9674 14.608L45.914 9.55469Z" stroke="#1E1E22"/>
<path d="M39.3218 37.458L39.1021 42.7311L45.9132 9.55473C42.8372 6.03945 36.2459 6.25912 33.1699 9.55473L33.6093 12.6307L39.3218 37.458Z" stroke="#1E1E22"/>
<path d="M39.3223 47.125H42.6179" stroke="#1E1E22" stroke-width="0.5"/>
<path d="M23.9412 28.4484C22.6294 23.7777 22.1655 21.0599 21.5244 16.1445" stroke="#1E1E22"/>
<path d="M39.3223 56.793H42.6179" stroke="#1E1E22" stroke-width="0.5"/>
<circle cx="40.6396" cy="47.1249" r="0.628844" fill="white" stroke="#1E1E22" stroke-width="0.5"/>
<path d="M55.5802 28.6689C56.7728 23.1642 57.1946 19.9611 57.7773 14.168" stroke="#1E1E22"/>
</svg>
