<svg width="80" height="80" viewBox="0 0 80 80" fill="none" xmlns="http://www.w3.org/2000/svg">
<path d="M8 47.0155L17 38.0159C25.5268 37.5143 33.2335 42.3463 38.5 52.127" stroke="#1E1E22" stroke-width="1.5"/>
<path d="M31.5751 59.3056L33.3306 57.5501C36.3503 63.3261 36.8418 66.5787 33.3306 70.8421C22.0454 74.1023 4.99157 53.2863 8.50269 46.7658C12.5155 42.7534 21.3705 45.9171 31.5751 59.3056Z" stroke="#1E1E22" stroke-width="1.5"/>
<path d="M38.5 52.3789L33.3281 57.5476C35.2352 61.3132 35.6633 63.8274 35.5852 68.8331L41.5 62.1659C41.985 57.2274 40.7297 55.6576 38.5 52.3789Z" stroke="#1E1E22" stroke-width="1.5"/>
<path d="M34.1311 48.3909C33.8274 49.1282 32.8254 49.5726 31.785 49.1441C30.7447 48.7156 30.3463 47.6944 30.65 46.957C30.9537 46.2196 31.9557 45.7753 32.9961 46.2038C34.0364 46.6323 34.4348 47.6535 34.1311 48.3909Z" fill="#1E1E22" stroke="#1E1E22" stroke-width="1.5"/>
<rect x="29.2984" y="45.1719" width="0.250787" height="8.36908" transform="rotate(-45 29.2984 45.1719)" fill="#1E1E22" stroke="#1E1E22" stroke-width="0.250787"/>
<path d="M43.0657 42.8088C42.762 43.5462 41.76 43.9905 40.7196 43.562C39.6793 43.1335 39.2808 42.1124 39.5846 41.375C39.8883 40.6376 40.8903 40.1933 41.9306 40.6218C42.971 41.0503 43.3694 42.0714 43.0657 42.8088Z" fill="#1E1E22" stroke="#1E1E22" stroke-width="1.5"/>
<path d="M48.0657 38.8088C47.762 39.5462 46.76 39.9905 45.7196 39.562C44.6793 39.1335 44.2808 38.1124 44.5846 37.375C44.8883 36.6376 45.8903 36.1933 46.9306 36.6218C47.971 37.0503 48.3694 38.0714 48.0657 38.8088Z" fill="#1E1E22" stroke="#1E1E22" stroke-width="1.5"/>
<path d="M53.0657 35.8088C52.762 36.5462 51.76 36.9905 50.7196 36.562C49.6793 36.1335 49.2808 35.1124 49.5846 34.375C49.8883 33.6376 50.8903 33.1933 51.9306 33.6218C52.971 34.0503 53.3694 35.0714 53.0657 35.8088Z" fill="#1E1E22" stroke="#1E1E22" stroke-width="1.5"/>
<rect x="38.233" y="39.5859" width="0.250787" height="8.36908" transform="rotate(-45 38.233 39.5859)" fill="#1E1E22" stroke="#1E1E22" stroke-width="0.250787"/>
<rect x="43.233" y="35.5859" width="0.250787" height="8.36908" transform="rotate(-45 43.233 35.5859)" fill="#1E1E22" stroke="#1E1E22" stroke-width="0.250787"/>
<rect x="48.233" y="32.5859" width="0.250787" height="8.36908" transform="rotate(-45 48.233 32.5859)" fill="#1E1E22" stroke="#1E1E22" stroke-width="0.250787"/>
<path d="M42.7982 7.92578C31.3578 19.8983 22.0138 29.7836 13.5 40.4258C21.7477 29.7836 51.578 54.7515 37.7431 65.9258C51.578 56.8799 58.4954 46.2377 71.5321 34.2652" stroke="#1E1E22"/>
<path d="M40.9355 55.8148L60.3576 37.457" stroke="#1E1E22"/>
<path d="M60.3581 37.457L41.2021 56.879" stroke="#1E1E22"/>
</svg>
