<svg width="20" height="20" viewBox="0 0 20 20" fill="none" xmlns="http://www.w3.org/2000/svg">
<path fill-rule="evenodd" clip-rule="evenodd" d="M18.3772 15.6726C17.9661 14.5784 17.3359 13.5796 16.5252 12.7375C15.7146 11.8954 14.7406 11.2276 13.6628 10.7751C14.249 10.294 14.7223 9.69005 15.0494 9.00592C15.3765 8.32179 15.5493 7.57418 15.5557 6.81591C15.5347 5.487 15.0218 4.21305 14.1162 3.24026C13.2106 2.26747 11.9766 1.66489 10.6526 1.54899C10.4364 1.51845 10.2182 1.50486 9.99988 1.50835C9.7816 1.50486 9.56338 1.51845 9.34722 1.54899C8.02321 1.6649 6.78917 2.26748 5.88357 3.24027C4.97797 4.21307 4.46511 5.48701 4.4441 6.81592C4.45052 7.57419 4.62338 8.32179 4.95046 9.00592C5.27754 9.69004 5.75087 10.294 6.337 10.7751C5.25925 11.2276 4.28523 11.8954 3.4746 12.7375C2.66397 13.5796 2.03381 14.5784 1.6227 15.6726C1.50662 15.9924 1.47217 16.3361 1.52248 16.6726C1.57278 17.0091 1.70625 17.3278 1.91079 17.5997C2.12265 17.8789 2.39666 18.105 2.71109 18.26C3.02552 18.4149 3.37173 18.4945 3.72226 18.4924H16.2776C16.6281 18.4945 16.9743 18.4149 17.2888 18.26C17.6032 18.105 17.8772 17.8789 18.0891 17.5997C18.2936 17.3278 18.4271 17.0091 18.4774 16.6726C18.5277 16.3361 18.4933 15.9924 18.3772 15.6726ZM9.65577 3.65267C9.76957 3.63478 9.8848 3.62771 9.99993 3.63156C10.1151 3.62771 10.2303 3.63478 10.3442 3.65267C11.147 3.71264 11.8985 4.07022 12.4514 4.65536C13.0043 5.24049 13.3188 6.011 13.3333 6.81592C13.3238 7.24398 13.23 7.66597 13.0573 8.05775C12.8846 8.44954 12.6364 8.80343 12.3268 9.09919C12.0172 9.39495 11.6523 9.62678 11.2531 9.7814C10.8538 9.93603 10.428 10.0104 9.99993 10.0003C9.57188 10.0105 9.14602 9.93613 8.74672 9.78153C8.34743 9.62693 7.98254 9.39511 7.67294 9.09934C7.36333 8.80356 7.11509 8.44965 6.94241 8.05783C6.76973 7.66602 6.67601 7.244 6.6666 6.81592C6.68108 6.011 6.9956 5.24049 7.54853 4.65535C8.10146 4.07022 8.85295 3.71264 9.65577 3.65267ZM3.72222 16.3691C4.20948 15.1048 5.07236 14.0202 6.19473 13.2611C7.3171 12.5021 8.64507 12.1051 9.99988 12.1236C11.3547 12.1052 12.6826 12.5022 13.805 13.2612C14.9273 14.0203 15.7902 15.1049 16.2776 16.3691H3.72222Z" fill="#757575"/>
</svg>
