<svg width="80" height="80" viewBox="0 0 80 80" fill="none" xmlns="http://www.w3.org/2000/svg">
<circle cx="40.0022" cy="39.4573" r="25.593" stroke="#757575"/>
<circle cx="40.0027" cy="39.4568" r="22.8464" stroke="#757575"/>
<mask id="path-3-inside-1" fill="white">
<path d="M40.1088 30.9679C38.9525 30.9679 38.0117 30.0272 38.0117 28.871C38.0117 27.7146 38.9525 26.7739 40.1088 26.7739C41.2651 26.7739 42.2058 27.7146 42.2058 28.871C42.2058 30.0272 41.2651 30.9679 40.1088 30.9679ZM40.1088 27.4033C39.2995 27.4033 38.6411 28.0617 38.6411 28.871C38.6411 29.6802 39.2995 30.3385 40.1088 30.3385C40.9181 30.3385 41.5764 29.6802 41.5764 28.871C41.5764 28.0617 40.9181 27.4033 40.1088 27.4033Z"/>
</mask>
<path d="M40.1088 30.9679C38.9525 30.9679 38.0117 30.0272 38.0117 28.871C38.0117 27.7146 38.9525 26.7739 40.1088 26.7739C41.2651 26.7739 42.2058 27.7146 42.2058 28.871C42.2058 30.0272 41.2651 30.9679 40.1088 30.9679ZM40.1088 27.4033C39.2995 27.4033 38.6411 28.0617 38.6411 28.871C38.6411 29.6802 39.2995 30.3385 40.1088 30.3385C40.9181 30.3385 41.5764 29.6802 41.5764 28.871C41.5764 28.0617 40.9181 27.4033 40.1088 27.4033Z" fill="#757575"/>
<path d="M40.1088 29.9679C39.5047 29.9679 39.0117 29.4749 39.0117 28.871H37.0117C37.0117 30.5796 38.4003 31.9679 40.1088 31.9679V29.9679ZM39.0117 28.871C39.0117 28.2669 39.5048 27.7739 40.1088 27.7739V25.7739C38.4002 25.7739 37.0117 27.1623 37.0117 28.871H39.0117ZM40.1088 27.7739C40.7128 27.7739 41.2058 28.2669 41.2058 28.871H43.2058C43.2058 27.1623 41.8174 25.7739 40.1088 25.7739V27.7739ZM41.2058 28.871C41.2058 29.4749 40.7128 29.9679 40.1088 29.9679V31.9679C41.8174 31.9679 43.2058 30.5795 43.2058 28.871H41.2058ZM40.1088 26.4033C38.7472 26.4033 37.6411 27.5094 37.6411 28.871H39.6411C39.6411 28.614 39.8518 28.4033 40.1088 28.4033V26.4033ZM37.6411 28.871C37.6411 30.2326 38.7473 31.3385 40.1088 31.3385V29.3385C39.8517 29.3385 39.6411 29.1279 39.6411 28.871H37.6411ZM40.1088 31.3385C41.4703 31.3385 42.5764 30.2325 42.5764 28.871H40.5764C40.5764 29.1279 40.3658 29.3385 40.1088 29.3385V31.3385ZM42.5764 28.871C42.5764 27.5095 41.4704 26.4033 40.1088 26.4033V28.4033C40.3658 28.4033 40.5764 28.614 40.5764 28.871H42.5764Z" fill="#757575" mask="url(#path-3-inside-1)"/>
<mask id="path-5-inside-2" fill="white">
<path d="M39.9899 54.0841C39.9665 54.0841 39.9431 54.0815 39.92 54.0762C36.9229 53.3931 34.7516 51.7557 33.4578 50.5024C32.5334 49.6069 31.9194 48.7864 31.6002 48.317L31.0437 49.1115C30.9847 49.1956 30.8884 49.2456 30.7859 49.2456C30.7847 49.2456 30.7836 49.2456 30.7823 49.2456C30.6784 49.2444 30.5818 49.192 30.5241 49.1055C29.5142 47.5909 29.1504 45.7483 29.4722 43.777C29.7138 42.2976 30.2491 41.2747 30.2718 41.2319C30.3255 41.1304 30.4301 41.0663 30.5449 41.0644C30.5465 41.0644 30.5482 41.0644 30.5499 41.0644C30.6627 41.0644 30.767 41.1248 30.8231 41.223C32.2824 43.7766 33.8691 45.2828 34.5041 45.7225C34.5977 45.7872 34.6492 45.8976 34.6386 46.0109C34.6279 46.1242 34.557 46.223 34.453 46.2692L33.7456 46.5827C35.0533 47.7699 36.6403 48.547 38.3772 48.85V36.7376H33.4047C33.0667 37.2282 32.5517 37.516 31.9958 37.516C31.0082 37.516 30.2047 36.6021 30.2047 35.4788C30.2047 34.3556 31.0081 33.4417 31.9958 33.4417C32.5516 33.4417 33.0666 33.7295 33.4047 34.2201H38.3772V32.5774C36.9365 31.906 36.0171 30.4736 36.0171 28.8707C36.0171 26.6149 37.8523 24.7798 40.108 24.7798C42.3637 24.7798 44.1988 26.6149 44.1988 28.8707C44.1988 30.5647 43.1647 32.0672 41.6028 32.6788V34.2201H46.5752C46.9133 33.7295 47.4283 33.4417 47.9841 33.4417C48.9717 33.4417 49.7751 34.3555 49.7751 35.4788C49.7751 36.6021 48.9717 37.516 47.9841 37.516C47.4283 37.516 46.9133 37.2283 46.5752 36.7376H41.6028V48.8501C43.3397 48.5471 44.9266 47.77 46.2343 46.5828L45.527 46.2693C45.4228 46.2231 45.3517 46.1242 45.3412 46.0107C45.3306 45.8973 45.3822 45.7869 45.4762 45.7223C46.1108 45.283 47.6975 43.7767 49.1568 41.223C49.2129 41.1249 49.3173 41.0644 49.43 41.0644C49.4317 41.0644 49.4335 41.0644 49.4351 41.0645C49.5498 41.0663 49.6544 41.1305 49.7082 41.2319C49.7308 41.2747 50.2661 42.2976 50.5077 43.7771C50.8296 45.7484 50.4659 47.591 49.4559 49.1056C49.3982 49.1921 49.3016 49.2445 49.1977 49.2457C49.1965 49.2457 49.1952 49.2457 49.194 49.2457C49.0915 49.2457 48.9952 49.1957 48.9363 49.1116L48.3798 48.317C48.0604 48.7866 47.4465 49.6071 46.5221 50.5024C45.2283 51.7558 43.057 53.3931 40.06 54.0763C40.0368 54.0815 40.0134 54.0841 39.9899 54.0841ZM31.6119 47.437C31.6166 47.437 31.6214 47.4371 31.6261 47.4373C31.7336 47.4421 31.8313 47.5016 31.8848 47.5951C31.9112 47.6408 34.5802 52.1799 39.9899 53.4464C45.4097 52.1776 48.0685 47.6409 48.0949 47.5951C48.1486 47.5016 48.2461 47.4422 48.3537 47.4373C48.4612 47.4314 48.5637 47.483 48.6256 47.5711L49.1768 48.3582C50.5849 45.8637 49.8245 43.1881 49.3888 42.0678C48.11 44.1661 46.8821 45.3695 46.2575 45.9048L46.9195 46.1981C47.0144 46.2402 47.0824 46.3263 47.1014 46.4282C47.1204 46.5303 47.0879 46.6351 47.0145 46.7084C45.4629 48.26 43.4973 49.2354 41.3302 49.5292C41.24 49.5414 41.1493 49.5142 41.0809 49.4544C41.0125 49.3946 40.9732 49.3082 40.9732 49.2174V36.4229C40.9732 36.2491 41.1141 36.1082 41.2879 36.1082H46.7493C46.863 36.1082 46.9677 36.1695 47.0234 36.2686C47.2414 36.6556 47.6004 36.8866 47.9839 36.8866C48.6245 36.8866 49.1455 36.255 49.1455 35.4788C49.1455 34.7025 48.6244 34.0711 47.9839 34.0711C47.6004 34.0711 47.2414 34.3021 47.0234 34.689C46.9677 34.7881 46.8629 34.8494 46.7493 34.8494H41.2881C41.1143 34.8494 40.9734 34.7085 40.9734 34.5347V32.4577C40.9734 32.3218 41.0606 32.2012 41.1897 32.1587C42.6131 31.6907 43.5694 30.3694 43.5694 28.8707C43.5694 26.962 42.0167 25.4092 40.108 25.4092C38.1993 25.4092 36.6466 26.962 36.6466 28.8707C36.6466 30.2878 37.4958 31.5473 38.8101 32.0795C38.9289 32.1277 39.0067 32.243 39.0067 32.3712V34.5348C39.0067 34.7086 38.8658 34.8495 38.692 34.8495H33.2305C33.1169 34.8495 33.0121 34.7882 32.9563 34.6892C32.7384 34.3022 32.3795 34.0712 31.9959 34.0712C31.3554 34.0712 30.8342 34.7027 30.8342 35.4789C30.8342 36.2552 31.3554 36.8867 31.9959 36.8867C32.3795 36.8867 32.7384 36.6556 32.9563 36.2687C33.0121 36.1697 33.1169 36.1084 33.2305 36.1084H38.692C38.8658 36.1084 39.0067 36.2493 39.0067 36.4231V49.2175C39.0067 49.3083 38.9674 49.3947 38.899 49.4545C38.8305 49.5142 38.74 49.5414 38.6497 49.5293C36.4825 49.2356 34.5169 48.2601 32.9653 46.7085C32.892 46.6352 32.8595 46.5304 32.8785 46.4283C32.8975 46.3264 32.9655 46.2403 33.0604 46.1982L33.7223 45.9048C33.0977 45.3697 31.8702 44.1665 30.5916 42.069C30.1572 43.1911 29.3989 45.8692 30.8031 48.3582L31.3543 47.5712C31.4133 47.4869 31.5096 47.437 31.6119 47.437Z"/>
</mask>
<path d="M39.9899 54.0841C39.9665 54.0841 39.9431 54.0815 39.92 54.0762C36.9229 53.3931 34.7516 51.7557 33.4578 50.5024C32.5334 49.6069 31.9194 48.7864 31.6002 48.317L31.0437 49.1115C30.9847 49.1956 30.8884 49.2456 30.7859 49.2456C30.7847 49.2456 30.7836 49.2456 30.7823 49.2456C30.6784 49.2444 30.5818 49.192 30.5241 49.1055C29.5142 47.5909 29.1504 45.7483 29.4722 43.777C29.7138 42.2976 30.2491 41.2747 30.2718 41.2319C30.3255 41.1304 30.4301 41.0663 30.5449 41.0644C30.5465 41.0644 30.5482 41.0644 30.5499 41.0644C30.6627 41.0644 30.767 41.1248 30.8231 41.223C32.2824 43.7766 33.8691 45.2828 34.5041 45.7225C34.5977 45.7872 34.6492 45.8976 34.6386 46.0109C34.6279 46.1242 34.557 46.223 34.453 46.2692L33.7456 46.5827C35.0533 47.7699 36.6403 48.547 38.3772 48.85V36.7376H33.4047C33.0667 37.2282 32.5517 37.516 31.9958 37.516C31.0082 37.516 30.2047 36.6021 30.2047 35.4788C30.2047 34.3556 31.0081 33.4417 31.9958 33.4417C32.5516 33.4417 33.0666 33.7295 33.4047 34.2201H38.3772V32.5774C36.9365 31.906 36.0171 30.4736 36.0171 28.8707C36.0171 26.6149 37.8523 24.7798 40.108 24.7798C42.3637 24.7798 44.1988 26.6149 44.1988 28.8707C44.1988 30.5647 43.1647 32.0672 41.6028 32.6788V34.2201H46.5752C46.9133 33.7295 47.4283 33.4417 47.9841 33.4417C48.9717 33.4417 49.7751 34.3555 49.7751 35.4788C49.7751 36.6021 48.9717 37.516 47.9841 37.516C47.4283 37.516 46.9133 37.2283 46.5752 36.7376H41.6028V48.8501C43.3397 48.5471 44.9266 47.77 46.2343 46.5828L45.527 46.2693C45.4228 46.2231 45.3517 46.1242 45.3412 46.0107C45.3306 45.8973 45.3822 45.7869 45.4762 45.7223C46.1108 45.283 47.6975 43.7767 49.1568 41.223C49.2129 41.1249 49.3173 41.0644 49.43 41.0644C49.4317 41.0644 49.4335 41.0644 49.4351 41.0645C49.5498 41.0663 49.6544 41.1305 49.7082 41.2319C49.7308 41.2747 50.2661 42.2976 50.5077 43.7771C50.8296 45.7484 50.4659 47.591 49.4559 49.1056C49.3982 49.1921 49.3016 49.2445 49.1977 49.2457C49.1965 49.2457 49.1952 49.2457 49.194 49.2457C49.0915 49.2457 48.9952 49.1957 48.9363 49.1116L48.3798 48.317C48.0604 48.7866 47.4465 49.6071 46.5221 50.5024C45.2283 51.7558 43.057 53.3931 40.06 54.0763C40.0368 54.0815 40.0134 54.0841 39.9899 54.0841ZM31.6119 47.437C31.6166 47.437 31.6214 47.4371 31.6261 47.4373C31.7336 47.4421 31.8313 47.5016 31.8848 47.5951C31.9112 47.6408 34.5802 52.1799 39.9899 53.4464C45.4097 52.1776 48.0685 47.6409 48.0949 47.5951C48.1486 47.5016 48.2461 47.4422 48.3537 47.4373C48.4612 47.4314 48.5637 47.483 48.6256 47.5711L49.1768 48.3582C50.5849 45.8637 49.8245 43.1881 49.3888 42.0678C48.11 44.1661 46.8821 45.3695 46.2575 45.9048L46.9195 46.1981C47.0144 46.2402 47.0824 46.3263 47.1014 46.4282C47.1204 46.5303 47.0879 46.6351 47.0145 46.7084C45.4629 48.26 43.4973 49.2354 41.3302 49.5292C41.24 49.5414 41.1493 49.5142 41.0809 49.4544C41.0125 49.3946 40.9732 49.3082 40.9732 49.2174V36.4229C40.9732 36.2491 41.1141 36.1082 41.2879 36.1082H46.7493C46.863 36.1082 46.9677 36.1695 47.0234 36.2686C47.2414 36.6556 47.6004 36.8866 47.9839 36.8866C48.6245 36.8866 49.1455 36.255 49.1455 35.4788C49.1455 34.7025 48.6244 34.0711 47.9839 34.0711C47.6004 34.0711 47.2414 34.3021 47.0234 34.689C46.9677 34.7881 46.8629 34.8494 46.7493 34.8494H41.2881C41.1143 34.8494 40.9734 34.7085 40.9734 34.5347V32.4577C40.9734 32.3218 41.0606 32.2012 41.1897 32.1587C42.6131 31.6907 43.5694 30.3694 43.5694 28.8707C43.5694 26.962 42.0167 25.4092 40.108 25.4092C38.1993 25.4092 36.6466 26.962 36.6466 28.8707C36.6466 30.2878 37.4958 31.5473 38.8101 32.0795C38.9289 32.1277 39.0067 32.243 39.0067 32.3712V34.5348C39.0067 34.7086 38.8658 34.8495 38.692 34.8495H33.2305C33.1169 34.8495 33.0121 34.7882 32.9563 34.6892C32.7384 34.3022 32.3795 34.0712 31.9959 34.0712C31.3554 34.0712 30.8342 34.7027 30.8342 35.4789C30.8342 36.2552 31.3554 36.8867 31.9959 36.8867C32.3795 36.8867 32.7384 36.6556 32.9563 36.2687C33.0121 36.1697 33.1169 36.1084 33.2305 36.1084H38.692C38.8658 36.1084 39.0067 36.2493 39.0067 36.4231V49.2175C39.0067 49.3083 38.9674 49.3947 38.899 49.4545C38.8305 49.5142 38.74 49.5414 38.6497 49.5293C36.4825 49.2356 34.5169 48.2601 32.9653 46.7085C32.892 46.6352 32.8595 46.5304 32.8785 46.4283C32.8975 46.3264 32.9655 46.2403 33.0604 46.1982L33.7223 45.9048C33.0977 45.3697 31.8702 44.1665 30.5916 42.069C30.1572 43.1911 29.3989 45.8692 30.8031 48.3582L31.3543 47.5712C31.4133 47.4869 31.5096 47.437 31.6119 47.437Z" fill="#757575" stroke="#757575" stroke-width="2" mask="url(#path-5-inside-2)"/>
<mask id="path-6-inside-3" fill="white">
<path d="M40.303 19.0187C40.4993 18.8441 40.5984 18.5651 40.4664 18.338C40.434 18.2822 40.3986 18.2321 40.3607 18.1886C40.2471 18.0581 40.1157 17.9924 39.9824 17.9996C39.8492 18.0067 39.72 18.0864 39.6105 18.2289C39.5011 18.3713 39.4161 18.5705 39.3659 18.802C39.3158 19.0335 39.3026 19.2874 39.3281 19.5326C39.3536 19.7779 39.4166 20.0039 39.5094 20.1832C39.6022 20.3625 39.7208 20.4873 39.8508 20.5424C40.0814 20.64 40.21 20.3346 40.1612 20.0889L40.0805 19.6816C40.0319 19.4368 40.1166 19.1846 40.303 19.0187Z"/>
</mask>
<path d="M40.303 19.0187C40.4993 18.8441 40.5984 18.5651 40.4664 18.338C40.434 18.2822 40.3986 18.2321 40.3607 18.1886C40.2471 18.0581 40.1157 17.9924 39.9824 17.9996C39.8492 18.0067 39.72 18.0864 39.6105 18.2289C39.5011 18.3713 39.4161 18.5705 39.3659 18.802C39.3158 19.0335 39.3026 19.2874 39.3281 19.5326C39.3536 19.7779 39.4166 20.0039 39.5094 20.1832C39.6022 20.3625 39.7208 20.4873 39.8508 20.5424C40.0814 20.64 40.21 20.3346 40.1612 20.0889L40.0805 19.6816C40.0319 19.4368 40.1166 19.1846 40.303 19.0187Z" stroke="#757575" stroke-width="2" mask="url(#path-6-inside-3)"/>
<mask id="path-7-inside-4" fill="white">
<path d="M40.1471 59.2417C40.1908 58.9973 40.0513 58.7031 39.8281 58.812C39.6992 58.875 39.5828 59.0069 39.4931 59.1918C39.4034 59.3766 39.3444 59.6064 39.3232 59.8531C39.302 60.0998 39.3195 60.3527 39.3737 60.5811C39.4278 60.8094 39.5162 61.0032 39.6281 61.139C39.74 61.2747 39.8705 61.3464 40.0038 61.3455C40.1371 61.3445 40.2673 61.2708 40.3786 61.1335C40.4186 61.0841 40.4556 61.0272 40.489 60.964C40.6085 60.7377 40.5051 60.4693 40.3068 60.3075C40.1181 60.1535 40.0277 59.9093 40.0706 59.6695L40.1471 59.2417Z"/>
</mask>
<path d="M40.1471 59.2417C40.1908 58.9973 40.0513 58.7031 39.8281 58.812C39.6992 58.875 39.5828 59.0069 39.4931 59.1918C39.4034 59.3766 39.3444 59.6064 39.3232 59.8531C39.302 60.0998 39.3195 60.3527 39.3737 60.5811C39.4278 60.8094 39.5162 61.0032 39.6281 61.139C39.74 61.2747 39.8705 61.3464 40.0038 61.3455C40.1371 61.3445 40.2673 61.2708 40.3786 61.1335C40.4186 61.0841 40.4556 61.0272 40.489 60.964C40.6085 60.7377 40.5051 60.4693 40.3068 60.3075C40.1181 60.1535 40.0277 59.9093 40.0706 59.6695L40.1471 59.2417Z" stroke="#757575" stroke-width="2" mask="url(#path-7-inside-4)"/>
<mask id="path-8-inside-5" fill="white">
<path d="M60.8318 39.1989C61.0065 39.0027 61.2855 38.9036 61.5126 39.0356C61.5684 39.068 61.6185 39.1033 61.662 39.1412C61.7925 39.2549 61.8582 39.3863 61.851 39.5195C61.8439 39.6527 61.7642 39.7819 61.6217 39.8914C61.4792 40.0009 61.2801 40.0859 61.0486 40.136C60.8171 40.1862 60.5632 40.1993 60.318 40.1739C60.0727 40.1484 59.8466 40.0854 59.6673 39.9926C59.488 39.8998 59.3633 39.7811 59.3082 39.6511C59.2106 39.4205 59.516 39.292 59.7617 39.3407L60.1689 39.4215C60.4137 39.47 60.666 39.3854 60.8318 39.1989Z"/>
</mask>
<path d="M60.8318 39.1989C61.0065 39.0027 61.2855 38.9036 61.5126 39.0356C61.5684 39.068 61.6185 39.1033 61.662 39.1412C61.7925 39.2549 61.8582 39.3863 61.851 39.5195C61.8439 39.6527 61.7642 39.7819 61.6217 39.8914C61.4792 40.0009 61.2801 40.0859 61.0486 40.136C60.8171 40.1862 60.5632 40.1993 60.318 40.1739C60.0727 40.1484 59.8466 40.0854 59.6673 39.9926C59.488 39.8998 59.3633 39.7811 59.3082 39.6511C59.2106 39.4205 59.516 39.292 59.7617 39.3407L60.1689 39.4215C60.4137 39.47 60.666 39.3854 60.8318 39.1989Z" stroke="#757575" stroke-width="2" mask="url(#path-8-inside-5)"/>
<mask id="path-9-inside-6" fill="white">
<path d="M20.106 39.3549C20.3504 39.3111 20.6445 39.4507 20.5356 39.6738C20.4727 39.8028 20.3407 39.9192 20.1559 40.0088C19.971 40.0985 19.7412 40.1575 19.4945 40.1788C19.2479 40.2 18.9949 40.1824 18.7666 40.1283C18.5383 40.0741 18.3444 39.9857 18.2087 39.8738C18.073 39.762 18.0012 39.6314 18.0022 39.4982C18.0032 39.3649 18.0768 39.2347 18.2142 39.1233C18.2636 39.0833 18.3205 39.0463 18.3837 39.013C18.61 38.8934 18.8784 38.9969 19.0402 39.1951C19.1942 39.3838 19.4383 39.4743 19.6781 39.4314L20.106 39.3549Z"/>
</mask>
<path d="M20.106 39.3549C20.3504 39.3111 20.6445 39.4507 20.5356 39.6738C20.4727 39.8028 20.3407 39.9192 20.1559 40.0088C19.971 40.0985 19.7412 40.1575 19.4945 40.1788C19.2479 40.2 18.9949 40.1824 18.7666 40.1283C18.5383 40.0741 18.3444 39.9857 18.2087 39.8738C18.073 39.762 18.0012 39.6314 18.0022 39.4982C18.0032 39.3649 18.0768 39.2347 18.2142 39.1233C18.2636 39.0833 18.3205 39.0463 18.3837 39.013C18.61 38.8934 18.8784 38.9969 19.0402 39.1951C19.1942 39.3838 19.4383 39.4743 19.6781 39.4314L20.106 39.3549Z" stroke="#757575" stroke-width="2" mask="url(#path-9-inside-6)"/>
<mask id="path-10-inside-7" fill="white">
<path d="M53.6853 53.8352C53.6707 54.0867 53.7927 54.3432 54.0363 54.4077C54.0961 54.4236 54.1541 54.4335 54.2093 54.4374C54.3749 54.4488 54.5086 54.4042 54.5941 54.309C54.6796 54.2138 54.7132 54.0721 54.6908 53.9012C54.6684 53.7303 54.591 53.5376 54.468 53.3465C54.345 53.1555 54.1817 52.9744 53.9981 52.8253C53.8144 52.6762 53.6184 52.5656 53.4338 52.507C53.2492 52.4483 53.0841 52.4441 52.9586 52.495C52.736 52.5852 52.856 52.8795 53.0556 53.0131L53.3867 53.2346C53.5857 53.3677 53.6993 53.5962 53.6853 53.8352Z"/>
</mask>
<path d="M53.6853 53.8352C53.6707 54.0867 53.7927 54.3432 54.0363 54.4077C54.0961 54.4236 54.1541 54.4335 54.2093 54.4374C54.3749 54.4488 54.5086 54.4042 54.5941 54.309C54.6796 54.2138 54.7132 54.0721 54.6908 53.9012C54.6684 53.7303 54.591 53.5376 54.468 53.3465C54.345 53.1555 54.1817 52.9744 53.9981 52.8253C53.8144 52.6762 53.6184 52.5656 53.4338 52.507C53.2492 52.4483 53.0841 52.4441 52.9586 52.495C52.736 52.5852 52.856 52.8795 53.0556 53.0131L53.3867 53.2346C53.5857 53.3677 53.6993 53.5962 53.6853 53.8352Z" stroke="#757575" stroke-width="2" mask="url(#path-10-inside-7)"/>
<mask id="path-11-inside-8" fill="white">
<path d="M26.5092 26.4464C26.6453 26.6418 26.9395 26.7466 27.017 26.5214C27.0618 26.3913 27.0512 26.2228 26.9866 26.0366C26.9221 25.8504 26.8062 25.6545 26.6533 25.4728C26.5004 25.2911 26.3169 25.1314 26.1253 25.0133C25.9337 24.8951 25.7423 24.8236 25.5743 24.8074C25.4064 24.7913 25.2692 24.8311 25.1794 24.9222C25.0897 25.0132 25.0513 25.1515 25.069 25.3202C25.0754 25.3809 25.0889 25.4445 25.1091 25.5101C25.1815 25.7446 25.4337 25.8565 25.6779 25.8318C25.9104 25.8082 26.1373 25.9125 26.2709 26.1042L26.5092 26.4464Z"/>
</mask>
<path d="M26.5092 26.4464C26.6453 26.6418 26.9395 26.7466 27.017 26.5214C27.0618 26.3913 27.0512 26.2228 26.9866 26.0366C26.9221 25.8504 26.8062 25.6545 26.6533 25.4728C26.5004 25.2911 26.3169 25.1314 26.1253 25.0133C25.9337 24.8951 25.7423 24.8236 25.5743 24.8074C25.4064 24.7913 25.2692 24.8311 25.1794 24.9222C25.0897 25.0132 25.0513 25.1515 25.069 25.3202C25.0754 25.3809 25.0889 25.4445 25.1091 25.5101C25.1815 25.7446 25.4337 25.8565 25.6779 25.8318C25.9104 25.8082 26.1373 25.9125 26.2709 26.1042L26.5092 26.4464Z" stroke="#757575" stroke-width="2" mask="url(#path-11-inside-8)"/>
<mask id="path-12-inside-9" fill="white">
<path d="M26.0715 54.0715C26.0862 54.323 25.9641 54.5795 25.7205 54.644C25.6607 54.6599 25.6028 54.6699 25.5476 54.6737C25.382 54.6851 25.2482 54.6405 25.1627 54.5453C25.0772 54.4501 25.0436 54.3084 25.066 54.1375C25.0884 53.9666 25.1658 53.7739 25.2888 53.5829C25.4118 53.3918 25.5751 53.2107 25.7588 53.0616C25.9424 52.9126 26.1385 52.8019 26.323 52.7433C26.5076 52.6846 26.6727 52.6805 26.7982 52.7313C27.0209 52.8215 26.9009 53.1159 26.7012 53.2494L26.3702 53.4709C26.1712 53.604 26.0576 53.8325 26.0715 54.0715Z"/>
</mask>
<path d="M26.0715 54.0715C26.0862 54.323 25.9641 54.5795 25.7205 54.644C25.6607 54.6599 25.6028 54.6699 25.5476 54.6737C25.382 54.6851 25.2482 54.6405 25.1627 54.5453C25.0772 54.4501 25.0436 54.3084 25.066 54.1375C25.0884 53.9666 25.1658 53.7739 25.2888 53.5829C25.4118 53.3918 25.5751 53.2107 25.7588 53.0616C25.9424 52.9126 26.1385 52.8019 26.323 52.7433C26.5076 52.6846 26.6727 52.6805 26.7982 52.7313C27.0209 52.8215 26.9009 53.1159 26.7012 53.2494L26.3702 53.4709C26.1712 53.604 26.0576 53.8325 26.0715 54.0715Z" stroke="#757575" stroke-width="2" mask="url(#path-12-inside-9)"/>
<mask id="path-13-inside-10" fill="white">
<path d="M53.5885 26.3414C53.4523 26.5368 53.1582 26.6417 53.0807 26.4165C53.0359 26.2863 53.0464 26.1178 53.111 25.9316C53.1756 25.7454 53.2914 25.5495 53.4443 25.3678C53.5973 25.1861 53.7807 25.0264 53.9723 24.9083C54.1639 24.7902 54.3554 24.7186 54.5233 24.7025C54.6913 24.6863 54.8285 24.7262 54.9182 24.8172C55.008 24.9083 55.0463 25.0466 55.0287 25.2152C55.0223 25.2759 55.0088 25.3395 54.9886 25.4051C54.9161 25.6396 54.664 25.7515 54.4197 25.7268C54.1873 25.7033 53.9603 25.8075 53.8268 25.9993L53.5885 26.3414Z"/>
</mask>
<path d="M53.5885 26.3414C53.4523 26.5368 53.1582 26.6417 53.0807 26.4165C53.0359 26.2863 53.0464 26.1178 53.111 25.9316C53.1756 25.7454 53.2914 25.5495 53.4443 25.3678C53.5973 25.1861 53.7807 25.0264 53.9723 24.9083C54.1639 24.7902 54.3554 24.7186 54.5233 24.7025C54.6913 24.6863 54.8285 24.7262 54.9182 24.8172C55.008 24.9083 55.0463 25.0466 55.0287 25.2152C55.0223 25.2759 55.0088 25.3395 54.9886 25.4051C54.9161 25.6396 54.664 25.7515 54.4197 25.7268C54.1873 25.7033 53.9603 25.8075 53.8268 25.9993L53.5885 26.3414Z" stroke="#757575" stroke-width="2" mask="url(#path-13-inside-10)"/>
</svg>
