<svg width="80" height="80" viewBox="0 0 80 80" fill="none" xmlns="http://www.w3.org/2000/svg">
<path d="M53.833 32.4727H51.7402L52.5012 33.9947H53.833V32.4727Z" stroke="#1E1E22"/>
<mask id="mask0" mask-type="alpha" maskUnits="userSpaceOnUse" x="47" y="33" width="11" height="39">
<path d="M57.5595 71.7133C58.048 56.4251 56.5645 47.9278 47.749 33.043L48.51 68.6198C51.686 70.0574 54.1117 72.1894 57.5595 71.7133Z" fill="#C4C4C4"/>
</mask>
<g mask="url(#mask0)">
<path d="M33.39 67.6278C34.5234 62.3936 43.8272 35.4872 50.131 20.119" stroke="#1E1E22" stroke-width="0.25"/>
<path d="M51.099 80.5404C52.2324 75.3062 61.5361 48.3998 67.84 33.0316" stroke="#1E1E22" stroke-width="0.25"/>
<path d="M42.2436 74.0849C43.3769 68.8506 52.6807 41.9442 58.9845 26.576" stroke="#1E1E22" stroke-width="0.25"/>
<path d="M37.7016 70.769C38.8349 65.5347 48.1387 38.6283 54.4425 23.2601" stroke="#1E1E22" stroke-width="0.25"/>
<path d="M55.4096 83.6811C56.5429 78.4468 65.8467 51.5404 72.1505 36.1722" stroke="#1E1E22" stroke-width="0.25"/>
<path d="M46.5561 77.2255C47.6894 71.9913 56.9932 45.0849 63.297 29.7167" stroke="#1E1E22" stroke-width="0.25"/>
<path d="M35.5424 69.1982C36.6758 63.9639 45.9795 37.0575 52.2834 21.6893" stroke="#1E1E22" stroke-width="0.25"/>
<path d="M53.2533 82.1117C54.3867 76.8775 63.6904 49.9711 69.9943 34.6029" stroke="#1E1E22" stroke-width="0.25"/>
<path d="M44.3988 75.6557C45.5322 70.4214 54.836 43.515 61.1398 28.1468" stroke="#1E1E22" stroke-width="0.25"/>
<path d="M39.8539 72.3398C40.9873 67.1055 50.291 40.1991 56.5949 24.8309" stroke="#1E1E22" stroke-width="0.25"/>
<path d="M48.7084 78.7963C49.8418 73.5621 59.1455 46.6557 65.4494 31.2875" stroke="#1E1E22" stroke-width="0.25"/>
<path d="M34.3457 68.3264C35.6145 62.7078 45.6711 33.6649 52.4211 17.0306" stroke="#1E1E22" stroke-width="0.25"/>
<path d="M52.0595 81.2395C53.3283 75.6209 63.3849 46.578 70.1349 29.9437" stroke="#1E1E22" stroke-width="0.25"/>
<path d="M43.2011 74.7824C44.4699 69.1639 54.5265 40.121 61.2765 23.4867" stroke="#1E1E22" stroke-width="0.25"/>
<path d="M38.8955 71.6415C39.8815 65.8167 49.8675 36.7223 56.9709 20.3457" stroke="#1E1E22" stroke-width="0.25"/>
<path d="M47.7509 78.0984C49.0197 72.4798 59.0763 43.4369 65.8263 26.8026" stroke="#1E1E22" stroke-width="0.25"/>
<path d="M36.7392 70.071C38.008 64.4524 48.0646 35.4095 54.8146 18.7753" stroke="#1E1E22" stroke-width="0.25"/>
<path d="M54.4531 82.9836C55.7219 77.365 65.7785 48.3221 72.5285 31.6879" stroke="#1E1E22" stroke-width="0.25"/>
<path d="M45.5957 76.5271C46.8645 70.9085 56.9211 41.8656 63.6711 25.2313" stroke="#1E1E22" stroke-width="0.25"/>
<path d="M41.0478 73.2121C42.3166 67.5936 52.3732 38.5506 59.1232 21.9164" stroke="#1E1E22" stroke-width="0.25"/>
<path d="M49.9062 79.6687C51.175 74.0501 61.2316 45.0072 67.9816 28.3729" stroke="#1E1E22" stroke-width="0.25"/>
<path d="M33.8666 67.9779C35 62.7437 44.3037 35.8373 50.6076 20.4691" stroke="#1E1E22" stroke-width="0.25"/>
<path d="M51.5795 80.8901C52.7129 75.6558 62.0166 48.7494 68.3205 33.3812" stroke="#1E1E22" stroke-width="0.25"/>
<path d="M42.7221 74.434C43.8554 69.1998 53.1592 42.2934 59.463 26.9252" stroke="#1E1E22" stroke-width="0.25"/>
<path d="M38.1791 71.1181C39.3125 65.8839 48.6162 38.9774 54.9201 23.6092" stroke="#1E1E22" stroke-width="0.25"/>
<path d="M55.8881 84.0307C57.0215 78.7964 66.3252 51.89 72.6291 36.5218" stroke="#1E1E22" stroke-width="0.25"/>
<path d="M47.0326 77.5737C48.166 72.3394 57.4697 45.433 63.7736 30.0648" stroke="#1E1E22" stroke-width="0.25"/>
<path d="M36.2641 69.7213C37.1147 64.2808 46.3478 37.323 53.0051 22.2124" stroke="#1E1E22" stroke-width="0.25"/>
<path d="M53.9722 82.6349C54.8227 77.1944 64.0558 50.2365 70.7131 35.126" stroke="#1E1E22" stroke-width="0.25"/>
<path d="M45.1186 76.1793C45.9692 70.7388 55.2023 43.781 61.8596 28.6704" stroke="#1E1E22" stroke-width="0.25"/>
<path d="M40.5688 72.8634C41.4194 67.4229 50.6525 40.4651 57.3098 25.3545" stroke="#1E1E22" stroke-width="0.25"/>
<path d="M49.4272 79.3194C50.2778 73.879 59.5109 46.9211 66.1682 31.8106" stroke="#1E1E22" stroke-width="0.25"/>
<path d="M35.0655 68.85C36.0514 63.0252 46.0374 33.9308 53.1409 17.5542" stroke="#1E1E22" stroke-width="0.25"/>
<path d="M52.7764 81.7631C53.7624 75.9383 63.7484 46.8439 70.8518 30.4673" stroke="#1E1E22" stroke-width="0.25"/>
<path d="M43.9209 75.3066C44.9069 69.4818 54.8929 40.3874 61.9963 24.0108" stroke="#1E1E22" stroke-width="0.25"/>
<path d="M39.373 71.9909C40.6418 66.3724 50.6984 37.3295 57.4484 20.6952" stroke="#1E1E22" stroke-width="0.25"/>
<path d="M48.2294 78.447C49.4983 72.8284 59.5549 43.7855 66.3048 27.1512" stroke="#1E1E22" stroke-width="0.25"/>
<path d="M37.2216 70.4206C38.4904 64.8021 48.547 35.7591 55.297 19.1249" stroke="#1E1E22" stroke-width="0.25"/>
<path d="M55.169 83.5067C56.1549 77.682 66.141 48.5876 73.2444 32.211" stroke="#1E1E22" stroke-width="0.25"/>
<path d="M46.3155 77.0512C47.3014 71.2264 57.2874 42.132 64.3909 25.7554" stroke="#1E1E22" stroke-width="0.25"/>
<path d="M41.7666 73.7358C42.7526 67.911 52.7386 38.8166 59.842 22.44" stroke="#1E1E22" stroke-width="0.25"/>
<path d="M50.6211 80.1923C51.6071 74.3675 61.5931 45.2731 68.6965 28.8965" stroke="#1E1E22" stroke-width="0.25"/>
</g>
<path d="M57.8305 71.8545C58.319 56.5663 56.7529 47.9283 47.9375 33.0435L48.5083 68.8105C53.0743 71.2838 54.2158 71.8545 57.8305 71.8545Z" stroke="#1E1E22"/>
<path d="M21.1104 10.0233C26.2861 27.1912 24.1947 30.5755 18.0664 33.6144C21.0935 44.4318 21.1086 52.9738 21.1104 68.2399C36.9082 73.7656 42.7678 70.6348 39.9452 37.6096C31.9118 28.5922 30.5138 21.9508 30.4327 8.88184C26.5956 9.88605 24.5757 10.0758 21.1104 10.0233Z" stroke="#1E1E22"/>
<path d="M57.0682 10.2135C52.9297 10.1063 50.8794 9.87794 47.5557 9.26221L48.5069 68.8106C58.5902 75.0888 65.4319 74.0599 58.0194 47.5025L60.3024 33.6142C53.7006 29.9093 53.3683 24.4105 57.0682 10.2135Z" stroke="#1E1E22"/>
<path d="M47.7451 23.7212C52.7987 34.6157 54.9379 40.4276 58.5894 49.2147" stroke="#1E1E22"/>
<circle cx="37.0917" cy="43.6977" r="0.641502" stroke="#1E1E22"/>
<circle cx="37.0917" cy="51.6884" r="0.641502" stroke="#1E1E22"/>
<circle cx="36.7108" cy="59.6786" r="0.641502" stroke="#1E1E22"/>
<path d="M28.5303 54.1616C29.1077 60.1655 29.2194 63.4152 29.101 69.0011" stroke="#1E1E22"/>
<path d="M30.4326 8.88184C36.5826 10.6499 40.3949 10.6357 47.5551 9.26234" stroke="#1E1E22"/>
<path d="M35.9502 69.0008C40.9573 68.0219 43.7953 67.761 48.8872 68.8108" stroke="#1E1E22"/>
</svg>
