<svg width="80" height="80" viewBox="0 0 80 80" fill="none" xmlns="http://www.w3.org/2000/svg">
<path d="M21.1511 53.0006C21.1031 52.0646 21.0431 51.1526 20.9711 50.2646C20.9231 49.3526 20.8631 48.4526 20.7911 47.5646H11.4311C10.9511 48.4526 10.4471 49.3526 9.91906 50.2646C9.39106 51.1526 8.88706 52.0646 8.40706 53.0006H2.53906C4.09906 50.3126 5.55106 47.8286 6.89506 45.5486C8.26306 43.2686 9.57106 41.1206 10.8191 39.1046C12.0911 37.0886 13.3271 35.1806 14.5271 33.3806C15.7271 31.5566 16.9511 29.7806 18.1991 28.0526H23.2031C23.5871 29.7806 23.9471 31.7006 24.2831 33.8126C24.6431 35.9006 24.9671 38.0486 25.2551 40.2566C25.5671 42.4406 25.8431 44.6366 26.0831 46.8446C26.3471 49.0286 26.5871 51.0806 26.8031 53.0006H21.1511ZM19.4951 33.5246C18.4871 35.1326 17.4911 36.7286 16.5071 38.3126C15.5471 39.8966 14.6111 41.5166 13.6991 43.1726H20.4311C20.3111 41.7086 20.1791 40.1486 20.0351 38.4926C19.9151 36.8366 19.7351 35.1806 19.4951 33.5246Z" fill="#757575"/>
<path d="M38.703 53.3246C37.263 53.3246 35.787 53.2646 34.275 53.1446C32.763 53.0246 31.395 52.8326 30.171 52.5686L35.931 28.4486C37.299 28.1846 38.727 28.0046 40.215 27.9086C41.727 27.8126 43.107 27.7646 44.355 27.7646C45.795 27.7646 47.031 27.9206 48.063 28.2326C49.119 28.5206 49.971 28.9166 50.619 29.4206C51.291 29.9246 51.783 30.5246 52.095 31.2206C52.431 31.8926 52.599 32.6126 52.599 33.3806C52.599 33.9086 52.539 34.4606 52.419 35.0366C52.323 35.6126 52.107 36.1886 51.771 36.7646C51.459 37.3166 51.015 37.8446 50.439 38.3486C49.887 38.8526 49.155 39.3086 48.243 39.7166C49.323 40.1966 50.115 40.8566 50.619 41.6966C51.123 42.5126 51.375 43.4246 51.375 44.4326C51.375 45.5846 51.147 46.7006 50.691 47.7806C50.235 48.8366 49.503 49.7846 48.495 50.6246C47.487 51.4406 46.179 52.1006 44.571 52.6046C42.963 53.0846 41.007 53.3246 38.703 53.3246ZM38.199 42.0926L36.651 48.5726C37.035 48.6446 37.515 48.7046 38.091 48.7526C38.691 48.7766 39.243 48.7886 39.747 48.7886C40.467 48.7886 41.175 48.7406 41.871 48.6446C42.591 48.5246 43.227 48.3206 43.779 48.0326C44.355 47.7446 44.823 47.3486 45.183 46.8446C45.543 46.3406 45.723 45.6926 45.723 44.9006C45.723 44.5646 45.651 44.2286 45.507 43.8926C45.387 43.5566 45.183 43.2566 44.895 42.9926C44.607 42.7286 44.223 42.5126 43.743 42.3446C43.287 42.1766 42.735 42.0926 42.087 42.0926H38.199ZM39.243 37.8806H42.771C44.211 37.8806 45.279 37.5686 45.975 36.9446C46.695 36.3206 47.055 35.5766 47.055 34.7126C47.055 34.2566 46.947 33.8726 46.731 33.5606C46.539 33.2246 46.275 32.9606 45.939 32.7686C45.603 32.5766 45.219 32.4446 44.787 32.3726C44.355 32.2766 43.911 32.2286 43.455 32.2286C42.951 32.2286 42.411 32.2526 41.835 32.3006C41.259 32.3246 40.827 32.3606 40.539 32.4086L39.243 37.8806Z" fill="#757575"/>
<path d="M73.3243 51.9206C72.3403 52.4006 71.2483 52.7846 70.0483 53.0726C68.8484 53.3606 67.3843 53.5046 65.6563 53.5046C64.1683 53.5046 62.8003 53.2646 61.5523 52.7846C60.3283 52.2806 59.2723 51.5726 58.3843 50.6606C57.5203 49.7486 56.8483 48.6446 56.3683 47.3486C55.8883 46.0286 55.6483 44.5526 55.6483 42.9206C55.6483 41.0486 55.9723 39.1886 56.6203 37.3406C57.2923 35.4926 58.2643 33.8486 59.5363 32.4086C60.8323 30.9446 62.4043 29.7566 64.2523 28.8446C66.1243 27.9326 68.2723 27.4766 70.6963 27.4766C71.8483 27.4766 72.9763 27.6086 74.0803 27.8726C75.2083 28.1366 76.3843 28.6046 77.6083 29.2766L75.5923 33.6326C74.5843 33.1046 73.6843 32.7446 72.8923 32.5526C72.1003 32.3606 71.2484 32.2646 70.3363 32.2646C68.9684 32.2646 67.7323 32.5406 66.6283 33.0926C65.5483 33.6446 64.6123 34.4006 63.8203 35.3606C63.0523 36.2966 62.4643 37.3886 62.0563 38.6366C61.6483 39.8846 61.4443 41.2046 61.4443 42.5966C61.4443 44.7086 61.9003 46.2446 62.8123 47.2046C63.7483 48.1646 65.0803 48.6446 66.8083 48.6446C67.9604 48.6446 69.0163 48.5246 69.9763 48.2846C70.9604 48.0446 71.8724 47.7326 72.7123 47.3486L73.3243 51.9206Z" fill="#757575"/>
</svg>
