<svg width="80" height="80" viewBox="0 0 80 80" fill="none" xmlns="http://www.w3.org/2000/svg">
<rect x="11.1953" y="42.5" width="4" height="57" transform="rotate(-90 11.1953 42.5)" fill="#757575"/>
<circle cx="39.3473" cy="40.1707" r="19.3473" transform="rotate(-90 39.3473 40.1707)" fill="white"/>
<circle cx="39.3473" cy="40.1707" r="19.3473" transform="rotate(-90 39.3473 40.1707)" fill="white"/>
<ellipse cx="32.8949" cy="40.4587" rx="2.24252" ry="2.80315" transform="rotate(-90 32.8949 40.4587)" fill="white"/>
<ellipse cx="39.0619" cy="46.6217" rx="2.80315" ry="2.24252" transform="rotate(-90 39.0619 46.6217)" fill="white"/>
<circle cx="45.7884" cy="40.4587" r="2.24252" transform="rotate(-90 45.7884 40.4587)" fill="white"/>
<circle cx="39.0619" cy="33.7292" r="2.24252" transform="rotate(-90 39.0619 33.7292)" fill="white"/>
<path d="M58.6949 40.1707C58.6949 50.839 50.0156 59.5181 39.3473 59.5181C28.6791 59.5181 20 50.839 20 40.1707C20 29.5025 28.6791 20.8234 39.3473 20.8234C50.0156 20.8234 58.6949 29.5027 58.6949 40.1707ZM20.9698 40.1707C20.9698 50.3042 29.2141 58.5484 39.3473 58.5484C49.4808 58.5484 57.725 50.3044 57.725 40.1709C57.725 30.0375 49.4808 21.7934 39.3473 21.7934C29.2141 21.7932 20.9698 30.0375 20.9698 40.1707ZM53.8096 40.1707C53.8096 48.1451 47.3219 54.6328 39.3473 54.6328C31.3731 54.6328 24.8853 48.1451 24.8853 40.1707C24.8853 32.1963 31.3729 25.7087 39.3473 25.7087C47.3217 25.7087 53.8096 32.1965 53.8096 40.1707ZM25.8553 40.1707C25.8553 47.6104 31.9079 53.663 39.3475 53.663C46.7872 53.663 52.8399 47.6104 52.8399 40.1707C52.8399 32.7311 46.7874 26.6785 39.3475 26.6785C31.9079 26.6785 25.8553 32.7311 25.8553 40.1707ZM48.8184 40.1707C48.8184 41.7925 47.499 43.1119 45.8773 43.1119C44.2555 43.1119 42.9359 41.7925 42.9359 40.1707C42.9359 38.549 44.2555 37.2296 45.8773 37.2296C47.499 37.2296 48.8184 38.5492 48.8184 40.1707ZM43.9058 40.1707C43.9058 41.2577 44.7903 42.142 45.8773 42.142C46.9643 42.142 47.8486 41.2577 47.8486 40.1707C47.8486 39.0837 46.9641 38.1994 45.8773 38.1994C44.7903 38.1994 43.9058 39.0837 43.9058 40.1707ZM42.2885 33.641C42.2885 35.2628 40.9691 36.5821 39.3473 36.5821C37.7256 36.5821 36.4062 35.2628 36.4062 33.641C36.4062 32.0192 37.7256 30.6997 39.3473 30.6997C40.9691 30.6997 42.2885 32.0192 42.2885 33.641ZM37.376 33.641C37.376 34.728 38.2605 35.6123 39.3473 35.6123C40.4341 35.6123 41.3186 34.728 41.3186 33.641C41.3186 32.554 40.4341 31.6695 39.3473 31.6695C38.2605 31.6695 37.376 32.554 37.376 33.641ZM42.2885 46.7005C42.2885 48.3222 40.9691 49.6416 39.3473 49.6416C37.7256 49.6416 36.4062 48.3222 36.4062 46.7005C36.4062 45.0787 37.7256 43.7593 39.3473 43.7593C40.9691 43.7593 42.2885 45.0789 42.2885 46.7005ZM37.376 46.7005C37.376 47.7875 38.2605 48.6718 39.3473 48.6718C40.4341 48.6718 41.3186 47.7875 41.3186 46.7005C41.3186 45.6135 40.4341 44.7292 39.3473 44.7292C38.2605 44.7292 37.376 45.6135 37.376 46.7005ZM35.7587 40.1707C35.7587 41.7925 34.4394 43.1119 32.8176 43.1119C31.1958 43.1119 29.8765 41.7925 29.8765 40.1707C29.8765 38.549 31.1958 37.2296 32.8176 37.2296C34.4394 37.2296 35.7587 38.5492 35.7587 40.1707ZM30.8463 40.1707C30.8463 41.2577 31.7308 42.142 32.8176 42.142C33.9044 42.142 34.7889 41.2577 34.7889 40.1707C34.7889 39.0837 33.9044 38.1994 32.8176 38.1994C31.7308 38.1994 30.8463 39.0837 30.8463 40.1707Z" fill="#757575"/>
</svg>
