<svg width="80" height="80" viewBox="0 0 80 80" fill="none" xmlns="http://www.w3.org/2000/svg">
<rect x="11.6699" y="42.5" width="4" height="57" transform="rotate(-90 11.6699 42.5)" fill="#757575"/>
<circle cx="39.8229" cy="40.1703" r="19.3473" transform="rotate(-90 39.8229 40.1703)" fill="white"/>
<circle cx="39.8229" cy="40.1703" r="19.3473" transform="rotate(-90 39.8229 40.1703)" fill="white"/>
<mask id="mask0" mask-type="alpha" maskUnits="userSpaceOnUse" x="13" y="13" width="54" height="54">
<circle cx="39.8228" cy="40.1688" r="19.3473" transform="rotate(-56.3858 39.8228 40.1688)" fill="white"/>
</mask>
<g mask="url(#mask0)">
<path d="M66.3731 99.4259C56.7622 95.1675 8.55199 63.6511 -18.6445 42.9099" stroke="#757575" stroke-width="0.5"/>
<path d="M96.8477 53.5841C87.2368 49.3257 39.0266 17.8093 11.8301 -2.93188" stroke="#757575" stroke-width="0.5"/>
<path d="M81.6104 76.504C71.9995 72.2456 23.7893 40.7292 -3.40718 19.988" stroke="#757575" stroke-width="0.5"/>
<path d="M73.8536 88.1739C64.2427 83.9156 16.0325 52.3991 -11.164 31.658" stroke="#757575" stroke-width="0.5"/>
<path d="M104.328 42.3321C94.7173 38.0738 46.5071 6.55733 19.3106 -14.1838" stroke="#757575" stroke-width="0.5"/>
<path d="M89.0909 65.2521C79.48 60.9937 31.2698 29.4772 4.07329 8.73609" stroke="#757575" stroke-width="0.5"/>
<path d="M70.252 93.5919C60.6411 89.3335 12.4309 57.8171 -14.7656 37.0759" stroke="#757575" stroke-width="0.5"/>
<path d="M100.726 47.7501C91.1148 43.4917 42.9045 11.9753 15.7081 -8.76587" stroke="#757575" stroke-width="0.5"/>
<path d="M85.4893 70.67C75.8784 66.4116 27.6682 34.8952 0.47173 14.1541" stroke="#757575" stroke-width="0.5"/>
<path d="M77.7325 82.3399C68.1216 78.0816 19.9114 46.5651 -7.28511 25.824" stroke="#757575" stroke-width="0.5"/>
<path d="M92.9688 59.4181C83.3579 55.1597 35.1477 23.6433 7.95122 2.9021" stroke="#757575" stroke-width="0.5"/>
<path d="M68.3124 96.5086C57.9825 91.7722 5.77513 57.5987 -23.79 35.283" stroke="#757575" stroke-width="0.5"/>
<path d="M98.787 50.6668C88.4571 45.9304 36.2497 11.7569 6.68462 -10.5588" stroke="#757575" stroke-width="0.5"/>
<path d="M83.5497 73.5867C73.2198 68.8503 21.0124 34.6768 -8.55268 12.3611" stroke="#757575" stroke-width="0.5"/>
<path d="M75.7919 85.2566C65.462 80.5203 13.2546 46.3467 -16.3105 24.031" stroke="#757575" stroke-width="0.5"/>
<path d="M91.0292 62.3348C80.6993 57.5984 28.4919 23.4249 -1.07319 1.10913" stroke="#757575" stroke-width="0.5"/>
<path d="M72.1913 90.6746C61.8614 85.9382 9.65404 51.7647 -19.9111 29.449" stroke="#757575" stroke-width="0.5"/>
<path d="M102.666 44.8309C92.336 40.0945 40.1286 5.92096 10.5635 -16.3948" stroke="#757575" stroke-width="0.5"/>
<path d="M87.4276 67.7527C77.0977 63.0164 24.8904 28.8428 -4.67475 6.5271" stroke="#757575" stroke-width="0.5"/>
<path d="M79.6708 79.4227C69.3409 74.6863 17.1335 40.5128 -12.4316 18.197" stroke="#757575" stroke-width="0.5"/>
<path d="M94.9081 56.5008C84.5782 51.7644 32.3708 17.5909 2.80571 -4.72485" stroke="#757575" stroke-width="0.5"/>
<path d="M67.2051 98.1759C57.5943 93.9175 9.38402 62.4011 -17.8124 41.6599" stroke="#757575" stroke-width="0.5"/>
<path d="M97.6788 52.3321C88.0679 48.0738 39.8577 16.5573 12.6612 -4.18383" stroke="#757575" stroke-width="0.5"/>
<path d="M82.4415 75.254C72.8306 70.9956 24.6204 39.4792 -2.57612 18.738" stroke="#757575" stroke-width="0.5"/>
<path d="M74.6846 86.9239C65.0738 82.6656 16.8635 51.1491 -10.333 30.408" stroke="#757575" stroke-width="0.5"/>
<path d="M105.159 41.0802C95.5484 36.8218 47.3381 5.30537 20.1417 -15.4358" stroke="#757575" stroke-width="0.5"/>
<path d="M89.9219 64.0021C80.3111 59.7437 32.1008 28.2272 4.90435 7.48609" stroke="#757575" stroke-width="0.5"/>
<path d="M71.3601 91.9251C61.4218 88.1593 13.1299 56.7658 -13.6575 35.4092" stroke="#757575" stroke-width="0.5"/>
<path d="M101.835 46.0814C91.8964 42.3155 43.6045 10.922 16.8171 -10.4346" stroke="#757575" stroke-width="0.5"/>
<path d="M86.5974 69.0033C76.6591 65.2374 28.3672 33.8439 1.57982 12.4873" stroke="#757575" stroke-width="0.5"/>
<path d="M78.8406 80.6732C68.9023 76.9073 20.6104 45.5138 -6.17702 24.1572" stroke="#757575" stroke-width="0.5"/>
<path d="M94.0769 57.7513C84.1386 53.9855 35.8467 22.5919 9.05931 1.23536" stroke="#757575" stroke-width="0.5"/>
<path d="M69.4205 94.8418C58.7632 90.598 6.47412 56.5474 -22.6819 33.6162" stroke="#757575" stroke-width="0.5"/>
<path d="M99.8951 48.9981C89.2378 44.7542 36.9487 10.7036 7.79271 -12.2275" stroke="#757575" stroke-width="0.5"/>
<path d="M84.6578 71.92C74.0005 67.6761 21.7114 33.6255 -7.44459 10.6943" stroke="#757575" stroke-width="0.5"/>
<path d="M76.901 83.5899C66.2436 79.346 13.9546 45.2954 -15.2014 22.3643" stroke="#757575" stroke-width="0.5"/>
<path d="M92.1373 60.668C81.48 56.4242 29.1909 22.3735 0.0348983 -0.557612" stroke="#757575" stroke-width="0.5"/>
<path d="M73.2994 89.0079C62.6421 84.764 10.353 50.7134 -18.803 27.7822" stroke="#757575" stroke-width="0.5"/>
<path d="M103.773 43.1641C93.1157 38.9203 40.8267 4.86964 11.6706 -18.0615" stroke="#757575" stroke-width="0.5"/>
<path d="M88.5357 66.086C77.8784 61.8421 25.5894 27.7915 -3.56666 4.86036" stroke="#757575" stroke-width="0.5"/>
<path d="M80.7789 77.7559C70.1216 73.5121 17.8325 39.4614 -11.3235 16.5303" stroke="#757575" stroke-width="0.5"/>
<path d="M96.0162 54.834C85.3589 50.5902 33.0698 16.5396 3.9138 -6.3916" stroke="#757575" stroke-width="0.5"/>
</g>
<ellipse cx="33.3705" cy="40.4567" rx="2.24252" ry="2.80315" transform="rotate(-90 33.3705 40.4567)" fill="white"/>
<ellipse cx="39.5374" cy="46.6207" rx="2.80315" ry="2.24252" transform="rotate(-90 39.5374 46.6207)" fill="white"/>
<circle cx="46.264" cy="40.4567" r="2.24252" transform="rotate(-90 46.264 40.4567)" fill="white"/>
<circle cx="39.5374" cy="33.7282" r="2.24252" transform="rotate(-90 39.5374 33.7282)" fill="white"/>
<path d="M59.1704 40.1702C59.1704 50.8385 50.4912 59.5176 39.8229 59.5176C29.1547 59.5176 20.4756 50.8385 20.4756 40.1702C20.4756 29.502 29.1547 20.8229 39.8229 20.8229C50.4912 20.8229 59.1704 29.5022 59.1704 40.1702ZM21.4454 40.1702C21.4454 50.3037 29.6896 58.5479 39.8229 58.5479C49.9564 58.5479 58.2006 50.3039 58.2006 40.1704C58.2006 30.037 49.9564 21.7929 39.8229 21.7929C29.6896 21.7928 21.4454 30.037 21.4454 40.1702ZM54.2852 40.1702C54.2852 48.1447 47.7975 54.6323 39.8229 54.6323C31.8487 54.6323 25.3609 48.1447 25.3609 40.1702C25.3609 32.1958 31.8485 25.7082 39.8229 25.7082C47.7973 25.7082 54.2852 32.196 54.2852 40.1702ZM26.3309 40.1702C26.3309 47.6099 32.3835 53.6625 39.8231 53.6625C47.2628 53.6625 53.3155 47.6099 53.3155 40.1702C53.3155 32.7306 47.2629 26.678 39.8231 26.678C32.3835 26.678 26.3309 32.7306 26.3309 40.1702ZM49.294 40.1702C49.294 41.792 47.9746 43.1114 46.3528 43.1114C44.7311 43.1114 43.4115 41.792 43.4115 40.1702C43.4115 38.5485 44.7311 37.2291 46.3528 37.2291C47.9746 37.2291 49.294 38.5487 49.294 40.1702ZM44.3814 40.1702C44.3814 41.2572 45.2659 42.1415 46.3528 42.1415C47.4398 42.1415 48.3241 41.2572 48.3241 40.1702C48.3241 39.0833 47.4397 38.199 46.3528 38.199C45.2659 38.199 44.3814 39.0833 44.3814 40.1702ZM42.7641 33.6405C42.7641 35.2623 41.4447 36.5816 39.8229 36.5816C38.2012 36.5816 36.8818 35.2623 36.8818 33.6405C36.8818 32.0187 38.2012 30.6992 39.8229 30.6992C41.4447 30.6992 42.7641 32.0187 42.7641 33.6405ZM37.8516 33.6405C37.8516 34.7275 38.7361 35.6118 39.8229 35.6118C40.9097 35.6118 41.7942 34.7275 41.7942 33.6405C41.7942 32.5535 40.9097 31.669 39.8229 31.669C38.7361 31.669 37.8516 32.5535 37.8516 33.6405ZM42.7641 46.7C42.7641 48.3217 41.4447 49.6411 39.8229 49.6411C38.2012 49.6411 36.8818 48.3217 36.8818 46.7C36.8818 45.0782 38.2012 43.7588 39.8229 43.7588C41.4447 43.7588 42.7641 45.0784 42.7641 46.7ZM37.8516 46.7C37.8516 47.787 38.7361 48.6713 39.8229 48.6713C40.9097 48.6713 41.7942 47.787 41.7942 46.7C41.7942 45.613 40.9097 44.7287 39.8229 44.7287C38.7361 44.7287 37.8516 45.613 37.8516 46.7ZM36.2343 40.1702C36.2343 41.792 34.9149 43.1114 33.2932 43.1114C31.6714 43.1114 30.352 41.792 30.352 40.1702C30.352 38.5485 31.6714 37.2291 33.2932 37.2291C34.9149 37.2291 36.2343 38.5487 36.2343 40.1702ZM31.3219 40.1702C31.3219 41.2572 32.2064 42.1415 33.2932 42.1415C34.38 42.1415 35.2645 41.2572 35.2645 40.1702C35.2645 39.0833 34.38 38.199 33.2932 38.199C32.2064 38.199 31.3219 39.0833 31.3219 40.1702Z" fill="#757575"/>
</svg>
