<svg width="80" height="80" viewBox="0 0 80 80" fill="none" xmlns="http://www.w3.org/2000/svg">
<path d="M62.5 64.4995L58 62.4995L57.5 62.9995L22.4068 42.4033L10 19.1406" stroke="#757575" stroke-width="1.5"/>
<mask id="mask0" mask-type="alpha" maskUnits="userSpaceOnUse" x="16" y="30" width="16" height="18">
<path d="M31.712 47.9172C28.6534 35.1494 24.8022 32.1988 16.0312 30.6855L22.407 42.4031L31.712 47.9172Z" fill="#C4C4C4"/>
</mask>
<g mask="url(#mask0)">
<path d="M31.712 47.9172C28.6534 35.1494 24.8022 32.1988 16.0312 30.6855L22.407 42.4031L31.712 47.9172Z" stroke="#757575" stroke-width="1.5"/>
<path d="M31.0399 58.4584C30.4284 54.8876 30.2758 35.0381 31.0399 23.2754" stroke="#757575" stroke-width="0.25"/>
<path d="M21.5545 58.4584C20.943 54.8876 20.7905 35.0381 21.5545 23.2754" stroke="#757575" stroke-width="0.25"/>
<path d="M16.7254 58.4584C16.1139 54.8876 15.9614 35.0381 16.7254 23.2754" stroke="#757575" stroke-width="0.25"/>
<path d="M26.2108 58.4584C25.5993 54.8876 25.4467 35.0381 26.2107 23.2754" stroke="#757575" stroke-width="0.25"/>
<path d="M23.9686 58.4584C23.3571 54.8876 23.2045 35.0381 23.9686 23.2754" stroke="#757575" stroke-width="0.25"/>
<path d="M19.1395 58.4584C18.528 54.8876 18.3754 35.0381 19.1395 23.2754" stroke="#757575" stroke-width="0.25"/>
<path d="M28.6258 58.4584C28.0143 54.8876 27.8617 35.0381 28.6258 23.2754" stroke="#757575" stroke-width="0.25"/>
<path d="M32.2469 58.4587C31.6354 54.5903 31.4828 33.0867 32.2469 20.3438" stroke="#757575" stroke-width="0.25"/>
<path d="M22.7615 58.4587C22.1501 54.5903 21.9975 33.0867 22.7615 20.3438" stroke="#757575" stroke-width="0.25"/>
<path d="M17.9324 58.4587C17.321 54.5903 17.1684 33.0867 17.9324 20.3438" stroke="#757575" stroke-width="0.25"/>
<path d="M27.4178 58.4587C26.8063 54.5903 26.6537 33.0867 27.4178 20.3438" stroke="#757575" stroke-width="0.25"/>
<path d="M25.1756 58.4587C24.5641 54.5903 24.4116 33.0867 25.1756 20.3438" stroke="#757575" stroke-width="0.25"/>
<path d="M20.3475 58.4587C19.736 54.5903 19.5834 33.0867 20.3475 20.3438" stroke="#757575" stroke-width="0.25"/>
<path d="M29.8328 58.4587C29.2214 54.5903 29.0688 33.0867 29.8328 20.3438" stroke="#757575" stroke-width="0.25"/>
<path d="M31.5574 58.4584C30.946 54.8876 30.7934 35.0381 31.5574 23.2754" stroke="#757575" stroke-width="0.25"/>
<path d="M22.0721 58.4584C21.4606 54.8876 21.308 35.0381 22.0721 23.2754" stroke="#757575" stroke-width="0.25"/>
<path d="M17.243 58.4584C16.6315 54.8876 16.4789 35.0381 17.243 23.2754" stroke="#757575" stroke-width="0.25"/>
<path d="M26.7283 58.4584C26.1169 54.8876 25.9643 35.0381 26.7283 23.2754" stroke="#757575" stroke-width="0.25"/>
<path d="M24.6586 58.4584C23.8433 54.8876 23.6399 35.0381 24.6586 23.2754" stroke="#757575" stroke-width="0.25"/>
<path d="M19.8295 58.4584C19.0142 54.8876 18.8108 35.0381 19.8295 23.2754" stroke="#757575" stroke-width="0.25"/>
<path d="M29.3149 58.4584C28.4996 54.8876 28.2961 35.0381 29.3149 23.2754" stroke="#757575" stroke-width="0.25"/>
<path d="M23.4516 58.4587C22.6363 54.5903 22.4328 33.0867 23.4516 20.3438" stroke="#757575" stroke-width="0.25"/>
<path d="M18.6225 58.4587C17.8072 54.5903 17.6037 33.0867 18.6225 20.3438" stroke="#757575" stroke-width="0.25"/>
<path d="M28.1078 58.4587C27.2925 54.5903 27.0891 33.0867 28.1078 20.3438" stroke="#757575" stroke-width="0.25"/>
<path d="M16.3803 58.4587C15.565 54.5903 15.3616 33.0867 16.3803 20.3438" stroke="#757575" stroke-width="0.25"/>
<path d="M25.8656 58.4587C25.0504 54.5903 24.8469 33.0867 25.8656 20.3438" stroke="#757575" stroke-width="0.25"/>
<path d="M21.0365 58.4587C20.2213 54.5903 20.0178 33.0867 21.0365 20.3438" stroke="#757575" stroke-width="0.25"/>
<path d="M30.5229 58.4587C29.7076 54.5903 29.5041 33.0867 30.5229 20.3438" stroke="#757575" stroke-width="0.25"/>
</g>
<path d="M70.9996 54.6384L35.6748 32.7543L26.542 14.3164" stroke="#757575" stroke-width="1.5"/>
<path d="M63 64.5C63.5 62.5 66.5 56 70.5 55C69.5 60.5 67 63 63 64.5Z" stroke="#757575" stroke-width="1.5"/>
<path d="M57.2051 63.0621C58.5947 56.2469 60.0086 53.2075 65.1316 51" stroke="#757575" stroke-width="1.5"/>
<path d="M57.7232 60.3043L56 59.2704L56.3446 58.9258L57.8955 59.9597" stroke="#757575" stroke-width="0.5"/>
<path d="M47.5654 52.3982L58.001 58.7062V57.5L47.9101 51.709L47.5654 52.3982Z" fill="#757575"/>
<path d="M57.1563 52.7432L59.7411 54.294L60.0857 53.9494L57.501 52.3985L57.1563 52.7432Z" fill="#757575"/>
<path d="M47.5654 52.3982L58.001 58.7062V57.5L47.9101 51.709L47.5654 52.3982Z" stroke="#757575" stroke-width="0.5"/>
<path d="M57.1563 52.7432L59.7411 54.294L60.0857 53.9494L57.501 52.3985L57.1563 52.7432Z" stroke="#757575" stroke-width="0.5"/>
<circle cx="59.25" cy="59.25" r="1.25" fill="#757575"/>
</svg>
