<svg width="80" height="80" viewBox="0 0 80 80" fill="none" xmlns="http://www.w3.org/2000/svg">
<path d="M29.7146 11.7793L18.8607 15.9141C16.0964 30.4517 15.547 42.381 15.9318 68.9777C17.9044 70.4147 19.3007 70.5751 22.3064 69.4945V31.2474C24.3083 36.9739 24.8025 43.7183 22.9955 70.8728C30.7146 73.3934 36.9513 73.4571 37.2951 70.356L37.6397 41.0676M37.6397 41.0676C32.4277 32.5462 29.9464 27.6701 27.6472 18.4984L31.782 13.1576L37.6397 41.0676Z" stroke="#1E1E22"/>
<path d="M22.3059 29.1799C20.8753 24.4643 20.4003 21.7195 19.7217 16.7754" stroke="#1E1E22"/>
<path d="M26.2705 71.906C28.8011 56.3055 29.614 47.8754 28.5102 34.1758" stroke="#1E1E22"/>
<path d="M29.7155 15.7419L26.959 15.5696C32.2998 5.23244 42.12 5.74938 47.4608 14.7082L45.0488 15.3974" stroke="#1E1E22"/>
<path d="M31.7835 13.3289C31.3455 11.8745 31.2918 11.0773 31.7835 9.71094" stroke="#1E1E22"/>
<path d="M42.9812 13.5027C43.4191 12.0484 43.4729 11.2511 42.9812 9.88477" stroke="#1E1E22"/>
<path d="M47.1151 17.6368L42.9803 13.502C42.2506 21.1276 43.7708 25.1809 49.0102 32.1087C46.7664 26.4231 45.8143 23.242 47.1151 17.6368Z" stroke="#1E1E22"/>
<path d="M49.0103 32.1079L49.019 32.1306M49.019 32.1306C57.4971 46.09 66.9279 60.7071 63.1376 68.9767C58.4496 71.5668 54.906 70.9794 48.1489 68.9767C46.4049 52.1242 46.368 43.511 45.9092 27.8008L49.019 32.1306Z" stroke="#1E1E22"/>
<path d="M45.3936 11.9512L55.9029 15.5691C59.5548 29.7503 60.3657 37.7126 60.3823 51.9211M53.1463 38.1384L52.9741 30.2133L51.5958 36.2433" stroke="#1E1E22"/>
<path d="M53.1465 28.8353C53.3486 24.0251 53.7757 21.38 55.2139 16.7754" stroke="#1E1E22"/>
<rect x="34.8672" y="42.084" width="1.06741" height="1.06741" rx="0.533706" stroke="#1E1E22"/>
<rect x="34.8672" y="50.6992" width="1.06741" height="1.06741" rx="0.533706" stroke="#1E1E22"/>
<path d="M59.4094 70.3557C60.07 56.6651 58.0639 49.0559 46.1436 35.7266L48.0387 68.8051C52.3333 70.0925 54.7473 70.782 59.4094 70.3557Z" stroke="#1E1E22"/>
<mask id="mask0" mask-type="alpha" maskUnits="userSpaceOnUse" x="46" y="35" width="14" height="36">
<path d="M59.5217 70.5276C60.1823 56.837 58.1762 49.2278 46.2559 35.8984L48.151 68.977C52.4456 70.2644 54.8596 70.9539 59.5217 70.5276Z" fill="#C4C4C4"/>
</mask>
<g mask="url(#mask0)">
<path d="M28.328 67.1371C29.7834 62.4643 41.7307 38.4436 49.8256 24.7237" stroke="#1E1E22" stroke-width="0.25"/>
<path d="M51.0692 78.6645C52.5246 73.9916 64.4719 49.9709 72.5668 36.251" stroke="#1E1E22" stroke-width="0.25"/>
<path d="M39.6982 72.9008C41.1536 68.2279 53.1008 44.2073 61.1957 30.4873" stroke="#1E1E22" stroke-width="0.25"/>
<path d="M33.8593 69.9418C35.3147 65.2689 47.2619 41.2483 55.3569 27.5284" stroke="#1E1E22" stroke-width="0.25"/>
<path d="M56.6015 81.4691C58.0569 76.7963 70.0041 52.7756 78.0991 39.0557" stroke="#1E1E22" stroke-width="0.25"/>
<path d="M45.2304 75.7055C46.6858 71.0326 58.633 47.012 66.728 33.292" stroke="#1E1E22" stroke-width="0.25"/>
<path d="M31.0937 68.5395C32.5491 63.8666 44.4963 39.8459 52.5912 26.126" stroke="#1E1E22" stroke-width="0.25"/>
<path d="M53.8358 80.0668C55.2912 75.3939 67.2385 51.3733 75.3334 37.6534" stroke="#1E1E22" stroke-width="0.25"/>
<path d="M42.4648 74.3031C43.9202 69.6303 55.8674 45.6096 63.9623 31.8897" stroke="#1E1E22" stroke-width="0.25"/>
<path d="M36.6259 71.3422C38.0813 66.6693 50.0285 42.6487 58.1235 28.9287" stroke="#1E1E22" stroke-width="0.25"/>
<path d="M47.997 77.1078C49.4524 72.435 61.3996 48.4143 69.4946 34.6944" stroke="#1E1E22" stroke-width="0.25"/>
<path d="M29.5559 67.7601C31.1852 62.7441 44.0992 36.8161 52.767 21.9659" stroke="#1E1E22" stroke-width="0.25"/>
<path d="M52.3 79.2874C53.9293 74.2714 66.8433 48.3434 75.5112 33.4932" stroke="#1E1E22" stroke-width="0.25"/>
<path d="M40.927 73.5237C42.5563 68.5078 55.4703 42.5797 64.1381 27.7295" stroke="#1E1E22" stroke-width="0.25"/>
<path d="M35.3954 70.7205C36.6615 65.5205 49.4849 39.5465 58.6066 24.9263" stroke="#1E1E22" stroke-width="0.25"/>
<path d="M46.7678 76.4847C48.3971 71.4687 61.3111 45.5407 69.9789 30.6905" stroke="#1E1E22" stroke-width="0.25"/>
<path d="M32.6281 69.3167C34.2574 64.3007 47.1714 38.3727 55.8393 23.5225" stroke="#1E1E22" stroke-width="0.25"/>
<path d="M55.3733 80.846C57.0026 75.83 69.9165 49.902 78.5844 35.0518" stroke="#1E1E22" stroke-width="0.25"/>
<path d="M44.0022 75.0823C45.6315 70.0664 58.5454 44.1383 67.2133 29.2881" stroke="#1E1E22" stroke-width="0.25"/>
<path d="M38.1604 72.1214C39.7897 67.1054 52.7037 41.1774 61.3715 26.3272" stroke="#1E1E22" stroke-width="0.25"/>
<path d="M49.5344 77.8851C51.1637 72.8691 64.0777 46.9411 72.7455 32.0909" stroke="#1E1E22" stroke-width="0.25"/>
<path d="M28.9413 67.4496C30.3967 62.7768 42.3439 38.7561 50.4389 25.0362" stroke="#1E1E22" stroke-width="0.25"/>
<path d="M51.6855 78.977C53.1409 74.3041 65.0881 50.2834 73.183 36.5635" stroke="#1E1E22" stroke-width="0.25"/>
<path d="M40.3124 73.2133C41.7678 68.5404 53.715 44.5198 61.81 30.7998" stroke="#1E1E22" stroke-width="0.25"/>
<path d="M34.4735 70.2523C35.9289 65.5795 47.8762 41.5588 55.9711 27.8389" stroke="#1E1E22" stroke-width="0.25"/>
<path d="M57.2177 81.7797C58.6731 77.1068 70.6203 53.0862 78.7153 39.3662" stroke="#1E1E22" stroke-width="0.25"/>
<path d="M45.8446 76.016C47.3 71.3432 59.2473 47.3225 67.3422 33.6026" stroke="#1E1E22" stroke-width="0.25"/>
<path d="M32.0143 69.0058C33.1065 64.1488 44.963 40.0822 53.5119 26.5923" stroke="#1E1E22" stroke-width="0.25"/>
<path d="M54.7594 80.5351C55.8516 75.6781 67.7082 51.6115 76.257 38.1216" stroke="#1E1E22" stroke-width="0.25"/>
<path d="M43.3854 74.7695C44.4776 69.9125 56.3341 45.8459 64.883 32.356" stroke="#1E1E22" stroke-width="0.25"/>
<path d="M37.5465 71.8105C38.6387 66.9535 50.4953 42.8869 59.0441 29.397" stroke="#1E1E22" stroke-width="0.25"/>
<path d="M48.9176 77.5741C50.0098 72.7172 61.8664 48.6506 70.4152 35.1607" stroke="#1E1E22" stroke-width="0.25"/>
<path d="M30.4794 68.2264C31.7455 63.0263 44.5689 37.0524 53.6906 22.4322" stroke="#1E1E22" stroke-width="0.25"/>
<path d="M53.2206 79.7557C54.4867 74.5556 67.3101 48.5817 76.4318 33.9615" stroke="#1E1E22" stroke-width="0.25"/>
<path d="M41.8505 73.992C43.1166 68.7919 55.9399 42.818 65.0617 28.1978" stroke="#1E1E22" stroke-width="0.25"/>
<path d="M36.0109 71.0316C37.6403 66.0156 50.5542 40.0876 59.2221 25.2373" stroke="#1E1E22" stroke-width="0.25"/>
<path d="M47.382 76.7952C49.0114 71.7793 61.9253 45.8512 70.5932 31.001" stroke="#1E1E22" stroke-width="0.25"/>
<path d="M33.2443 69.6292C34.8737 64.6132 47.7876 38.6852 56.4555 23.835" stroke="#1E1E22" stroke-width="0.25"/>
<path d="M56.2939 81.3123C57.56 76.1123 70.3833 50.1383 79.505 35.5181" stroke="#1E1E22" stroke-width="0.25"/>
<path d="M44.9228 75.5487C46.1889 70.3486 59.0122 44.3746 68.1339 29.7544" stroke="#1E1E22" stroke-width="0.25"/>
<path d="M39.0839 72.5897C40.35 67.3896 53.1733 41.4156 62.2951 26.7955" stroke="#1E1E22" stroke-width="0.25"/>
<path d="M50.455 78.3534C51.7211 73.1533 64.5444 47.1793 73.6662 32.5591" stroke="#1E1E22" stroke-width="0.25"/>
</g>
</svg>
