<svg width="80" height="80" viewBox="0 0 80 80" fill="none" xmlns="http://www.w3.org/2000/svg">
<rect x="11.1953" y="42.5" width="4" height="57" transform="rotate(-90 11.1953 42.5)" fill="#757575"/>
<circle cx="39.3473" cy="40.1703" r="19.3473" transform="rotate(-90 39.3473 40.1703)" fill="white"/>
<circle cx="39.3473" cy="40.1703" r="19.3473" transform="rotate(-90 39.3473 40.1703)" fill="white"/>
<ellipse cx="32.8949" cy="40.4587" rx="2.24252" ry="2.80315" transform="rotate(-90 32.8949 40.4587)" fill="white"/>
<ellipse cx="39.0619" cy="46.6207" rx="2.80315" ry="2.24252" transform="rotate(-90 39.0619 46.6207)" fill="white"/>
<circle cx="45.7884" cy="40.4587" r="2.24252" transform="rotate(-90 45.7884 40.4587)" fill="white"/>
<circle cx="39.0619" cy="33.7282" r="2.24252" transform="rotate(-90 39.0619 33.7282)" fill="white"/>
<path d="M58.6949 40.1702C58.6949 50.8385 50.0156 59.5176 39.3473 59.5176C28.6791 59.5176 20 50.8385 20 40.1702C20 29.502 28.6791 20.8229 39.3473 20.8229C50.0156 20.8229 58.6949 29.5022 58.6949 40.1702ZM20.9698 40.1702C20.9698 50.3037 29.2141 58.5479 39.3473 58.5479C49.4808 58.5479 57.725 50.3039 57.725 40.1704C57.725 30.037 49.4808 21.7929 39.3473 21.7929C29.2141 21.7928 20.9698 30.037 20.9698 40.1702ZM53.8096 40.1702C53.8096 48.1447 47.3219 54.6323 39.3473 54.6323C31.3731 54.6323 24.8853 48.1447 24.8853 40.1702C24.8853 32.1958 31.3729 25.7082 39.3473 25.7082C47.3217 25.7082 53.8096 32.196 53.8096 40.1702ZM25.8553 40.1702C25.8553 47.6099 31.9079 53.6625 39.3475 53.6625C46.7872 53.6625 52.8399 47.6099 52.8399 40.1702C52.8399 32.7306 46.7874 26.678 39.3475 26.678C31.9079 26.678 25.8553 32.7306 25.8553 40.1702ZM48.8184 40.1702C48.8184 41.792 47.499 43.1114 45.8773 43.1114C44.2555 43.1114 42.9359 41.792 42.9359 40.1702C42.9359 38.5485 44.2555 37.2291 45.8773 37.2291C47.499 37.2291 48.8184 38.5487 48.8184 40.1702ZM43.9058 40.1702C43.9058 41.2572 44.7903 42.1415 45.8773 42.1415C46.9643 42.1415 47.8486 41.2572 47.8486 40.1702C47.8486 39.0833 46.9641 38.199 45.8773 38.199C44.7903 38.199 43.9058 39.0833 43.9058 40.1702ZM42.2885 33.6405C42.2885 35.2623 40.9691 36.5816 39.3473 36.5816C37.7256 36.5816 36.4062 35.2623 36.4062 33.6405C36.4062 32.0187 37.7256 30.6992 39.3473 30.6992C40.9691 30.6992 42.2885 32.0187 42.2885 33.6405ZM37.376 33.6405C37.376 34.7275 38.2605 35.6118 39.3473 35.6118C40.4341 35.6118 41.3186 34.7275 41.3186 33.6405C41.3186 32.5535 40.4341 31.669 39.3473 31.669C38.2605 31.669 37.376 32.5535 37.376 33.6405ZM42.2885 46.7C42.2885 48.3217 40.9691 49.6411 39.3473 49.6411C37.7256 49.6411 36.4062 48.3217 36.4062 46.7C36.4062 45.0782 37.7256 43.7588 39.3473 43.7588C40.9691 43.7588 42.2885 45.0784 42.2885 46.7ZM37.376 46.7C37.376 47.787 38.2605 48.6713 39.3473 48.6713C40.4341 48.6713 41.3186 47.787 41.3186 46.7C41.3186 45.613 40.4341 44.7287 39.3473 44.7287C38.2605 44.7287 37.376 45.613 37.376 46.7ZM35.7587 40.1702C35.7587 41.792 34.4394 43.1114 32.8176 43.1114C31.1958 43.1114 29.8765 41.792 29.8765 40.1702C29.8765 38.5485 31.1958 37.2291 32.8176 37.2291C34.4394 37.2291 35.7587 38.5487 35.7587 40.1702ZM30.8463 40.1702C30.8463 41.2572 31.7308 42.1415 32.8176 42.1415C33.9044 42.1415 34.7889 41.2572 34.7889 40.1702C34.7889 39.0833 33.9044 38.199 32.8176 38.199C31.7308 38.199 30.8463 39.0833 30.8463 40.1702Z" fill="#757575"/>
</svg>
