<svg width="80" height="80" viewBox="0 0 80 80" fill="none" xmlns="http://www.w3.org/2000/svg">
<path d="M67.8305 72.1359L18.2542 42.8986L3 14.2969" stroke="#1E1E22" stroke-width="1.5"/>
<mask id="mask0" mask-type="alpha" maskUnits="userSpaceOnUse" x="10" y="28" width="20" height="22">
<path d="M29.6957 49.6786C25.9351 33.9805 21.2 30.3528 10.416 28.4922L18.255 42.899L29.6957 49.6786Z" fill="#C4C4C4"/>
</mask>
<g mask="url(#mask0)">
<path d="M29.6957 49.6786C25.9351 33.9805 21.2 30.3528 10.416 28.4922L18.255 42.899L29.6957 49.6786Z" stroke="#1E1E22" stroke-width="1.5"/>
<path d="M28.8686 62.6387C28.1168 58.2483 27.9292 33.8432 28.8686 19.3809" stroke="#1E1E22" stroke-width="0.25"/>
<path d="M17.2065 62.6387C16.4547 58.2483 16.2671 33.8432 17.2064 19.3809" stroke="#1E1E22" stroke-width="0.25"/>
<path d="M11.269 62.6387C10.5172 58.2483 10.3296 33.8432 11.2689 19.3809" stroke="#1E1E22" stroke-width="0.25"/>
<path d="M22.9311 62.6387C22.1793 58.2483 21.9917 33.8432 22.9311 19.3809" stroke="#1E1E22" stroke-width="0.25"/>
<path d="M20.1742 62.6387C19.4224 58.2483 19.2348 33.8432 20.1742 19.3809" stroke="#1E1E22" stroke-width="0.25"/>
<path d="M14.2367 62.6387C13.4849 58.2483 13.2973 33.8432 14.2367 19.3809" stroke="#1E1E22" stroke-width="0.25"/>
<path d="M25.9008 62.6387C25.149 58.2483 24.9614 33.8432 25.9008 19.3809" stroke="#1E1E22" stroke-width="0.25"/>
<path d="M30.3529 62.638C29.6011 57.8818 29.4135 31.4429 30.3529 15.7754" stroke="#1E1E22" stroke-width="0.25"/>
<path d="M18.6899 62.638C17.9381 57.8818 17.7504 31.4429 18.6898 15.7754" stroke="#1E1E22" stroke-width="0.25"/>
<path d="M12.7533 62.638C12.0015 57.8818 11.8139 31.4429 12.7533 15.7754" stroke="#1E1E22" stroke-width="0.25"/>
<path d="M24.4154 62.638C23.6636 57.8818 23.476 31.4429 24.4154 15.7754" stroke="#1E1E22" stroke-width="0.25"/>
<path d="M21.6586 62.638C20.9068 57.8818 20.7192 31.4429 21.6586 15.7754" stroke="#1E1E22" stroke-width="0.25"/>
<path d="M15.7221 62.638C14.9703 57.8818 14.7827 31.4429 15.7221 15.7754" stroke="#1E1E22" stroke-width="0.25"/>
<path d="M27.3852 62.638C26.6334 57.8818 26.4458 31.4429 27.3852 15.7754" stroke="#1E1E22" stroke-width="0.25"/>
<path d="M29.5053 62.6387C28.7535 58.2483 28.5659 33.8432 29.5053 19.3809" stroke="#1E1E22" stroke-width="0.25"/>
<path d="M17.8432 62.6387C17.0914 58.2483 16.9038 33.8432 17.8432 19.3809" stroke="#1E1E22" stroke-width="0.25"/>
<path d="M11.9047 62.6387C11.1529 58.2483 10.9653 33.8432 11.9047 19.3809" stroke="#1E1E22" stroke-width="0.25"/>
<path d="M23.5678 62.6387C22.816 58.2483 22.6284 33.8432 23.5678 19.3809" stroke="#1E1E22" stroke-width="0.25"/>
<path d="M21.023 62.6387C20.0206 58.2483 19.7705 33.8432 21.023 19.3809" stroke="#1E1E22" stroke-width="0.25"/>
<path d="M15.0855 62.6387C14.0831 58.2483 13.833 33.8432 15.0855 19.3809" stroke="#1E1E22" stroke-width="0.25"/>
<path d="M26.7476 62.6387C25.7452 58.2483 25.4951 33.8432 26.7476 19.3809" stroke="#1E1E22" stroke-width="0.25"/>
<path d="M19.5386 62.638C18.5362 57.8818 18.2861 31.4429 19.5386 15.7754" stroke="#1E1E22" stroke-width="0.25"/>
<path d="M13.6011 62.638C12.5987 57.8818 12.3486 31.4429 13.6011 15.7754" stroke="#1E1E22" stroke-width="0.25"/>
<path d="M25.2642 62.638C24.2618 57.8818 24.0117 31.4429 25.2642 15.7754" stroke="#1E1E22" stroke-width="0.25"/>
<path d="M10.8443 62.638C9.84188 57.8818 9.59174 31.4429 10.8443 15.7754" stroke="#1E1E22" stroke-width="0.25"/>
<path d="M22.5074 62.638C21.505 57.8818 21.2548 31.4429 22.5074 15.7754" stroke="#1E1E22" stroke-width="0.25"/>
<path d="M16.5689 62.638C15.5665 57.8818 15.3164 31.4429 16.5689 15.7754" stroke="#1E1E22" stroke-width="0.25"/>
<path d="M28.233 62.638C27.2306 57.8818 26.9804 31.4429 28.2329 15.7754" stroke="#1E1E22" stroke-width="0.25"/>
</g>
<path d="M77.9989 57.9415L34.5667 31.0347L23.3379 8.36523" stroke="#1E1E22" stroke-width="1.5"/>
<path d="M67.6191 71.9244C68.5935 62.6708 70.3049 58.8569 78.0005 57.5176C77.4619 65.942 74.9672 68.9213 67.6191 71.9244Z" stroke="#1E1E22" stroke-width="1.5"/>
<path d="M56.6016 65.9926C58.3101 57.6132 60.0485 53.8762 66.3473 51.1621" stroke="#1E1E22" stroke-width="1.5"/>
<path d="M57.2378 62.6012L55.1191 61.33L55.5429 60.9062L57.4496 62.1774" stroke="#1E1E22" stroke-width="0.5"/>
<path d="M49.1875 55.1875L68.679 66.8401V65.357L49.6112 54.3401L49.1875 55.1875Z" fill="#1E1E22"/>
<path d="M58.5095 51.5858L61.6875 53.4926L62.1112 53.0689L58.9333 51.1621L58.5095 51.5858Z" fill="#1E1E22"/>
<path d="M49.1875 55.1875L68.679 66.8401V65.357L49.6112 54.3401L49.1875 55.1875Z" stroke="#1E1E22" stroke-width="0.5"/>
<path d="M58.5095 51.5858L61.6875 53.4926L62.1112 53.0689L58.9333 51.1621L58.5095 51.5858Z" stroke="#1E1E22" stroke-width="0.5"/>
</svg>
