<svg width="80" height="80" viewBox="0 0 80 80" fill="none" xmlns="http://www.w3.org/2000/svg">
<path d="M67.8302 72.1336L18.2542 42.8965L3 14.2949" stroke="#1E1E22" stroke-width="1.5"/>
<path d="M77.9986 57.9393L34.5666 31.0327L23.3379 8.36328" stroke="#1E1E22" stroke-width="1.5"/>
<path d="M67.6191 71.9223C68.5935 62.6688 70.3049 58.855 78.0004 57.5156C77.4618 65.94 74.9672 68.9193 67.6191 71.9223Z" stroke="#1E1E22" stroke-width="1.5"/>
<path d="M56.6006 65.9906C58.3091 57.6113 60.0475 53.8743 66.3463 51.1602" stroke="#1E1E22" stroke-width="1.5"/>
<path d="M57.2368 62.5992L55.1182 61.328L55.5419 60.9043L57.4487 62.1755" stroke="#1E1E22" stroke-width="0.5"/>
<path d="M49.1865 55.1856L68.6779 66.838V65.355L49.6103 54.3381L49.1865 55.1856Z" fill="#1E1E22"/>
<path d="M58.5085 51.5839L61.6865 53.4907L62.1102 53.0669L58.9322 51.1602L58.5085 51.5839Z" fill="#1E1E22"/>
<path d="M49.1865 55.1856L68.6779 66.838V65.355L49.6103 54.3381L49.1865 55.1856Z" stroke="#1E1E22" stroke-width="0.5"/>
<path d="M58.5085 51.5839L61.6865 53.4907L62.1102 53.0669L58.9322 51.1602L58.5085 51.5839Z" stroke="#1E1E22" stroke-width="0.5"/>
</svg>
