<svg width="80" height="80" viewBox="0 0 80 80" fill="none" xmlns="http://www.w3.org/2000/svg">
<path fill-rule="evenodd" clip-rule="evenodd" d="M48.308 23.9429L46.8944 22.2466L46.4076 21.6623L45.8302 22.1573L45.4811 22.4565L43.381 20.4563L42.8629 19.9629L42.3456 20.4572L40.6208 22.1053C40.5645 22.06 40.5035 22.0132 40.4368 21.9637C40.057 21.6814 39.3975 21.2417 38.1415 20.4044L38.0979 20.3754L37.5604 20.017L37.1264 20.4956L3.44456 57.6319L3.91187 58.0872L3.51201 58.43L1.97266 59.7494H4.0001H12.3144L13.8222 58.2494H6.02754L45.9356 24.0424L45.9427 24.0364L46.229 23.7911L47.2405 25.0049L48.308 23.9429ZM24.3836 58.2494H74.9443L52.0275 30.7493L53.095 29.6872L77.1217 58.5193L78.1468 59.7494H76.5456H22.8758L24.3836 58.2494ZM37.8034 21.9819C38.7319 22.6015 39.2278 22.9355 39.5235 23.1538L18.6505 43.0991L37.8034 21.9819ZM20.9678 42.9595C28.9176 36.3125 37.9539 28.7588 44.3288 23.4305L42.8646 22.036L41.115 23.7078L20.9678 42.9595Z" fill="#1E1E22"/>
<rect x="62.2871" y="13" width="3.19223" height="81.1462" transform="rotate(45.915 62.2871 13)" fill="#1E1E22"/>
</svg>
