<svg width="20" height="20" viewBox="0 0 20 20" fill="none" xmlns="http://www.w3.org/2000/svg">
<path fill-rule="evenodd" clip-rule="evenodd" d="M15.307 1.50781H4.69173C4.12874 1.50799 3.58887 1.73177 3.19086 2.12995C2.79284 2.52812 2.56928 3.06808 2.56934 3.63107V16.3687C2.56926 16.9316 2.79282 17.4716 3.19084 17.8698C3.58885 18.268 4.12873 18.4918 4.69173 18.4919H6.81499C7.36796 18.4922 7.89915 18.2764 8.29524 17.8905L9.0505 18.2681C9.3453 18.4153 9.67029 18.4919 9.9998 18.4919C10.3293 18.4919 10.6543 18.4153 10.9491 18.2681L11.7035 17.8905C12.0997 18.2762 12.6308 18.492 13.1838 18.4919H15.307C15.5858 18.4919 15.8619 18.437 16.1195 18.3303C16.3771 18.2236 16.6112 18.0672 16.8084 17.87C17.0055 17.6729 17.1619 17.4388 17.2686 17.1812C17.3753 16.9236 17.4302 16.6475 17.4302 16.3687V3.63107C17.4302 3.35225 17.3753 3.07615 17.2686 2.81855C17.1619 2.56094 17.0055 2.32688 16.8083 2.12971C16.6112 1.93255 16.3771 1.77615 16.1195 1.66944C15.8619 1.56274 15.5858 1.50782 15.307 1.50781V1.50781ZM15.307 16.3686H13.1838L12.1226 15.3075L9.99939 16.3686L7.87619 15.3075L6.81499 16.3687H4.69173V3.63107H15.307V16.3686ZM7.87619 7.87749H12.1226C12.4038 7.87671 12.6731 7.76447 12.8716 7.56539C13.0702 7.36631 13.1816 7.09663 13.1816 6.81548C13.1816 6.53433 13.0702 6.26466 12.8716 6.06558C12.6731 5.8665 12.4038 5.75426 12.1226 5.75347H7.87619C7.59504 5.75426 7.32567 5.8665 7.12715 6.06558C6.92863 6.26466 6.81714 6.53433 6.81714 6.81548C6.81714 7.09663 6.92863 7.36631 7.12715 7.56539C7.32567 7.76447 7.59504 7.87671 7.87619 7.87749V7.87749ZM7.87619 11.0611H9.99939C10.2808 11.0611 10.5508 10.9493 10.7498 10.7503C10.9488 10.5513 11.0606 10.2813 11.0606 9.99989C11.0606 9.71844 10.9488 9.44852 10.7498 9.2495C10.5508 9.05049 10.2808 8.93869 9.99939 8.93869H7.87619C7.59474 8.93869 7.32482 9.05049 7.1258 9.2495C6.92679 9.44852 6.81499 9.71844 6.81499 9.99989C6.81499 10.2813 6.92679 10.5513 7.1258 10.7503C7.32482 10.9493 7.59474 11.0611 7.87619 11.0611V11.0611Z" fill="#757575"/>
</svg>
