<svg width="80" height="80" viewBox="0 0 80 80" fill="none" xmlns="http://www.w3.org/2000/svg">
<circle cx="40.0022" cy="39.4573" r="25.593" stroke="#1E1E22"/>
<circle cx="40.0027" cy="39.4568" r="22.8464" stroke="#1E1E22"/>
<mask id="path-3-inside-1" fill="white">
<path d="M40.1088 30.9674C38.9525 30.9674 38.0117 30.0267 38.0117 28.8705C38.0117 27.7141 38.9525 26.7734 40.1088 26.7734C41.2651 26.7734 42.2058 27.7141 42.2058 28.8705C42.2058 30.0267 41.2651 30.9674 40.1088 30.9674ZM40.1088 27.4028C39.2995 27.4028 38.6411 28.0612 38.6411 28.8705C38.6411 29.6797 39.2995 30.3381 40.1088 30.3381C40.9181 30.3381 41.5764 29.6797 41.5764 28.8705C41.5764 28.0612 40.9181 27.4028 40.1088 27.4028Z"/>
</mask>
<path d="M40.1088 30.9674C38.9525 30.9674 38.0117 30.0267 38.0117 28.8705C38.0117 27.7141 38.9525 26.7734 40.1088 26.7734C41.2651 26.7734 42.2058 27.7141 42.2058 28.8705C42.2058 30.0267 41.2651 30.9674 40.1088 30.9674ZM40.1088 27.4028C39.2995 27.4028 38.6411 28.0612 38.6411 28.8705C38.6411 29.6797 39.2995 30.3381 40.1088 30.3381C40.9181 30.3381 41.5764 29.6797 41.5764 28.8705C41.5764 28.0612 40.9181 27.4028 40.1088 27.4028Z" fill="#1E1E22"/>
<path d="M40.1088 29.9674C39.5047 29.9674 39.0117 29.4744 39.0117 28.8705H37.0117C37.0117 30.5791 38.4003 31.9674 40.1088 31.9674V29.9674ZM39.0117 28.8705C39.0117 28.2664 39.5048 27.7734 40.1088 27.7734V25.7734C38.4002 25.7734 37.0117 27.1618 37.0117 28.8705H39.0117ZM40.1088 27.7734C40.7128 27.7734 41.2058 28.2664 41.2058 28.8705H43.2058C43.2058 27.1619 41.8174 25.7734 40.1088 25.7734V27.7734ZM41.2058 28.8705C41.2058 29.4744 40.7128 29.9674 40.1088 29.9674V31.9674C41.8174 31.9674 43.2058 30.5791 43.2058 28.8705H41.2058ZM40.1088 26.4028C38.7472 26.4028 37.6411 27.509 37.6411 28.8705H39.6411C39.6411 28.6135 39.8518 28.4028 40.1088 28.4028V26.4028ZM37.6411 28.8705C37.6411 30.2321 38.7473 31.3381 40.1088 31.3381V29.3381C39.8517 29.3381 39.6411 29.1274 39.6411 28.8705H37.6411ZM40.1088 31.3381C41.4703 31.3381 42.5764 30.232 42.5764 28.8705H40.5764C40.5764 29.1274 40.3658 29.3381 40.1088 29.3381V31.3381ZM42.5764 28.8705C42.5764 27.509 41.4704 26.4028 40.1088 26.4028V28.4028C40.3658 28.4028 40.5764 28.6135 40.5764 28.8705H42.5764Z" fill="#1E1E22" mask="url(#path-3-inside-1)"/>
<mask id="path-5-inside-2" fill="white">
<path d="M39.9899 54.0836C39.9665 54.0836 39.9431 54.081 39.92 54.0757C36.9229 53.3926 34.7516 51.7552 33.4578 50.5019C32.5334 49.6064 31.9194 48.7859 31.6002 48.3165L31.0437 49.111C30.9847 49.1951 30.8884 49.2451 30.7859 49.2451C30.7847 49.2451 30.7836 49.2451 30.7823 49.2451C30.6784 49.2439 30.5818 49.1915 30.5241 49.105C29.5142 47.5904 29.1504 45.7479 29.4722 43.7765C29.7138 42.2971 30.2491 41.2742 30.2718 41.2314C30.3255 41.13 30.4301 41.0658 30.5449 41.0639C30.5465 41.0639 30.5482 41.0639 30.5499 41.0639C30.6627 41.0639 30.767 41.1243 30.8231 41.2225C32.2824 43.7761 33.8691 45.2823 34.5041 45.722C34.5977 45.7867 34.6492 45.8971 34.6386 46.0104C34.6279 46.1237 34.557 46.2225 34.453 46.2687L33.7456 46.5822C35.0533 47.7694 36.6403 48.5465 38.3772 48.8495V36.7371H33.4046C33.0667 37.2277 32.5517 37.5155 31.9958 37.5155C31.0082 37.5155 30.2047 36.6017 30.2047 35.4784C30.2047 34.3551 31.0081 33.4413 31.9958 33.4413C32.5516 33.4413 33.0666 33.729 33.4046 34.2197H38.3772V32.5769C36.9365 31.9056 36.0171 30.4731 36.0171 28.8702C36.0171 26.6144 37.8523 24.7793 40.108 24.7793C42.3637 24.7793 44.1988 26.6144 44.1988 28.8702C44.1988 30.5642 43.1647 32.0668 41.6028 32.6783V34.2197H46.5752C46.9133 33.729 47.4283 33.4413 47.9841 33.4413C48.9717 33.4413 49.7751 34.3551 49.7751 35.4784C49.7751 36.6016 48.9717 37.5155 47.9841 37.5155C47.4283 37.5155 46.9133 37.2278 46.5752 36.7371H41.6028V48.8496C43.3397 48.5466 44.9266 47.7695 46.2343 46.5823L45.527 46.2688C45.4228 46.2226 45.3517 46.1237 45.3412 46.0102C45.3306 45.8968 45.3822 45.7864 45.4762 45.7218C46.1108 45.2825 47.6975 43.7762 49.1568 41.2226C49.2129 41.1244 49.3173 41.0639 49.43 41.0639C49.4317 41.0639 49.4335 41.0639 49.4351 41.064C49.5498 41.0658 49.6544 41.13 49.7082 41.2314C49.7308 41.2742 50.2661 42.2972 50.5077 43.7766C50.8296 45.7479 50.4659 47.5905 49.4559 49.1051C49.3982 49.1916 49.3016 49.244 49.1977 49.2452C49.1965 49.2452 49.1952 49.2452 49.194 49.2452C49.0915 49.2452 48.9952 49.1952 48.9363 49.1111L48.3798 48.3166C48.0604 48.7861 47.4465 49.6066 46.5221 50.5019C45.2283 51.7553 43.057 53.3927 40.06 54.0758C40.0368 54.081 40.0134 54.0836 39.9899 54.0836ZM31.6119 47.4365C31.6166 47.4365 31.6214 47.4366 31.6261 47.4368C31.7336 47.4416 31.8313 47.5011 31.8848 47.5946C31.9112 47.6403 34.5802 52.1794 39.9899 53.4459C45.4097 52.1771 48.0685 47.6404 48.0949 47.5946C48.1486 47.5011 48.2461 47.4417 48.3537 47.4368C48.4612 47.4309 48.5637 47.4825 48.6256 47.5706L49.1768 48.3577C50.5849 45.8632 49.8245 43.1876 49.3888 42.0674C48.11 44.1656 46.8821 45.369 46.2575 45.9043L46.9195 46.1976C47.0144 46.2397 47.0824 46.3258 47.1014 46.4278C47.1204 46.5298 47.0879 46.6346 47.0145 46.7079C45.4629 48.2595 43.4973 49.2349 41.3302 49.5288C41.24 49.5409 41.1493 49.5137 41.0809 49.4539C41.0125 49.3941 40.9732 49.3078 40.9732 49.2169V36.4224C40.9732 36.2486 41.1141 36.1077 41.2879 36.1077H46.7493C46.863 36.1077 46.9677 36.169 47.0234 36.2681C47.2414 36.6551 47.6004 36.8861 47.9839 36.8861C48.6245 36.8861 49.1455 36.2546 49.1455 35.4783C49.1455 34.702 48.6244 34.0706 47.9839 34.0706C47.6004 34.0706 47.2414 34.3016 47.0234 34.6886C46.9677 34.7876 46.8629 34.8489 46.7493 34.8489H41.2881C41.1143 34.8489 40.9734 34.708 40.9734 34.5342V32.4572C40.9734 32.3213 41.0606 32.2007 41.1897 32.1583C42.6131 31.6902 43.5694 30.3689 43.5694 28.8702C43.5694 26.9615 42.0167 25.4087 40.108 25.4087C38.1993 25.4087 36.6466 26.9615 36.6466 28.8702C36.6466 30.2873 37.4958 31.5468 38.8101 32.079C38.9289 32.1272 39.0067 32.2425 39.0067 32.3707V34.5344C39.0067 34.7081 38.8658 34.849 38.692 34.849H33.2305C33.1169 34.849 33.0121 34.7878 32.9563 34.6887C32.7384 34.3017 32.3795 34.0707 31.9959 34.0707C31.3554 34.0707 30.8342 34.7022 30.8342 35.4784C30.8342 36.2547 31.3554 36.8862 31.9959 36.8862C32.3795 36.8862 32.7384 36.6552 32.9563 36.2682C33.0121 36.1692 33.1169 36.1079 33.2305 36.1079H38.692C38.8658 36.1079 39.0067 36.2488 39.0067 36.4226V49.217C39.0067 49.3078 38.9674 49.3942 38.899 49.454C38.8305 49.5137 38.74 49.5409 38.6497 49.5288C36.4825 49.2351 34.5169 48.2596 32.9653 46.708C32.892 46.6347 32.8595 46.5299 32.8785 46.4278C32.8975 46.3259 32.9655 46.2398 33.0604 46.1977L33.7223 45.9043C33.0977 45.3692 31.8702 44.166 30.5916 42.0685C30.1572 43.1906 29.3989 45.8687 30.8031 48.3577L31.3543 47.5707C31.4133 47.4864 31.5096 47.4365 31.6119 47.4365Z"/>
</mask>
<path d="M39.9899 54.0836C39.9665 54.0836 39.9431 54.081 39.92 54.0757C36.9229 53.3926 34.7516 51.7552 33.4578 50.5019C32.5334 49.6064 31.9194 48.7859 31.6002 48.3165L31.0437 49.111C30.9847 49.1951 30.8884 49.2451 30.7859 49.2451C30.7847 49.2451 30.7836 49.2451 30.7823 49.2451C30.6784 49.2439 30.5818 49.1915 30.5241 49.105C29.5142 47.5904 29.1504 45.7479 29.4722 43.7765C29.7138 42.2971 30.2491 41.2742 30.2718 41.2314C30.3255 41.13 30.4301 41.0658 30.5449 41.0639C30.5465 41.0639 30.5482 41.0639 30.5499 41.0639C30.6627 41.0639 30.767 41.1243 30.8231 41.2225C32.2824 43.7761 33.8691 45.2823 34.5041 45.722C34.5977 45.7867 34.6492 45.8971 34.6386 46.0104C34.6279 46.1237 34.557 46.2225 34.453 46.2687L33.7456 46.5822C35.0533 47.7694 36.6403 48.5465 38.3772 48.8495V36.7371H33.4046C33.0667 37.2277 32.5517 37.5155 31.9958 37.5155C31.0082 37.5155 30.2047 36.6017 30.2047 35.4784C30.2047 34.3551 31.0081 33.4413 31.9958 33.4413C32.5516 33.4413 33.0666 33.729 33.4046 34.2197H38.3772V32.5769C36.9365 31.9056 36.0171 30.4731 36.0171 28.8702C36.0171 26.6144 37.8523 24.7793 40.108 24.7793C42.3637 24.7793 44.1988 26.6144 44.1988 28.8702C44.1988 30.5642 43.1647 32.0668 41.6028 32.6783V34.2197H46.5752C46.9133 33.729 47.4283 33.4413 47.9841 33.4413C48.9717 33.4413 49.7751 34.3551 49.7751 35.4784C49.7751 36.6016 48.9717 37.5155 47.9841 37.5155C47.4283 37.5155 46.9133 37.2278 46.5752 36.7371H41.6028V48.8496C43.3397 48.5466 44.9266 47.7695 46.2343 46.5823L45.527 46.2688C45.4228 46.2226 45.3517 46.1237 45.3412 46.0102C45.3306 45.8968 45.3822 45.7864 45.4762 45.7218C46.1108 45.2825 47.6975 43.7762 49.1568 41.2226C49.2129 41.1244 49.3173 41.0639 49.43 41.0639C49.4317 41.0639 49.4335 41.0639 49.4351 41.064C49.5498 41.0658 49.6544 41.13 49.7082 41.2314C49.7308 41.2742 50.2661 42.2972 50.5077 43.7766C50.8296 45.7479 50.4659 47.5905 49.4559 49.1051C49.3982 49.1916 49.3016 49.244 49.1977 49.2452C49.1965 49.2452 49.1952 49.2452 49.194 49.2452C49.0915 49.2452 48.9952 49.1952 48.9363 49.1111L48.3798 48.3166C48.0604 48.7861 47.4465 49.6066 46.5221 50.5019C45.2283 51.7553 43.057 53.3927 40.06 54.0758C40.0368 54.081 40.0134 54.0836 39.9899 54.0836ZM31.6119 47.4365C31.6166 47.4365 31.6214 47.4366 31.6261 47.4368C31.7336 47.4416 31.8313 47.5011 31.8848 47.5946C31.9112 47.6403 34.5802 52.1794 39.9899 53.4459C45.4097 52.1771 48.0685 47.6404 48.0949 47.5946C48.1486 47.5011 48.2461 47.4417 48.3537 47.4368C48.4612 47.4309 48.5637 47.4825 48.6256 47.5706L49.1768 48.3577C50.5849 45.8632 49.8245 43.1876 49.3888 42.0674C48.11 44.1656 46.8821 45.369 46.2575 45.9043L46.9195 46.1976C47.0144 46.2397 47.0824 46.3258 47.1014 46.4278C47.1204 46.5298 47.0879 46.6346 47.0145 46.7079C45.4629 48.2595 43.4973 49.2349 41.3302 49.5288C41.24 49.5409 41.1493 49.5137 41.0809 49.4539C41.0125 49.3941 40.9732 49.3078 40.9732 49.2169V36.4224C40.9732 36.2486 41.1141 36.1077 41.2879 36.1077H46.7493C46.863 36.1077 46.9677 36.169 47.0234 36.2681C47.2414 36.6551 47.6004 36.8861 47.9839 36.8861C48.6245 36.8861 49.1455 36.2546 49.1455 35.4783C49.1455 34.702 48.6244 34.0706 47.9839 34.0706C47.6004 34.0706 47.2414 34.3016 47.0234 34.6886C46.9677 34.7876 46.8629 34.8489 46.7493 34.8489H41.2881C41.1143 34.8489 40.9734 34.708 40.9734 34.5342V32.4572C40.9734 32.3213 41.0606 32.2007 41.1897 32.1583C42.6131 31.6902 43.5694 30.3689 43.5694 28.8702C43.5694 26.9615 42.0167 25.4087 40.108 25.4087C38.1993 25.4087 36.6466 26.9615 36.6466 28.8702C36.6466 30.2873 37.4958 31.5468 38.8101 32.079C38.9289 32.1272 39.0067 32.2425 39.0067 32.3707V34.5344C39.0067 34.7081 38.8658 34.849 38.692 34.849H33.2305C33.1169 34.849 33.0121 34.7878 32.9563 34.6887C32.7384 34.3017 32.3795 34.0707 31.9959 34.0707C31.3554 34.0707 30.8342 34.7022 30.8342 35.4784C30.8342 36.2547 31.3554 36.8862 31.9959 36.8862C32.3795 36.8862 32.7384 36.6552 32.9563 36.2682C33.0121 36.1692 33.1169 36.1079 33.2305 36.1079H38.692C38.8658 36.1079 39.0067 36.2488 39.0067 36.4226V49.217C39.0067 49.3078 38.9674 49.3942 38.899 49.454C38.8305 49.5137 38.74 49.5409 38.6497 49.5288C36.4825 49.2351 34.5169 48.2596 32.9653 46.708C32.892 46.6347 32.8595 46.5299 32.8785 46.4278C32.8975 46.3259 32.9655 46.2398 33.0604 46.1977L33.7223 45.9043C33.0977 45.3692 31.8702 44.166 30.5916 42.0685C30.1572 43.1906 29.3989 45.8687 30.8031 48.3577L31.3543 47.5707C31.4133 47.4864 31.5096 47.4365 31.6119 47.4365Z" fill="#1E1E22" stroke="#1E1E22" stroke-width="2" mask="url(#path-5-inside-2)"/>
<mask id="path-6-inside-3" fill="white">
<path d="M40.303 19.0187C40.4993 18.8441 40.5984 18.5651 40.4664 18.338C40.434 18.2822 40.3986 18.2321 40.3607 18.1886C40.2471 18.0581 40.1157 17.9924 39.9824 17.9996C39.8492 18.0067 39.72 18.0864 39.6105 18.2289C39.5011 18.3713 39.4161 18.5705 39.3659 18.802C39.3158 19.0335 39.3026 19.2874 39.3281 19.5326C39.3536 19.7779 39.4166 20.0039 39.5094 20.1832C39.6022 20.3625 39.7208 20.4873 39.8508 20.5424V20.5424C40.0814 20.64 40.21 20.3346 40.1612 20.0889L40.0805 19.6816C40.0319 19.4368 40.1166 19.1846 40.303 19.0187V19.0187Z"/>
</mask>
<path d="M40.303 19.0187C40.4993 18.8441 40.5984 18.5651 40.4664 18.338C40.434 18.2822 40.3986 18.2321 40.3607 18.1886C40.2471 18.0581 40.1157 17.9924 39.9824 17.9996C39.8492 18.0067 39.72 18.0864 39.6105 18.2289C39.5011 18.3713 39.4161 18.5705 39.3659 18.802C39.3158 19.0335 39.3026 19.2874 39.3281 19.5326C39.3536 19.7779 39.4166 20.0039 39.5094 20.1832C39.6022 20.3625 39.7208 20.4873 39.8508 20.5424V20.5424C40.0814 20.64 40.21 20.3346 40.1612 20.0889L40.0805 19.6816C40.0319 19.4368 40.1166 19.1846 40.303 19.0187V19.0187Z" stroke="#1E1E22" stroke-width="2" mask="url(#path-6-inside-3)"/>
<mask id="path-7-inside-4" fill="white">
<path d="M40.1471 59.2417C40.1908 58.9973 40.0513 58.7031 39.8281 58.812V58.812C39.6992 58.875 39.5828 59.0069 39.4931 59.1918C39.4034 59.3766 39.3444 59.6064 39.3232 59.8531C39.302 60.0998 39.3195 60.3527 39.3737 60.5811C39.4278 60.8094 39.5162 61.0032 39.6281 61.139C39.74 61.2747 39.8705 61.3464 40.0038 61.3455C40.1371 61.3445 40.2673 61.2708 40.3786 61.1335C40.4186 61.0841 40.4556 61.0272 40.489 60.964C40.6085 60.7377 40.5051 60.4693 40.3068 60.3075V60.3075C40.1181 60.1535 40.0277 59.9093 40.0706 59.6695L40.1471 59.2417Z"/>
</mask>
<path d="M40.1471 59.2417C40.1908 58.9973 40.0513 58.7031 39.8281 58.812V58.812C39.6992 58.875 39.5828 59.0069 39.4931 59.1918C39.4034 59.3766 39.3444 59.6064 39.3232 59.8531C39.302 60.0998 39.3195 60.3527 39.3737 60.5811C39.4278 60.8094 39.5162 61.0032 39.6281 61.139C39.74 61.2747 39.8705 61.3464 40.0038 61.3455C40.1371 61.3445 40.2673 61.2708 40.3786 61.1335C40.4186 61.0841 40.4556 61.0272 40.489 60.964C40.6085 60.7377 40.5051 60.4693 40.3068 60.3075V60.3075C40.1181 60.1535 40.0277 59.9093 40.0706 59.6695L40.1471 59.2417Z" stroke="#1E1E22" stroke-width="2" mask="url(#path-7-inside-4)"/>
<mask id="path-8-inside-5" fill="white">
<path d="M60.8318 39.1989C61.0065 39.0027 61.2855 38.9036 61.5126 39.0356C61.5684 39.068 61.6185 39.1033 61.662 39.1412C61.7925 39.2549 61.8582 39.3863 61.851 39.5195C61.8439 39.6527 61.7642 39.7819 61.6217 39.8914C61.4792 40.0009 61.2801 40.0859 61.0486 40.136C60.8171 40.1862 60.5632 40.1993 60.318 40.1739C60.0727 40.1484 59.8466 40.0854 59.6673 39.9926C59.488 39.8998 59.3633 39.7811 59.3082 39.6511V39.6511C59.2106 39.4205 59.516 39.292 59.7617 39.3407L60.1689 39.4215C60.4137 39.47 60.666 39.3854 60.8318 39.1989V39.1989Z"/>
</mask>
<path d="M60.8318 39.1989C61.0065 39.0027 61.2855 38.9036 61.5126 39.0356C61.5684 39.068 61.6185 39.1033 61.662 39.1412C61.7925 39.2549 61.8582 39.3863 61.851 39.5195C61.8439 39.6527 61.7642 39.7819 61.6217 39.8914C61.4792 40.0009 61.2801 40.0859 61.0486 40.136C60.8171 40.1862 60.5632 40.1993 60.318 40.1739C60.0727 40.1484 59.8466 40.0854 59.6673 39.9926C59.488 39.8998 59.3633 39.7811 59.3082 39.6511V39.6511C59.2106 39.4205 59.516 39.292 59.7617 39.3407L60.1689 39.4215C60.4137 39.47 60.666 39.3854 60.8318 39.1989V39.1989Z" stroke="#1E1E22" stroke-width="2" mask="url(#path-8-inside-5)"/>
<mask id="path-9-inside-6" fill="white">
<path d="M20.106 39.3549C20.3504 39.3111 20.6445 39.4507 20.5356 39.6738V39.6738C20.4727 39.8028 20.3407 39.9192 20.1559 40.0088C19.971 40.0985 19.7412 40.1575 19.4945 40.1788C19.2479 40.2 18.9949 40.1824 18.7666 40.1283C18.5383 40.0741 18.3444 39.9857 18.2087 39.8738C18.073 39.762 18.0012 39.6314 18.0022 39.4982C18.0032 39.3649 18.0768 39.2347 18.2142 39.1233C18.2636 39.0833 18.3205 39.0463 18.3837 39.013C18.61 38.8934 18.8784 38.9969 19.0402 39.1951V39.1951C19.1942 39.3838 19.4383 39.4743 19.6781 39.4314L20.106 39.3549Z"/>
</mask>
<path d="M20.106 39.3549C20.3504 39.3111 20.6445 39.4507 20.5356 39.6738V39.6738C20.4727 39.8028 20.3407 39.9192 20.1559 40.0088C19.971 40.0985 19.7412 40.1575 19.4945 40.1788C19.2479 40.2 18.9949 40.1824 18.7666 40.1283C18.5383 40.0741 18.3444 39.9857 18.2087 39.8738C18.073 39.762 18.0012 39.6314 18.0022 39.4982C18.0032 39.3649 18.0768 39.2347 18.2142 39.1233C18.2636 39.0833 18.3205 39.0463 18.3837 39.013C18.61 38.8934 18.8784 38.9969 19.0402 39.1951V39.1951C19.1942 39.3838 19.4383 39.4743 19.6781 39.4314L20.106 39.3549Z" stroke="#1E1E22" stroke-width="2" mask="url(#path-9-inside-6)"/>
<mask id="path-10-inside-7" fill="white">
<path d="M53.6853 53.8356C53.6707 54.0872 53.7927 54.3437 54.0363 54.4082C54.0961 54.4241 54.1541 54.434 54.2093 54.4379C54.3749 54.4493 54.5086 54.4047 54.5941 54.3095C54.6796 54.2143 54.7132 54.0726 54.6908 53.9017C54.6684 53.7308 54.591 53.5381 54.468 53.347C54.345 53.156 54.1817 52.9749 53.9981 52.8258C53.8144 52.6767 53.6184 52.5661 53.4338 52.5074C53.2492 52.4488 53.0841 52.4446 52.9586 52.4955V52.4955C52.736 52.5856 52.856 52.88 53.0556 53.0136L53.3867 53.235C53.5857 53.3681 53.6993 53.5967 53.6853 53.8356V53.8356Z"/>
</mask>
<path d="M53.6853 53.8356C53.6707 54.0872 53.7927 54.3437 54.0363 54.4082C54.0961 54.4241 54.1541 54.434 54.2093 54.4379C54.3749 54.4493 54.5086 54.4047 54.5941 54.3095C54.6796 54.2143 54.7132 54.0726 54.6908 53.9017C54.6684 53.7308 54.591 53.5381 54.468 53.347C54.345 53.156 54.1817 52.9749 53.9981 52.8258C53.8144 52.6767 53.6184 52.5661 53.4338 52.5074C53.2492 52.4488 53.0841 52.4446 52.9586 52.4955V52.4955C52.736 52.5856 52.856 52.88 53.0556 53.0136L53.3867 53.235C53.5857 53.3681 53.6993 53.5967 53.6853 53.8356V53.8356Z" stroke="#1E1E22" stroke-width="2" mask="url(#path-10-inside-7)"/>
<mask id="path-11-inside-8" fill="white">
<path d="M26.5092 26.4473C26.6453 26.6427 26.9395 26.7476 27.017 26.5224V26.5224C27.0618 26.3922 27.0512 26.2238 26.9866 26.0376C26.9221 25.8514 26.8062 25.6555 26.6533 25.4738C26.5004 25.2921 26.3169 25.1324 26.1253 25.0143C25.9337 24.8961 25.7423 24.8246 25.5743 24.8084C25.4064 24.7922 25.2692 24.8321 25.1794 24.9232C25.0897 25.0142 25.0513 25.1525 25.069 25.3212C25.0754 25.3819 25.0889 25.4455 25.1091 25.511C25.1815 25.7456 25.4337 25.8575 25.6779 25.8327V25.8327C25.9104 25.8092 26.1373 25.9135 26.2709 26.1052L26.5092 26.4473Z"/>
</mask>
<path d="M26.5092 26.4473C26.6453 26.6427 26.9395 26.7476 27.017 26.5224V26.5224C27.0618 26.3922 27.0512 26.2238 26.9866 26.0376C26.9221 25.8514 26.8062 25.6555 26.6533 25.4738C26.5004 25.2921 26.3169 25.1324 26.1253 25.0143C25.9337 24.8961 25.7423 24.8246 25.5743 24.8084C25.4064 24.7922 25.2692 24.8321 25.1794 24.9232C25.0897 25.0142 25.0513 25.1525 25.069 25.3212C25.0754 25.3819 25.0889 25.4455 25.1091 25.511C25.1815 25.7456 25.4337 25.8575 25.6779 25.8327V25.8327C25.9104 25.8092 26.1373 25.9135 26.2709 26.1052L26.5092 26.4473Z" stroke="#1E1E22" stroke-width="2" mask="url(#path-11-inside-8)"/>
<mask id="path-12-inside-9" fill="white">
<path d="M26.0715 54.071C26.0862 54.3226 25.9641 54.579 25.7205 54.6436C25.6607 54.6594 25.6028 54.6694 25.5476 54.6732C25.382 54.6846 25.2482 54.64 25.1627 54.5448C25.0772 54.4496 25.0436 54.3079 25.066 54.137C25.0884 53.9661 25.1658 53.7734 25.2888 53.5824C25.4118 53.3913 25.5751 53.2102 25.7588 53.0612C25.9424 52.9121 26.1385 52.8015 26.323 52.7428C26.5076 52.6841 26.6727 52.68 26.7982 52.7308V52.7308C27.0209 52.821 26.9009 53.1154 26.7012 53.2489L26.3702 53.4704C26.1712 53.6035 26.0576 53.832 26.0715 54.071V54.071Z"/>
</mask>
<path d="M26.0715 54.071C26.0862 54.3226 25.9641 54.579 25.7205 54.6436C25.6607 54.6594 25.6028 54.6694 25.5476 54.6732C25.382 54.6846 25.2482 54.64 25.1627 54.5448C25.0772 54.4496 25.0436 54.3079 25.066 54.137C25.0884 53.9661 25.1658 53.7734 25.2888 53.5824C25.4118 53.3913 25.5751 53.2102 25.7588 53.0612C25.9424 52.9121 26.1385 52.8015 26.323 52.7428C26.5076 52.6841 26.6727 52.68 26.7982 52.7308V52.7308C27.0209 52.821 26.9009 53.1154 26.7012 53.2489L26.3702 53.4704C26.1712 53.6035 26.0576 53.832 26.0715 54.071V54.071Z" stroke="#1E1E22" stroke-width="2" mask="url(#path-12-inside-9)"/>
<mask id="path-13-inside-10" fill="white">
<path d="M53.5885 26.3419C53.4523 26.5373 53.1582 26.6421 53.0807 26.417V26.417C53.0359 26.2868 53.0464 26.1183 53.111 25.9321C53.1756 25.7459 53.2914 25.55 53.4443 25.3683C53.5973 25.1866 53.7807 25.0269 53.9723 24.9088C54.1639 24.7906 54.3554 24.7191 54.5233 24.7029C54.6913 24.6868 54.8285 24.7266 54.9182 24.8177C55.008 24.9088 55.0463 25.0471 55.0287 25.2157C55.0223 25.2764 55.0088 25.34 54.9886 25.4056C54.9161 25.6401 54.664 25.752 54.4197 25.7273V25.7273C54.1873 25.7037 53.9603 25.808 53.8268 25.9997L53.5885 26.3419Z"/>
</mask>
<path d="M53.5885 26.3419C53.4523 26.5373 53.1582 26.6421 53.0807 26.417V26.417C53.0359 26.2868 53.0464 26.1183 53.111 25.9321C53.1756 25.7459 53.2914 25.55 53.4443 25.3683C53.5973 25.1866 53.7807 25.0269 53.9723 24.9088C54.1639 24.7906 54.3554 24.7191 54.5233 24.7029C54.6913 24.6868 54.8285 24.7266 54.9182 24.8177C55.008 24.9088 55.0463 25.0471 55.0287 25.2157C55.0223 25.2764 55.0088 25.34 54.9886 25.4056C54.9161 25.6401 54.664 25.752 54.4197 25.7273V25.7273C54.1873 25.7037 53.9603 25.808 53.8268 25.9997L53.5885 26.3419Z" stroke="#1E1E22" stroke-width="2" mask="url(#path-13-inside-10)"/>
</svg>
