<svg width="80" height="80" viewBox="0 0 80 80" fill="none" xmlns="http://www.w3.org/2000/svg">
<mask id="mask0" mask-type="alpha" maskUnits="userSpaceOnUse" x="6" y="31" width="43" height="43">
<path d="M29.5 62.0012C20 50.5012 12.5 45.5012 7 49.0012L24 32.0012C36.5 30.5012 48.5 44.001 47.5 57.5012L33 72.0012C33.8493 67.5567 33.4821 65.0408 31 60.5012L29.5 62.0012Z" fill="#C4C4C4" stroke="#757575"/>
</mask>
<g mask="url(#mask0)">
<path d="M29.5267 108.088C27.7524 97.7272 27.3097 40.1311 29.5267 6" stroke="#1E1E22" stroke-width="0.5"/>
<path d="M15.514 108.088C13.7397 97.7272 13.297 40.1311 15.514 6" stroke="#1E1E22" stroke-width="0.5"/>
<path d="M43.0384 108.088C41.2642 97.7272 40.8214 40.1311 43.0384 6" stroke="#1E1E22" stroke-width="0.5"/>
<path d="M9.00911 108.088C7.23486 97.7272 6.79211 40.1311 9.00909 6" stroke="#1E1E22" stroke-width="0.5"/>
<path d="M36.5326 108.088C34.7583 97.7272 34.3156 40.1311 36.5325 6" stroke="#1E1E22" stroke-width="0.5"/>
<path d="M22.5208 108.088C20.7466 97.7272 20.3038 40.1311 22.5208 6" stroke="#1E1E22" stroke-width="0.5"/>
<path d="M33.0296 108.088C31.2554 96.8633 30.8126 34.4675 33.0296 -2.50781" stroke="#1E1E22" stroke-width="0.5"/>
<path d="M19.0169 108.088C17.2427 96.8633 16.7999 34.4675 19.0169 -2.50781" stroke="#1E1E22" stroke-width="0.5"/>
<path d="M46.5413 108.088C44.7671 96.8633 44.3243 34.4675 46.5413 -2.50781" stroke="#1E1E22" stroke-width="0.5"/>
<path d="M12.512 108.088C10.7378 96.8633 10.295 34.4675 12.512 -2.50781" stroke="#1E1E22" stroke-width="0.5"/>
<path d="M40.0355 108.088C38.2612 96.8633 37.8185 34.4675 40.0355 -2.50781" stroke="#1E1E22" stroke-width="0.5"/>
<path d="M26.0238 108.088C24.2495 96.8633 23.8068 34.4675 26.0237 -2.50781" stroke="#1E1E22" stroke-width="0.5"/>
<path d="M31.0277 108.088C29.2534 97.7272 28.8107 40.1311 31.0276 6" stroke="#1E1E22" stroke-width="0.5"/>
<path d="M17.0159 108.088C15.2417 97.7272 14.799 40.1311 17.0159 6" stroke="#1E1E22" stroke-width="0.5"/>
<path d="M44.5394 108.088C42.7651 97.7272 42.3224 40.1311 44.5394 6" stroke="#1E1E22" stroke-width="0.5"/>
<path d="M11.0105 108.088C8.64485 97.7272 8.05452 40.1311 11.0105 6" stroke="#1E1E22" stroke-width="0.5"/>
<path d="M38.534 108.088C36.1683 97.7272 35.578 40.1311 38.5339 6" stroke="#1E1E22" stroke-width="0.5"/>
<path d="M24.5222 108.088C22.1566 97.7272 21.5662 40.1311 24.5222 6" stroke="#1E1E22" stroke-width="0.5"/>
<path d="M7.50759 108.088C5.14192 96.8633 4.5516 34.4675 7.50756 -2.50781" stroke="#1E1E22" stroke-width="0.5"/>
<path d="M35.031 108.088C32.6654 96.8633 32.075 34.4675 35.031 -2.50781" stroke="#1E1E22" stroke-width="0.5"/>
<path d="M21.0193 108.088C18.6536 96.8633 18.0633 34.4675 21.0193 -2.50781" stroke="#1E1E22" stroke-width="0.5"/>
<path d="M48.5427 108.088C46.1771 96.8633 45.5868 34.4675 48.5427 -2.50781" stroke="#1E1E22" stroke-width="0.5"/>
<path d="M14.5135 108.088C12.1478 96.8633 11.5575 34.4675 14.5134 -2.50781" stroke="#1E1E22" stroke-width="0.5"/>
<path d="M42.0369 108.088C39.6712 96.8633 39.0809 34.4675 42.0369 -2.50781" stroke="#1E1E22" stroke-width="0.5"/>
<path d="M28.0252 108.088C25.6595 96.8633 25.0692 34.4675 28.0251 -2.50781" stroke="#1E1E22" stroke-width="0.5"/>
</g>
<path d="M6 49.8331L24.0567 31.7765C32.5834 31.2749 40.1071 36.2906 45.3736 46.0713" stroke="#1E1E22" stroke-width="1.5"/>
<path d="M23.8057 31.7748C23.8057 31.5742 36.8466 14.8049 43.3671 6.44531" stroke="#1E1E22" stroke-width="1.5"/>
<path d="M29.5742 32.0244C31.434 28.9334 32.6539 27.5276 35.0915 25.5039" stroke="#1E1E22" stroke-width="1.5"/>
<path d="M44.8721 44.5645C51.4197 37.2566 56.0296 34.4119 63.1795 27.7617C56.7555 35.5372 53.097 39.8142 45.6244 46.0692" stroke="#1E1E22" stroke-width="1.5"/>
<path d="M47.3799 50.3329C49.8279 48.5236 51.1539 47.4702 52.8972 45.0664" stroke="#1E1E22" stroke-width="1.5"/>
<path d="M47.3799 56.8529C49.773 56.6586 66.9308 40.396 74.4649 31.5234" stroke="#1E1E22" stroke-width="1.5"/>
<path d="M29.5741 62.122L31.3296 60.3665C34.3493 66.1425 34.8408 69.3951 31.3297 73.6585C20.0444 76.9187 2.99059 56.1027 6.50171 49.5822C10.5145 45.5698 19.3695 48.7335 29.5741 62.122Z" stroke="#1E1E22" stroke-width="1.5"/>
<path d="M45.3732 46.3203L31.3291 60.3644C33.2361 64.1299 33.6643 66.6441 33.5862 71.6498L47.6303 56.8534C48.1153 51.9148 47.6029 49.599 45.3732 46.3203Z" stroke="#1E1E22" stroke-width="1.5"/>
<path d="M32.1321 51.2073C31.8284 51.9447 30.8264 52.389 29.786 51.9605C28.7457 51.532 28.3473 50.5108 28.651 49.7734C28.9547 49.0361 29.9567 48.5917 30.9971 49.0202C32.0374 49.4487 32.4358 50.4699 32.1321 51.2073Z" fill="#1E1E22" stroke="#1E1E22" stroke-width="1.5"/>
<rect x="27.2994" y="47.9844" width="0.250787" height="8.36908" transform="rotate(-45 27.2994 47.9844)" fill="#1E1E22" stroke="#1E1E22" stroke-width="0.250787"/>
</svg>
