<svg width="80" height="80" viewBox="0 0 80 80" fill="none" xmlns="http://www.w3.org/2000/svg">
<path d="M29.7146 11.7793L18.8607 15.9141C16.0964 30.4517 15.547 42.381 15.9318 68.9777C17.9044 70.4147 19.3007 70.5751 22.3064 69.4945V31.2474C24.3083 36.9739 24.8025 43.7183 22.9955 70.8728C30.7146 73.3934 36.9513 73.4571 37.2951 70.356L37.6397 41.0676M37.6397 41.0676C32.4277 32.5462 29.9464 27.6701 27.6472 18.4984L31.782 13.1576L37.6397 41.0676Z" stroke="#1E1E22"/>
<path d="M22.3059 29.1799C20.8753 24.4643 20.4003 21.7195 19.7217 16.7754" stroke="#1E1E22"/>
<path d="M26.2705 71.906C28.8011 56.3055 29.614 47.8754 28.5102 34.1758" stroke="#1E1E22"/>
<path d="M29.7155 15.7419L26.959 15.5696C32.2998 5.23244 42.12 5.74938 47.4608 14.7082L45.0488 15.3974" stroke="#1E1E22"/>
<path d="M31.7835 13.3289C31.3455 11.8745 31.2918 11.0773 31.7835 9.71094" stroke="#1E1E22"/>
<path d="M42.9812 13.5027C43.4191 12.0484 43.4729 11.2511 42.9812 9.88477" stroke="#1E1E22"/>
<path d="M47.1151 17.6368L42.9803 13.502C42.2506 21.1276 43.7708 25.1809 49.0102 32.1087C46.7664 26.4231 45.8143 23.242 47.1151 17.6368Z" stroke="#1E1E22"/>
<path d="M49.0103 32.1079L49.019 32.1306M49.019 32.1306C57.4971 46.09 66.9279 60.7071 63.1376 68.9767C58.4496 71.5668 54.906 70.9794 48.1489 68.9767C46.4049 52.1242 46.368 43.511 45.9092 27.8008L49.019 32.1306Z" stroke="#1E1E22"/>
<path d="M45.3936 11.9512L55.9029 15.5691C59.5548 29.7503 60.3657 37.7126 60.3823 51.9211M53.1463 38.1384L52.9741 30.2133L51.5958 36.2433" stroke="#1E1E22"/>
<path d="M53.1465 28.8353C53.3486 24.0251 53.7757 21.38 55.2139 16.7754" stroke="#1E1E22"/>
<rect x="34.8672" y="42.084" width="1.06741" height="1.06741" rx="0.533706" stroke="#1E1E22"/>
<rect x="34.8672" y="50.6992" width="1.06741" height="1.06741" rx="0.533706" stroke="#1E1E22"/>
<path d="M59.4094 70.3557C60.07 56.6651 58.0639 49.0559 46.1436 35.7266L48.0387 68.8051C52.3333 70.0925 54.7473 70.782 59.4094 70.3557Z" stroke="#1E1E22"/>
<mask id="mask0" mask-type="alpha" maskUnits="userSpaceOnUse" x="46" y="35" width="14" height="36">
<path d="M59.5217 70.5276C60.1823 56.837 58.1762 49.2278 46.2559 35.8984L48.151 68.977C52.4456 70.2644 54.8596 70.9539 59.5217 70.5276Z" fill="#C4C4C4"/>
</mask>
<g mask="url(#mask0)">
<path d="M50.8986 41.4905L52.2918 39.9499L53.1781 41.8285L51.7849 43.3691L50.8986 41.4905Z" stroke="#1E1E22" stroke-width="0.5"/>
<path d="M48.3419 58.7347L49.7351 57.194L50.6214 59.0726L49.2282 60.6133L48.3419 58.7347Z" stroke="#1E1E22" stroke-width="0.5"/>
<path d="M49.6202 50.1136L51.0135 48.5729L51.8998 50.4515L50.5066 51.9922L49.6202 50.1136Z" stroke="#1E1E22" stroke-width="0.5"/>
<path d="M47.0636 67.3558L48.4568 65.8151L49.3431 67.6937L47.9499 69.2344L47.0636 67.3558Z" stroke="#1E1E22" stroke-width="0.5"/>
<path d="M50.2599 45.8011L51.6531 44.2604L52.5394 46.139L51.1462 47.6797L50.2599 45.8011Z" stroke="#1E1E22" stroke-width="0.5"/>
<path d="M47.7033 63.0452L49.0965 61.5046L49.9828 63.3832L48.5896 64.9238L47.7033 63.0452Z" stroke="#1E1E22" stroke-width="0.5"/>
<path d="M48.9816 54.4241L50.3748 52.8835L51.2611 54.7621L49.8679 56.3027L48.9816 54.4241Z" stroke="#1E1E22" stroke-width="0.5"/>
<path d="M46.4249 71.6683L47.8181 70.1276L48.7045 72.0062L47.3112 73.5469L46.4249 71.6683Z" stroke="#1E1E22" stroke-width="0.5"/>
<path d="M59.837 60.4398L61.2303 58.8991L62.1166 60.7777L60.7233 62.3184L59.837 60.4398Z" stroke="#1E1E22" stroke-width="0.5"/>
<path d="M58.5587 69.0609L59.9519 67.5202L60.8382 69.3988L59.445 70.9395L58.5587 69.0609Z" stroke="#1E1E22" stroke-width="0.5"/>
<path d="M59.1984 64.7503L60.5916 63.2096L61.4779 65.0882L60.0847 66.6289L59.1984 64.7503Z" stroke="#1E1E22" stroke-width="0.5"/>
<path d="M56.6466 42.3441L58.0398 40.8034L58.9261 42.682L57.5329 44.2227L56.6466 42.3441Z" stroke="#1E1E22" stroke-width="0.5"/>
<path d="M54.09 59.5862L55.4832 58.0456L56.3695 59.9242L54.9763 61.4648L54.09 59.5862Z" stroke="#1E1E22" stroke-width="0.5"/>
<path d="M55.3683 50.9651L56.7615 49.4245L57.6478 51.3031L56.2546 52.8438L55.3683 50.9651Z" stroke="#1E1E22" stroke-width="0.5"/>
<path d="M52.8117 68.2093L54.2049 66.6686L55.0912 68.5472L53.698 70.0879L52.8117 68.2093Z" stroke="#1E1E22" stroke-width="0.5"/>
<path d="M56.007 46.6546L57.4002 45.1139L58.2865 46.9925L56.8933 48.5332L56.007 46.6546Z" stroke="#1E1E22" stroke-width="0.5"/>
<path d="M53.4503 63.8987L54.8435 62.3581L55.7298 64.2367L54.3366 65.7773L53.4503 63.8987Z" stroke="#1E1E22" stroke-width="0.5"/>
<path d="M54.7286 55.2757L56.1219 53.735L57.0082 55.6136L55.6149 57.1543L54.7286 55.2757Z" stroke="#1E1E22" stroke-width="0.5"/>
<path d="M52.172 72.5198L53.5652 70.9792L54.4515 72.8578L53.0583 74.3984L52.172 72.5198Z" stroke="#1E1E22" stroke-width="0.5"/>
<path d="M45.1505 40.639L46.5437 39.0983L47.43 40.9769L46.0368 42.5176L45.1505 40.639Z" stroke="#1E1E22" stroke-width="0.5"/>
<path d="M43.8722 49.2601L45.2654 47.7194L46.1517 49.598L44.7585 51.1387L43.8722 49.2601Z" stroke="#1E1E22" stroke-width="0.5"/>
<path d="M44.5118 44.9495L45.9051 43.4089L46.7914 45.2875L45.3982 46.8281L44.5118 44.9495Z" stroke="#1E1E22" stroke-width="0.5"/>
<path d="M53.7726 41.9163L55.1658 40.3756L56.0521 42.2543L54.6589 43.7949L53.7726 41.9163Z" stroke="#1E1E22" stroke-width="0.5"/>
<path d="M51.2159 59.1605L52.6092 57.6198L53.4955 59.4984L52.1023 61.0391L51.2159 59.1605Z" stroke="#1E1E22" stroke-width="0.5"/>
<path d="M52.4943 50.5394L53.8875 48.9987L54.7738 50.8773L53.3806 52.418L52.4943 50.5394Z" stroke="#1E1E22" stroke-width="0.5"/>
<path d="M49.9376 67.7835L51.3308 66.2428L52.2171 68.1214L50.8239 69.6621L49.9376 67.7835Z" stroke="#1E1E22" stroke-width="0.5"/>
<path d="M53.1329 46.2288L54.5262 44.6881L55.4125 46.5668L54.0192 48.1074L53.1329 46.2288Z" stroke="#1E1E22" stroke-width="0.5"/>
<path d="M50.5763 63.471L51.9695 61.9303L52.8558 63.8089L51.4626 65.3496L50.5763 63.471Z" stroke="#1E1E22" stroke-width="0.5"/>
<path d="M51.8546 54.8499L53.2478 53.3092L54.1341 55.1879L52.7409 56.7285L51.8546 54.8499Z" stroke="#1E1E22" stroke-width="0.5"/>
<path d="M49.298 72.0941L50.6912 70.5534L51.5775 72.432L50.1843 73.9727L49.298 72.0941Z" stroke="#1E1E22" stroke-width="0.5"/>
<path d="M59.5197 42.7698L60.9129 41.2292L61.7992 43.1078L60.406 44.6484L59.5197 42.7698Z" stroke="#1E1E22" stroke-width="0.5"/>
<path d="M56.964 60.014L58.3572 58.4733L59.2435 60.3519L57.8503 61.8926L56.964 60.014Z" stroke="#1E1E22" stroke-width="0.5"/>
<path d="M58.2413 51.3909L59.6346 49.8503L60.5209 51.7289L59.1276 53.2695L58.2413 51.3909Z" stroke="#1E1E22" stroke-width="0.5"/>
<path d="M55.6857 68.6351L57.0789 67.0944L57.9652 68.973L56.572 70.5137L55.6857 68.6351Z" stroke="#1E1E22" stroke-width="0.5"/>
<path d="M58.881 47.0804L60.2742 45.5397L61.1605 47.4183L59.7673 48.959L58.881 47.0804Z" stroke="#1E1E22" stroke-width="0.5"/>
<path d="M56.3243 64.3245L57.7176 62.7839L58.6039 64.6625L57.2107 66.2031L56.3243 64.3245Z" stroke="#1E1E22" stroke-width="0.5"/>
<path d="M57.6027 55.7015L58.9959 54.1608L59.8822 56.0394L58.489 57.5801L57.6027 55.7015Z" stroke="#1E1E22" stroke-width="0.5"/>
<path d="M48.0245 41.0648L49.4178 39.5241L50.3041 41.4027L48.9108 42.9434L48.0245 41.0648Z" stroke="#1E1E22" stroke-width="0.5"/>
<path d="M45.4679 58.3089L46.8611 56.7682L47.7474 58.6468L46.3542 60.1875L45.4679 58.3089Z" stroke="#1E1E22" stroke-width="0.5"/>
<path d="M46.7462 49.6859L48.1394 48.1452L49.0257 50.0238L47.6325 51.5645L46.7462 49.6859Z" stroke="#1E1E22" stroke-width="0.5"/>
<path d="M44.1896 66.93L45.5828 65.3893L46.4691 67.2679L45.0759 68.8086L44.1896 66.93Z" stroke="#1E1E22" stroke-width="0.5"/>
<path d="M47.3859 45.3753L48.7791 43.8346L49.6654 45.7132L48.2722 47.2539L47.3859 45.3753Z" stroke="#1E1E22" stroke-width="0.5"/>
<path d="M44.8292 62.6194L46.2224 61.0788L47.1087 62.9574L45.7155 64.4981L44.8292 62.6194Z" stroke="#1E1E22" stroke-width="0.5"/>
<path d="M46.1075 53.9984L47.5008 52.4577L48.3871 54.3363L46.9939 55.877L46.1075 53.9984Z" stroke="#1E1E22" stroke-width="0.5"/>
<path d="M43.5509 71.2405L44.9441 69.6999L45.8304 71.5785L44.4372 73.1191L43.5509 71.2405Z" stroke="#1E1E22" stroke-width="0.5"/>
</g>
</svg>
