<svg width="80" height="80" viewBox="0 0 80 80" fill="none" xmlns="http://www.w3.org/2000/svg">
<path d="M29.7146 11.7793L18.8607 15.9141C16.0964 30.4517 15.547 42.381 15.9318 68.9777C17.9044 70.4147 19.3007 70.5751 22.3064 69.4945V31.2474C24.3083 36.9739 24.8025 43.7183 22.9955 70.8728C30.7146 73.3934 36.9513 73.4571 37.2951 70.356L37.6397 41.0676M37.6397 41.0676C32.4277 32.5462 29.9464 27.6701 27.6472 18.4984L31.782 13.1576L37.6397 41.0676Z" stroke="#1E1E22"/>
<path d="M22.3059 29.1799C20.8753 24.4643 20.4003 21.7195 19.7217 16.7754" stroke="#1E1E22"/>
<path d="M26.2705 71.906C28.8011 56.3055 29.614 47.8754 28.5102 34.1758" stroke="#1E1E22"/>
<path d="M29.7155 15.7419L26.959 15.5696C32.2998 5.23244 42.12 5.74938 47.4608 14.7082L45.0488 15.3974" stroke="#1E1E22"/>
<path d="M31.7835 13.3289C31.3455 11.8745 31.2918 11.0773 31.7835 9.71094" stroke="#1E1E22"/>
<path d="M42.9812 13.5027C43.4191 12.0484 43.4729 11.2511 42.9812 9.88477" stroke="#1E1E22"/>
<path d="M47.1151 17.6368L42.9803 13.502C42.2506 21.1276 43.7708 25.1809 49.0102 32.1087C46.7664 26.4231 45.8143 23.242 47.1151 17.6368Z" stroke="#1E1E22"/>
<path d="M49.0103 32.1079L49.019 32.1306M49.019 32.1306C57.4971 46.09 66.9279 60.7071 63.1376 68.9767C58.4496 71.5668 54.906 70.9794 48.1489 68.9767C46.4049 52.1242 46.368 43.511 45.9092 27.8008L49.019 32.1306Z" stroke="#1E1E22"/>
<path d="M45.3936 11.9512L55.9029 15.5691C59.5548 29.7503 60.3657 37.7126 60.3823 51.9211M53.1463 38.1384L52.9741 30.2133L51.5958 36.2433" stroke="#1E1E22"/>
<path d="M53.1465 28.8353C53.3486 24.0251 53.7757 21.38 55.2139 16.7754" stroke="#1E1E22"/>
<rect x="34.8672" y="42.084" width="1.06741" height="1.06741" rx="0.533706" stroke="#1E1E22"/>
<rect x="34.8672" y="50.6992" width="1.06741" height="1.06741" rx="0.533706" stroke="#1E1E22"/>
<path d="M59.4094 70.3557C60.07 56.6651 58.0639 49.0559 46.1436 35.7266L48.0387 68.8051C52.3333 70.0925 54.7473 70.782 59.4094 70.3557Z" stroke="#1E1E22"/>
<path d="M43 9.5C41.5 16 38 20 33.5 21.5" stroke="#1E1E22"/>
<path d="M39 18C40.4125 19.8091 41.3026 20.5465 43.5 20" stroke="#1E1E22"/>
<path d="M39 18.5C42.2177 38.1269 41.6508 51.9001 41 67.5" stroke="#1E1E22"/>
</svg>
