<svg width="80" height="80" viewBox="0 0 80 80" fill="none" xmlns="http://www.w3.org/2000/svg">
<rect x="11.1953" y="42.5" width="4" height="57" transform="rotate(-90 11.1953 42.5)" fill="#1E1E22"/>
<circle cx="39.3473" cy="40.1683" r="19.3473" transform="rotate(-90 39.3473 40.1683)" fill="white"/>
<circle cx="39.3473" cy="40.1683" r="19.3473" transform="rotate(-90 39.3473 40.1683)" fill="white"/>
<ellipse cx="32.8949" cy="40.4567" rx="2.24252" ry="2.80315" transform="rotate(-90 32.8949 40.4567)" fill="white"/>
<ellipse cx="39.0628" cy="46.6187" rx="2.80315" ry="2.24252" transform="rotate(-90 39.0628 46.6187)" fill="white"/>
<circle cx="45.7894" cy="40.4567" r="2.24252" transform="rotate(-90 45.7894 40.4567)" fill="white"/>
<circle cx="39.0628" cy="33.7272" r="2.24252" transform="rotate(-90 39.0628 33.7272)" fill="white"/>
<path d="M58.6949 40.1683C58.6949 50.8365 50.0156 59.5156 39.3473 59.5156C28.6791 59.5156 20 50.8365 20 40.1683C20 29.5001 28.6791 20.821 39.3473 20.821C50.0156 20.821 58.6949 29.5003 58.6949 40.1683ZM20.9698 40.1683C20.9698 50.3018 29.2141 58.546 39.3473 58.546C49.4808 58.546 57.725 50.302 57.725 40.1685C57.725 30.035 49.4808 21.791 39.3473 21.791C29.2141 21.7908 20.9698 30.035 20.9698 40.1683ZM53.8096 40.1683C53.8096 48.1427 47.3219 54.6303 39.3473 54.6303C31.3731 54.6303 24.8853 48.1427 24.8853 40.1683C24.8853 32.1939 31.3729 25.7062 39.3473 25.7062C47.3217 25.7062 53.8096 32.1941 53.8096 40.1683ZM25.8553 40.1683C25.8553 47.6079 31.9079 53.6605 39.3475 53.6605C46.7872 53.6605 52.8399 47.6079 52.8399 40.1683C52.8399 32.7287 46.7874 26.6761 39.3475 26.6761C31.9079 26.6761 25.8553 32.7287 25.8553 40.1683ZM48.8184 40.1683C48.8184 41.7901 47.499 43.1094 45.8773 43.1094C44.2555 43.1094 42.9359 41.7901 42.9359 40.1683C42.9359 38.5465 44.2555 37.2272 45.8773 37.2272C47.499 37.2272 48.8184 38.5467 48.8184 40.1683ZM43.9058 40.1683C43.9058 41.2553 44.7903 42.1396 45.8773 42.1396C46.9643 42.1396 47.8486 41.2553 47.8486 40.1683C47.8486 39.0813 46.9641 38.197 45.8773 38.197C44.7903 38.197 43.9058 39.0813 43.9058 40.1683ZM42.2885 33.6386C42.2885 35.2603 40.9691 36.5797 39.3473 36.5797C37.7256 36.5797 36.4062 35.2603 36.4062 33.6386C36.4062 32.0168 37.7256 30.6972 39.3473 30.6972C40.9691 30.6972 42.2885 32.0168 42.2885 33.6386ZM37.376 33.6386C37.376 34.7256 38.2605 35.6099 39.3473 35.6099C40.4341 35.6099 41.3186 34.7256 41.3186 33.6386C41.3186 32.5516 40.4341 31.6671 39.3473 31.6671C38.2605 31.6671 37.376 32.5516 37.376 33.6386ZM42.2885 46.698C42.2885 48.3198 40.9691 49.6392 39.3473 49.6392C37.7256 49.6392 36.4062 48.3198 36.4062 46.698C36.4062 45.0763 37.7256 43.7569 39.3473 43.7569C40.9691 43.7569 42.2885 45.0765 42.2885 46.698ZM37.376 46.698C37.376 47.785 38.2605 48.6693 39.3473 48.6693C40.4341 48.6693 41.3186 47.785 41.3186 46.698C41.3186 45.611 40.4341 44.7267 39.3473 44.7267C38.2605 44.7267 37.376 45.611 37.376 46.698ZM35.7587 40.1683C35.7587 41.7901 34.4394 43.1094 32.8176 43.1094C31.1958 43.1094 29.8765 41.7901 29.8765 40.1683C29.8765 38.5465 31.1958 37.2272 32.8176 37.2272C34.4394 37.2272 35.7587 38.5467 35.7587 40.1683ZM30.8463 40.1683C30.8463 41.2553 31.7308 42.1396 32.8176 42.1396C33.9044 42.1396 34.7889 41.2553 34.7889 40.1683C34.7889 39.0813 33.9044 38.197 32.8176 38.197C31.7308 38.197 30.8463 39.0813 30.8463 40.1683Z" fill="#1E1E22"/>
</svg>
