<svg width="106" height="62" viewBox="0 0 106 62" fill="none" xmlns="http://www.w3.org/2000/svg">
<path d="M90.2691 13.6207C87.9806 -1.41795 23.5768 -1.74493 17.3652 13.6207L23.5768 29.313C32.1857 32.3643 49.4691 38.5976 49.7306 39.1207C49.9922 39.6438 75.9934 34.1079 88.9614 31.2745L90.2691 13.6207Z" fill="white" stroke="#1E1E22" stroke-width="3"/>
<mask id="mask0" mask-type="alpha" maskUnits="userSpaceOnUse" x="16" y="1" width="77" height="41">
<path d="M90.9039 14.4019C88.6154 -0.6367 24.2115 -0.963683 18 14.4019L24.2115 30.0942C32.8205 33.1455 50.1038 39.3789 50.3654 39.9019C50.6269 40.425 76.6282 34.8891 89.5962 32.0558L90.9039 14.4019Z" fill="white" stroke="#757575" stroke-width="3"/>
</mask>
<g mask="url(#mask0)">
<path d="M19.5013 86.5962C17.727 76.235 17.2843 18.6389 19.5013 -15.4922" stroke="#1E1E22" stroke-width="0.5"/>
<path d="M74.5492 86.5962C72.7749 76.235 72.3322 18.6389 74.5491 -15.4922" stroke="#1E1E22" stroke-width="0.5"/>
<path d="M47.0257 86.5962C45.2515 76.235 44.8087 18.6389 47.0257 -15.4922" stroke="#1E1E22" stroke-width="0.5"/>
<path d="M33.013 86.5962C31.2388 76.235 30.796 18.6389 33.013 -15.4922" stroke="#1E1E22" stroke-width="0.5"/>
<path d="M88.0609 86.5962C86.2866 76.235 85.8439 18.6389 88.0608 -15.4922" stroke="#1E1E22" stroke-width="0.5"/>
<path d="M60.5374 86.5962C58.7632 76.235 58.3204 18.6389 60.5374 -15.4922" stroke="#1E1E22" stroke-width="0.5"/>
<path d="M26.5081 86.5962C24.7339 76.235 24.2911 18.6389 26.5081 -15.4922" stroke="#1E1E22" stroke-width="0.5"/>
<path d="M81.555 86.5962C79.7808 76.235 79.338 18.6389 81.555 -15.4922" stroke="#1E1E22" stroke-width="0.5"/>
<path d="M54.0316 86.5962C52.2573 76.235 51.8146 18.6389 54.0316 -15.4922" stroke="#1E1E22" stroke-width="0.5"/>
<path d="M40.0199 86.5962C38.2456 76.235 37.8029 18.6389 40.0198 -15.4922" stroke="#1E1E22" stroke-width="0.5"/>
<path d="M67.5433 86.5962C65.769 76.235 65.3263 18.6389 67.5433 -15.4922" stroke="#1E1E22" stroke-width="0.5"/>
<path d="M23.0042 86.5958C21.23 75.3711 20.7872 12.9753 23.0042 -24" stroke="#1E1E22" stroke-width="0.5"/>
<path d="M78.0521 86.5958C76.2778 75.3711 75.8351 12.9753 78.0521 -24" stroke="#1E1E22" stroke-width="0.5"/>
<path d="M50.5286 86.5958C48.7544 75.3711 48.3116 12.9753 50.5286 -24" stroke="#1E1E22" stroke-width="0.5"/>
<path d="M36.5159 86.5958C34.7417 75.3711 34.299 12.9753 36.5159 -24" stroke="#1E1E22" stroke-width="0.5"/>
<path d="M64.0404 86.5958C62.2661 75.3711 61.8234 12.9753 64.0403 -24" stroke="#1E1E22" stroke-width="0.5"/>
<path d="M30.0111 86.5958C28.2368 75.3711 27.7941 12.9753 30.011 -24" stroke="#1E1E22" stroke-width="0.5"/>
<path d="M85.0589 86.5958C83.2847 75.3711 82.8419 12.9753 85.0589 -24" stroke="#1E1E22" stroke-width="0.5"/>
<path d="M57.5345 86.5958C55.7602 75.3711 55.3175 12.9753 57.5345 -24" stroke="#1E1E22" stroke-width="0.5"/>
<path d="M43.5228 86.5958C41.7485 75.3711 41.3058 12.9753 43.5228 -24" stroke="#1E1E22" stroke-width="0.5"/>
<path d="M71.0462 86.5958C69.272 75.3711 68.8292 12.9753 71.0462 -24" stroke="#1E1E22" stroke-width="0.5"/>
<path d="M21.0033 86.5962C19.229 76.235 18.7863 18.6389 21.0032 -15.4922" stroke="#1E1E22" stroke-width="0.5"/>
<path d="M76.0511 86.5962C74.2768 76.235 73.8341 18.6389 76.0511 -15.4922" stroke="#1E1E22" stroke-width="0.5"/>
<path d="M48.5267 86.5962C46.7524 76.235 46.3097 18.6389 48.5267 -15.4922" stroke="#1E1E22" stroke-width="0.5"/>
<path d="M34.515 86.5962C32.7407 76.235 32.298 18.6389 34.515 -15.4922" stroke="#1E1E22" stroke-width="0.5"/>
<path d="M89.5628 86.5962C87.7886 76.235 87.3458 18.6389 89.5628 -15.4922" stroke="#1E1E22" stroke-width="0.5"/>
<path d="M62.0384 86.5962C60.2642 76.235 59.8214 18.6389 62.0384 -15.4922" stroke="#1E1E22" stroke-width="0.5"/>
<path d="M28.5095 86.5962C26.1439 76.235 25.5535 18.6389 28.5095 -15.4922" stroke="#1E1E22" stroke-width="0.5"/>
<path d="M83.5574 86.5962C81.1917 76.235 80.6014 18.6389 83.5574 -15.4922" stroke="#1E1E22" stroke-width="0.5"/>
<path d="M56.033 86.5962C53.6673 76.235 53.077 18.6389 56.033 -15.4922" stroke="#1E1E22" stroke-width="0.5"/>
<path d="M42.0213 86.5962C39.6556 76.235 39.0653 18.6389 42.0212 -15.4922" stroke="#1E1E22" stroke-width="0.5"/>
<path d="M69.5447 86.5962C67.179 76.235 66.5887 18.6389 69.5447 -15.4922" stroke="#1E1E22" stroke-width="0.5"/>
<path d="M25.0066 86.5958C22.6409 75.3711 22.0506 12.9753 25.0066 -24" stroke="#1E1E22" stroke-width="0.5"/>
<path d="M80.0545 86.5958C77.6888 75.3711 77.0985 12.9753 80.0544 -24" stroke="#1E1E22" stroke-width="0.5"/>
<path d="M52.5301 86.5958C50.1644 75.3711 49.5741 12.9753 52.53 -24" stroke="#1E1E22" stroke-width="0.5"/>
<path d="M38.5183 86.5958C36.1527 75.3711 35.5623 12.9753 38.5183 -24" stroke="#1E1E22" stroke-width="0.5"/>
<path d="M66.0418 86.5958C63.6761 75.3711 63.0858 12.9753 66.0417 -24" stroke="#1E1E22" stroke-width="0.5"/>
<path d="M32.0125 86.5958C29.6468 75.3711 29.0565 12.9753 32.0124 -24" stroke="#1E1E22" stroke-width="0.5"/>
<path d="M87.0603 86.5958C84.6947 75.3711 84.1043 12.9753 87.0603 -24" stroke="#1E1E22" stroke-width="0.5"/>
<path d="M59.5359 86.5958C57.1702 75.3711 56.5799 12.9753 59.5359 -24" stroke="#1E1E22" stroke-width="0.5"/>
<path d="M45.5242 86.5958C43.1585 75.3711 42.5682 12.9753 45.5242 -24" stroke="#1E1E22" stroke-width="0.5"/>
<path d="M73.0476 86.5958C70.682 75.3711 70.0916 12.9753 73.0476 -24" stroke="#1E1E22" stroke-width="0.5"/>
</g>
<path d="M24.7206 25.9084L18.9965 11.4474C19.694 10.1252 21.0061 8.84501 22.9656 7.65584C25.1659 6.32053 28.0568 5.17752 31.4499 4.25188C38.2327 2.40155 46.7963 1.48012 55.2847 1.50034C63.7771 1.52056 72.0843 2.48304 78.3614 4.33539C81.5047 5.26299 84.0589 6.39075 85.8643 7.67597C87.6036 8.91409 88.5124 10.1957 88.7596 11.474L87.5482 27.8288C81.0993 29.234 71.9791 31.1886 64.2797 32.7681C60.2053 33.604 56.538 34.3328 53.8772 34.8196C52.5436 35.0635 51.4806 35.2434 50.7511 35.3457C50.5206 35.3781 50.3362 35.4008 50.1943 35.4156C50.1915 35.4141 50.1886 35.4126 50.1858 35.4111C49.997 35.312 49.7567 35.2004 49.4892 35.0826C48.9472 34.844 48.195 34.5371 47.2941 34.1822C45.4872 33.4706 43.0211 32.5426 40.3036 31.5391C35.1297 29.6284 29.0129 27.4323 24.7206 25.9084Z" stroke="#1E1E22" stroke-width="3"/>
<path d="M87.0003 59.716L56.2695 32.9084C73.5802 25.25 82.7736 20.9555 90.2695 13.293L104 39.1199C98.9655 49.8811 94.9175 53.8387 87.0003 59.716Z" fill="white" stroke="#1E1E22" stroke-width="3"/>
<path d="M73.2689 47.9501C57.2651 54.7552 48.4071 53.9595 32.7305 45.6617V40.7578L49.4035 32.2578C53.575 32.6184 55.8627 32.9097 59.8651 33.5655L73.2689 47.9501Z" fill="white" stroke="#1E1E22" stroke-width="3"/>
<path d="M16.0577 57.4288L51.6923 32.2557C36.6539 27.0249 28.633 22.4771 17.3654 13.6211C10.5632 22.4003 7.30267 28.2284 2 39.448C5.77475 49.3058 8.90031 53.1844 16.0577 57.4288Z" fill="white" stroke="#1E1E22" stroke-width="3"/>
<mask id="mask1" mask-type="alpha" maskUnits="userSpaceOnUse" x="2" y="13" width="50" height="44">
<path d="M16.0577 56.8077L51.6923 31.6346C36.6539 26.4038 28.633 21.856 17.3654 13C10.5632 21.7792 7.30267 27.6073 2 38.8269C5.77475 48.6847 8.90031 52.5633 16.0577 56.8077Z" fill="white"/>
</mask>
<g mask="url(#mask1)">
<path d="M48.5492 82.5962C46.7749 72.235 46.3322 14.6389 48.5491 -19.4922" stroke="#1E1E22" stroke-width="0.5"/>
<path d="M21.0257 82.5962C19.2515 72.235 18.8087 14.6389 21.0257 -19.4922" stroke="#1E1E22" stroke-width="0.5"/>
<path d="M7.01302 82.5962C5.23876 72.235 4.79602 14.6389 7.013 -19.4922" stroke="#1E1E22" stroke-width="0.5"/>
<path d="M34.5374 82.5962C32.7632 72.235 32.3204 14.6389 34.5374 -19.4922" stroke="#1E1E22" stroke-width="0.5"/>
<path d="M28.0316 82.5962C26.2573 72.235 25.8146 14.6389 28.0316 -19.4922" stroke="#1E1E22" stroke-width="0.5"/>
<path d="M14.0199 82.5962C12.2456 72.235 11.8029 14.6389 14.0198 -19.4922" stroke="#1E1E22" stroke-width="0.5"/>
<path d="M41.5433 82.5962C39.769 72.235 39.3263 14.6389 41.5433 -19.4922" stroke="#1E1E22" stroke-width="0.5"/>
<path d="M52.0521 82.5958C50.2778 71.3711 49.8351 8.97531 52.0521 -28" stroke="#1E1E22" stroke-width="0.5"/>
<path d="M24.5286 82.5958C22.7544 71.3711 22.3116 8.97531 24.5286 -28" stroke="#1E1E22" stroke-width="0.5"/>
<path d="M10.5159 82.5958C8.74169 71.3711 8.29895 8.97531 10.5159 -28" stroke="#1E1E22" stroke-width="0.5"/>
<path d="M38.0404 82.5958C36.2661 71.3711 35.8234 8.97531 38.0403 -28" stroke="#1E1E22" stroke-width="0.5"/>
<path d="M4.01107 82.5958C2.23681 71.3711 1.79407 8.97531 4.01104 -28" stroke="#1E1E22" stroke-width="0.5"/>
<path d="M31.5345 82.5958C29.7602 71.3711 29.3175 8.97531 31.5345 -28" stroke="#1E1E22" stroke-width="0.5"/>
<path d="M17.5228 82.5958C15.7485 71.3711 15.3058 8.97531 17.5228 -28" stroke="#1E1E22" stroke-width="0.5"/>
<path d="M45.0462 82.5958C43.272 71.3711 42.8292 8.97531 45.0462 -28" stroke="#1E1E22" stroke-width="0.5"/>
<path d="M50.0511 82.5962C48.2768 72.235 47.8341 14.6389 50.0511 -19.4922" stroke="#1E1E22" stroke-width="0.5"/>
<path d="M22.5267 82.5962C20.7524 72.235 20.3097 14.6389 22.5267 -19.4922" stroke="#1E1E22" stroke-width="0.5"/>
<path d="M8.51497 82.5962C6.74072 72.235 6.29797 14.6389 8.51495 -19.4922" stroke="#1E1E22" stroke-width="0.5"/>
<path d="M36.0384 82.5962C34.2642 72.235 33.8214 14.6389 36.0384 -19.4922" stroke="#1E1E22" stroke-width="0.5"/>
<path d="M2.50955 82.5962C0.14387 72.235 -0.446452 14.6389 2.50952 -19.4922" stroke="#1E1E22" stroke-width="0.5"/>
<path d="M30.033 82.5962C27.6673 72.235 27.077 14.6389 30.033 -19.4922" stroke="#1E1E22" stroke-width="0.5"/>
<path d="M16.0213 82.5962C13.6556 72.235 13.0653 14.6389 16.0212 -19.4922" stroke="#1E1E22" stroke-width="0.5"/>
<path d="M43.5447 82.5962C41.179 72.235 40.5887 14.6389 43.5447 -19.4922" stroke="#1E1E22" stroke-width="0.5"/>
<path d="M26.5301 82.5958C24.1644 71.3711 23.5741 8.97531 26.53 -28" stroke="#1E1E22" stroke-width="0.5"/>
<path d="M12.5183 82.5958C10.1527 71.3711 9.56234 8.97531 12.5183 -28" stroke="#1E1E22" stroke-width="0.5"/>
<path d="M40.0418 82.5958C37.6761 71.3711 37.0858 8.97531 40.0417 -28" stroke="#1E1E22" stroke-width="0.5"/>
<path d="M6.01248 82.5958C3.6468 71.3711 3.05648 8.97531 6.01245 -28" stroke="#1E1E22" stroke-width="0.5"/>
<path d="M33.5359 82.5958C31.1702 71.3711 30.5799 8.97531 33.5359 -28" stroke="#1E1E22" stroke-width="0.5"/>
<path d="M19.5242 82.5958C17.1585 71.3711 16.5682 8.97531 19.5242 -28" stroke="#1E1E22" stroke-width="0.5"/>
<path d="M47.0476 82.5958C44.682 71.3711 44.0916 8.97531 47.0476 -28" stroke="#1E1E22" stroke-width="0.5"/>
</g>
<path d="M16.0577 57.4288L51.6923 32.2557C36.6539 27.0249 28.633 22.4771 17.3654 13.6211C10.5632 22.4003 7.30267 28.2284 2 39.448C5.77475 49.3058 8.90031 53.1844 16.0577 57.4288Z" stroke="#1E1E22" stroke-width="3"/>
<mask id="mask2" mask-type="alpha" maskUnits="userSpaceOnUse" x="57" y="14" width="48" height="47">
<path d="M87.7308 60.4231L57 33.6154C74.3106 25.9571 83.5041 21.6625 91 14L104.731 39.8269C99.696 50.5882 95.648 54.5458 87.7308 60.4231Z" fill="white"/>
</mask>
<g mask="url(#mask2)">
<path d="M105.549 83.5962C103.775 73.235 103.332 15.6389 105.549 -18.4922" stroke="#1E1E22" stroke-width="0.5"/>
<path d="M78.0257 83.5962C76.2515 73.235 75.8087 15.6389 78.0257 -18.4922" stroke="#1E1E22" stroke-width="0.5"/>
<path d="M64.013 83.5962C62.2388 73.235 61.796 15.6389 64.013 -18.4922" stroke="#1E1E22" stroke-width="0.5"/>
<path d="M91.5374 83.5962C89.7632 73.235 89.3204 15.6389 91.5374 -18.4922" stroke="#1E1E22" stroke-width="0.5"/>
<path d="M57.5081 83.5962C55.7339 73.235 55.2911 15.6389 57.5081 -18.4922" stroke="#1E1E22" stroke-width="0.5"/>
<path d="M85.0316 83.5962C83.2573 73.235 82.8146 15.6389 85.0316 -18.4922" stroke="#1E1E22" stroke-width="0.5"/>
<path d="M71.0199 83.5962C69.2456 73.235 68.8029 15.6389 71.0198 -18.4922" stroke="#1E1E22" stroke-width="0.5"/>
<path d="M98.5433 83.5962C96.769 73.235 96.3263 15.6389 98.5433 -18.4922" stroke="#1E1E22" stroke-width="0.5"/>
<path d="M81.5286 83.5958C79.7544 72.3711 79.3116 9.97531 81.5286 -27" stroke="#1E1E22" stroke-width="0.5"/>
<path d="M67.5159 83.5958C65.7417 72.3711 65.299 9.97531 67.5159 -27" stroke="#1E1E22" stroke-width="0.5"/>
<path d="M95.0404 83.5958C93.2661 72.3711 92.8234 9.97531 95.0403 -27" stroke="#1E1E22" stroke-width="0.5"/>
<path d="M61.0111 83.5958C59.2368 72.3711 58.7941 9.97531 61.011 -27" stroke="#1E1E22" stroke-width="0.5"/>
<path d="M88.5345 83.5958C86.7602 72.3711 86.3175 9.97531 88.5345 -27" stroke="#1E1E22" stroke-width="0.5"/>
<path d="M74.5228 83.5958C72.7485 72.3711 72.3058 9.97531 74.5228 -27" stroke="#1E1E22" stroke-width="0.5"/>
<path d="M102.046 83.5958C100.272 72.3711 99.8292 9.97531 102.046 -27" stroke="#1E1E22" stroke-width="0.5"/>
<path d="M79.5267 83.5962C77.7524 73.235 77.3097 15.6389 79.5267 -18.4922" stroke="#1E1E22" stroke-width="0.5"/>
<path d="M65.515 83.5962C63.7407 73.235 63.298 15.6389 65.515 -18.4922" stroke="#1E1E22" stroke-width="0.5"/>
<path d="M93.0384 83.5962C91.2642 73.235 90.8214 15.6389 93.0384 -18.4922" stroke="#1E1E22" stroke-width="0.5"/>
<path d="M59.5095 83.5962C57.1439 73.235 56.5535 15.6389 59.5095 -18.4922" stroke="#1E1E22" stroke-width="0.5"/>
<path d="M87.033 83.5962C84.6673 73.235 84.077 15.6389 87.033 -18.4922" stroke="#1E1E22" stroke-width="0.5"/>
<path d="M73.0213 83.5962C70.6556 73.235 70.0653 15.6389 73.0212 -18.4922" stroke="#1E1E22" stroke-width="0.5"/>
<path d="M100.545 83.5962C98.179 73.235 97.5887 15.6389 100.545 -18.4922" stroke="#1E1E22" stroke-width="0.5"/>
<path d="M83.5301 83.5958C81.1644 72.3711 80.5741 9.97531 83.53 -27" stroke="#1E1E22" stroke-width="0.5"/>
<path d="M69.5183 83.5958C67.1527 72.3711 66.5623 9.97531 69.5183 -27" stroke="#1E1E22" stroke-width="0.5"/>
<path d="M97.0418 83.5958C94.6761 72.3711 94.0858 9.97531 97.0417 -27" stroke="#1E1E22" stroke-width="0.5"/>
<path d="M63.0125 83.5958C60.6468 72.3711 60.0565 9.97531 63.0124 -27" stroke="#1E1E22" stroke-width="0.5"/>
<path d="M90.5359 83.5958C88.1702 72.3711 87.5799 9.97531 90.5359 -27" stroke="#1E1E22" stroke-width="0.5"/>
<path d="M76.5242 83.5958C74.1585 72.3711 73.5682 9.97531 76.5242 -27" stroke="#1E1E22" stroke-width="0.5"/>
<path d="M104.048 83.5958C101.682 72.3711 101.092 9.97531 104.048 -27" stroke="#1E1E22" stroke-width="0.5"/>
</g>
<path d="M96.1728 50.9802C93.8642 53.6733 91.2509 55.896 87.8032 58.4958L59.7605 34.0329C74.6308 27.432 83.4744 23.1937 90.6174 16.4757L103.053 39.8667C100.7 44.7998 98.5792 48.173 96.1728 50.9802Z" stroke="#1E1E22" stroke-width="3"/>
</svg>
