<svg width="106" height="62" viewBox="0 0 106 62" fill="none" xmlns="http://www.w3.org/2000/svg">
<path d="M90.2691 13.6207C87.9806 -1.41795 23.5768 -1.74493 17.3652 13.6207L23.5768 29.313C32.1857 32.3643 49.4691 38.5976 49.7306 39.1207C49.9922 39.6438 75.9934 34.1079 88.9614 31.2745L90.2691 13.6207Z" fill="white" stroke="#1E1E22" stroke-width="3"/>
<mask id="mask0" mask-type="alpha" maskUnits="userSpaceOnUse" x="16" y="1" width="77" height="41">
<path d="M90.9039 14.4019C88.6154 -0.6367 24.2115 -0.963683 18 14.4019L24.2115 30.0942C32.8205 33.1455 50.1038 39.3789 50.3654 39.9019C50.6269 40.425 76.6282 34.8891 89.5962 32.0558L90.9039 14.4019Z" fill="white" stroke="#757575" stroke-width="3"/>
</mask>
<g mask="url(#mask0)">
<path d="M19.5013 86.5962C17.727 76.235 17.2843 18.6389 19.5013 -15.4922" stroke="#1E1E22" stroke-width="0.5"/>
<path d="M74.5492 86.5962C72.7749 76.235 72.3322 18.6389 74.5491 -15.4922" stroke="#1E1E22" stroke-width="0.5"/>
<path d="M47.0257 86.5962C45.2515 76.235 44.8087 18.6389 47.0257 -15.4922" stroke="#1E1E22" stroke-width="0.5"/>
<path d="M33.013 86.5962C31.2388 76.235 30.796 18.6389 33.013 -15.4922" stroke="#1E1E22" stroke-width="0.5"/>
<path d="M88.0609 86.5962C86.2866 76.235 85.8439 18.6389 88.0608 -15.4922" stroke="#1E1E22" stroke-width="0.5"/>
<path d="M60.5374 86.5962C58.7632 76.235 58.3204 18.6389 60.5374 -15.4922" stroke="#1E1E22" stroke-width="0.5"/>
<path d="M26.5081 86.5962C24.7339 76.235 24.2911 18.6389 26.5081 -15.4922" stroke="#1E1E22" stroke-width="0.5"/>
<path d="M81.555 86.5962C79.7808 76.235 79.338 18.6389 81.555 -15.4922" stroke="#1E1E22" stroke-width="0.5"/>
<path d="M54.0316 86.5962C52.2573 76.235 51.8146 18.6389 54.0316 -15.4922" stroke="#1E1E22" stroke-width="0.5"/>
<path d="M40.0199 86.5962C38.2456 76.235 37.8029 18.6389 40.0198 -15.4922" stroke="#1E1E22" stroke-width="0.5"/>
<path d="M67.5433 86.5962C65.769 76.235 65.3263 18.6389 67.5433 -15.4922" stroke="#1E1E22" stroke-width="0.5"/>
<path d="M23.0042 86.5958C21.23 75.3711 20.7872 12.9753 23.0042 -24" stroke="#1E1E22" stroke-width="0.5"/>
<path d="M78.0521 86.5958C76.2778 75.3711 75.8351 12.9753 78.0521 -24" stroke="#1E1E22" stroke-width="0.5"/>
<path d="M50.5286 86.5958C48.7544 75.3711 48.3116 12.9753 50.5286 -24" stroke="#1E1E22" stroke-width="0.5"/>
<path d="M36.5159 86.5958C34.7417 75.3711 34.299 12.9753 36.5159 -24" stroke="#1E1E22" stroke-width="0.5"/>
<path d="M64.0404 86.5958C62.2661 75.3711 61.8234 12.9753 64.0403 -24" stroke="#1E1E22" stroke-width="0.5"/>
<path d="M30.0111 86.5958C28.2368 75.3711 27.7941 12.9753 30.011 -24" stroke="#1E1E22" stroke-width="0.5"/>
<path d="M85.0589 86.5958C83.2847 75.3711 82.8419 12.9753 85.0589 -24" stroke="#1E1E22" stroke-width="0.5"/>
<path d="M57.5345 86.5958C55.7602 75.3711 55.3175 12.9753 57.5345 -24" stroke="#1E1E22" stroke-width="0.5"/>
<path d="M43.5228 86.5958C41.7485 75.3711 41.3058 12.9753 43.5228 -24" stroke="#1E1E22" stroke-width="0.5"/>
<path d="M71.0462 86.5958C69.272 75.3711 68.8292 12.9753 71.0462 -24" stroke="#1E1E22" stroke-width="0.5"/>
<path d="M21.0033 86.5962C19.229 76.235 18.7863 18.6389 21.0032 -15.4922" stroke="#1E1E22" stroke-width="0.5"/>
<path d="M76.0511 86.5962C74.2768 76.235 73.8341 18.6389 76.0511 -15.4922" stroke="#1E1E22" stroke-width="0.5"/>
<path d="M48.5267 86.5962C46.7524 76.235 46.3097 18.6389 48.5267 -15.4922" stroke="#1E1E22" stroke-width="0.5"/>
<path d="M34.515 86.5962C32.7407 76.235 32.298 18.6389 34.515 -15.4922" stroke="#1E1E22" stroke-width="0.5"/>
<path d="M89.5628 86.5962C87.7886 76.235 87.3458 18.6389 89.5628 -15.4922" stroke="#1E1E22" stroke-width="0.5"/>
<path d="M62.0384 86.5962C60.2642 76.235 59.8214 18.6389 62.0384 -15.4922" stroke="#1E1E22" stroke-width="0.5"/>
<path d="M28.5095 86.5962C26.1439 76.235 25.5535 18.6389 28.5095 -15.4922" stroke="#1E1E22" stroke-width="0.5"/>
<path d="M83.5574 86.5962C81.1917 76.235 80.6014 18.6389 83.5574 -15.4922" stroke="#1E1E22" stroke-width="0.5"/>
<path d="M56.033 86.5962C53.6673 76.235 53.077 18.6389 56.033 -15.4922" stroke="#1E1E22" stroke-width="0.5"/>
<path d="M42.0213 86.5962C39.6556 76.235 39.0653 18.6389 42.0212 -15.4922" stroke="#1E1E22" stroke-width="0.5"/>
<path d="M69.5447 86.5962C67.179 76.235 66.5887 18.6389 69.5447 -15.4922" stroke="#1E1E22" stroke-width="0.5"/>
<path d="M25.0066 86.5958C22.6409 75.3711 22.0506 12.9753 25.0066 -24" stroke="#1E1E22" stroke-width="0.5"/>
<path d="M80.0545 86.5958C77.6888 75.3711 77.0985 12.9753 80.0544 -24" stroke="#1E1E22" stroke-width="0.5"/>
<path d="M52.5301 86.5958C50.1644 75.3711 49.5741 12.9753 52.53 -24" stroke="#1E1E22" stroke-width="0.5"/>
<path d="M38.5183 86.5958C36.1527 75.3711 35.5623 12.9753 38.5183 -24" stroke="#1E1E22" stroke-width="0.5"/>
<path d="M66.0418 86.5958C63.6761 75.3711 63.0858 12.9753 66.0417 -24" stroke="#1E1E22" stroke-width="0.5"/>
<path d="M32.0125 86.5958C29.6468 75.3711 29.0565 12.9753 32.0124 -24" stroke="#1E1E22" stroke-width="0.5"/>
<path d="M87.0603 86.5958C84.6947 75.3711 84.1043 12.9753 87.0603 -24" stroke="#1E1E22" stroke-width="0.5"/>
<path d="M59.5359 86.5958C57.1702 75.3711 56.5799 12.9753 59.5359 -24" stroke="#1E1E22" stroke-width="0.5"/>
<path d="M45.5242 86.5958C43.1585 75.3711 42.5682 12.9753 45.5242 -24" stroke="#1E1E22" stroke-width="0.5"/>
<path d="M73.0476 86.5958C70.682 75.3711 70.0916 12.9753 73.0476 -24" stroke="#1E1E22" stroke-width="0.5"/>
</g>
<path d="M24.7206 25.9084L18.9965 11.4474C19.694 10.1252 21.0061 8.84501 22.9656 7.65584C25.1659 6.32053 28.0568 5.17752 31.4499 4.25188C38.2327 2.40155 46.7963 1.48012 55.2847 1.50034C63.7771 1.52056 72.0843 2.48304 78.3614 4.33539C81.5047 5.26299 84.0589 6.39075 85.8643 7.67597C87.6036 8.91409 88.5124 10.1957 88.7596 11.474L87.5482 27.8288C81.0993 29.234 71.9791 31.1886 64.2797 32.7681C60.2053 33.604 56.538 34.3328 53.8772 34.8196C52.5436 35.0635 51.4806 35.2434 50.7511 35.3457C50.5206 35.3781 50.3362 35.4008 50.1943 35.4156C50.1915 35.4141 50.1886 35.4126 50.1858 35.4111C49.997 35.312 49.7567 35.2004 49.4892 35.0826C48.9472 34.844 48.195 34.5371 47.2941 34.1822C45.4872 33.4706 43.0211 32.5426 40.3036 31.5391C35.1297 29.6284 29.0129 27.4323 24.7206 25.9084Z" stroke="#1E1E22" stroke-width="3"/>
<path d="M87.0003 59.716L56.2695 32.9084C73.5802 25.25 82.7736 20.9555 90.2695 13.293L104 39.1199C98.9655 49.8811 94.9175 53.8387 87.0003 59.716Z" fill="white" stroke="#1E1E22" stroke-width="3"/>
<path d="M73.2689 47.9501C57.2651 54.7552 48.4071 53.9595 32.7305 45.6617V40.7578L49.4035 32.2578C53.575 32.6184 55.8627 32.9097 59.8651 33.5655L73.2689 47.9501Z" fill="white" stroke="#1E1E22" stroke-width="3"/>
<path d="M16.0577 57.4288L51.6923 32.2557C36.6539 27.0249 28.633 22.4771 17.3654 13.6211C10.5632 22.4003 7.30267 28.2284 2 39.448C5.77475 49.3058 8.90031 53.1844 16.0577 57.4288Z" fill="white" stroke="#1E1E22" stroke-width="3"/>
<path d="M16.0577 57.4288L51.6923 32.2557C36.6539 27.0249 28.633 22.4771 17.3654 13.6211C10.5632 22.4003 7.30267 28.2284 2 39.448C5.77475 49.3058 8.90031 53.1844 16.0577 57.4288Z" stroke="#1E1E22" stroke-width="3"/>
<path d="M96.1728 50.9802C93.8642 53.6733 91.2509 55.896 87.8032 58.4958L59.7605 34.0329C74.6308 27.432 83.4744 23.1937 90.6174 16.4757L103.053 39.8667C100.7 44.7998 98.5792 48.173 96.1728 50.9802Z" stroke="#1E1E22" stroke-width="3"/>
</svg>
