<svg width="102" height="64" viewBox="0 0 102 64" fill="none" xmlns="http://www.w3.org/2000/svg">
<path d="M87.1864 10.9186C79.7221 -1.44359 24.5509 -0.492672 15.4639 10.9186C17.7356 18.3147 22.344 33.2337 22.6037 33.7408C22.8633 34.248 64.6852 33.3182 85.5637 32.7899L87.1864 10.9186Z" fill="white" stroke="black" stroke-width="3"/>
<path d="M68.0388 46.1027C54.7735 52.2701 46.7834 51.4842 32.0153 46.1027L31.3662 35.3255L46.944 30.2539C50.5394 31.5625 52.3591 31.4418 55.3819 30.2539L72.2578 33.1067L68.0388 46.1027Z" fill="white" stroke="black" stroke-width="3"/>
<path d="M18.7089 60.9995C6.32803 52.0555 1.88641 45.6053 1.83301 35.0075L15.4635 11.2344C18.949 16.684 26.3433 20.9656 48.2417 30.5699L18.7089 60.9995Z" fill="white" stroke="black" stroke-width="3"/>
<path d="M83.6166 60.9989C94.9754 49.2708 98.8698 44.8332 100.168 35.0069L87.1865 11.5508C83.7011 17.0004 75.8277 22.011 53.7593 30.5693L83.6166 60.9989Z" fill="white" stroke="black" stroke-width="3"/>
<ellipse cx="51.1624" cy="41.033" rx="3.24536" ry="3.16975" fill="black"/>
<path d="M35.585 24.5203C48.1049 22.415 55.2071 22.3633 68.0386 24.5203" stroke="black" stroke-width="3"/>
</svg>
