<svg width="80" height="80" viewBox="0 0 80 80" fill="none" xmlns="http://www.w3.org/2000/svg">
<path d="M47.7031 28.3196H53.0402" stroke="#757575"/>
<circle cx="47.3205" cy="28.3195" r="1.78731" fill="white" stroke="#757575"/>
<path d="M47.7031 44.3107H53.0402" stroke="#757575"/>
<circle cx="47.3205" cy="44.3107" r="1.78731" fill="white" stroke="#757575"/>
<path d="M19.6143 62.5242C19.4702 50.7536 19.4615 44.3198 19.6143 33.2076" stroke="#757575"/>
<path d="M63.8965 62.5242C64.0406 50.7536 64.0492 44.3198 63.8965 33.2076" stroke="#757575"/>
<path d="M4.0332 24.1875C4.30626 38.941 4.29281 46.8971 4.0332 60.6795C10.8917 64.8071 17.5555 65.0871 30.2746 64.9847C34.0098 60.7226 35.5434 58.5605 39.5 54.0005" stroke="#757575"/>
<path d="M38.2715 14.9619V53.094L48.317 64.9846C67.7693 64.6007 72.1276 62.8978 75.3785 58.8343C76.3203 45.6125 76.7924 38.179 76.8136 24.5974" stroke="#757575"/>
</svg>
