<svg width="80" height="80" viewBox="0 0 80 80" fill="none" xmlns="http://www.w3.org/2000/svg">
<path d="M41.2275 68.8013H46.2027" stroke="#757575"/>
<circle cx="40.8725" cy="68.8015" r="1.63223" fill="#757575" stroke="#757575"/>
<path d="M19.1934 7.85541C31.1127 12.6147 37.7662 11.9108 49.5776 7.85541" stroke="#757575"/>
<path d="M36.0742 58.318C46.8374 47.4271 49.6721 37.802 50.1114 15.3181L55.2642 19.5826L61.8386 17.2727C60.4816 28.0174 55.094 36.8618 36.0742 58.318Z" stroke="#757575"/>
<path d="M35.3633 58.318C24.6001 47.4271 20.344 37.802 19.9046 15.3181L14.7518 19.5826L8.17741 17.2727C9.5344 28.0174 16.3435 36.8618 35.3633 58.318Z" stroke="#757575"/>
<path d="M50.1123 15.3182L50.1735 15.375M50.1735 15.375L55.0875 19.938L59.5296 18.1611C58.8179 14.4445 58.1957 12.4408 56.509 9.09917L50.1123 7.5L50.1735 15.375Z" stroke="#757575"/>
<path d="M19.9043 15.3182L19.8431 15.375M19.8431 15.375L14.9291 19.938L10.487 18.1611C11.1987 14.4445 11.8209 12.4408 13.5076 9.09917L19.9043 7.5L19.8431 15.375Z" stroke="#757575"/>
<path d="M36.0755 58.318L33.7656 60.6279V71.9998" stroke="#757575"/>
<path d="M57.042 9.27676L69.3023 12.1197C64.1317 32.5337 62.9566 42.0193 71.6122 46.7684C69.2886 56.0512 68.7812 61.5045 68.0585 71.289" stroke="#757575"/>
</svg>
