<svg width="80" height="80" viewBox="0 0 80 80" fill="none" xmlns="http://www.w3.org/2000/svg">
<path d="M30.6954 7.89844C30.3907 21.3531 32.4827 28.1764 41.6147 38.671L41.1184 66.2174C37.3959 71.9252 25.7321 74.1587 21.0169 69.4436C21.0886 54.5948 20.6308 46.6065 18.2871 33.4595C25.0375 27.0155 25.0827 21.2416 20.7688 8.39477C24.9021 8.70474 27.1187 8.68753 30.6954 7.89844Z" fill="white" stroke="#757575"/>
<path d="M48.3148 7.65039C48.8661 20.7226 48.5775 27.8671 39.3809 37.9266V67.2102C42.607 72.918 52.5337 72.918 58.986 68.451C58.9813 54.6058 59.3081 46.8654 62.2121 33.2115C56.8245 28.9017 55.5794 24.1965 58.986 8.39489C54.5899 8.67834 52.2843 8.47984 48.3148 7.65039Z" fill="white" stroke="#757575"/>
<path d="M30.1992 8.14648C37.1507 9.8003 41.304 10.0032 49.5562 8.14648" stroke="#757575"/>
<path d="M44.8418 52.8164H48.3161" stroke="#757575"/>
<circle cx="44.5925" cy="52.8167" r="0.988996" fill="#757575" stroke="#757575"/>
<path d="M44.8418 63.7359H48.3161" stroke="#757575"/>
<circle cx="44.5925" cy="63.7361" r="0.988996" fill="#757575" stroke="#757575"/>
<path d="M44.8418 47.357H48.3161" stroke="#757575"/>
<circle cx="44.5925" cy="47.3572" r="0.988996" fill="#757575" stroke="#757575"/>
<path d="M44.8418 58.2764H48.3161" stroke="#757575"/>
<circle cx="44.5925" cy="58.2761" r="0.988996" fill="#757575" stroke="#757575"/>
<path d="M44.8418 41.8975H48.3161" stroke="#757575"/>
<circle cx="44.5925" cy="41.8972" r="0.988996" fill="#757575" stroke="#757575"/>
</svg>
