<svg width="80" height="80" viewBox="0 0 80 80" fill="none" xmlns="http://www.w3.org/2000/svg">
<path d="M30.8444 8.89471C30.5444 22.1403 32.6039 28.8576 41.594 39.1891L41.1054 66.3074C37.4407 71.9265 25.9582 74.1253 21.3163 69.4834C21.3869 54.8654 20.9362 47.0012 18.6289 34.0586C25.2744 27.7147 25.3189 22.0305 21.072 9.38333C25.1411 9.68848 27.3233 9.67154 30.8444 8.89471Z" fill="white" stroke="#1E1E22"/>
<path d="M48.1906 8.65039C48.7333 21.5195 48.4493 28.5529 39.3955 38.4561V67.2846C42.5715 72.9037 52.3439 72.9037 58.6959 68.5062C58.6914 54.8761 59.0131 47.256 61.872 33.8142C56.5681 29.5714 55.3423 24.9394 58.6959 9.38332C54.3682 9.66236 52.0985 9.46695 48.1906 8.65039Z" fill="white" stroke="#1E1E22"/>
<path d="M29.623 54.5805V70.7049" stroke="#1E1E22"/>
<path d="M53.8096 54.5805V70.7049" stroke="#1E1E22"/>
<path d="M30.3555 9.13901C37.199 10.7671 41.2877 10.9668 49.4116 9.13901" stroke="#1E1E22"/>
<path d="M44.7705 61.177H48.1908" stroke="#1E1E22"/>
<circle cx="44.5254" cy="61.1769" r="0.965856" fill="white" stroke="#1E1E22"/>
<path d="M44.7705 52.8706H48.1908" stroke="#1E1E22"/>
<circle cx="44.5254" cy="52.8704" r="0.965856" fill="white" stroke="#1E1E22"/>
<path d="M44.7705 44.5637H48.1908" stroke="#1E1E22"/>
<circle cx="44.5254" cy="44.5638" r="0.965856" fill="white" stroke="#1E1E22"/>
<rect x="47.9346" y="33.3142" width="8.32928" height="2.95447" stroke="#1E1E22"/>
</svg>
