<svg width="20" height="20" viewBox="0 0 20 20" fill="none" xmlns="http://www.w3.org/2000/svg">
<path fill-rule="evenodd" clip-rule="evenodd" d="M9.99975 1.50781C8.02971 1.51008 6.14101 2.29372 4.74802 3.68679C3.35502 5.07986 2.5715 6.9686 2.56934 8.93865C2.56934 15.6069 8.94017 18.2314 9.21159 18.3397C9.7176 18.5425 10.2823 18.5425 10.7883 18.3397C11.0597 18.2314 17.4302 15.6069 17.4302 8.93865C17.4281 6.96858 16.6446 5.0798 15.2516 3.68671C13.8586 2.29362 11.9698 1.51001 9.99975 1.50781ZM9.99975 16.3686C9.99975 16.3686 4.69219 14.2462 4.69219 8.93865C4.69219 7.53098 5.25138 6.18097 6.24675 5.18559C7.24212 4.19022 8.59214 3.63103 9.9998 3.63103C11.4075 3.63103 12.7575 4.19022 13.7529 5.18559C14.7482 6.18097 15.3074 7.53098 15.3074 8.93865C15.3074 14.2463 9.99975 16.3687 9.99975 16.3687V16.3686ZM9.99975 5.75342C9.36997 5.75342 8.75433 5.94016 8.23067 6.29003C7.70702 6.63991 7.29887 7.1372 7.05782 7.71902C6.81678 8.30085 6.75367 8.94109 6.87647 9.55878C6.99928 10.1765 7.30248 10.7439 7.74775 11.1893C8.19302 11.6346 8.76035 11.938 9.37801 12.061C9.99567 12.1839 10.6359 12.121 11.2178 11.8801C11.7997 11.6392 12.2971 11.2311 12.6471 10.7076C12.9971 10.184 13.184 9.56842 13.1842 8.93864C13.1833 8.09428 12.8475 7.28475 12.2505 6.68762C11.6536 6.09049 10.8441 5.75453 9.99975 5.75342ZM9.99975 9.99984C9.78975 9.99985 9.58447 9.93758 9.40986 9.82091C9.23525 9.70424 9.09916 9.53841 9.01881 9.34439C8.93846 9.15037 8.91746 8.93687 8.95846 8.73091C8.99945 8.52495 9.10061 8.33578 9.24913 8.18731C9.39765 8.03885 9.58686 7.93777 9.79284 7.89685C9.99881 7.85594 10.2123 7.87702 10.4063 7.95745C10.6003 8.03787 10.7661 8.17402 10.8827 8.34867C10.9993 8.52333 11.0615 8.72864 11.0614 8.93864C11.0612 9.22011 10.9493 9.49001 10.7502 9.68901C10.5512 9.888 10.2812 9.9998 9.99975 9.99984Z" fill="#757575"/>
</svg>
